                                                                        S      1
,,13HEye Iris (x2),13HEye Iris (x2),7Hunknown,7Hunknown,32,38,7,99,15,, G      1
1.,2,2HMM,1,0.08,15H20170708.093434,0.01,10000.,7Hunknown,7Hunknown,11, G      2
0,;                                                                     G      3
     186       1                                                00000000D      1
     186             -87       1       0                               0D      2
     514       2                                                00010000D      3
     514                       1       1                               0D      4
     510       3                                                00010000D      5
     510             -87       1       1                               0D      6
     510       4                                                00010000D      7
     510             -87       1       1                               0D      8
     510       5                                                00010000D      9
     510             -87       1       1                               0D     10
     510       6                                                00010000D     11
     510             -87       1       1                               0D     12
     510       7                                                00010000D     13
     510             -87       1       1                               0D     14
     510       8                                                00010000D     15
     510             -87       1       1                               0D     16
     510       9                                                00010000D     17
     510             -87       1       1                               0D     18
     508      10                                                00010000D     19
     508                       1       1                               0D     20
     508      11                                                00010000D     21
     508                       1       1                               0D     22
     508      12                                                00010000D     23
     508                       1       1                               0D     24
     508      13                                                00010000D     25
     508                       1       1                               0D     26
     508      14                                                00010000D     27
     508                       1       1                               0D     28
     508      15                                                00010000D     29
     508                       1       1                               0D     30
     508      16                                                00010000D     31
     508                       1       1                               0D     32
     508      17                                                00010000D     33
     508                       1       1                               0D     34
     508      18                                                00010000D     35
     508                       1       1                               0D     36
     126      19                                                00010000D     37
     126       0               5       0                               0D     38
     126      24                                                00010000D     39
     126       0               7       0                               0D     40
     126      31                                                00010000D     41
     126       0               5       0                               0D     42
     126      36                                                00010000D     43
     126       0               7       0                               0D     44
     126      43                                                00010000D     45
     126       0              16       0                               0D     46
     126      59                                                00010000D     47
     126       0               5       0                               0D     48
     126      64                                                00010000D     49
     126       0               7       0                               0D     50
     126      71                                                00010000D     51
     126       0               5       0                               0D     52
     126      76                                                00010000D     53
     126       0               5       0                               0D     54
     126      81                                                00010000D     55
     126       0               5       0                               0D     56
     126      86                                                00010000D     57
     126       0               5       0                               0D     58
     126      91                                                00010000D     59
     126       0              16       0                               0D     60
     126     107                                                00010000D     61
     126       0               5       0                               0D     62
     126     112                                                00010000D     63
     126       0               7       0                               0D     64
     126     119                                                00010000D     65
     126       0               5       0                               0D     66
     128     124                                                00010000D     67
     128       0     -87       8       0                               0D     68
     128     132                                                00010000D     69
     128       0     -87      12       0                               0D     70
     128     144                                                00010000D     71
     128       0     -87       9       0                               0D     72
     128     153                                                00010000D     73
     128       0     -87      27       0                               0D     74
     128     180                                                00010000D     75
     128       0     -87      12       0                               0D     76
     128     192                                                00010000D     77
     128       0     -87       9       0                               0D     78
     128     201                                                00010000D     79
     128       0     -87       9       0                               0D     80
     502     210                                                00010000D     81
     502                      10       1                               0D     82
     504     220                                                00010001D     83
     504                       4       1                               0D     84
     406     224                                                00000000D     85
     406                       1      15                               0D     86
     314     225                                                00000200D     87
     314                       2       0                               0D     88
186,3,1,0,0,1,85;                                                      1P      1
514,7,5,1,7,1,9,1,11,1,13,1,15,1,17,1;                                 3P      2
510,67,2,1,19,21;                                                      5P      3
510,69,1,1,23;                                                         7P      4
510,71,1,1,25;                                                         9P      5
510,73,1,1,27;                                                        11P      6
510,75,1,1,29;                                                        13P      7
510,77,1,1,31;                                                        15P      8
510,79,2,1,33,35;                                                     17P      9
508,4,0,83,1,0,0,0,83,2,0,0,0,83,3,0,0,0,83,4,0,0;                    19P     10
508,1,0,83,5,0,0;                                                     21P     11
508,4,0,83,2,1,0,0,83,6,1,0,0,83,7,1,0,0,83,8,1,0;                    23P     12
508,4,0,83,1,1,0,0,83,9,0,0,0,83,10,0,0,0,83,6,0,0;                   25P     13
508,4,0,83,5,1,0,0,83,11,1,0,0,83,12,0,0,0,83,11,0,0;                 27P     14
508,4,0,83,4,1,0,0,83,13,1,0,0,83,14,1,0,0,83,9,1,0;                  29P     15
508,4,0,83,3,1,0,0,83,8,0,0,0,83,15,0,0,0,83,13,0,0;                  31P     16
508,4,0,83,10,1,0,0,83,14,0,0,0,83,15,1,0,0,83,7,0,0;                 33P     17
508,1,0,83,12,1,0;                                                    35P     18
126,1,1,0,0,1,0,0.612358387272104,0.612358387272104,                  37P     19
3.02002842280439,3.02002842280439,1.,1.,-33.7733566303593,            37P     20
47.736066575828,-34.8032889611738,-41.7807674567918,                  37P     21
47.736066575828,-12.0971472401166,0.612358387272104,                  37P     22
3.02002842280439,0.,0.,0.;                                            37P     23
126,2,2,0,0,0,0,2.57591414727475,2.57591414727475,                    39P     24
2.57591414727475,3.70620423213631,3.70620423213631,                   39P     25
3.70620423213631,1.,0.844510933528257,1.,-46.0522604516646,           39P     26
39.7669454082716,-39.1248593937277,-38.305404356183,                  39P     27
43.750158051411,-41.5287156181186,-33.7733566303593,                  39P     28
47.736066575828,-34.8032889611738,2.57591414727475,                   39P     29
3.70620423213631,0.,0.,0.;                                            39P     30
126,1,1,0,0,1,0,-0.575448053682618,-0.575448053682618,                41P     31
1.83059354694412,1.83059354694412,1.,1.,-54.0542554415828,            41P     32
39.7669454082716,-16.4340750402512,-46.0522604516646,                 41P     33
39.7669454082716,-39.1248593937277,-0.575448053682618,                41P     34
1.83059354694412,0.,0.,0.;                                            41P     35
126,2,2,0,0,0,0,-0.56461157854652,-0.56461157854652,                  43P     36
-0.56461157854652,0.56567850631504,0.56567850631504,                  43P     37
0.56567850631504,1.,0.844510933528259,1.,-41.7807674567918,           43P     38
47.736066575828,-12.0971472401166,-49.5290685595396,                  43P     39
43.750158051411,-9.70243424515328,-54.0542554415828,                  43P     40
39.7669454082716,-16.4340750402512,-0.56461157854652,                 43P     41
0.56567850631504,0.,0.,0.;                                            43P     42
126,8,2,0,1,0,0,-3.14159265358979,-3.14159265358979,                  45P     43
-3.14159265358979,-1.5707963267949,-1.5707963267949,                  45P     44
-8.88178419700125D-16,-8.88178419700125D-16,1.5707963267949,          45P     45
1.5707963267949,3.14159265358979,3.14159265358979,                    45P     46
3.14159265358979,1.,0.707106781186552,1.,0.707106781186546,1.,        45P     47
0.707106781186545,1.,0.707106781186544,1.,-42.060024332644,           45P     48
43.7548579628758,-30.8588781185278,-46.5340502032044,                 45P     49
40.8505336468696,-32.4366610652642,-48.3840222535557,                 45P     50
40.8505336468696,-27.1908046372899,-50.233994303907,                  45P     51
40.8505336468696,-21.9449482093157,-45.7599684333467,                 45P     52
43.7548579628758,-20.3671652625793,-41.2859425627863,                 45P     53
46.6591822788819,-18.7893823158428,-39.435970512435,                  45P     54
46.6591822788819,-24.0352387438171,-37.5859984620837,                 45P     55
46.6591822788819,-29.2810951717914,-42.060024332644,                  45P     56
43.7548579628758,-30.8588781185278,-3.14159265358979,                 45P     57
3.14159265358979,0.,0.,0.;                                            45P     58
126,1,1,0,0,1,0,-0.250000000000001,-0.250000000000001,                47P     59
8.32667268468867D-16,8.32667268468867D-16,1.,1.,                      47P     60
-33.7733566303593,47.736066575828,-34.8032889611738,                  47P     61
-32.5423469390946,45.6038952459466,-34.3691685170062,                 47P     62
-0.250000000000001,8.32667268468867D-16,0.,0.,0.;                     47P     63
126,2,2,0,0,0,0,2.57698107504327,2.57698107504327,                    49P     64
2.57698107504327,3.70727115990483,3.70727115990483,                   49P     65
3.70727115990483,1.,0.844510933528258,1.,-32.5423469390946,           49P     66
45.6038952459466,-34.3691685170063,-37.0743946649184,                 49P     67
41.6179867215296,-41.0945951739511,-44.8212507603999,                 49P     68
37.6347740783902,-38.6907389495601,2.57698107504327,                  49P     69
3.70727115990483,0.,0.,0.;                                            49P     70
126,1,1,0,0,1,0,8.16092209349992D-16,8.16092209349992D-16,            51P     71
0.250000000000002,0.250000000000002,1.,1.,-44.8212507603999,          51P     72
37.6347740783902,-38.6907389495601,-46.0522604516646,                 51P     73
39.7669454082716,-39.1248593937277,8.16092209349992D-16,              51P     74
0.250000000000002,0.,0.,0.;                                           51P     75
126,1,1,0,0,1,0,-1.0406113577867D-15,-1.0406113577867D-15,            53P     76
0.250000000000001,0.250000000000001,1.,1.,-40.5497577655271,          53P     77
45.6038952459466,-11.6630267959491,-41.7807674567918,                 53P     78
47.736066575828,-12.0971472401166,-1.0406113577867D-15,               53P     79
0.250000000000001,0.,0.,0.;                                           53P     80
126,1,1,0,0,1,0,0.612358387272105,0.612358387272105,                  55P     81
3.02002842280439,3.02002842280439,1.,1.,-32.5423469390946,            55P     82
45.6038952459466,-34.3691685170063,-40.5497577655271,                 55P     83
45.6038952459466,-11.6630267959491,0.612358387272105,                 55P     84
3.02002842280439,0.,0.,0.;                                            55P     85
126,1,1,0,0,1,0,0.0898876404494376,0.0898876404494376,                57P     86
0.53932584269663,0.53932584269663,1.,1.,-42.060024332644,             57P     87
43.7548579628758,-30.8588781185278,-40.8290146413794,                 57P     88
41.6226866329944,-30.4247576743603,0.0898876404494376,                57P     89
0.53932584269663,0.,0.,0.;                                            57P     90
126,8,2,0,1,0,0,-3.14159265358979,-3.14159265358979,                  59P     91
-3.14159265358979,-1.5707963267949,-1.5707963267949,                  59P     92
4.44089209850063D-16,4.44089209850063D-16,1.5707963267949,            59P     93
1.5707963267949,3.14159265358979,3.14159265358979,                    59P     94
3.14159265358979,1.,0.707106781186548,1.,0.707106781186547,1.,        59P     95
0.707106781186547,1.,0.707106781186548,1.,-40.8290146413794,          59P     96
41.6226866329944,-30.4247576743603,-45.3030405119397,                 59P     97
38.7183623169882,-32.0025406210967,-47.153012562291,                  59P     98
38.7183623169882,-26.7566841931224,-49.0029846126424,                 59P     99
38.7183623169882,-21.5108277651481,-44.528958742082,                  59P    100
41.6226866329944,-19.9330448184117,-40.0549328715216,                 59P    101
44.5270109490005,-18.3552618716753,-38.2049608211703,                 59P    102
44.5270109490005,-23.6011182996496,-36.354988770819,                  59P    103
44.5270109490005,-28.8469747276239,-40.8290146413794,                 59P    104
41.6226866329944,-30.4247576743603,-3.14159265358979,                 59P    105
3.14159265358979,0.,0.,0.;                                            59P    106
126,1,1,0,0,1,0,-0.250000000000003,-0.250000000000003,                61P    107
-1.60982338570648D-15,-1.60982338570648D-15,1.,1.,                    61P    108
-54.0542554415828,39.7669454082716,-16.4340750402512,                 61P    109
-52.8232457503181,37.6347740783902,-15.9999545960837,                 61P    110
-0.250000000000003,-1.60982338570648D-15,0.,0.,0.;                    61P    111
126,2,2,0,0,0,0,-0.56567850631504,-0.56567850631504,                  63P    112
-0.56567850631504,0.564611578546521,0.564611578546521,                63P    113
0.564611578546521,1.,0.844510933528258,1.,-52.8232457503181,          63P    114
37.6347740783902,-15.9999545960837,-48.2980588682749,                 63P    115
41.6179867215296,-9.26831380098576,-40.5497577655271,                 63P    116
45.6038952459466,-11.6630267959491,-0.56567850631504,                 63P    117
0.564611578546521,0.,0.,0.;                                           63P    118
126,1,1,0,0,1,0,-0.575448053682617,-0.575448053682617,                65P    119
1.83059354694412,1.83059354694412,1.,1.,-52.8232457503182,            65P    120
37.6347740783902,-15.9999545960837,-44.8212507603999,                 65P    121
37.6347740783902,-38.6907389495601,-0.575448053682617,                65P    122
1.83059354694412,0.,0.,0.;                                            65P    123
128,1,1,1,1,0,0,1,0,0,-1.6883669015517,-1.6883669015517,              67P    124
1.6883669015517,1.6883669015517,-0.764783970775361,                   67P    125
-0.764783970775361,0.7635,0.7635,1.,1.,1.,1.,-44.4461432450716,       67P    126
39.7617241510743,-43.7048751203255,-55.6764590333283,                 67P    127
39.7617241510743,-11.8597322411023,-32.1538609568709,                 67P    128
47.7412878330254,-39.3699530765323,-43.3841767451276,                 67P    129
47.7412878330254,-7.52481019730911,-1.6883669015517,                  67P    130
1.6883669015517,-0.764783970775361,0.7635;                            67P    131
128,1,2,1,2,0,0,0,0,0,-1.09074542770191D-15,                          69P    132
-1.09074542770191D-15,0.175438596491229,0.175438596491229,            69P    133
2.57698107504327,2.57698107504327,2.57698107504327,                   69P    134
3.70727115990483,3.70727115990483,3.70727115990483,1.,1.,             69P    135
0.844510933528258,0.844510933528258,1.,1.,-33.7733566303593,          69P    136
47.7360665758281,-34.8032889611738,-32.5423469390946,                 69P    137
45.6038952459466,-34.3691685170063,-38.305404356183,                  69P    138
43.750158051411,-41.5287156181186,-37.0743946649184,                  69P    139
41.6179867215296,-41.0945951739511,-46.0522604516646,                 69P    140
39.7669454082716,-39.1248593937277,-44.8212507603999,                 69P    141
37.6347740783901,-38.6907389495601,-1.09074542770191D-15,             69P    142
0.175438596491229,2.57698107504327,3.70727115990483;                  69P    143
128,1,1,1,1,0,0,1,0,0,2.42755179231035,2.42755179231035,              71P    144
4.83722182784263,4.83722182784263,-0.301000000000002,                 71P    145
-0.301000000000002,-0.0489999999999998,-0.0489999999999998,1.,        71P    146
1.,1.,1.,-40.5481595192121,45.5953665606271,-11.6518595610435,        71P    147
-32.5340971078795,45.5953665606271,-34.3768627883585,                 71P    148
-41.7890172880069,47.7445952611476,-12.0894529687643,                 71P    149
-33.7749548766743,47.7445952611476,-34.8144561960794,                 71P    150
2.42755179231035,4.83722182784263,-0.301000000000002,                 71P    151
-0.0489999999999998;                                                  71P    152
128,1,8,1,2,0,1,0,0,1,0.0898876404494376,0.0898876404494376,          73P    153
0.53932584269663,0.53932584269663,-3.14159265358979,                  73P    154
-3.14159265358979,-3.14159265358979,-1.5707963267949,                 73P    155
-1.5707963267949,0.,0.,1.5707963267949,1.5707963267949,               73P    156
3.14159265358979,3.14159265358979,3.14159265358979,1.,1.,             73P    157
0.707106781186548,0.707106781186548,1.,1.,0.707106781186548,          73P    158
0.707106781186548,1.,1.,0.707106781186548,0.707106781186548,1.,       73P    159
1.,0.707106781186548,0.707106781186548,1.,1.,-42.060024332644,        73P    160
43.7548579628758,-30.8588781185278,-40.8290146413794,                 73P    161
41.6226866329944,-30.4247576743603,-37.5859984620837,                 73P    162
46.6591822788819,-29.2810951717914,-36.354988770819,                  73P    163
44.5270109490005,-28.8469747276239,-39.435970512435,                  73P    164
46.6591822788819,-24.0352387438171,-38.2049608211703,                 73P    165
44.5270109490005,-23.6011182996496,-41.2859425627863,                 73P    166
46.6591822788819,-18.7893823158429,-40.0549328715217,                 73P    167
44.5270109490005,-18.3552618716753,-45.7599684333467,                 73P    168
43.7548579628758,-20.3671652625792,-44.528958742082,                  73P    169
41.6226866329944,-19.9330448184117,-50.233994303907,                  73P    170
40.8505336468696,-21.9449482093157,-49.0029846126423,                 73P    171
38.7183623169882,-21.5108277651481,-48.3840222535557,                 73P    172
40.8505336468696,-27.1908046372899,-47.153012562291,                  73P    173
38.7183623169882,-26.7566841931224,-46.5340502032044,                 73P    174
40.8505336468696,-32.4366610652642,-45.3030405119397,                 73P    175
38.7183623169882,-32.0025406210967,-42.060024332644,                  73P    176
43.7548579628758,-30.8588781185278,-40.8290146413794,                 73P    177
41.6226866329944,-30.4247576743603,0.0898876404494376,                73P    178
0.53932584269663,-3.14159265358979,3.14159265358979;                  73P    179
128,1,2,1,2,0,0,0,0,0,-8.18059070776431D-16,                          75P    180
-8.18059070776431D-16,0.17543859649123,0.17543859649123,              75P    181
-0.565678506315041,-0.565678506315041,-0.565678506315041,             75P    182
0.564611578546521,0.564611578546521,0.564611578546521,1.,1.,          75P    183
0.844510933528258,0.844510933528258,1.,1.,-54.0542554415828,          75P    184
39.7669454082716,-16.4340750402512,-52.8232457503181,                 75P    185
37.6347740783901,-15.9999545960837,-49.5290685595396,                 75P    186
43.750158051411,-9.70243424515328,-48.2980588682749,                  75P    187
41.6179867215296,-9.26831380098575,-41.7807674567918,                 75P    188
47.7360665758281,-12.0971472401166,-40.5497577655271,                 75P    189
45.6038952459466,-11.6630267959491,-8.18059070776431D-16,             75P    190
0.17543859649123,-0.565678506315041,0.564611578546521;                75P    191
128,1,1,1,1,0,0,1,0,0,0.0511246929481342,0.0511246929481342,          77P    192
2.45916629357487,2.45916629357487,-0.301000000000002,                 77P    193
-0.301000000000002,-0.0489999999999998,-0.0489999999999998,1.,        77P    194
1.,1.,1.,-44.8130009291848,37.6262453930706,-38.6984332209124,        77P    195
-52.8216475040032,37.6262453930706,-15.9887873611781,                 77P    196
-46.0538586979796,39.7754740935911,-39.1360266286333,                 77P    197
-54.0625052727979,39.7754740935911,-16.4263807688989,                 77P    198
0.0511246929481342,2.45916629357487,-0.301000000000002,               77P    199
-0.0489999999999998;                                                  77P    200
128,1,1,1,1,0,0,1,0,0,-1.6883669015517,-1.6883669015517,              79P    201
1.6883669015517,1.6883669015517,-0.764783970775363,                   79P    202
-0.764783970775363,0.763500000000001,0.763500000000001,1.,1.,1.,      79P    203
1.,-54.4454493420637,37.6295528211928,-11.4256117969348,              79P    204
-43.215133553807,37.6295528211928,-43.270754676158,                   79P    205
-42.1531670538629,45.6091165031439,-7.09068975314158,                 79P    206
-30.9228512656062,45.6091165031439,-38.9358326323648,                 79P    207
-1.6883669015517,1.6883669015517,-0.764783970775363,                  79P    208
0.763500000000001;                                                    79P    209
502,10,-33.7733566303593,47.736066575828,-34.8032889611738,           81P    210
-41.7807674567918,47.736066575828,-12.0971472401166,                  81P    211
-46.0522604516646,39.7669454082716,-39.1248593937277,                 81P    212
-54.0542554415828,39.7669454082716,-16.4340750402512,                 81P    213
-42.060024332644,43.7548579628758,-30.8588781185278,                  81P    214
-32.5423469390946,45.6038952459466,-34.3691685170063,                 81P    215
-44.8212507603999,37.6347740783902,-38.6907389495601,                 81P    216
-40.5497577655271,45.6038952459466,-11.6630267959491,                 81P    217
-40.8290146413794,41.6226866329944,-30.4247576743603,                 81P    218
-52.8232457503181,37.6347740783902,-15.9999545960837;                 81P    219
504,15,37,81,1,81,2,39,81,3,81,1,41,81,4,81,3,43,81,2,81,4,45,        83P    220
81,5,81,5,47,81,1,81,6,49,81,6,81,7,51,81,7,81,3,53,81,8,81,2,        83P    221
55,81,6,81,8,57,81,5,81,9,59,81,9,81,9,61,81,4,81,10,63,81,10,        83P    222
81,8,65,81,10,81,7;                                                   83P    223
406,1,5HBody1;                                                        85P    224
314,62.7450980392157,62.7450980392157,62.7450980392157,13HSteel       87P    225
- Satin;                                                              87P    226
S      1G      3D     88P    226                                        T      1
