G75*
%MOIN*%
%OFA0B0*%
%FSLAX25Y25*%
%IPPOS*%
%LPD*%
%AMOC8*
5,1,8,0,0,1.08239X$1,22.5*
%
%ADD10C,0.00000*%
%ADD11C,0.00394*%
%ADD12R,0.02100X0.04134*%
%ADD13R,0.12000X0.08000*%
%ADD14R,0.03937X0.11024*%
%ADD15R,0.04724X0.02165*%
%ADD16R,0.01575X0.02362*%
%ADD17R,0.01575X0.01969*%
%ADD18C,0.00984*%
%ADD19R,0.01083X0.00984*%
%ADD20R,0.00197X0.00984*%
%ADD21R,0.06299X0.05906*%
%ADD22R,0.05906X0.12598*%
%ADD23R,0.14173X0.04724*%
%ADD24C,0.05000*%
%ADD25C,0.00866*%
%ADD26R,0.03150X0.07874*%
%ADD27R,0.05315X0.01575*%
%ADD28R,0.05512X0.06299*%
%ADD29C,0.00039*%
%ADD30R,0.07480X0.07480*%
%ADD31C,0.03543*%
%ADD32R,0.01969X0.02362*%
%ADD33R,0.02362X0.01969*%
%ADD34R,0.04331X0.04921*%
%ADD35R,0.03543X0.02362*%
%ADD36R,0.02756X0.05118*%
%ADD37R,0.01969X0.01457*%
%ADD38R,0.05118X0.02756*%
%ADD39R,0.03150X0.03543*%
%ADD40R,0.05118X0.06102*%
%ADD41C,0.00197*%
%ADD42R,0.04331X0.05118*%
D10*
X0088126Y0065370D02*
X0088128Y0065507D01*
X0088134Y0065645D01*
X0088144Y0065782D01*
X0088158Y0065918D01*
X0088176Y0066055D01*
X0088198Y0066190D01*
X0088224Y0066325D01*
X0088253Y0066459D01*
X0088287Y0066593D01*
X0088324Y0066725D01*
X0088366Y0066856D01*
X0088411Y0066986D01*
X0088460Y0067114D01*
X0088512Y0067241D01*
X0088569Y0067366D01*
X0088628Y0067490D01*
X0088692Y0067612D01*
X0088759Y0067732D01*
X0088829Y0067850D01*
X0088903Y0067966D01*
X0088980Y0068080D01*
X0089061Y0068191D01*
X0089144Y0068300D01*
X0089231Y0068407D01*
X0089321Y0068510D01*
X0089414Y0068612D01*
X0089510Y0068710D01*
X0089608Y0068806D01*
X0089710Y0068899D01*
X0089813Y0068989D01*
X0089920Y0069076D01*
X0090029Y0069159D01*
X0090140Y0069240D01*
X0090254Y0069317D01*
X0090370Y0069391D01*
X0090488Y0069461D01*
X0090608Y0069528D01*
X0090730Y0069592D01*
X0090854Y0069651D01*
X0090979Y0069708D01*
X0091106Y0069760D01*
X0091234Y0069809D01*
X0091364Y0069854D01*
X0091495Y0069896D01*
X0091627Y0069933D01*
X0091761Y0069967D01*
X0091895Y0069996D01*
X0092030Y0070022D01*
X0092165Y0070044D01*
X0092302Y0070062D01*
X0092438Y0070076D01*
X0092575Y0070086D01*
X0092713Y0070092D01*
X0092850Y0070094D01*
X0092987Y0070092D01*
X0093125Y0070086D01*
X0093262Y0070076D01*
X0093398Y0070062D01*
X0093535Y0070044D01*
X0093670Y0070022D01*
X0093805Y0069996D01*
X0093939Y0069967D01*
X0094073Y0069933D01*
X0094205Y0069896D01*
X0094336Y0069854D01*
X0094466Y0069809D01*
X0094594Y0069760D01*
X0094721Y0069708D01*
X0094846Y0069651D01*
X0094970Y0069592D01*
X0095092Y0069528D01*
X0095212Y0069461D01*
X0095330Y0069391D01*
X0095446Y0069317D01*
X0095560Y0069240D01*
X0095671Y0069159D01*
X0095780Y0069076D01*
X0095887Y0068989D01*
X0095990Y0068899D01*
X0096092Y0068806D01*
X0096190Y0068710D01*
X0096286Y0068612D01*
X0096379Y0068510D01*
X0096469Y0068407D01*
X0096556Y0068300D01*
X0096639Y0068191D01*
X0096720Y0068080D01*
X0096797Y0067966D01*
X0096871Y0067850D01*
X0096941Y0067732D01*
X0097008Y0067612D01*
X0097072Y0067490D01*
X0097131Y0067366D01*
X0097188Y0067241D01*
X0097240Y0067114D01*
X0097289Y0066986D01*
X0097334Y0066856D01*
X0097376Y0066725D01*
X0097413Y0066593D01*
X0097447Y0066459D01*
X0097476Y0066325D01*
X0097502Y0066190D01*
X0097524Y0066055D01*
X0097542Y0065918D01*
X0097556Y0065782D01*
X0097566Y0065645D01*
X0097572Y0065507D01*
X0097574Y0065370D01*
X0097572Y0065233D01*
X0097566Y0065095D01*
X0097556Y0064958D01*
X0097542Y0064822D01*
X0097524Y0064685D01*
X0097502Y0064550D01*
X0097476Y0064415D01*
X0097447Y0064281D01*
X0097413Y0064147D01*
X0097376Y0064015D01*
X0097334Y0063884D01*
X0097289Y0063754D01*
X0097240Y0063626D01*
X0097188Y0063499D01*
X0097131Y0063374D01*
X0097072Y0063250D01*
X0097008Y0063128D01*
X0096941Y0063008D01*
X0096871Y0062890D01*
X0096797Y0062774D01*
X0096720Y0062660D01*
X0096639Y0062549D01*
X0096556Y0062440D01*
X0096469Y0062333D01*
X0096379Y0062230D01*
X0096286Y0062128D01*
X0096190Y0062030D01*
X0096092Y0061934D01*
X0095990Y0061841D01*
X0095887Y0061751D01*
X0095780Y0061664D01*
X0095671Y0061581D01*
X0095560Y0061500D01*
X0095446Y0061423D01*
X0095330Y0061349D01*
X0095212Y0061279D01*
X0095092Y0061212D01*
X0094970Y0061148D01*
X0094846Y0061089D01*
X0094721Y0061032D01*
X0094594Y0060980D01*
X0094466Y0060931D01*
X0094336Y0060886D01*
X0094205Y0060844D01*
X0094073Y0060807D01*
X0093939Y0060773D01*
X0093805Y0060744D01*
X0093670Y0060718D01*
X0093535Y0060696D01*
X0093398Y0060678D01*
X0093262Y0060664D01*
X0093125Y0060654D01*
X0092987Y0060648D01*
X0092850Y0060646D01*
X0092713Y0060648D01*
X0092575Y0060654D01*
X0092438Y0060664D01*
X0092302Y0060678D01*
X0092165Y0060696D01*
X0092030Y0060718D01*
X0091895Y0060744D01*
X0091761Y0060773D01*
X0091627Y0060807D01*
X0091495Y0060844D01*
X0091364Y0060886D01*
X0091234Y0060931D01*
X0091106Y0060980D01*
X0090979Y0061032D01*
X0090854Y0061089D01*
X0090730Y0061148D01*
X0090608Y0061212D01*
X0090488Y0061279D01*
X0090370Y0061349D01*
X0090254Y0061423D01*
X0090140Y0061500D01*
X0090029Y0061581D01*
X0089920Y0061664D01*
X0089813Y0061751D01*
X0089710Y0061841D01*
X0089608Y0061934D01*
X0089510Y0062030D01*
X0089414Y0062128D01*
X0089321Y0062230D01*
X0089231Y0062333D01*
X0089144Y0062440D01*
X0089061Y0062549D01*
X0088980Y0062660D01*
X0088903Y0062774D01*
X0088829Y0062890D01*
X0088759Y0063008D01*
X0088692Y0063128D01*
X0088628Y0063250D01*
X0088569Y0063374D01*
X0088512Y0063499D01*
X0088460Y0063626D01*
X0088411Y0063754D01*
X0088366Y0063884D01*
X0088324Y0064015D01*
X0088287Y0064147D01*
X0088253Y0064281D01*
X0088224Y0064415D01*
X0088198Y0064550D01*
X0088176Y0064685D01*
X0088158Y0064822D01*
X0088144Y0064958D01*
X0088134Y0065095D01*
X0088128Y0065233D01*
X0088126Y0065370D01*
X0164741Y0141906D02*
X0164743Y0142043D01*
X0164749Y0142181D01*
X0164759Y0142318D01*
X0164773Y0142454D01*
X0164791Y0142591D01*
X0164813Y0142726D01*
X0164839Y0142861D01*
X0164868Y0142995D01*
X0164902Y0143129D01*
X0164939Y0143261D01*
X0164981Y0143392D01*
X0165026Y0143522D01*
X0165075Y0143650D01*
X0165127Y0143777D01*
X0165184Y0143902D01*
X0165243Y0144026D01*
X0165307Y0144148D01*
X0165374Y0144268D01*
X0165444Y0144386D01*
X0165518Y0144502D01*
X0165595Y0144616D01*
X0165676Y0144727D01*
X0165759Y0144836D01*
X0165846Y0144943D01*
X0165936Y0145046D01*
X0166029Y0145148D01*
X0166125Y0145246D01*
X0166223Y0145342D01*
X0166325Y0145435D01*
X0166428Y0145525D01*
X0166535Y0145612D01*
X0166644Y0145695D01*
X0166755Y0145776D01*
X0166869Y0145853D01*
X0166985Y0145927D01*
X0167103Y0145997D01*
X0167223Y0146064D01*
X0167345Y0146128D01*
X0167469Y0146187D01*
X0167594Y0146244D01*
X0167721Y0146296D01*
X0167849Y0146345D01*
X0167979Y0146390D01*
X0168110Y0146432D01*
X0168242Y0146469D01*
X0168376Y0146503D01*
X0168510Y0146532D01*
X0168645Y0146558D01*
X0168780Y0146580D01*
X0168917Y0146598D01*
X0169053Y0146612D01*
X0169190Y0146622D01*
X0169328Y0146628D01*
X0169465Y0146630D01*
X0169602Y0146628D01*
X0169740Y0146622D01*
X0169877Y0146612D01*
X0170013Y0146598D01*
X0170150Y0146580D01*
X0170285Y0146558D01*
X0170420Y0146532D01*
X0170554Y0146503D01*
X0170688Y0146469D01*
X0170820Y0146432D01*
X0170951Y0146390D01*
X0171081Y0146345D01*
X0171209Y0146296D01*
X0171336Y0146244D01*
X0171461Y0146187D01*
X0171585Y0146128D01*
X0171707Y0146064D01*
X0171827Y0145997D01*
X0171945Y0145927D01*
X0172061Y0145853D01*
X0172175Y0145776D01*
X0172286Y0145695D01*
X0172395Y0145612D01*
X0172502Y0145525D01*
X0172605Y0145435D01*
X0172707Y0145342D01*
X0172805Y0145246D01*
X0172901Y0145148D01*
X0172994Y0145046D01*
X0173084Y0144943D01*
X0173171Y0144836D01*
X0173254Y0144727D01*
X0173335Y0144616D01*
X0173412Y0144502D01*
X0173486Y0144386D01*
X0173556Y0144268D01*
X0173623Y0144148D01*
X0173687Y0144026D01*
X0173746Y0143902D01*
X0173803Y0143777D01*
X0173855Y0143650D01*
X0173904Y0143522D01*
X0173949Y0143392D01*
X0173991Y0143261D01*
X0174028Y0143129D01*
X0174062Y0142995D01*
X0174091Y0142861D01*
X0174117Y0142726D01*
X0174139Y0142591D01*
X0174157Y0142454D01*
X0174171Y0142318D01*
X0174181Y0142181D01*
X0174187Y0142043D01*
X0174189Y0141906D01*
X0174187Y0141769D01*
X0174181Y0141631D01*
X0174171Y0141494D01*
X0174157Y0141358D01*
X0174139Y0141221D01*
X0174117Y0141086D01*
X0174091Y0140951D01*
X0174062Y0140817D01*
X0174028Y0140683D01*
X0173991Y0140551D01*
X0173949Y0140420D01*
X0173904Y0140290D01*
X0173855Y0140162D01*
X0173803Y0140035D01*
X0173746Y0139910D01*
X0173687Y0139786D01*
X0173623Y0139664D01*
X0173556Y0139544D01*
X0173486Y0139426D01*
X0173412Y0139310D01*
X0173335Y0139196D01*
X0173254Y0139085D01*
X0173171Y0138976D01*
X0173084Y0138869D01*
X0172994Y0138766D01*
X0172901Y0138664D01*
X0172805Y0138566D01*
X0172707Y0138470D01*
X0172605Y0138377D01*
X0172502Y0138287D01*
X0172395Y0138200D01*
X0172286Y0138117D01*
X0172175Y0138036D01*
X0172061Y0137959D01*
X0171945Y0137885D01*
X0171827Y0137815D01*
X0171707Y0137748D01*
X0171585Y0137684D01*
X0171461Y0137625D01*
X0171336Y0137568D01*
X0171209Y0137516D01*
X0171081Y0137467D01*
X0170951Y0137422D01*
X0170820Y0137380D01*
X0170688Y0137343D01*
X0170554Y0137309D01*
X0170420Y0137280D01*
X0170285Y0137254D01*
X0170150Y0137232D01*
X0170013Y0137214D01*
X0169877Y0137200D01*
X0169740Y0137190D01*
X0169602Y0137184D01*
X0169465Y0137182D01*
X0169328Y0137184D01*
X0169190Y0137190D01*
X0169053Y0137200D01*
X0168917Y0137214D01*
X0168780Y0137232D01*
X0168645Y0137254D01*
X0168510Y0137280D01*
X0168376Y0137309D01*
X0168242Y0137343D01*
X0168110Y0137380D01*
X0167979Y0137422D01*
X0167849Y0137467D01*
X0167721Y0137516D01*
X0167594Y0137568D01*
X0167469Y0137625D01*
X0167345Y0137684D01*
X0167223Y0137748D01*
X0167103Y0137815D01*
X0166985Y0137885D01*
X0166869Y0137959D01*
X0166755Y0138036D01*
X0166644Y0138117D01*
X0166535Y0138200D01*
X0166428Y0138287D01*
X0166325Y0138377D01*
X0166223Y0138470D01*
X0166125Y0138566D01*
X0166029Y0138664D01*
X0165936Y0138766D01*
X0165846Y0138869D01*
X0165759Y0138976D01*
X0165676Y0139085D01*
X0165595Y0139196D01*
X0165518Y0139310D01*
X0165444Y0139426D01*
X0165374Y0139544D01*
X0165307Y0139664D01*
X0165243Y0139786D01*
X0165184Y0139910D01*
X0165127Y0140035D01*
X0165075Y0140162D01*
X0165026Y0140290D01*
X0164981Y0140420D01*
X0164939Y0140551D01*
X0164902Y0140683D01*
X0164868Y0140817D01*
X0164839Y0140951D01*
X0164813Y0141086D01*
X0164791Y0141221D01*
X0164773Y0141358D01*
X0164759Y0141494D01*
X0164749Y0141631D01*
X0164743Y0141769D01*
X0164741Y0141906D01*
X0202140Y0173471D02*
X0202142Y0173554D01*
X0202148Y0173637D01*
X0202158Y0173720D01*
X0202172Y0173802D01*
X0202189Y0173884D01*
X0202211Y0173964D01*
X0202236Y0174043D01*
X0202265Y0174121D01*
X0202298Y0174198D01*
X0202335Y0174273D01*
X0202374Y0174346D01*
X0202418Y0174417D01*
X0202464Y0174486D01*
X0202514Y0174553D01*
X0202567Y0174617D01*
X0202623Y0174679D01*
X0202682Y0174738D01*
X0202744Y0174794D01*
X0202808Y0174847D01*
X0202875Y0174897D01*
X0202944Y0174943D01*
X0203015Y0174987D01*
X0203088Y0175026D01*
X0203163Y0175063D01*
X0203240Y0175096D01*
X0203318Y0175125D01*
X0203397Y0175150D01*
X0203477Y0175172D01*
X0203559Y0175189D01*
X0203641Y0175203D01*
X0203724Y0175213D01*
X0203807Y0175219D01*
X0203890Y0175221D01*
X0203973Y0175219D01*
X0204056Y0175213D01*
X0204139Y0175203D01*
X0204221Y0175189D01*
X0204303Y0175172D01*
X0204383Y0175150D01*
X0204462Y0175125D01*
X0204540Y0175096D01*
X0204617Y0175063D01*
X0204692Y0175026D01*
X0204765Y0174987D01*
X0204836Y0174943D01*
X0204905Y0174897D01*
X0204972Y0174847D01*
X0205036Y0174794D01*
X0205098Y0174738D01*
X0205157Y0174679D01*
X0205213Y0174617D01*
X0205266Y0174553D01*
X0205316Y0174486D01*
X0205362Y0174417D01*
X0205406Y0174346D01*
X0205445Y0174273D01*
X0205482Y0174198D01*
X0205515Y0174121D01*
X0205544Y0174043D01*
X0205569Y0173964D01*
X0205591Y0173884D01*
X0205608Y0173802D01*
X0205622Y0173720D01*
X0205632Y0173637D01*
X0205638Y0173554D01*
X0205640Y0173471D01*
X0205638Y0173388D01*
X0205632Y0173305D01*
X0205622Y0173222D01*
X0205608Y0173140D01*
X0205591Y0173058D01*
X0205569Y0172978D01*
X0205544Y0172899D01*
X0205515Y0172821D01*
X0205482Y0172744D01*
X0205445Y0172669D01*
X0205406Y0172596D01*
X0205362Y0172525D01*
X0205316Y0172456D01*
X0205266Y0172389D01*
X0205213Y0172325D01*
X0205157Y0172263D01*
X0205098Y0172204D01*
X0205036Y0172148D01*
X0204972Y0172095D01*
X0204905Y0172045D01*
X0204836Y0171999D01*
X0204765Y0171955D01*
X0204692Y0171916D01*
X0204617Y0171879D01*
X0204540Y0171846D01*
X0204462Y0171817D01*
X0204383Y0171792D01*
X0204303Y0171770D01*
X0204221Y0171753D01*
X0204139Y0171739D01*
X0204056Y0171729D01*
X0203973Y0171723D01*
X0203890Y0171721D01*
X0203807Y0171723D01*
X0203724Y0171729D01*
X0203641Y0171739D01*
X0203559Y0171753D01*
X0203477Y0171770D01*
X0203397Y0171792D01*
X0203318Y0171817D01*
X0203240Y0171846D01*
X0203163Y0171879D01*
X0203088Y0171916D01*
X0203015Y0171955D01*
X0202944Y0171999D01*
X0202875Y0172045D01*
X0202808Y0172095D01*
X0202744Y0172148D01*
X0202682Y0172204D01*
X0202623Y0172263D01*
X0202567Y0172325D01*
X0202514Y0172389D01*
X0202464Y0172456D01*
X0202418Y0172525D01*
X0202374Y0172596D01*
X0202335Y0172669D01*
X0202298Y0172744D01*
X0202265Y0172821D01*
X0202236Y0172899D01*
X0202211Y0172978D01*
X0202189Y0173058D01*
X0202172Y0173140D01*
X0202158Y0173222D01*
X0202148Y0173305D01*
X0202142Y0173388D01*
X0202140Y0173471D01*
X0210140Y0173471D02*
X0210142Y0173554D01*
X0210148Y0173637D01*
X0210158Y0173720D01*
X0210172Y0173802D01*
X0210189Y0173884D01*
X0210211Y0173964D01*
X0210236Y0174043D01*
X0210265Y0174121D01*
X0210298Y0174198D01*
X0210335Y0174273D01*
X0210374Y0174346D01*
X0210418Y0174417D01*
X0210464Y0174486D01*
X0210514Y0174553D01*
X0210567Y0174617D01*
X0210623Y0174679D01*
X0210682Y0174738D01*
X0210744Y0174794D01*
X0210808Y0174847D01*
X0210875Y0174897D01*
X0210944Y0174943D01*
X0211015Y0174987D01*
X0211088Y0175026D01*
X0211163Y0175063D01*
X0211240Y0175096D01*
X0211318Y0175125D01*
X0211397Y0175150D01*
X0211477Y0175172D01*
X0211559Y0175189D01*
X0211641Y0175203D01*
X0211724Y0175213D01*
X0211807Y0175219D01*
X0211890Y0175221D01*
X0211973Y0175219D01*
X0212056Y0175213D01*
X0212139Y0175203D01*
X0212221Y0175189D01*
X0212303Y0175172D01*
X0212383Y0175150D01*
X0212462Y0175125D01*
X0212540Y0175096D01*
X0212617Y0175063D01*
X0212692Y0175026D01*
X0212765Y0174987D01*
X0212836Y0174943D01*
X0212905Y0174897D01*
X0212972Y0174847D01*
X0213036Y0174794D01*
X0213098Y0174738D01*
X0213157Y0174679D01*
X0213213Y0174617D01*
X0213266Y0174553D01*
X0213316Y0174486D01*
X0213362Y0174417D01*
X0213406Y0174346D01*
X0213445Y0174273D01*
X0213482Y0174198D01*
X0213515Y0174121D01*
X0213544Y0174043D01*
X0213569Y0173964D01*
X0213591Y0173884D01*
X0213608Y0173802D01*
X0213622Y0173720D01*
X0213632Y0173637D01*
X0213638Y0173554D01*
X0213640Y0173471D01*
X0213638Y0173388D01*
X0213632Y0173305D01*
X0213622Y0173222D01*
X0213608Y0173140D01*
X0213591Y0173058D01*
X0213569Y0172978D01*
X0213544Y0172899D01*
X0213515Y0172821D01*
X0213482Y0172744D01*
X0213445Y0172669D01*
X0213406Y0172596D01*
X0213362Y0172525D01*
X0213316Y0172456D01*
X0213266Y0172389D01*
X0213213Y0172325D01*
X0213157Y0172263D01*
X0213098Y0172204D01*
X0213036Y0172148D01*
X0212972Y0172095D01*
X0212905Y0172045D01*
X0212836Y0171999D01*
X0212765Y0171955D01*
X0212692Y0171916D01*
X0212617Y0171879D01*
X0212540Y0171846D01*
X0212462Y0171817D01*
X0212383Y0171792D01*
X0212303Y0171770D01*
X0212221Y0171753D01*
X0212139Y0171739D01*
X0212056Y0171729D01*
X0211973Y0171723D01*
X0211890Y0171721D01*
X0211807Y0171723D01*
X0211724Y0171729D01*
X0211641Y0171739D01*
X0211559Y0171753D01*
X0211477Y0171770D01*
X0211397Y0171792D01*
X0211318Y0171817D01*
X0211240Y0171846D01*
X0211163Y0171879D01*
X0211088Y0171916D01*
X0211015Y0171955D01*
X0210944Y0171999D01*
X0210875Y0172045D01*
X0210808Y0172095D01*
X0210744Y0172148D01*
X0210682Y0172204D01*
X0210623Y0172263D01*
X0210567Y0172325D01*
X0210514Y0172389D01*
X0210464Y0172456D01*
X0210418Y0172525D01*
X0210374Y0172596D01*
X0210335Y0172669D01*
X0210298Y0172744D01*
X0210265Y0172821D01*
X0210236Y0172899D01*
X0210211Y0172978D01*
X0210189Y0173058D01*
X0210172Y0173140D01*
X0210158Y0173222D01*
X0210148Y0173305D01*
X0210142Y0173388D01*
X0210140Y0173471D01*
X0206140Y0193471D02*
X0206142Y0193554D01*
X0206148Y0193637D01*
X0206158Y0193720D01*
X0206172Y0193802D01*
X0206189Y0193884D01*
X0206211Y0193964D01*
X0206236Y0194043D01*
X0206265Y0194121D01*
X0206298Y0194198D01*
X0206335Y0194273D01*
X0206374Y0194346D01*
X0206418Y0194417D01*
X0206464Y0194486D01*
X0206514Y0194553D01*
X0206567Y0194617D01*
X0206623Y0194679D01*
X0206682Y0194738D01*
X0206744Y0194794D01*
X0206808Y0194847D01*
X0206875Y0194897D01*
X0206944Y0194943D01*
X0207015Y0194987D01*
X0207088Y0195026D01*
X0207163Y0195063D01*
X0207240Y0195096D01*
X0207318Y0195125D01*
X0207397Y0195150D01*
X0207477Y0195172D01*
X0207559Y0195189D01*
X0207641Y0195203D01*
X0207724Y0195213D01*
X0207807Y0195219D01*
X0207890Y0195221D01*
X0207973Y0195219D01*
X0208056Y0195213D01*
X0208139Y0195203D01*
X0208221Y0195189D01*
X0208303Y0195172D01*
X0208383Y0195150D01*
X0208462Y0195125D01*
X0208540Y0195096D01*
X0208617Y0195063D01*
X0208692Y0195026D01*
X0208765Y0194987D01*
X0208836Y0194943D01*
X0208905Y0194897D01*
X0208972Y0194847D01*
X0209036Y0194794D01*
X0209098Y0194738D01*
X0209157Y0194679D01*
X0209213Y0194617D01*
X0209266Y0194553D01*
X0209316Y0194486D01*
X0209362Y0194417D01*
X0209406Y0194346D01*
X0209445Y0194273D01*
X0209482Y0194198D01*
X0209515Y0194121D01*
X0209544Y0194043D01*
X0209569Y0193964D01*
X0209591Y0193884D01*
X0209608Y0193802D01*
X0209622Y0193720D01*
X0209632Y0193637D01*
X0209638Y0193554D01*
X0209640Y0193471D01*
X0209638Y0193388D01*
X0209632Y0193305D01*
X0209622Y0193222D01*
X0209608Y0193140D01*
X0209591Y0193058D01*
X0209569Y0192978D01*
X0209544Y0192899D01*
X0209515Y0192821D01*
X0209482Y0192744D01*
X0209445Y0192669D01*
X0209406Y0192596D01*
X0209362Y0192525D01*
X0209316Y0192456D01*
X0209266Y0192389D01*
X0209213Y0192325D01*
X0209157Y0192263D01*
X0209098Y0192204D01*
X0209036Y0192148D01*
X0208972Y0192095D01*
X0208905Y0192045D01*
X0208836Y0191999D01*
X0208765Y0191955D01*
X0208692Y0191916D01*
X0208617Y0191879D01*
X0208540Y0191846D01*
X0208462Y0191817D01*
X0208383Y0191792D01*
X0208303Y0191770D01*
X0208221Y0191753D01*
X0208139Y0191739D01*
X0208056Y0191729D01*
X0207973Y0191723D01*
X0207890Y0191721D01*
X0207807Y0191723D01*
X0207724Y0191729D01*
X0207641Y0191739D01*
X0207559Y0191753D01*
X0207477Y0191770D01*
X0207397Y0191792D01*
X0207318Y0191817D01*
X0207240Y0191846D01*
X0207163Y0191879D01*
X0207088Y0191916D01*
X0207015Y0191955D01*
X0206944Y0191999D01*
X0206875Y0192045D01*
X0206808Y0192095D01*
X0206744Y0192148D01*
X0206682Y0192204D01*
X0206623Y0192263D01*
X0206567Y0192325D01*
X0206514Y0192389D01*
X0206464Y0192456D01*
X0206418Y0192525D01*
X0206374Y0192596D01*
X0206335Y0192669D01*
X0206298Y0192744D01*
X0206265Y0192821D01*
X0206236Y0192899D01*
X0206211Y0192978D01*
X0206189Y0193058D01*
X0206172Y0193140D01*
X0206158Y0193222D01*
X0206148Y0193305D01*
X0206142Y0193388D01*
X0206140Y0193471D01*
X0122063Y0241630D02*
X0122065Y0241799D01*
X0122071Y0241968D01*
X0122082Y0242137D01*
X0122096Y0242305D01*
X0122115Y0242473D01*
X0122138Y0242641D01*
X0122164Y0242808D01*
X0122195Y0242974D01*
X0122230Y0243140D01*
X0122269Y0243304D01*
X0122313Y0243468D01*
X0122360Y0243630D01*
X0122411Y0243791D01*
X0122466Y0243951D01*
X0122525Y0244110D01*
X0122587Y0244267D01*
X0122654Y0244422D01*
X0122725Y0244576D01*
X0122799Y0244728D01*
X0122877Y0244878D01*
X0122958Y0245026D01*
X0123043Y0245172D01*
X0123132Y0245316D01*
X0123224Y0245458D01*
X0123320Y0245597D01*
X0123419Y0245734D01*
X0123521Y0245869D01*
X0123627Y0246001D01*
X0123736Y0246130D01*
X0123848Y0246257D01*
X0123963Y0246381D01*
X0124081Y0246502D01*
X0124202Y0246620D01*
X0124326Y0246735D01*
X0124453Y0246847D01*
X0124582Y0246956D01*
X0124714Y0247062D01*
X0124849Y0247164D01*
X0124986Y0247263D01*
X0125125Y0247359D01*
X0125267Y0247451D01*
X0125411Y0247540D01*
X0125557Y0247625D01*
X0125705Y0247706D01*
X0125855Y0247784D01*
X0126007Y0247858D01*
X0126161Y0247929D01*
X0126316Y0247996D01*
X0126473Y0248058D01*
X0126632Y0248117D01*
X0126792Y0248172D01*
X0126953Y0248223D01*
X0127115Y0248270D01*
X0127279Y0248314D01*
X0127443Y0248353D01*
X0127609Y0248388D01*
X0127775Y0248419D01*
X0127942Y0248445D01*
X0128110Y0248468D01*
X0128278Y0248487D01*
X0128446Y0248501D01*
X0128615Y0248512D01*
X0128784Y0248518D01*
X0128953Y0248520D01*
X0129122Y0248518D01*
X0129291Y0248512D01*
X0129460Y0248501D01*
X0129628Y0248487D01*
X0129796Y0248468D01*
X0129964Y0248445D01*
X0130131Y0248419D01*
X0130297Y0248388D01*
X0130463Y0248353D01*
X0130627Y0248314D01*
X0130791Y0248270D01*
X0130953Y0248223D01*
X0131114Y0248172D01*
X0131274Y0248117D01*
X0131433Y0248058D01*
X0131590Y0247996D01*
X0131745Y0247929D01*
X0131899Y0247858D01*
X0132051Y0247784D01*
X0132201Y0247706D01*
X0132349Y0247625D01*
X0132495Y0247540D01*
X0132639Y0247451D01*
X0132781Y0247359D01*
X0132920Y0247263D01*
X0133057Y0247164D01*
X0133192Y0247062D01*
X0133324Y0246956D01*
X0133453Y0246847D01*
X0133580Y0246735D01*
X0133704Y0246620D01*
X0133825Y0246502D01*
X0133943Y0246381D01*
X0134058Y0246257D01*
X0134170Y0246130D01*
X0134279Y0246001D01*
X0134385Y0245869D01*
X0134487Y0245734D01*
X0134586Y0245597D01*
X0134682Y0245458D01*
X0134774Y0245316D01*
X0134863Y0245172D01*
X0134948Y0245026D01*
X0135029Y0244878D01*
X0135107Y0244728D01*
X0135181Y0244576D01*
X0135252Y0244422D01*
X0135319Y0244267D01*
X0135381Y0244110D01*
X0135440Y0243951D01*
X0135495Y0243791D01*
X0135546Y0243630D01*
X0135593Y0243468D01*
X0135637Y0243304D01*
X0135676Y0243140D01*
X0135711Y0242974D01*
X0135742Y0242808D01*
X0135768Y0242641D01*
X0135791Y0242473D01*
X0135810Y0242305D01*
X0135824Y0242137D01*
X0135835Y0241968D01*
X0135841Y0241799D01*
X0135843Y0241630D01*
X0135841Y0241461D01*
X0135835Y0241292D01*
X0135824Y0241123D01*
X0135810Y0240955D01*
X0135791Y0240787D01*
X0135768Y0240619D01*
X0135742Y0240452D01*
X0135711Y0240286D01*
X0135676Y0240120D01*
X0135637Y0239956D01*
X0135593Y0239792D01*
X0135546Y0239630D01*
X0135495Y0239469D01*
X0135440Y0239309D01*
X0135381Y0239150D01*
X0135319Y0238993D01*
X0135252Y0238838D01*
X0135181Y0238684D01*
X0135107Y0238532D01*
X0135029Y0238382D01*
X0134948Y0238234D01*
X0134863Y0238088D01*
X0134774Y0237944D01*
X0134682Y0237802D01*
X0134586Y0237663D01*
X0134487Y0237526D01*
X0134385Y0237391D01*
X0134279Y0237259D01*
X0134170Y0237130D01*
X0134058Y0237003D01*
X0133943Y0236879D01*
X0133825Y0236758D01*
X0133704Y0236640D01*
X0133580Y0236525D01*
X0133453Y0236413D01*
X0133324Y0236304D01*
X0133192Y0236198D01*
X0133057Y0236096D01*
X0132920Y0235997D01*
X0132781Y0235901D01*
X0132639Y0235809D01*
X0132495Y0235720D01*
X0132349Y0235635D01*
X0132201Y0235554D01*
X0132051Y0235476D01*
X0131899Y0235402D01*
X0131745Y0235331D01*
X0131590Y0235264D01*
X0131433Y0235202D01*
X0131274Y0235143D01*
X0131114Y0235088D01*
X0130953Y0235037D01*
X0130791Y0234990D01*
X0130627Y0234946D01*
X0130463Y0234907D01*
X0130297Y0234872D01*
X0130131Y0234841D01*
X0129964Y0234815D01*
X0129796Y0234792D01*
X0129628Y0234773D01*
X0129460Y0234759D01*
X0129291Y0234748D01*
X0129122Y0234742D01*
X0128953Y0234740D01*
X0128784Y0234742D01*
X0128615Y0234748D01*
X0128446Y0234759D01*
X0128278Y0234773D01*
X0128110Y0234792D01*
X0127942Y0234815D01*
X0127775Y0234841D01*
X0127609Y0234872D01*
X0127443Y0234907D01*
X0127279Y0234946D01*
X0127115Y0234990D01*
X0126953Y0235037D01*
X0126792Y0235088D01*
X0126632Y0235143D01*
X0126473Y0235202D01*
X0126316Y0235264D01*
X0126161Y0235331D01*
X0126007Y0235402D01*
X0125855Y0235476D01*
X0125705Y0235554D01*
X0125557Y0235635D01*
X0125411Y0235720D01*
X0125267Y0235809D01*
X0125125Y0235901D01*
X0124986Y0235997D01*
X0124849Y0236096D01*
X0124714Y0236198D01*
X0124582Y0236304D01*
X0124453Y0236413D01*
X0124326Y0236525D01*
X0124202Y0236640D01*
X0124081Y0236758D01*
X0123963Y0236879D01*
X0123848Y0237003D01*
X0123736Y0237130D01*
X0123627Y0237259D01*
X0123521Y0237391D01*
X0123419Y0237526D01*
X0123320Y0237663D01*
X0123224Y0237802D01*
X0123132Y0237944D01*
X0123043Y0238088D01*
X0122958Y0238234D01*
X0122877Y0238382D01*
X0122799Y0238532D01*
X0122725Y0238684D01*
X0122654Y0238838D01*
X0122587Y0238993D01*
X0122525Y0239150D01*
X0122466Y0239309D01*
X0122411Y0239469D01*
X0122360Y0239630D01*
X0122313Y0239792D01*
X0122269Y0239956D01*
X0122230Y0240120D01*
X0122195Y0240286D01*
X0122164Y0240452D01*
X0122138Y0240619D01*
X0122115Y0240787D01*
X0122096Y0240955D01*
X0122082Y0241123D01*
X0122071Y0241292D01*
X0122065Y0241461D01*
X0122063Y0241630D01*
X0164701Y0278559D02*
X0164703Y0278696D01*
X0164709Y0278834D01*
X0164719Y0278971D01*
X0164733Y0279107D01*
X0164751Y0279244D01*
X0164773Y0279379D01*
X0164799Y0279514D01*
X0164828Y0279648D01*
X0164862Y0279782D01*
X0164899Y0279914D01*
X0164941Y0280045D01*
X0164986Y0280175D01*
X0165035Y0280303D01*
X0165087Y0280430D01*
X0165144Y0280555D01*
X0165203Y0280679D01*
X0165267Y0280801D01*
X0165334Y0280921D01*
X0165404Y0281039D01*
X0165478Y0281155D01*
X0165555Y0281269D01*
X0165636Y0281380D01*
X0165719Y0281489D01*
X0165806Y0281596D01*
X0165896Y0281699D01*
X0165989Y0281801D01*
X0166085Y0281899D01*
X0166183Y0281995D01*
X0166285Y0282088D01*
X0166388Y0282178D01*
X0166495Y0282265D01*
X0166604Y0282348D01*
X0166715Y0282429D01*
X0166829Y0282506D01*
X0166945Y0282580D01*
X0167063Y0282650D01*
X0167183Y0282717D01*
X0167305Y0282781D01*
X0167429Y0282840D01*
X0167554Y0282897D01*
X0167681Y0282949D01*
X0167809Y0282998D01*
X0167939Y0283043D01*
X0168070Y0283085D01*
X0168202Y0283122D01*
X0168336Y0283156D01*
X0168470Y0283185D01*
X0168605Y0283211D01*
X0168740Y0283233D01*
X0168877Y0283251D01*
X0169013Y0283265D01*
X0169150Y0283275D01*
X0169288Y0283281D01*
X0169425Y0283283D01*
X0169562Y0283281D01*
X0169700Y0283275D01*
X0169837Y0283265D01*
X0169973Y0283251D01*
X0170110Y0283233D01*
X0170245Y0283211D01*
X0170380Y0283185D01*
X0170514Y0283156D01*
X0170648Y0283122D01*
X0170780Y0283085D01*
X0170911Y0283043D01*
X0171041Y0282998D01*
X0171169Y0282949D01*
X0171296Y0282897D01*
X0171421Y0282840D01*
X0171545Y0282781D01*
X0171667Y0282717D01*
X0171787Y0282650D01*
X0171905Y0282580D01*
X0172021Y0282506D01*
X0172135Y0282429D01*
X0172246Y0282348D01*
X0172355Y0282265D01*
X0172462Y0282178D01*
X0172565Y0282088D01*
X0172667Y0281995D01*
X0172765Y0281899D01*
X0172861Y0281801D01*
X0172954Y0281699D01*
X0173044Y0281596D01*
X0173131Y0281489D01*
X0173214Y0281380D01*
X0173295Y0281269D01*
X0173372Y0281155D01*
X0173446Y0281039D01*
X0173516Y0280921D01*
X0173583Y0280801D01*
X0173647Y0280679D01*
X0173706Y0280555D01*
X0173763Y0280430D01*
X0173815Y0280303D01*
X0173864Y0280175D01*
X0173909Y0280045D01*
X0173951Y0279914D01*
X0173988Y0279782D01*
X0174022Y0279648D01*
X0174051Y0279514D01*
X0174077Y0279379D01*
X0174099Y0279244D01*
X0174117Y0279107D01*
X0174131Y0278971D01*
X0174141Y0278834D01*
X0174147Y0278696D01*
X0174149Y0278559D01*
X0174147Y0278422D01*
X0174141Y0278284D01*
X0174131Y0278147D01*
X0174117Y0278011D01*
X0174099Y0277874D01*
X0174077Y0277739D01*
X0174051Y0277604D01*
X0174022Y0277470D01*
X0173988Y0277336D01*
X0173951Y0277204D01*
X0173909Y0277073D01*
X0173864Y0276943D01*
X0173815Y0276815D01*
X0173763Y0276688D01*
X0173706Y0276563D01*
X0173647Y0276439D01*
X0173583Y0276317D01*
X0173516Y0276197D01*
X0173446Y0276079D01*
X0173372Y0275963D01*
X0173295Y0275849D01*
X0173214Y0275738D01*
X0173131Y0275629D01*
X0173044Y0275522D01*
X0172954Y0275419D01*
X0172861Y0275317D01*
X0172765Y0275219D01*
X0172667Y0275123D01*
X0172565Y0275030D01*
X0172462Y0274940D01*
X0172355Y0274853D01*
X0172246Y0274770D01*
X0172135Y0274689D01*
X0172021Y0274612D01*
X0171905Y0274538D01*
X0171787Y0274468D01*
X0171667Y0274401D01*
X0171545Y0274337D01*
X0171421Y0274278D01*
X0171296Y0274221D01*
X0171169Y0274169D01*
X0171041Y0274120D01*
X0170911Y0274075D01*
X0170780Y0274033D01*
X0170648Y0273996D01*
X0170514Y0273962D01*
X0170380Y0273933D01*
X0170245Y0273907D01*
X0170110Y0273885D01*
X0169973Y0273867D01*
X0169837Y0273853D01*
X0169700Y0273843D01*
X0169562Y0273837D01*
X0169425Y0273835D01*
X0169288Y0273837D01*
X0169150Y0273843D01*
X0169013Y0273853D01*
X0168877Y0273867D01*
X0168740Y0273885D01*
X0168605Y0273907D01*
X0168470Y0273933D01*
X0168336Y0273962D01*
X0168202Y0273996D01*
X0168070Y0274033D01*
X0167939Y0274075D01*
X0167809Y0274120D01*
X0167681Y0274169D01*
X0167554Y0274221D01*
X0167429Y0274278D01*
X0167305Y0274337D01*
X0167183Y0274401D01*
X0167063Y0274468D01*
X0166945Y0274538D01*
X0166829Y0274612D01*
X0166715Y0274689D01*
X0166604Y0274770D01*
X0166495Y0274853D01*
X0166388Y0274940D01*
X0166285Y0275030D01*
X0166183Y0275123D01*
X0166085Y0275219D01*
X0165989Y0275317D01*
X0165896Y0275419D01*
X0165806Y0275522D01*
X0165719Y0275629D01*
X0165636Y0275738D01*
X0165555Y0275849D01*
X0165478Y0275963D01*
X0165404Y0276079D01*
X0165334Y0276197D01*
X0165267Y0276317D01*
X0165203Y0276439D01*
X0165144Y0276563D01*
X0165087Y0276688D01*
X0165035Y0276815D01*
X0164986Y0276943D01*
X0164941Y0277073D01*
X0164899Y0277204D01*
X0164862Y0277336D01*
X0164828Y0277470D01*
X0164799Y0277604D01*
X0164773Y0277739D01*
X0164751Y0277874D01*
X0164733Y0278011D01*
X0164719Y0278147D01*
X0164709Y0278284D01*
X0164703Y0278422D01*
X0164701Y0278559D01*
X0231118Y0348047D02*
X0231120Y0348211D01*
X0231126Y0348375D01*
X0231136Y0348539D01*
X0231150Y0348703D01*
X0231168Y0348866D01*
X0231190Y0349029D01*
X0231217Y0349191D01*
X0231247Y0349353D01*
X0231281Y0349513D01*
X0231319Y0349673D01*
X0231360Y0349832D01*
X0231406Y0349990D01*
X0231456Y0350146D01*
X0231509Y0350302D01*
X0231566Y0350456D01*
X0231627Y0350608D01*
X0231692Y0350759D01*
X0231761Y0350909D01*
X0231833Y0351056D01*
X0231908Y0351202D01*
X0231988Y0351346D01*
X0232070Y0351488D01*
X0232156Y0351628D01*
X0232246Y0351765D01*
X0232339Y0351901D01*
X0232435Y0352034D01*
X0232535Y0352165D01*
X0232637Y0352293D01*
X0232743Y0352419D01*
X0232852Y0352542D01*
X0232964Y0352662D01*
X0233078Y0352780D01*
X0233196Y0352894D01*
X0233316Y0353006D01*
X0233439Y0353115D01*
X0233565Y0353221D01*
X0233693Y0353323D01*
X0233824Y0353423D01*
X0233957Y0353519D01*
X0234093Y0353612D01*
X0234230Y0353702D01*
X0234370Y0353788D01*
X0234512Y0353870D01*
X0234656Y0353950D01*
X0234802Y0354025D01*
X0234949Y0354097D01*
X0235099Y0354166D01*
X0235250Y0354231D01*
X0235402Y0354292D01*
X0235556Y0354349D01*
X0235712Y0354402D01*
X0235868Y0354452D01*
X0236026Y0354498D01*
X0236185Y0354539D01*
X0236345Y0354577D01*
X0236505Y0354611D01*
X0236667Y0354641D01*
X0236829Y0354668D01*
X0236992Y0354690D01*
X0237155Y0354708D01*
X0237319Y0354722D01*
X0237483Y0354732D01*
X0237647Y0354738D01*
X0237811Y0354740D01*
X0237975Y0354738D01*
X0238139Y0354732D01*
X0238303Y0354722D01*
X0238467Y0354708D01*
X0238630Y0354690D01*
X0238793Y0354668D01*
X0238955Y0354641D01*
X0239117Y0354611D01*
X0239277Y0354577D01*
X0239437Y0354539D01*
X0239596Y0354498D01*
X0239754Y0354452D01*
X0239910Y0354402D01*
X0240066Y0354349D01*
X0240220Y0354292D01*
X0240372Y0354231D01*
X0240523Y0354166D01*
X0240673Y0354097D01*
X0240820Y0354025D01*
X0240966Y0353950D01*
X0241110Y0353870D01*
X0241252Y0353788D01*
X0241392Y0353702D01*
X0241529Y0353612D01*
X0241665Y0353519D01*
X0241798Y0353423D01*
X0241929Y0353323D01*
X0242057Y0353221D01*
X0242183Y0353115D01*
X0242306Y0353006D01*
X0242426Y0352894D01*
X0242544Y0352780D01*
X0242658Y0352662D01*
X0242770Y0352542D01*
X0242879Y0352419D01*
X0242985Y0352293D01*
X0243087Y0352165D01*
X0243187Y0352034D01*
X0243283Y0351901D01*
X0243376Y0351765D01*
X0243466Y0351628D01*
X0243552Y0351488D01*
X0243634Y0351346D01*
X0243714Y0351202D01*
X0243789Y0351056D01*
X0243861Y0350909D01*
X0243930Y0350759D01*
X0243995Y0350608D01*
X0244056Y0350456D01*
X0244113Y0350302D01*
X0244166Y0350146D01*
X0244216Y0349990D01*
X0244262Y0349832D01*
X0244303Y0349673D01*
X0244341Y0349513D01*
X0244375Y0349353D01*
X0244405Y0349191D01*
X0244432Y0349029D01*
X0244454Y0348866D01*
X0244472Y0348703D01*
X0244486Y0348539D01*
X0244496Y0348375D01*
X0244502Y0348211D01*
X0244504Y0348047D01*
X0244502Y0347883D01*
X0244496Y0347719D01*
X0244486Y0347555D01*
X0244472Y0347391D01*
X0244454Y0347228D01*
X0244432Y0347065D01*
X0244405Y0346903D01*
X0244375Y0346741D01*
X0244341Y0346581D01*
X0244303Y0346421D01*
X0244262Y0346262D01*
X0244216Y0346104D01*
X0244166Y0345948D01*
X0244113Y0345792D01*
X0244056Y0345638D01*
X0243995Y0345486D01*
X0243930Y0345335D01*
X0243861Y0345185D01*
X0243789Y0345038D01*
X0243714Y0344892D01*
X0243634Y0344748D01*
X0243552Y0344606D01*
X0243466Y0344466D01*
X0243376Y0344329D01*
X0243283Y0344193D01*
X0243187Y0344060D01*
X0243087Y0343929D01*
X0242985Y0343801D01*
X0242879Y0343675D01*
X0242770Y0343552D01*
X0242658Y0343432D01*
X0242544Y0343314D01*
X0242426Y0343200D01*
X0242306Y0343088D01*
X0242183Y0342979D01*
X0242057Y0342873D01*
X0241929Y0342771D01*
X0241798Y0342671D01*
X0241665Y0342575D01*
X0241529Y0342482D01*
X0241392Y0342392D01*
X0241252Y0342306D01*
X0241110Y0342224D01*
X0240966Y0342144D01*
X0240820Y0342069D01*
X0240673Y0341997D01*
X0240523Y0341928D01*
X0240372Y0341863D01*
X0240220Y0341802D01*
X0240066Y0341745D01*
X0239910Y0341692D01*
X0239754Y0341642D01*
X0239596Y0341596D01*
X0239437Y0341555D01*
X0239277Y0341517D01*
X0239117Y0341483D01*
X0238955Y0341453D01*
X0238793Y0341426D01*
X0238630Y0341404D01*
X0238467Y0341386D01*
X0238303Y0341372D01*
X0238139Y0341362D01*
X0237975Y0341356D01*
X0237811Y0341354D01*
X0237647Y0341356D01*
X0237483Y0341362D01*
X0237319Y0341372D01*
X0237155Y0341386D01*
X0236992Y0341404D01*
X0236829Y0341426D01*
X0236667Y0341453D01*
X0236505Y0341483D01*
X0236345Y0341517D01*
X0236185Y0341555D01*
X0236026Y0341596D01*
X0235868Y0341642D01*
X0235712Y0341692D01*
X0235556Y0341745D01*
X0235402Y0341802D01*
X0235250Y0341863D01*
X0235099Y0341928D01*
X0234949Y0341997D01*
X0234802Y0342069D01*
X0234656Y0342144D01*
X0234512Y0342224D01*
X0234370Y0342306D01*
X0234230Y0342392D01*
X0234093Y0342482D01*
X0233957Y0342575D01*
X0233824Y0342671D01*
X0233693Y0342771D01*
X0233565Y0342873D01*
X0233439Y0342979D01*
X0233316Y0343088D01*
X0233196Y0343200D01*
X0233078Y0343314D01*
X0232964Y0343432D01*
X0232852Y0343552D01*
X0232743Y0343675D01*
X0232637Y0343801D01*
X0232535Y0343929D01*
X0232435Y0344060D01*
X0232339Y0344193D01*
X0232246Y0344329D01*
X0232156Y0344466D01*
X0232070Y0344606D01*
X0231988Y0344748D01*
X0231908Y0344892D01*
X0231833Y0345038D01*
X0231761Y0345185D01*
X0231692Y0345335D01*
X0231627Y0345486D01*
X0231566Y0345638D01*
X0231509Y0345792D01*
X0231456Y0345948D01*
X0231406Y0346104D01*
X0231360Y0346262D01*
X0231319Y0346421D01*
X0231281Y0346581D01*
X0231247Y0346741D01*
X0231217Y0346903D01*
X0231190Y0347065D01*
X0231168Y0347228D01*
X0231150Y0347391D01*
X0231136Y0347555D01*
X0231126Y0347719D01*
X0231120Y0347883D01*
X0231118Y0348047D01*
X0301433Y0278598D02*
X0301435Y0278735D01*
X0301441Y0278873D01*
X0301451Y0279010D01*
X0301465Y0279146D01*
X0301483Y0279283D01*
X0301505Y0279418D01*
X0301531Y0279553D01*
X0301560Y0279687D01*
X0301594Y0279821D01*
X0301631Y0279953D01*
X0301673Y0280084D01*
X0301718Y0280214D01*
X0301767Y0280342D01*
X0301819Y0280469D01*
X0301876Y0280594D01*
X0301935Y0280718D01*
X0301999Y0280840D01*
X0302066Y0280960D01*
X0302136Y0281078D01*
X0302210Y0281194D01*
X0302287Y0281308D01*
X0302368Y0281419D01*
X0302451Y0281528D01*
X0302538Y0281635D01*
X0302628Y0281738D01*
X0302721Y0281840D01*
X0302817Y0281938D01*
X0302915Y0282034D01*
X0303017Y0282127D01*
X0303120Y0282217D01*
X0303227Y0282304D01*
X0303336Y0282387D01*
X0303447Y0282468D01*
X0303561Y0282545D01*
X0303677Y0282619D01*
X0303795Y0282689D01*
X0303915Y0282756D01*
X0304037Y0282820D01*
X0304161Y0282879D01*
X0304286Y0282936D01*
X0304413Y0282988D01*
X0304541Y0283037D01*
X0304671Y0283082D01*
X0304802Y0283124D01*
X0304934Y0283161D01*
X0305068Y0283195D01*
X0305202Y0283224D01*
X0305337Y0283250D01*
X0305472Y0283272D01*
X0305609Y0283290D01*
X0305745Y0283304D01*
X0305882Y0283314D01*
X0306020Y0283320D01*
X0306157Y0283322D01*
X0306294Y0283320D01*
X0306432Y0283314D01*
X0306569Y0283304D01*
X0306705Y0283290D01*
X0306842Y0283272D01*
X0306977Y0283250D01*
X0307112Y0283224D01*
X0307246Y0283195D01*
X0307380Y0283161D01*
X0307512Y0283124D01*
X0307643Y0283082D01*
X0307773Y0283037D01*
X0307901Y0282988D01*
X0308028Y0282936D01*
X0308153Y0282879D01*
X0308277Y0282820D01*
X0308399Y0282756D01*
X0308519Y0282689D01*
X0308637Y0282619D01*
X0308753Y0282545D01*
X0308867Y0282468D01*
X0308978Y0282387D01*
X0309087Y0282304D01*
X0309194Y0282217D01*
X0309297Y0282127D01*
X0309399Y0282034D01*
X0309497Y0281938D01*
X0309593Y0281840D01*
X0309686Y0281738D01*
X0309776Y0281635D01*
X0309863Y0281528D01*
X0309946Y0281419D01*
X0310027Y0281308D01*
X0310104Y0281194D01*
X0310178Y0281078D01*
X0310248Y0280960D01*
X0310315Y0280840D01*
X0310379Y0280718D01*
X0310438Y0280594D01*
X0310495Y0280469D01*
X0310547Y0280342D01*
X0310596Y0280214D01*
X0310641Y0280084D01*
X0310683Y0279953D01*
X0310720Y0279821D01*
X0310754Y0279687D01*
X0310783Y0279553D01*
X0310809Y0279418D01*
X0310831Y0279283D01*
X0310849Y0279146D01*
X0310863Y0279010D01*
X0310873Y0278873D01*
X0310879Y0278735D01*
X0310881Y0278598D01*
X0310879Y0278461D01*
X0310873Y0278323D01*
X0310863Y0278186D01*
X0310849Y0278050D01*
X0310831Y0277913D01*
X0310809Y0277778D01*
X0310783Y0277643D01*
X0310754Y0277509D01*
X0310720Y0277375D01*
X0310683Y0277243D01*
X0310641Y0277112D01*
X0310596Y0276982D01*
X0310547Y0276854D01*
X0310495Y0276727D01*
X0310438Y0276602D01*
X0310379Y0276478D01*
X0310315Y0276356D01*
X0310248Y0276236D01*
X0310178Y0276118D01*
X0310104Y0276002D01*
X0310027Y0275888D01*
X0309946Y0275777D01*
X0309863Y0275668D01*
X0309776Y0275561D01*
X0309686Y0275458D01*
X0309593Y0275356D01*
X0309497Y0275258D01*
X0309399Y0275162D01*
X0309297Y0275069D01*
X0309194Y0274979D01*
X0309087Y0274892D01*
X0308978Y0274809D01*
X0308867Y0274728D01*
X0308753Y0274651D01*
X0308637Y0274577D01*
X0308519Y0274507D01*
X0308399Y0274440D01*
X0308277Y0274376D01*
X0308153Y0274317D01*
X0308028Y0274260D01*
X0307901Y0274208D01*
X0307773Y0274159D01*
X0307643Y0274114D01*
X0307512Y0274072D01*
X0307380Y0274035D01*
X0307246Y0274001D01*
X0307112Y0273972D01*
X0306977Y0273946D01*
X0306842Y0273924D01*
X0306705Y0273906D01*
X0306569Y0273892D01*
X0306432Y0273882D01*
X0306294Y0273876D01*
X0306157Y0273874D01*
X0306020Y0273876D01*
X0305882Y0273882D01*
X0305745Y0273892D01*
X0305609Y0273906D01*
X0305472Y0273924D01*
X0305337Y0273946D01*
X0305202Y0273972D01*
X0305068Y0274001D01*
X0304934Y0274035D01*
X0304802Y0274072D01*
X0304671Y0274114D01*
X0304541Y0274159D01*
X0304413Y0274208D01*
X0304286Y0274260D01*
X0304161Y0274317D01*
X0304037Y0274376D01*
X0303915Y0274440D01*
X0303795Y0274507D01*
X0303677Y0274577D01*
X0303561Y0274651D01*
X0303447Y0274728D01*
X0303336Y0274809D01*
X0303227Y0274892D01*
X0303120Y0274979D01*
X0303017Y0275069D01*
X0302915Y0275162D01*
X0302817Y0275258D01*
X0302721Y0275356D01*
X0302628Y0275458D01*
X0302538Y0275561D01*
X0302451Y0275668D01*
X0302368Y0275777D01*
X0302287Y0275888D01*
X0302210Y0276002D01*
X0302136Y0276118D01*
X0302066Y0276236D01*
X0301999Y0276356D01*
X0301935Y0276478D01*
X0301876Y0276602D01*
X0301819Y0276727D01*
X0301767Y0276854D01*
X0301718Y0276982D01*
X0301673Y0277112D01*
X0301631Y0277243D01*
X0301594Y0277375D01*
X0301560Y0277509D01*
X0301531Y0277643D01*
X0301505Y0277778D01*
X0301483Y0277913D01*
X0301465Y0278050D01*
X0301451Y0278186D01*
X0301441Y0278323D01*
X0301435Y0278461D01*
X0301433Y0278598D01*
X0377969Y0355173D02*
X0377971Y0355310D01*
X0377977Y0355448D01*
X0377987Y0355585D01*
X0378001Y0355721D01*
X0378019Y0355858D01*
X0378041Y0355993D01*
X0378067Y0356128D01*
X0378096Y0356262D01*
X0378130Y0356396D01*
X0378167Y0356528D01*
X0378209Y0356659D01*
X0378254Y0356789D01*
X0378303Y0356917D01*
X0378355Y0357044D01*
X0378412Y0357169D01*
X0378471Y0357293D01*
X0378535Y0357415D01*
X0378602Y0357535D01*
X0378672Y0357653D01*
X0378746Y0357769D01*
X0378823Y0357883D01*
X0378904Y0357994D01*
X0378987Y0358103D01*
X0379074Y0358210D01*
X0379164Y0358313D01*
X0379257Y0358415D01*
X0379353Y0358513D01*
X0379451Y0358609D01*
X0379553Y0358702D01*
X0379656Y0358792D01*
X0379763Y0358879D01*
X0379872Y0358962D01*
X0379983Y0359043D01*
X0380097Y0359120D01*
X0380213Y0359194D01*
X0380331Y0359264D01*
X0380451Y0359331D01*
X0380573Y0359395D01*
X0380697Y0359454D01*
X0380822Y0359511D01*
X0380949Y0359563D01*
X0381077Y0359612D01*
X0381207Y0359657D01*
X0381338Y0359699D01*
X0381470Y0359736D01*
X0381604Y0359770D01*
X0381738Y0359799D01*
X0381873Y0359825D01*
X0382008Y0359847D01*
X0382145Y0359865D01*
X0382281Y0359879D01*
X0382418Y0359889D01*
X0382556Y0359895D01*
X0382693Y0359897D01*
X0382830Y0359895D01*
X0382968Y0359889D01*
X0383105Y0359879D01*
X0383241Y0359865D01*
X0383378Y0359847D01*
X0383513Y0359825D01*
X0383648Y0359799D01*
X0383782Y0359770D01*
X0383916Y0359736D01*
X0384048Y0359699D01*
X0384179Y0359657D01*
X0384309Y0359612D01*
X0384437Y0359563D01*
X0384564Y0359511D01*
X0384689Y0359454D01*
X0384813Y0359395D01*
X0384935Y0359331D01*
X0385055Y0359264D01*
X0385173Y0359194D01*
X0385289Y0359120D01*
X0385403Y0359043D01*
X0385514Y0358962D01*
X0385623Y0358879D01*
X0385730Y0358792D01*
X0385833Y0358702D01*
X0385935Y0358609D01*
X0386033Y0358513D01*
X0386129Y0358415D01*
X0386222Y0358313D01*
X0386312Y0358210D01*
X0386399Y0358103D01*
X0386482Y0357994D01*
X0386563Y0357883D01*
X0386640Y0357769D01*
X0386714Y0357653D01*
X0386784Y0357535D01*
X0386851Y0357415D01*
X0386915Y0357293D01*
X0386974Y0357169D01*
X0387031Y0357044D01*
X0387083Y0356917D01*
X0387132Y0356789D01*
X0387177Y0356659D01*
X0387219Y0356528D01*
X0387256Y0356396D01*
X0387290Y0356262D01*
X0387319Y0356128D01*
X0387345Y0355993D01*
X0387367Y0355858D01*
X0387385Y0355721D01*
X0387399Y0355585D01*
X0387409Y0355448D01*
X0387415Y0355310D01*
X0387417Y0355173D01*
X0387415Y0355036D01*
X0387409Y0354898D01*
X0387399Y0354761D01*
X0387385Y0354625D01*
X0387367Y0354488D01*
X0387345Y0354353D01*
X0387319Y0354218D01*
X0387290Y0354084D01*
X0387256Y0353950D01*
X0387219Y0353818D01*
X0387177Y0353687D01*
X0387132Y0353557D01*
X0387083Y0353429D01*
X0387031Y0353302D01*
X0386974Y0353177D01*
X0386915Y0353053D01*
X0386851Y0352931D01*
X0386784Y0352811D01*
X0386714Y0352693D01*
X0386640Y0352577D01*
X0386563Y0352463D01*
X0386482Y0352352D01*
X0386399Y0352243D01*
X0386312Y0352136D01*
X0386222Y0352033D01*
X0386129Y0351931D01*
X0386033Y0351833D01*
X0385935Y0351737D01*
X0385833Y0351644D01*
X0385730Y0351554D01*
X0385623Y0351467D01*
X0385514Y0351384D01*
X0385403Y0351303D01*
X0385289Y0351226D01*
X0385173Y0351152D01*
X0385055Y0351082D01*
X0384935Y0351015D01*
X0384813Y0350951D01*
X0384689Y0350892D01*
X0384564Y0350835D01*
X0384437Y0350783D01*
X0384309Y0350734D01*
X0384179Y0350689D01*
X0384048Y0350647D01*
X0383916Y0350610D01*
X0383782Y0350576D01*
X0383648Y0350547D01*
X0383513Y0350521D01*
X0383378Y0350499D01*
X0383241Y0350481D01*
X0383105Y0350467D01*
X0382968Y0350457D01*
X0382830Y0350451D01*
X0382693Y0350449D01*
X0382556Y0350451D01*
X0382418Y0350457D01*
X0382281Y0350467D01*
X0382145Y0350481D01*
X0382008Y0350499D01*
X0381873Y0350521D01*
X0381738Y0350547D01*
X0381604Y0350576D01*
X0381470Y0350610D01*
X0381338Y0350647D01*
X0381207Y0350689D01*
X0381077Y0350734D01*
X0380949Y0350783D01*
X0380822Y0350835D01*
X0380697Y0350892D01*
X0380573Y0350951D01*
X0380451Y0351015D01*
X0380331Y0351082D01*
X0380213Y0351152D01*
X0380097Y0351226D01*
X0379983Y0351303D01*
X0379872Y0351384D01*
X0379763Y0351467D01*
X0379656Y0351554D01*
X0379553Y0351644D01*
X0379451Y0351737D01*
X0379353Y0351833D01*
X0379257Y0351931D01*
X0379164Y0352033D01*
X0379074Y0352136D01*
X0378987Y0352243D01*
X0378904Y0352352D01*
X0378823Y0352463D01*
X0378746Y0352577D01*
X0378672Y0352693D01*
X0378602Y0352811D01*
X0378535Y0352931D01*
X0378471Y0353053D01*
X0378412Y0353177D01*
X0378355Y0353302D01*
X0378303Y0353429D01*
X0378254Y0353557D01*
X0378209Y0353687D01*
X0378167Y0353818D01*
X0378130Y0353950D01*
X0378096Y0354084D01*
X0378067Y0354218D01*
X0378041Y0354353D01*
X0378019Y0354488D01*
X0378001Y0354625D01*
X0377987Y0354761D01*
X0377977Y0354898D01*
X0377971Y0355036D01*
X0377969Y0355173D01*
X0339386Y0178638D02*
X0339388Y0178807D01*
X0339394Y0178976D01*
X0339405Y0179145D01*
X0339419Y0179313D01*
X0339438Y0179481D01*
X0339461Y0179649D01*
X0339487Y0179816D01*
X0339518Y0179982D01*
X0339553Y0180148D01*
X0339592Y0180312D01*
X0339636Y0180476D01*
X0339683Y0180638D01*
X0339734Y0180799D01*
X0339789Y0180959D01*
X0339848Y0181118D01*
X0339910Y0181275D01*
X0339977Y0181430D01*
X0340048Y0181584D01*
X0340122Y0181736D01*
X0340200Y0181886D01*
X0340281Y0182034D01*
X0340366Y0182180D01*
X0340455Y0182324D01*
X0340547Y0182466D01*
X0340643Y0182605D01*
X0340742Y0182742D01*
X0340844Y0182877D01*
X0340950Y0183009D01*
X0341059Y0183138D01*
X0341171Y0183265D01*
X0341286Y0183389D01*
X0341404Y0183510D01*
X0341525Y0183628D01*
X0341649Y0183743D01*
X0341776Y0183855D01*
X0341905Y0183964D01*
X0342037Y0184070D01*
X0342172Y0184172D01*
X0342309Y0184271D01*
X0342448Y0184367D01*
X0342590Y0184459D01*
X0342734Y0184548D01*
X0342880Y0184633D01*
X0343028Y0184714D01*
X0343178Y0184792D01*
X0343330Y0184866D01*
X0343484Y0184937D01*
X0343639Y0185004D01*
X0343796Y0185066D01*
X0343955Y0185125D01*
X0344115Y0185180D01*
X0344276Y0185231D01*
X0344438Y0185278D01*
X0344602Y0185322D01*
X0344766Y0185361D01*
X0344932Y0185396D01*
X0345098Y0185427D01*
X0345265Y0185453D01*
X0345433Y0185476D01*
X0345601Y0185495D01*
X0345769Y0185509D01*
X0345938Y0185520D01*
X0346107Y0185526D01*
X0346276Y0185528D01*
X0346445Y0185526D01*
X0346614Y0185520D01*
X0346783Y0185509D01*
X0346951Y0185495D01*
X0347119Y0185476D01*
X0347287Y0185453D01*
X0347454Y0185427D01*
X0347620Y0185396D01*
X0347786Y0185361D01*
X0347950Y0185322D01*
X0348114Y0185278D01*
X0348276Y0185231D01*
X0348437Y0185180D01*
X0348597Y0185125D01*
X0348756Y0185066D01*
X0348913Y0185004D01*
X0349068Y0184937D01*
X0349222Y0184866D01*
X0349374Y0184792D01*
X0349524Y0184714D01*
X0349672Y0184633D01*
X0349818Y0184548D01*
X0349962Y0184459D01*
X0350104Y0184367D01*
X0350243Y0184271D01*
X0350380Y0184172D01*
X0350515Y0184070D01*
X0350647Y0183964D01*
X0350776Y0183855D01*
X0350903Y0183743D01*
X0351027Y0183628D01*
X0351148Y0183510D01*
X0351266Y0183389D01*
X0351381Y0183265D01*
X0351493Y0183138D01*
X0351602Y0183009D01*
X0351708Y0182877D01*
X0351810Y0182742D01*
X0351909Y0182605D01*
X0352005Y0182466D01*
X0352097Y0182324D01*
X0352186Y0182180D01*
X0352271Y0182034D01*
X0352352Y0181886D01*
X0352430Y0181736D01*
X0352504Y0181584D01*
X0352575Y0181430D01*
X0352642Y0181275D01*
X0352704Y0181118D01*
X0352763Y0180959D01*
X0352818Y0180799D01*
X0352869Y0180638D01*
X0352916Y0180476D01*
X0352960Y0180312D01*
X0352999Y0180148D01*
X0353034Y0179982D01*
X0353065Y0179816D01*
X0353091Y0179649D01*
X0353114Y0179481D01*
X0353133Y0179313D01*
X0353147Y0179145D01*
X0353158Y0178976D01*
X0353164Y0178807D01*
X0353166Y0178638D01*
X0353164Y0178469D01*
X0353158Y0178300D01*
X0353147Y0178131D01*
X0353133Y0177963D01*
X0353114Y0177795D01*
X0353091Y0177627D01*
X0353065Y0177460D01*
X0353034Y0177294D01*
X0352999Y0177128D01*
X0352960Y0176964D01*
X0352916Y0176800D01*
X0352869Y0176638D01*
X0352818Y0176477D01*
X0352763Y0176317D01*
X0352704Y0176158D01*
X0352642Y0176001D01*
X0352575Y0175846D01*
X0352504Y0175692D01*
X0352430Y0175540D01*
X0352352Y0175390D01*
X0352271Y0175242D01*
X0352186Y0175096D01*
X0352097Y0174952D01*
X0352005Y0174810D01*
X0351909Y0174671D01*
X0351810Y0174534D01*
X0351708Y0174399D01*
X0351602Y0174267D01*
X0351493Y0174138D01*
X0351381Y0174011D01*
X0351266Y0173887D01*
X0351148Y0173766D01*
X0351027Y0173648D01*
X0350903Y0173533D01*
X0350776Y0173421D01*
X0350647Y0173312D01*
X0350515Y0173206D01*
X0350380Y0173104D01*
X0350243Y0173005D01*
X0350104Y0172909D01*
X0349962Y0172817D01*
X0349818Y0172728D01*
X0349672Y0172643D01*
X0349524Y0172562D01*
X0349374Y0172484D01*
X0349222Y0172410D01*
X0349068Y0172339D01*
X0348913Y0172272D01*
X0348756Y0172210D01*
X0348597Y0172151D01*
X0348437Y0172096D01*
X0348276Y0172045D01*
X0348114Y0171998D01*
X0347950Y0171954D01*
X0347786Y0171915D01*
X0347620Y0171880D01*
X0347454Y0171849D01*
X0347287Y0171823D01*
X0347119Y0171800D01*
X0346951Y0171781D01*
X0346783Y0171767D01*
X0346614Y0171756D01*
X0346445Y0171750D01*
X0346276Y0171748D01*
X0346107Y0171750D01*
X0345938Y0171756D01*
X0345769Y0171767D01*
X0345601Y0171781D01*
X0345433Y0171800D01*
X0345265Y0171823D01*
X0345098Y0171849D01*
X0344932Y0171880D01*
X0344766Y0171915D01*
X0344602Y0171954D01*
X0344438Y0171998D01*
X0344276Y0172045D01*
X0344115Y0172096D01*
X0343955Y0172151D01*
X0343796Y0172210D01*
X0343639Y0172272D01*
X0343484Y0172339D01*
X0343330Y0172410D01*
X0343178Y0172484D01*
X0343028Y0172562D01*
X0342880Y0172643D01*
X0342734Y0172728D01*
X0342590Y0172817D01*
X0342448Y0172909D01*
X0342309Y0173005D01*
X0342172Y0173104D01*
X0342037Y0173206D01*
X0341905Y0173312D01*
X0341776Y0173421D01*
X0341649Y0173533D01*
X0341525Y0173648D01*
X0341404Y0173766D01*
X0341286Y0173887D01*
X0341171Y0174011D01*
X0341059Y0174138D01*
X0340950Y0174267D01*
X0340844Y0174399D01*
X0340742Y0174534D01*
X0340643Y0174671D01*
X0340547Y0174810D01*
X0340455Y0174952D01*
X0340366Y0175096D01*
X0340281Y0175242D01*
X0340200Y0175390D01*
X0340122Y0175540D01*
X0340048Y0175692D01*
X0339977Y0175846D01*
X0339910Y0176001D01*
X0339848Y0176158D01*
X0339789Y0176317D01*
X0339734Y0176477D01*
X0339683Y0176638D01*
X0339636Y0176800D01*
X0339592Y0176964D01*
X0339553Y0177128D01*
X0339518Y0177294D01*
X0339487Y0177460D01*
X0339461Y0177627D01*
X0339438Y0177795D01*
X0339419Y0177963D01*
X0339405Y0178131D01*
X0339394Y0178300D01*
X0339388Y0178469D01*
X0339386Y0178638D01*
X0301433Y0141906D02*
X0301435Y0142043D01*
X0301441Y0142181D01*
X0301451Y0142318D01*
X0301465Y0142454D01*
X0301483Y0142591D01*
X0301505Y0142726D01*
X0301531Y0142861D01*
X0301560Y0142995D01*
X0301594Y0143129D01*
X0301631Y0143261D01*
X0301673Y0143392D01*
X0301718Y0143522D01*
X0301767Y0143650D01*
X0301819Y0143777D01*
X0301876Y0143902D01*
X0301935Y0144026D01*
X0301999Y0144148D01*
X0302066Y0144268D01*
X0302136Y0144386D01*
X0302210Y0144502D01*
X0302287Y0144616D01*
X0302368Y0144727D01*
X0302451Y0144836D01*
X0302538Y0144943D01*
X0302628Y0145046D01*
X0302721Y0145148D01*
X0302817Y0145246D01*
X0302915Y0145342D01*
X0303017Y0145435D01*
X0303120Y0145525D01*
X0303227Y0145612D01*
X0303336Y0145695D01*
X0303447Y0145776D01*
X0303561Y0145853D01*
X0303677Y0145927D01*
X0303795Y0145997D01*
X0303915Y0146064D01*
X0304037Y0146128D01*
X0304161Y0146187D01*
X0304286Y0146244D01*
X0304413Y0146296D01*
X0304541Y0146345D01*
X0304671Y0146390D01*
X0304802Y0146432D01*
X0304934Y0146469D01*
X0305068Y0146503D01*
X0305202Y0146532D01*
X0305337Y0146558D01*
X0305472Y0146580D01*
X0305609Y0146598D01*
X0305745Y0146612D01*
X0305882Y0146622D01*
X0306020Y0146628D01*
X0306157Y0146630D01*
X0306294Y0146628D01*
X0306432Y0146622D01*
X0306569Y0146612D01*
X0306705Y0146598D01*
X0306842Y0146580D01*
X0306977Y0146558D01*
X0307112Y0146532D01*
X0307246Y0146503D01*
X0307380Y0146469D01*
X0307512Y0146432D01*
X0307643Y0146390D01*
X0307773Y0146345D01*
X0307901Y0146296D01*
X0308028Y0146244D01*
X0308153Y0146187D01*
X0308277Y0146128D01*
X0308399Y0146064D01*
X0308519Y0145997D01*
X0308637Y0145927D01*
X0308753Y0145853D01*
X0308867Y0145776D01*
X0308978Y0145695D01*
X0309087Y0145612D01*
X0309194Y0145525D01*
X0309297Y0145435D01*
X0309399Y0145342D01*
X0309497Y0145246D01*
X0309593Y0145148D01*
X0309686Y0145046D01*
X0309776Y0144943D01*
X0309863Y0144836D01*
X0309946Y0144727D01*
X0310027Y0144616D01*
X0310104Y0144502D01*
X0310178Y0144386D01*
X0310248Y0144268D01*
X0310315Y0144148D01*
X0310379Y0144026D01*
X0310438Y0143902D01*
X0310495Y0143777D01*
X0310547Y0143650D01*
X0310596Y0143522D01*
X0310641Y0143392D01*
X0310683Y0143261D01*
X0310720Y0143129D01*
X0310754Y0142995D01*
X0310783Y0142861D01*
X0310809Y0142726D01*
X0310831Y0142591D01*
X0310849Y0142454D01*
X0310863Y0142318D01*
X0310873Y0142181D01*
X0310879Y0142043D01*
X0310881Y0141906D01*
X0310879Y0141769D01*
X0310873Y0141631D01*
X0310863Y0141494D01*
X0310849Y0141358D01*
X0310831Y0141221D01*
X0310809Y0141086D01*
X0310783Y0140951D01*
X0310754Y0140817D01*
X0310720Y0140683D01*
X0310683Y0140551D01*
X0310641Y0140420D01*
X0310596Y0140290D01*
X0310547Y0140162D01*
X0310495Y0140035D01*
X0310438Y0139910D01*
X0310379Y0139786D01*
X0310315Y0139664D01*
X0310248Y0139544D01*
X0310178Y0139426D01*
X0310104Y0139310D01*
X0310027Y0139196D01*
X0309946Y0139085D01*
X0309863Y0138976D01*
X0309776Y0138869D01*
X0309686Y0138766D01*
X0309593Y0138664D01*
X0309497Y0138566D01*
X0309399Y0138470D01*
X0309297Y0138377D01*
X0309194Y0138287D01*
X0309087Y0138200D01*
X0308978Y0138117D01*
X0308867Y0138036D01*
X0308753Y0137959D01*
X0308637Y0137885D01*
X0308519Y0137815D01*
X0308399Y0137748D01*
X0308277Y0137684D01*
X0308153Y0137625D01*
X0308028Y0137568D01*
X0307901Y0137516D01*
X0307773Y0137467D01*
X0307643Y0137422D01*
X0307512Y0137380D01*
X0307380Y0137343D01*
X0307246Y0137309D01*
X0307112Y0137280D01*
X0306977Y0137254D01*
X0306842Y0137232D01*
X0306705Y0137214D01*
X0306569Y0137200D01*
X0306432Y0137190D01*
X0306294Y0137184D01*
X0306157Y0137182D01*
X0306020Y0137184D01*
X0305882Y0137190D01*
X0305745Y0137200D01*
X0305609Y0137214D01*
X0305472Y0137232D01*
X0305337Y0137254D01*
X0305202Y0137280D01*
X0305068Y0137309D01*
X0304934Y0137343D01*
X0304802Y0137380D01*
X0304671Y0137422D01*
X0304541Y0137467D01*
X0304413Y0137516D01*
X0304286Y0137568D01*
X0304161Y0137625D01*
X0304037Y0137684D01*
X0303915Y0137748D01*
X0303795Y0137815D01*
X0303677Y0137885D01*
X0303561Y0137959D01*
X0303447Y0138036D01*
X0303336Y0138117D01*
X0303227Y0138200D01*
X0303120Y0138287D01*
X0303017Y0138377D01*
X0302915Y0138470D01*
X0302817Y0138566D01*
X0302721Y0138664D01*
X0302628Y0138766D01*
X0302538Y0138869D01*
X0302451Y0138976D01*
X0302368Y0139085D01*
X0302287Y0139196D01*
X0302210Y0139310D01*
X0302136Y0139426D01*
X0302066Y0139544D01*
X0301999Y0139664D01*
X0301935Y0139786D01*
X0301876Y0139910D01*
X0301819Y0140035D01*
X0301767Y0140162D01*
X0301718Y0140290D01*
X0301673Y0140420D01*
X0301631Y0140551D01*
X0301594Y0140683D01*
X0301560Y0140817D01*
X0301531Y0140951D01*
X0301505Y0141086D01*
X0301483Y0141221D01*
X0301465Y0141358D01*
X0301451Y0141494D01*
X0301441Y0141631D01*
X0301435Y0141769D01*
X0301433Y0141906D01*
X0250606Y0121079D02*
X0250608Y0121167D01*
X0250614Y0121255D01*
X0250624Y0121343D01*
X0250638Y0121431D01*
X0250655Y0121517D01*
X0250677Y0121603D01*
X0250702Y0121687D01*
X0250732Y0121771D01*
X0250764Y0121853D01*
X0250801Y0121933D01*
X0250841Y0122012D01*
X0250885Y0122089D01*
X0250932Y0122164D01*
X0250982Y0122236D01*
X0251036Y0122307D01*
X0251092Y0122374D01*
X0251152Y0122440D01*
X0251214Y0122502D01*
X0251280Y0122562D01*
X0251347Y0122618D01*
X0251418Y0122672D01*
X0251490Y0122722D01*
X0251565Y0122769D01*
X0251642Y0122813D01*
X0251721Y0122853D01*
X0251801Y0122890D01*
X0251883Y0122922D01*
X0251967Y0122952D01*
X0252051Y0122977D01*
X0252137Y0122999D01*
X0252223Y0123016D01*
X0252311Y0123030D01*
X0252399Y0123040D01*
X0252487Y0123046D01*
X0252575Y0123048D01*
X0252663Y0123046D01*
X0252751Y0123040D01*
X0252839Y0123030D01*
X0252927Y0123016D01*
X0253013Y0122999D01*
X0253099Y0122977D01*
X0253183Y0122952D01*
X0253267Y0122922D01*
X0253349Y0122890D01*
X0253429Y0122853D01*
X0253508Y0122813D01*
X0253585Y0122769D01*
X0253660Y0122722D01*
X0253732Y0122672D01*
X0253803Y0122618D01*
X0253870Y0122562D01*
X0253936Y0122502D01*
X0253998Y0122440D01*
X0254058Y0122374D01*
X0254114Y0122307D01*
X0254168Y0122236D01*
X0254218Y0122164D01*
X0254265Y0122089D01*
X0254309Y0122012D01*
X0254349Y0121933D01*
X0254386Y0121853D01*
X0254418Y0121771D01*
X0254448Y0121687D01*
X0254473Y0121603D01*
X0254495Y0121517D01*
X0254512Y0121431D01*
X0254526Y0121343D01*
X0254536Y0121255D01*
X0254542Y0121167D01*
X0254544Y0121079D01*
X0254542Y0120991D01*
X0254536Y0120903D01*
X0254526Y0120815D01*
X0254512Y0120727D01*
X0254495Y0120641D01*
X0254473Y0120555D01*
X0254448Y0120471D01*
X0254418Y0120387D01*
X0254386Y0120305D01*
X0254349Y0120225D01*
X0254309Y0120146D01*
X0254265Y0120069D01*
X0254218Y0119994D01*
X0254168Y0119922D01*
X0254114Y0119851D01*
X0254058Y0119784D01*
X0253998Y0119718D01*
X0253936Y0119656D01*
X0253870Y0119596D01*
X0253803Y0119540D01*
X0253732Y0119486D01*
X0253660Y0119436D01*
X0253585Y0119389D01*
X0253508Y0119345D01*
X0253429Y0119305D01*
X0253349Y0119268D01*
X0253267Y0119236D01*
X0253183Y0119206D01*
X0253099Y0119181D01*
X0253013Y0119159D01*
X0252927Y0119142D01*
X0252839Y0119128D01*
X0252751Y0119118D01*
X0252663Y0119112D01*
X0252575Y0119110D01*
X0252487Y0119112D01*
X0252399Y0119118D01*
X0252311Y0119128D01*
X0252223Y0119142D01*
X0252137Y0119159D01*
X0252051Y0119181D01*
X0251967Y0119206D01*
X0251883Y0119236D01*
X0251801Y0119268D01*
X0251721Y0119305D01*
X0251642Y0119345D01*
X0251565Y0119389D01*
X0251490Y0119436D01*
X0251418Y0119486D01*
X0251347Y0119540D01*
X0251280Y0119596D01*
X0251214Y0119656D01*
X0251152Y0119718D01*
X0251092Y0119784D01*
X0251036Y0119851D01*
X0250982Y0119922D01*
X0250932Y0119994D01*
X0250885Y0120069D01*
X0250841Y0120146D01*
X0250801Y0120225D01*
X0250764Y0120305D01*
X0250732Y0120387D01*
X0250702Y0120471D01*
X0250677Y0120555D01*
X0250655Y0120641D01*
X0250638Y0120727D01*
X0250624Y0120815D01*
X0250614Y0120903D01*
X0250608Y0120991D01*
X0250606Y0121079D01*
X0221078Y0121079D02*
X0221080Y0121167D01*
X0221086Y0121255D01*
X0221096Y0121343D01*
X0221110Y0121431D01*
X0221127Y0121517D01*
X0221149Y0121603D01*
X0221174Y0121687D01*
X0221204Y0121771D01*
X0221236Y0121853D01*
X0221273Y0121933D01*
X0221313Y0122012D01*
X0221357Y0122089D01*
X0221404Y0122164D01*
X0221454Y0122236D01*
X0221508Y0122307D01*
X0221564Y0122374D01*
X0221624Y0122440D01*
X0221686Y0122502D01*
X0221752Y0122562D01*
X0221819Y0122618D01*
X0221890Y0122672D01*
X0221962Y0122722D01*
X0222037Y0122769D01*
X0222114Y0122813D01*
X0222193Y0122853D01*
X0222273Y0122890D01*
X0222355Y0122922D01*
X0222439Y0122952D01*
X0222523Y0122977D01*
X0222609Y0122999D01*
X0222695Y0123016D01*
X0222783Y0123030D01*
X0222871Y0123040D01*
X0222959Y0123046D01*
X0223047Y0123048D01*
X0223135Y0123046D01*
X0223223Y0123040D01*
X0223311Y0123030D01*
X0223399Y0123016D01*
X0223485Y0122999D01*
X0223571Y0122977D01*
X0223655Y0122952D01*
X0223739Y0122922D01*
X0223821Y0122890D01*
X0223901Y0122853D01*
X0223980Y0122813D01*
X0224057Y0122769D01*
X0224132Y0122722D01*
X0224204Y0122672D01*
X0224275Y0122618D01*
X0224342Y0122562D01*
X0224408Y0122502D01*
X0224470Y0122440D01*
X0224530Y0122374D01*
X0224586Y0122307D01*
X0224640Y0122236D01*
X0224690Y0122164D01*
X0224737Y0122089D01*
X0224781Y0122012D01*
X0224821Y0121933D01*
X0224858Y0121853D01*
X0224890Y0121771D01*
X0224920Y0121687D01*
X0224945Y0121603D01*
X0224967Y0121517D01*
X0224984Y0121431D01*
X0224998Y0121343D01*
X0225008Y0121255D01*
X0225014Y0121167D01*
X0225016Y0121079D01*
X0225014Y0120991D01*
X0225008Y0120903D01*
X0224998Y0120815D01*
X0224984Y0120727D01*
X0224967Y0120641D01*
X0224945Y0120555D01*
X0224920Y0120471D01*
X0224890Y0120387D01*
X0224858Y0120305D01*
X0224821Y0120225D01*
X0224781Y0120146D01*
X0224737Y0120069D01*
X0224690Y0119994D01*
X0224640Y0119922D01*
X0224586Y0119851D01*
X0224530Y0119784D01*
X0224470Y0119718D01*
X0224408Y0119656D01*
X0224342Y0119596D01*
X0224275Y0119540D01*
X0224204Y0119486D01*
X0224132Y0119436D01*
X0224057Y0119389D01*
X0223980Y0119345D01*
X0223901Y0119305D01*
X0223821Y0119268D01*
X0223739Y0119236D01*
X0223655Y0119206D01*
X0223571Y0119181D01*
X0223485Y0119159D01*
X0223399Y0119142D01*
X0223311Y0119128D01*
X0223223Y0119118D01*
X0223135Y0119112D01*
X0223047Y0119110D01*
X0222959Y0119112D01*
X0222871Y0119118D01*
X0222783Y0119128D01*
X0222695Y0119142D01*
X0222609Y0119159D01*
X0222523Y0119181D01*
X0222439Y0119206D01*
X0222355Y0119236D01*
X0222273Y0119268D01*
X0222193Y0119305D01*
X0222114Y0119345D01*
X0222037Y0119389D01*
X0221962Y0119436D01*
X0221890Y0119486D01*
X0221819Y0119540D01*
X0221752Y0119596D01*
X0221686Y0119656D01*
X0221624Y0119718D01*
X0221564Y0119784D01*
X0221508Y0119851D01*
X0221454Y0119922D01*
X0221404Y0119994D01*
X0221357Y0120069D01*
X0221313Y0120146D01*
X0221273Y0120225D01*
X0221236Y0120305D01*
X0221204Y0120387D01*
X0221174Y0120471D01*
X0221149Y0120555D01*
X0221127Y0120641D01*
X0221110Y0120727D01*
X0221096Y0120815D01*
X0221086Y0120903D01*
X0221080Y0120991D01*
X0221078Y0121079D01*
X0231118Y0072457D02*
X0231120Y0072621D01*
X0231126Y0072785D01*
X0231136Y0072949D01*
X0231150Y0073113D01*
X0231168Y0073276D01*
X0231190Y0073439D01*
X0231217Y0073601D01*
X0231247Y0073763D01*
X0231281Y0073923D01*
X0231319Y0074083D01*
X0231360Y0074242D01*
X0231406Y0074400D01*
X0231456Y0074556D01*
X0231509Y0074712D01*
X0231566Y0074866D01*
X0231627Y0075018D01*
X0231692Y0075169D01*
X0231761Y0075319D01*
X0231833Y0075466D01*
X0231908Y0075612D01*
X0231988Y0075756D01*
X0232070Y0075898D01*
X0232156Y0076038D01*
X0232246Y0076175D01*
X0232339Y0076311D01*
X0232435Y0076444D01*
X0232535Y0076575D01*
X0232637Y0076703D01*
X0232743Y0076829D01*
X0232852Y0076952D01*
X0232964Y0077072D01*
X0233078Y0077190D01*
X0233196Y0077304D01*
X0233316Y0077416D01*
X0233439Y0077525D01*
X0233565Y0077631D01*
X0233693Y0077733D01*
X0233824Y0077833D01*
X0233957Y0077929D01*
X0234093Y0078022D01*
X0234230Y0078112D01*
X0234370Y0078198D01*
X0234512Y0078280D01*
X0234656Y0078360D01*
X0234802Y0078435D01*
X0234949Y0078507D01*
X0235099Y0078576D01*
X0235250Y0078641D01*
X0235402Y0078702D01*
X0235556Y0078759D01*
X0235712Y0078812D01*
X0235868Y0078862D01*
X0236026Y0078908D01*
X0236185Y0078949D01*
X0236345Y0078987D01*
X0236505Y0079021D01*
X0236667Y0079051D01*
X0236829Y0079078D01*
X0236992Y0079100D01*
X0237155Y0079118D01*
X0237319Y0079132D01*
X0237483Y0079142D01*
X0237647Y0079148D01*
X0237811Y0079150D01*
X0237975Y0079148D01*
X0238139Y0079142D01*
X0238303Y0079132D01*
X0238467Y0079118D01*
X0238630Y0079100D01*
X0238793Y0079078D01*
X0238955Y0079051D01*
X0239117Y0079021D01*
X0239277Y0078987D01*
X0239437Y0078949D01*
X0239596Y0078908D01*
X0239754Y0078862D01*
X0239910Y0078812D01*
X0240066Y0078759D01*
X0240220Y0078702D01*
X0240372Y0078641D01*
X0240523Y0078576D01*
X0240673Y0078507D01*
X0240820Y0078435D01*
X0240966Y0078360D01*
X0241110Y0078280D01*
X0241252Y0078198D01*
X0241392Y0078112D01*
X0241529Y0078022D01*
X0241665Y0077929D01*
X0241798Y0077833D01*
X0241929Y0077733D01*
X0242057Y0077631D01*
X0242183Y0077525D01*
X0242306Y0077416D01*
X0242426Y0077304D01*
X0242544Y0077190D01*
X0242658Y0077072D01*
X0242770Y0076952D01*
X0242879Y0076829D01*
X0242985Y0076703D01*
X0243087Y0076575D01*
X0243187Y0076444D01*
X0243283Y0076311D01*
X0243376Y0076175D01*
X0243466Y0076038D01*
X0243552Y0075898D01*
X0243634Y0075756D01*
X0243714Y0075612D01*
X0243789Y0075466D01*
X0243861Y0075319D01*
X0243930Y0075169D01*
X0243995Y0075018D01*
X0244056Y0074866D01*
X0244113Y0074712D01*
X0244166Y0074556D01*
X0244216Y0074400D01*
X0244262Y0074242D01*
X0244303Y0074083D01*
X0244341Y0073923D01*
X0244375Y0073763D01*
X0244405Y0073601D01*
X0244432Y0073439D01*
X0244454Y0073276D01*
X0244472Y0073113D01*
X0244486Y0072949D01*
X0244496Y0072785D01*
X0244502Y0072621D01*
X0244504Y0072457D01*
X0244502Y0072293D01*
X0244496Y0072129D01*
X0244486Y0071965D01*
X0244472Y0071801D01*
X0244454Y0071638D01*
X0244432Y0071475D01*
X0244405Y0071313D01*
X0244375Y0071151D01*
X0244341Y0070991D01*
X0244303Y0070831D01*
X0244262Y0070672D01*
X0244216Y0070514D01*
X0244166Y0070358D01*
X0244113Y0070202D01*
X0244056Y0070048D01*
X0243995Y0069896D01*
X0243930Y0069745D01*
X0243861Y0069595D01*
X0243789Y0069448D01*
X0243714Y0069302D01*
X0243634Y0069158D01*
X0243552Y0069016D01*
X0243466Y0068876D01*
X0243376Y0068739D01*
X0243283Y0068603D01*
X0243187Y0068470D01*
X0243087Y0068339D01*
X0242985Y0068211D01*
X0242879Y0068085D01*
X0242770Y0067962D01*
X0242658Y0067842D01*
X0242544Y0067724D01*
X0242426Y0067610D01*
X0242306Y0067498D01*
X0242183Y0067389D01*
X0242057Y0067283D01*
X0241929Y0067181D01*
X0241798Y0067081D01*
X0241665Y0066985D01*
X0241529Y0066892D01*
X0241392Y0066802D01*
X0241252Y0066716D01*
X0241110Y0066634D01*
X0240966Y0066554D01*
X0240820Y0066479D01*
X0240673Y0066407D01*
X0240523Y0066338D01*
X0240372Y0066273D01*
X0240220Y0066212D01*
X0240066Y0066155D01*
X0239910Y0066102D01*
X0239754Y0066052D01*
X0239596Y0066006D01*
X0239437Y0065965D01*
X0239277Y0065927D01*
X0239117Y0065893D01*
X0238955Y0065863D01*
X0238793Y0065836D01*
X0238630Y0065814D01*
X0238467Y0065796D01*
X0238303Y0065782D01*
X0238139Y0065772D01*
X0237975Y0065766D01*
X0237811Y0065764D01*
X0237647Y0065766D01*
X0237483Y0065772D01*
X0237319Y0065782D01*
X0237155Y0065796D01*
X0236992Y0065814D01*
X0236829Y0065836D01*
X0236667Y0065863D01*
X0236505Y0065893D01*
X0236345Y0065927D01*
X0236185Y0065965D01*
X0236026Y0066006D01*
X0235868Y0066052D01*
X0235712Y0066102D01*
X0235556Y0066155D01*
X0235402Y0066212D01*
X0235250Y0066273D01*
X0235099Y0066338D01*
X0234949Y0066407D01*
X0234802Y0066479D01*
X0234656Y0066554D01*
X0234512Y0066634D01*
X0234370Y0066716D01*
X0234230Y0066802D01*
X0234093Y0066892D01*
X0233957Y0066985D01*
X0233824Y0067081D01*
X0233693Y0067181D01*
X0233565Y0067283D01*
X0233439Y0067389D01*
X0233316Y0067498D01*
X0233196Y0067610D01*
X0233078Y0067724D01*
X0232964Y0067842D01*
X0232852Y0067962D01*
X0232743Y0068085D01*
X0232637Y0068211D01*
X0232535Y0068339D01*
X0232435Y0068470D01*
X0232339Y0068603D01*
X0232246Y0068739D01*
X0232156Y0068876D01*
X0232070Y0069016D01*
X0231988Y0069158D01*
X0231908Y0069302D01*
X0231833Y0069448D01*
X0231761Y0069595D01*
X0231692Y0069745D01*
X0231627Y0069896D01*
X0231566Y0070048D01*
X0231509Y0070202D01*
X0231456Y0070358D01*
X0231406Y0070514D01*
X0231360Y0070672D01*
X0231319Y0070831D01*
X0231281Y0070991D01*
X0231247Y0071151D01*
X0231217Y0071313D01*
X0231190Y0071475D01*
X0231168Y0071638D01*
X0231150Y0071801D01*
X0231136Y0071965D01*
X0231126Y0072129D01*
X0231120Y0072293D01*
X0231118Y0072457D01*
X0092299Y0178638D02*
X0092301Y0178750D01*
X0092307Y0178861D01*
X0092317Y0178973D01*
X0092331Y0179084D01*
X0092348Y0179194D01*
X0092370Y0179304D01*
X0092396Y0179413D01*
X0092425Y0179521D01*
X0092458Y0179627D01*
X0092495Y0179733D01*
X0092536Y0179837D01*
X0092581Y0179940D01*
X0092629Y0180041D01*
X0092680Y0180140D01*
X0092735Y0180237D01*
X0092794Y0180332D01*
X0092855Y0180426D01*
X0092920Y0180517D01*
X0092989Y0180605D01*
X0093060Y0180691D01*
X0093134Y0180775D01*
X0093212Y0180855D01*
X0093292Y0180933D01*
X0093375Y0181009D01*
X0093460Y0181081D01*
X0093548Y0181150D01*
X0093638Y0181216D01*
X0093731Y0181278D01*
X0093826Y0181338D01*
X0093923Y0181394D01*
X0094021Y0181446D01*
X0094122Y0181495D01*
X0094224Y0181540D01*
X0094328Y0181582D01*
X0094433Y0181620D01*
X0094540Y0181654D01*
X0094647Y0181684D01*
X0094756Y0181711D01*
X0094865Y0181733D01*
X0094976Y0181752D01*
X0095086Y0181767D01*
X0095198Y0181778D01*
X0095309Y0181785D01*
X0095421Y0181788D01*
X0095533Y0181787D01*
X0095645Y0181782D01*
X0095756Y0181773D01*
X0095867Y0181760D01*
X0095978Y0181743D01*
X0096088Y0181723D01*
X0096197Y0181698D01*
X0096305Y0181670D01*
X0096412Y0181637D01*
X0096518Y0181601D01*
X0096622Y0181561D01*
X0096725Y0181518D01*
X0096827Y0181471D01*
X0096926Y0181420D01*
X0097024Y0181366D01*
X0097120Y0181308D01*
X0097214Y0181247D01*
X0097305Y0181183D01*
X0097394Y0181116D01*
X0097481Y0181045D01*
X0097565Y0180971D01*
X0097647Y0180895D01*
X0097725Y0180815D01*
X0097801Y0180733D01*
X0097874Y0180648D01*
X0097944Y0180561D01*
X0098010Y0180471D01*
X0098074Y0180379D01*
X0098134Y0180285D01*
X0098191Y0180189D01*
X0098244Y0180090D01*
X0098294Y0179990D01*
X0098340Y0179889D01*
X0098383Y0179785D01*
X0098422Y0179680D01*
X0098457Y0179574D01*
X0098488Y0179467D01*
X0098516Y0179358D01*
X0098539Y0179249D01*
X0098559Y0179139D01*
X0098575Y0179028D01*
X0098587Y0178917D01*
X0098595Y0178806D01*
X0098599Y0178694D01*
X0098599Y0178582D01*
X0098595Y0178470D01*
X0098587Y0178359D01*
X0098575Y0178248D01*
X0098559Y0178137D01*
X0098539Y0178027D01*
X0098516Y0177918D01*
X0098488Y0177809D01*
X0098457Y0177702D01*
X0098422Y0177596D01*
X0098383Y0177491D01*
X0098340Y0177387D01*
X0098294Y0177286D01*
X0098244Y0177186D01*
X0098191Y0177087D01*
X0098134Y0176991D01*
X0098074Y0176897D01*
X0098010Y0176805D01*
X0097944Y0176715D01*
X0097874Y0176628D01*
X0097801Y0176543D01*
X0097725Y0176461D01*
X0097647Y0176381D01*
X0097565Y0176305D01*
X0097481Y0176231D01*
X0097394Y0176160D01*
X0097305Y0176093D01*
X0097214Y0176029D01*
X0097120Y0175968D01*
X0097024Y0175910D01*
X0096926Y0175856D01*
X0096827Y0175805D01*
X0096725Y0175758D01*
X0096622Y0175715D01*
X0096518Y0175675D01*
X0096412Y0175639D01*
X0096305Y0175606D01*
X0096197Y0175578D01*
X0096088Y0175553D01*
X0095978Y0175533D01*
X0095867Y0175516D01*
X0095756Y0175503D01*
X0095645Y0175494D01*
X0095533Y0175489D01*
X0095421Y0175488D01*
X0095309Y0175491D01*
X0095198Y0175498D01*
X0095086Y0175509D01*
X0094976Y0175524D01*
X0094865Y0175543D01*
X0094756Y0175565D01*
X0094647Y0175592D01*
X0094540Y0175622D01*
X0094433Y0175656D01*
X0094328Y0175694D01*
X0094224Y0175736D01*
X0094122Y0175781D01*
X0094021Y0175830D01*
X0093923Y0175882D01*
X0093826Y0175938D01*
X0093731Y0175998D01*
X0093638Y0176060D01*
X0093548Y0176126D01*
X0093460Y0176195D01*
X0093375Y0176267D01*
X0093292Y0176343D01*
X0093212Y0176421D01*
X0093134Y0176501D01*
X0093060Y0176585D01*
X0092989Y0176671D01*
X0092920Y0176759D01*
X0092855Y0176850D01*
X0092794Y0176944D01*
X0092735Y0177039D01*
X0092680Y0177136D01*
X0092629Y0177235D01*
X0092581Y0177336D01*
X0092536Y0177439D01*
X0092495Y0177543D01*
X0092458Y0177649D01*
X0092425Y0177755D01*
X0092396Y0177863D01*
X0092370Y0177972D01*
X0092348Y0178082D01*
X0092331Y0178192D01*
X0092317Y0178303D01*
X0092307Y0178415D01*
X0092301Y0178526D01*
X0092299Y0178638D01*
X0088205Y0355173D02*
X0088207Y0355310D01*
X0088213Y0355448D01*
X0088223Y0355585D01*
X0088237Y0355721D01*
X0088255Y0355858D01*
X0088277Y0355993D01*
X0088303Y0356128D01*
X0088332Y0356262D01*
X0088366Y0356396D01*
X0088403Y0356528D01*
X0088445Y0356659D01*
X0088490Y0356789D01*
X0088539Y0356917D01*
X0088591Y0357044D01*
X0088648Y0357169D01*
X0088707Y0357293D01*
X0088771Y0357415D01*
X0088838Y0357535D01*
X0088908Y0357653D01*
X0088982Y0357769D01*
X0089059Y0357883D01*
X0089140Y0357994D01*
X0089223Y0358103D01*
X0089310Y0358210D01*
X0089400Y0358313D01*
X0089493Y0358415D01*
X0089589Y0358513D01*
X0089687Y0358609D01*
X0089789Y0358702D01*
X0089892Y0358792D01*
X0089999Y0358879D01*
X0090108Y0358962D01*
X0090219Y0359043D01*
X0090333Y0359120D01*
X0090449Y0359194D01*
X0090567Y0359264D01*
X0090687Y0359331D01*
X0090809Y0359395D01*
X0090933Y0359454D01*
X0091058Y0359511D01*
X0091185Y0359563D01*
X0091313Y0359612D01*
X0091443Y0359657D01*
X0091574Y0359699D01*
X0091706Y0359736D01*
X0091840Y0359770D01*
X0091974Y0359799D01*
X0092109Y0359825D01*
X0092244Y0359847D01*
X0092381Y0359865D01*
X0092517Y0359879D01*
X0092654Y0359889D01*
X0092792Y0359895D01*
X0092929Y0359897D01*
X0093066Y0359895D01*
X0093204Y0359889D01*
X0093341Y0359879D01*
X0093477Y0359865D01*
X0093614Y0359847D01*
X0093749Y0359825D01*
X0093884Y0359799D01*
X0094018Y0359770D01*
X0094152Y0359736D01*
X0094284Y0359699D01*
X0094415Y0359657D01*
X0094545Y0359612D01*
X0094673Y0359563D01*
X0094800Y0359511D01*
X0094925Y0359454D01*
X0095049Y0359395D01*
X0095171Y0359331D01*
X0095291Y0359264D01*
X0095409Y0359194D01*
X0095525Y0359120D01*
X0095639Y0359043D01*
X0095750Y0358962D01*
X0095859Y0358879D01*
X0095966Y0358792D01*
X0096069Y0358702D01*
X0096171Y0358609D01*
X0096269Y0358513D01*
X0096365Y0358415D01*
X0096458Y0358313D01*
X0096548Y0358210D01*
X0096635Y0358103D01*
X0096718Y0357994D01*
X0096799Y0357883D01*
X0096876Y0357769D01*
X0096950Y0357653D01*
X0097020Y0357535D01*
X0097087Y0357415D01*
X0097151Y0357293D01*
X0097210Y0357169D01*
X0097267Y0357044D01*
X0097319Y0356917D01*
X0097368Y0356789D01*
X0097413Y0356659D01*
X0097455Y0356528D01*
X0097492Y0356396D01*
X0097526Y0356262D01*
X0097555Y0356128D01*
X0097581Y0355993D01*
X0097603Y0355858D01*
X0097621Y0355721D01*
X0097635Y0355585D01*
X0097645Y0355448D01*
X0097651Y0355310D01*
X0097653Y0355173D01*
X0097651Y0355036D01*
X0097645Y0354898D01*
X0097635Y0354761D01*
X0097621Y0354625D01*
X0097603Y0354488D01*
X0097581Y0354353D01*
X0097555Y0354218D01*
X0097526Y0354084D01*
X0097492Y0353950D01*
X0097455Y0353818D01*
X0097413Y0353687D01*
X0097368Y0353557D01*
X0097319Y0353429D01*
X0097267Y0353302D01*
X0097210Y0353177D01*
X0097151Y0353053D01*
X0097087Y0352931D01*
X0097020Y0352811D01*
X0096950Y0352693D01*
X0096876Y0352577D01*
X0096799Y0352463D01*
X0096718Y0352352D01*
X0096635Y0352243D01*
X0096548Y0352136D01*
X0096458Y0352033D01*
X0096365Y0351931D01*
X0096269Y0351833D01*
X0096171Y0351737D01*
X0096069Y0351644D01*
X0095966Y0351554D01*
X0095859Y0351467D01*
X0095750Y0351384D01*
X0095639Y0351303D01*
X0095525Y0351226D01*
X0095409Y0351152D01*
X0095291Y0351082D01*
X0095171Y0351015D01*
X0095049Y0350951D01*
X0094925Y0350892D01*
X0094800Y0350835D01*
X0094673Y0350783D01*
X0094545Y0350734D01*
X0094415Y0350689D01*
X0094284Y0350647D01*
X0094152Y0350610D01*
X0094018Y0350576D01*
X0093884Y0350547D01*
X0093749Y0350521D01*
X0093614Y0350499D01*
X0093477Y0350481D01*
X0093341Y0350467D01*
X0093204Y0350457D01*
X0093066Y0350451D01*
X0092929Y0350449D01*
X0092792Y0350451D01*
X0092654Y0350457D01*
X0092517Y0350467D01*
X0092381Y0350481D01*
X0092244Y0350499D01*
X0092109Y0350521D01*
X0091974Y0350547D01*
X0091840Y0350576D01*
X0091706Y0350610D01*
X0091574Y0350647D01*
X0091443Y0350689D01*
X0091313Y0350734D01*
X0091185Y0350783D01*
X0091058Y0350835D01*
X0090933Y0350892D01*
X0090809Y0350951D01*
X0090687Y0351015D01*
X0090567Y0351082D01*
X0090449Y0351152D01*
X0090333Y0351226D01*
X0090219Y0351303D01*
X0090108Y0351384D01*
X0089999Y0351467D01*
X0089892Y0351554D01*
X0089789Y0351644D01*
X0089687Y0351737D01*
X0089589Y0351833D01*
X0089493Y0351931D01*
X0089400Y0352033D01*
X0089310Y0352136D01*
X0089223Y0352243D01*
X0089140Y0352352D01*
X0089059Y0352463D01*
X0088982Y0352577D01*
X0088908Y0352693D01*
X0088838Y0352811D01*
X0088771Y0352931D01*
X0088707Y0353053D01*
X0088648Y0353177D01*
X0088591Y0353302D01*
X0088539Y0353429D01*
X0088490Y0353557D01*
X0088445Y0353687D01*
X0088403Y0353818D01*
X0088366Y0353950D01*
X0088332Y0354084D01*
X0088303Y0354218D01*
X0088277Y0354353D01*
X0088255Y0354488D01*
X0088237Y0354625D01*
X0088223Y0354761D01*
X0088213Y0354898D01*
X0088207Y0355036D01*
X0088205Y0355173D01*
X0378008Y0065370D02*
X0378010Y0065507D01*
X0378016Y0065645D01*
X0378026Y0065782D01*
X0378040Y0065918D01*
X0378058Y0066055D01*
X0378080Y0066190D01*
X0378106Y0066325D01*
X0378135Y0066459D01*
X0378169Y0066593D01*
X0378206Y0066725D01*
X0378248Y0066856D01*
X0378293Y0066986D01*
X0378342Y0067114D01*
X0378394Y0067241D01*
X0378451Y0067366D01*
X0378510Y0067490D01*
X0378574Y0067612D01*
X0378641Y0067732D01*
X0378711Y0067850D01*
X0378785Y0067966D01*
X0378862Y0068080D01*
X0378943Y0068191D01*
X0379026Y0068300D01*
X0379113Y0068407D01*
X0379203Y0068510D01*
X0379296Y0068612D01*
X0379392Y0068710D01*
X0379490Y0068806D01*
X0379592Y0068899D01*
X0379695Y0068989D01*
X0379802Y0069076D01*
X0379911Y0069159D01*
X0380022Y0069240D01*
X0380136Y0069317D01*
X0380252Y0069391D01*
X0380370Y0069461D01*
X0380490Y0069528D01*
X0380612Y0069592D01*
X0380736Y0069651D01*
X0380861Y0069708D01*
X0380988Y0069760D01*
X0381116Y0069809D01*
X0381246Y0069854D01*
X0381377Y0069896D01*
X0381509Y0069933D01*
X0381643Y0069967D01*
X0381777Y0069996D01*
X0381912Y0070022D01*
X0382047Y0070044D01*
X0382184Y0070062D01*
X0382320Y0070076D01*
X0382457Y0070086D01*
X0382595Y0070092D01*
X0382732Y0070094D01*
X0382869Y0070092D01*
X0383007Y0070086D01*
X0383144Y0070076D01*
X0383280Y0070062D01*
X0383417Y0070044D01*
X0383552Y0070022D01*
X0383687Y0069996D01*
X0383821Y0069967D01*
X0383955Y0069933D01*
X0384087Y0069896D01*
X0384218Y0069854D01*
X0384348Y0069809D01*
X0384476Y0069760D01*
X0384603Y0069708D01*
X0384728Y0069651D01*
X0384852Y0069592D01*
X0384974Y0069528D01*
X0385094Y0069461D01*
X0385212Y0069391D01*
X0385328Y0069317D01*
X0385442Y0069240D01*
X0385553Y0069159D01*
X0385662Y0069076D01*
X0385769Y0068989D01*
X0385872Y0068899D01*
X0385974Y0068806D01*
X0386072Y0068710D01*
X0386168Y0068612D01*
X0386261Y0068510D01*
X0386351Y0068407D01*
X0386438Y0068300D01*
X0386521Y0068191D01*
X0386602Y0068080D01*
X0386679Y0067966D01*
X0386753Y0067850D01*
X0386823Y0067732D01*
X0386890Y0067612D01*
X0386954Y0067490D01*
X0387013Y0067366D01*
X0387070Y0067241D01*
X0387122Y0067114D01*
X0387171Y0066986D01*
X0387216Y0066856D01*
X0387258Y0066725D01*
X0387295Y0066593D01*
X0387329Y0066459D01*
X0387358Y0066325D01*
X0387384Y0066190D01*
X0387406Y0066055D01*
X0387424Y0065918D01*
X0387438Y0065782D01*
X0387448Y0065645D01*
X0387454Y0065507D01*
X0387456Y0065370D01*
X0387454Y0065233D01*
X0387448Y0065095D01*
X0387438Y0064958D01*
X0387424Y0064822D01*
X0387406Y0064685D01*
X0387384Y0064550D01*
X0387358Y0064415D01*
X0387329Y0064281D01*
X0387295Y0064147D01*
X0387258Y0064015D01*
X0387216Y0063884D01*
X0387171Y0063754D01*
X0387122Y0063626D01*
X0387070Y0063499D01*
X0387013Y0063374D01*
X0386954Y0063250D01*
X0386890Y0063128D01*
X0386823Y0063008D01*
X0386753Y0062890D01*
X0386679Y0062774D01*
X0386602Y0062660D01*
X0386521Y0062549D01*
X0386438Y0062440D01*
X0386351Y0062333D01*
X0386261Y0062230D01*
X0386168Y0062128D01*
X0386072Y0062030D01*
X0385974Y0061934D01*
X0385872Y0061841D01*
X0385769Y0061751D01*
X0385662Y0061664D01*
X0385553Y0061581D01*
X0385442Y0061500D01*
X0385328Y0061423D01*
X0385212Y0061349D01*
X0385094Y0061279D01*
X0384974Y0061212D01*
X0384852Y0061148D01*
X0384728Y0061089D01*
X0384603Y0061032D01*
X0384476Y0060980D01*
X0384348Y0060931D01*
X0384218Y0060886D01*
X0384087Y0060844D01*
X0383955Y0060807D01*
X0383821Y0060773D01*
X0383687Y0060744D01*
X0383552Y0060718D01*
X0383417Y0060696D01*
X0383280Y0060678D01*
X0383144Y0060664D01*
X0383007Y0060654D01*
X0382869Y0060648D01*
X0382732Y0060646D01*
X0382595Y0060648D01*
X0382457Y0060654D01*
X0382320Y0060664D01*
X0382184Y0060678D01*
X0382047Y0060696D01*
X0381912Y0060718D01*
X0381777Y0060744D01*
X0381643Y0060773D01*
X0381509Y0060807D01*
X0381377Y0060844D01*
X0381246Y0060886D01*
X0381116Y0060931D01*
X0380988Y0060980D01*
X0380861Y0061032D01*
X0380736Y0061089D01*
X0380612Y0061148D01*
X0380490Y0061212D01*
X0380370Y0061279D01*
X0380252Y0061349D01*
X0380136Y0061423D01*
X0380022Y0061500D01*
X0379911Y0061581D01*
X0379802Y0061664D01*
X0379695Y0061751D01*
X0379592Y0061841D01*
X0379490Y0061934D01*
X0379392Y0062030D01*
X0379296Y0062128D01*
X0379203Y0062230D01*
X0379113Y0062333D01*
X0379026Y0062440D01*
X0378943Y0062549D01*
X0378862Y0062660D01*
X0378785Y0062774D01*
X0378711Y0062890D01*
X0378641Y0063008D01*
X0378574Y0063128D01*
X0378510Y0063250D01*
X0378451Y0063374D01*
X0378394Y0063499D01*
X0378342Y0063626D01*
X0378293Y0063754D01*
X0378248Y0063884D01*
X0378206Y0064015D01*
X0378169Y0064147D01*
X0378135Y0064281D01*
X0378106Y0064415D01*
X0378080Y0064550D01*
X0378058Y0064685D01*
X0378040Y0064822D01*
X0378026Y0064958D01*
X0378016Y0065095D01*
X0378010Y0065233D01*
X0378008Y0065370D01*
D11*
X0079237Y0060760D02*
X0075328Y0065763D01*
X0071869Y0071015D01*
X0068866Y0076485D01*
X0066322Y0082144D01*
X0064242Y0087962D01*
X0062630Y0093909D01*
X0061491Y0099957D01*
X0060828Y0106076D01*
X0060648Y0112236D01*
X0060952Y0118407D01*
X0061747Y0124560D01*
X0063037Y0130666D01*
X0064825Y0136694D01*
X0067117Y0142616D01*
X0069916Y0148401D01*
X0072434Y0153357D01*
X0074738Y0158408D01*
X0076823Y0163547D01*
X0078688Y0168768D01*
X0080331Y0174063D01*
X0081749Y0179425D01*
X0082940Y0184847D01*
X0083902Y0190322D01*
X0083849Y0191162D01*
X0083450Y0191903D01*
X0082778Y0192410D01*
X0081956Y0192590D01*
X0063364Y0192590D01*
X0062598Y0192744D01*
X0061973Y0193166D01*
X0061551Y0193791D01*
X0061395Y0194556D01*
X0061389Y0225998D01*
X0061543Y0226765D01*
X0061965Y0227390D01*
X0062591Y0227812D01*
X0063357Y0227967D01*
X0081948Y0227969D01*
X0082714Y0228123D01*
X0083340Y0228545D01*
X0083762Y0229171D01*
X0083916Y0229937D01*
X0083893Y0230237D02*
X0083841Y0229397D01*
X0083442Y0228656D01*
X0082770Y0228148D01*
X0081948Y0227969D01*
X0069657Y0227969D01*
X0069656Y0227969D02*
X0063357Y0227967D01*
X0083893Y0230237D02*
X0082931Y0235705D01*
X0081740Y0241120D01*
X0080322Y0246475D01*
X0078679Y0251762D01*
X0076815Y0256976D01*
X0074732Y0262109D01*
X0072431Y0267153D01*
X0069916Y0272103D01*
X0067117Y0277888D01*
X0064825Y0283810D01*
X0063037Y0289838D01*
X0061747Y0295944D01*
X0060952Y0302097D01*
X0060648Y0308268D01*
X0060828Y0314428D01*
X0061491Y0320546D01*
X0062630Y0326595D01*
X0064242Y0332542D01*
X0066322Y0338360D01*
X0068866Y0344019D01*
X0071869Y0349489D01*
X0075328Y0354741D01*
X0079237Y0359744D01*
X0083593Y0364470D01*
X0088319Y0368826D01*
X0093322Y0372735D01*
X0098574Y0376194D01*
X0104044Y0379197D01*
X0109703Y0381741D01*
X0115521Y0383821D01*
X0121468Y0385433D01*
X0127516Y0386572D01*
X0133635Y0387235D01*
X0139795Y0387415D01*
X0145966Y0387111D01*
X0152119Y0386316D01*
X0158225Y0385026D01*
X0164253Y0383238D01*
X0170175Y0380946D01*
X0175960Y0378147D01*
X0183293Y0374512D01*
X0190785Y0371361D01*
X0198414Y0368696D01*
X0206156Y0366515D01*
X0213990Y0364818D01*
X0221893Y0363606D01*
X0229840Y0362879D01*
X0237811Y0362637D01*
X0245782Y0362879D01*
X0253729Y0363606D01*
X0261632Y0364818D01*
X0269466Y0366515D01*
X0277208Y0368696D01*
X0284837Y0371361D01*
X0292329Y0374512D01*
X0299662Y0378147D01*
X0305447Y0380946D01*
X0311369Y0383238D01*
X0317397Y0385026D01*
X0323503Y0386316D01*
X0329656Y0387111D01*
X0335827Y0387415D01*
X0341987Y0387235D01*
X0348106Y0386572D01*
X0354154Y0385433D01*
X0360101Y0383821D01*
X0365919Y0381741D01*
X0371578Y0379197D01*
X0377048Y0376194D01*
X0382300Y0372735D01*
X0387303Y0368826D01*
X0392029Y0364470D01*
X0396385Y0359744D01*
X0400294Y0354741D01*
X0403753Y0349489D01*
X0406756Y0344019D01*
X0409300Y0338360D01*
X0411380Y0332542D01*
X0412992Y0326595D01*
X0414131Y0320546D01*
X0414794Y0314428D01*
X0414975Y0308268D01*
X0414976Y0308283D02*
X0414671Y0302083D01*
X0414670Y0302097D02*
X0413875Y0295944D01*
X0412585Y0289838D01*
X0410797Y0283810D01*
X0408505Y0277888D01*
X0405706Y0272103D01*
X0402298Y0265263D01*
X0399294Y0258235D01*
X0397557Y0253559D01*
X0401308Y0252574D01*
X0404910Y0251285D01*
X0408349Y0249709D01*
X0411613Y0247862D01*
X0414690Y0245758D01*
X0417565Y0243414D01*
X0420228Y0240846D01*
X0422664Y0238070D01*
X0424861Y0235101D01*
X0426807Y0231955D01*
X0428489Y0228648D01*
X0429893Y0225196D01*
X0431007Y0221615D01*
X0431819Y0217920D01*
X0432316Y0214127D01*
X0432484Y0210252D01*
X0432316Y0206377D01*
X0431819Y0202584D01*
X0431007Y0198889D01*
X0429893Y0195308D01*
X0428489Y0191856D01*
X0426807Y0188549D01*
X0424861Y0185403D01*
X0422664Y0182434D01*
X0420228Y0179657D01*
X0417565Y0177090D01*
X0414690Y0174746D01*
X0411613Y0172642D01*
X0408349Y0170795D01*
X0404910Y0169219D01*
X0401308Y0167930D01*
X0397557Y0166945D01*
X0399294Y0162268D01*
X0402298Y0155241D01*
X0405706Y0148401D01*
X0408505Y0142616D01*
X0410797Y0136694D01*
X0412585Y0130666D01*
X0413875Y0124560D01*
X0414670Y0118407D01*
X0414975Y0112236D01*
X0414794Y0106076D01*
X0414131Y0099957D01*
X0412992Y0093909D01*
X0411380Y0087962D01*
X0409300Y0082144D01*
X0406756Y0076485D01*
X0403753Y0071015D01*
X0400294Y0065763D01*
X0396385Y0060760D01*
X0392029Y0056034D01*
X0387303Y0051678D01*
X0382300Y0047769D01*
X0377048Y0044310D01*
X0371578Y0041307D01*
X0365919Y0038763D01*
X0360101Y0036683D01*
X0354154Y0035071D01*
X0348106Y0033932D01*
X0341987Y0033269D01*
X0335827Y0033088D01*
X0329656Y0033393D01*
X0323503Y0034188D01*
X0317397Y0035478D01*
X0311369Y0037266D01*
X0305447Y0039558D01*
X0299662Y0042357D01*
X0292329Y0045992D01*
X0284837Y0049142D01*
X0277208Y0051808D01*
X0269466Y0053989D01*
X0261632Y0055686D01*
X0253729Y0056897D01*
X0245782Y0057624D01*
X0237811Y0057867D01*
X0229840Y0057624D01*
X0221893Y0056897D01*
X0213990Y0055686D01*
X0206156Y0053989D01*
X0198414Y0051808D01*
X0190785Y0049142D01*
X0183293Y0045992D01*
X0175960Y0042357D01*
X0170175Y0039558D01*
X0164253Y0037266D01*
X0158225Y0035478D01*
X0152119Y0034188D01*
X0145966Y0033393D01*
X0139795Y0033088D01*
X0133635Y0033269D01*
X0127516Y0033932D01*
X0121468Y0035071D01*
X0115521Y0036683D01*
X0109703Y0038763D01*
X0104044Y0041307D01*
X0098574Y0044310D01*
X0093322Y0047769D01*
X0088319Y0051678D01*
X0083593Y0056034D01*
X0079237Y0060760D01*
X0074119Y0096669D02*
X0124229Y0046560D01*
X0188258Y0110589D01*
X0138148Y0160699D01*
X0074119Y0096669D01*
X0138148Y0259805D02*
X0188258Y0309915D01*
X0124229Y0373944D01*
X0074119Y0323834D01*
X0138148Y0259805D01*
X0287364Y0309915D02*
X0337474Y0259805D01*
X0401503Y0323834D01*
X0351394Y0373944D01*
X0287364Y0309915D01*
X0337474Y0160699D02*
X0401503Y0096669D01*
X0351394Y0046560D01*
X0287364Y0110589D01*
X0337474Y0160699D01*
X0414964Y0112813D02*
X0414964Y0110053D01*
D12*
X0140528Y0200921D03*
X0135528Y0200921D03*
X0130528Y0200921D03*
X0125528Y0200921D03*
X0125528Y0220449D03*
X0130528Y0220449D03*
X0135528Y0220449D03*
X0140528Y0220449D03*
D13*
X0133028Y0210449D03*
D14*
X0108677Y0232457D03*
X0096866Y0232457D03*
D15*
X0303087Y0214071D03*
X0303087Y0210331D03*
X0303087Y0206591D03*
X0313323Y0206591D03*
X0313323Y0210331D03*
X0313323Y0214071D03*
D16*
X0336354Y0215764D03*
X0338913Y0215764D03*
X0341472Y0215764D03*
X0344031Y0215764D03*
X0344031Y0204740D03*
X0341472Y0204740D03*
X0338913Y0204740D03*
X0336354Y0204740D03*
D17*
X0098165Y0193913D03*
X0095016Y0193913D03*
X0095016Y0187535D03*
X0098165Y0187535D03*
D18*
X0181886Y0207260D03*
X0181886Y0209228D03*
X0181886Y0211197D03*
X0181886Y0213165D03*
X0191531Y0213165D03*
X0191531Y0211197D03*
X0191531Y0209228D03*
X0191531Y0207260D03*
D19*
X0192083Y0207260D03*
X0192083Y0209228D03*
X0192083Y0211197D03*
X0192083Y0213165D03*
X0181335Y0213165D03*
X0181335Y0211197D03*
X0181335Y0209228D03*
X0181335Y0207260D03*
D20*
X0180803Y0207260D03*
X0180803Y0209228D03*
X0180803Y0211197D03*
X0180803Y0213165D03*
X0192614Y0213165D03*
X0192614Y0211197D03*
X0192614Y0209228D03*
X0192614Y0207260D03*
D21*
X0186709Y0210213D03*
D22*
X0186039Y0191551D03*
X0169504Y0191551D03*
D23*
X0229268Y0173283D03*
X0250921Y0173283D03*
D24*
X0235311Y0210252D02*
X0235313Y0210351D01*
X0235319Y0210451D01*
X0235329Y0210550D01*
X0235343Y0210648D01*
X0235360Y0210746D01*
X0235382Y0210843D01*
X0235407Y0210939D01*
X0235436Y0211034D01*
X0235469Y0211128D01*
X0235506Y0211220D01*
X0235546Y0211311D01*
X0235590Y0211400D01*
X0235638Y0211488D01*
X0235689Y0211573D01*
X0235743Y0211656D01*
X0235800Y0211738D01*
X0235861Y0211816D01*
X0235925Y0211893D01*
X0235991Y0211966D01*
X0236061Y0212037D01*
X0236133Y0212105D01*
X0236208Y0212171D01*
X0236286Y0212233D01*
X0236366Y0212292D01*
X0236448Y0212348D01*
X0236532Y0212400D01*
X0236619Y0212449D01*
X0236707Y0212495D01*
X0236797Y0212537D01*
X0236889Y0212576D01*
X0236982Y0212611D01*
X0237076Y0212642D01*
X0237172Y0212669D01*
X0237269Y0212692D01*
X0237366Y0212712D01*
X0237464Y0212728D01*
X0237563Y0212740D01*
X0237662Y0212748D01*
X0237761Y0212752D01*
X0237861Y0212752D01*
X0237960Y0212748D01*
X0238059Y0212740D01*
X0238158Y0212728D01*
X0238256Y0212712D01*
X0238353Y0212692D01*
X0238450Y0212669D01*
X0238546Y0212642D01*
X0238640Y0212611D01*
X0238733Y0212576D01*
X0238825Y0212537D01*
X0238915Y0212495D01*
X0239003Y0212449D01*
X0239090Y0212400D01*
X0239174Y0212348D01*
X0239256Y0212292D01*
X0239336Y0212233D01*
X0239414Y0212171D01*
X0239489Y0212105D01*
X0239561Y0212037D01*
X0239631Y0211966D01*
X0239697Y0211893D01*
X0239761Y0211816D01*
X0239822Y0211738D01*
X0239879Y0211656D01*
X0239933Y0211573D01*
X0239984Y0211488D01*
X0240032Y0211400D01*
X0240076Y0211311D01*
X0240116Y0211220D01*
X0240153Y0211128D01*
X0240186Y0211034D01*
X0240215Y0210939D01*
X0240240Y0210843D01*
X0240262Y0210746D01*
X0240279Y0210648D01*
X0240293Y0210550D01*
X0240303Y0210451D01*
X0240309Y0210351D01*
X0240311Y0210252D01*
X0240309Y0210153D01*
X0240303Y0210053D01*
X0240293Y0209954D01*
X0240279Y0209856D01*
X0240262Y0209758D01*
X0240240Y0209661D01*
X0240215Y0209565D01*
X0240186Y0209470D01*
X0240153Y0209376D01*
X0240116Y0209284D01*
X0240076Y0209193D01*
X0240032Y0209104D01*
X0239984Y0209016D01*
X0239933Y0208931D01*
X0239879Y0208848D01*
X0239822Y0208766D01*
X0239761Y0208688D01*
X0239697Y0208611D01*
X0239631Y0208538D01*
X0239561Y0208467D01*
X0239489Y0208399D01*
X0239414Y0208333D01*
X0239336Y0208271D01*
X0239256Y0208212D01*
X0239174Y0208156D01*
X0239090Y0208104D01*
X0239003Y0208055D01*
X0238915Y0208009D01*
X0238825Y0207967D01*
X0238733Y0207928D01*
X0238640Y0207893D01*
X0238546Y0207862D01*
X0238450Y0207835D01*
X0238353Y0207812D01*
X0238256Y0207792D01*
X0238158Y0207776D01*
X0238059Y0207764D01*
X0237960Y0207756D01*
X0237861Y0207752D01*
X0237761Y0207752D01*
X0237662Y0207756D01*
X0237563Y0207764D01*
X0237464Y0207776D01*
X0237366Y0207792D01*
X0237269Y0207812D01*
X0237172Y0207835D01*
X0237076Y0207862D01*
X0236982Y0207893D01*
X0236889Y0207928D01*
X0236797Y0207967D01*
X0236707Y0208009D01*
X0236619Y0208055D01*
X0236532Y0208104D01*
X0236448Y0208156D01*
X0236366Y0208212D01*
X0236286Y0208271D01*
X0236208Y0208333D01*
X0236133Y0208399D01*
X0236061Y0208467D01*
X0235991Y0208538D01*
X0235925Y0208611D01*
X0235861Y0208688D01*
X0235800Y0208766D01*
X0235743Y0208848D01*
X0235689Y0208931D01*
X0235638Y0209016D01*
X0235590Y0209104D01*
X0235546Y0209193D01*
X0235506Y0209284D01*
X0235469Y0209376D01*
X0235436Y0209470D01*
X0235407Y0209565D01*
X0235382Y0209661D01*
X0235360Y0209758D01*
X0235343Y0209856D01*
X0235329Y0209954D01*
X0235319Y0210053D01*
X0235313Y0210153D01*
X0235311Y0210252D01*
D25*
X0225960Y0210144D02*
X0223874Y0210144D01*
X0223874Y0210360D01*
X0225960Y0210360D01*
X0225960Y0210144D01*
X0225960Y0208175D02*
X0223874Y0208175D01*
X0223874Y0208391D01*
X0225960Y0208391D01*
X0225960Y0208175D01*
X0225960Y0206207D02*
X0223874Y0206207D01*
X0223874Y0206423D01*
X0225960Y0206423D01*
X0225960Y0206207D01*
X0225960Y0204238D02*
X0223874Y0204238D01*
X0223874Y0204454D01*
X0225960Y0204454D01*
X0225960Y0204238D01*
X0225960Y0202270D02*
X0223874Y0202270D01*
X0223874Y0202486D01*
X0225960Y0202486D01*
X0225960Y0202270D01*
X0225960Y0200301D02*
X0223874Y0200301D01*
X0223874Y0200517D01*
X0225960Y0200517D01*
X0225960Y0200301D01*
X0228077Y0198401D02*
X0228077Y0196315D01*
X0227861Y0196315D01*
X0227861Y0198401D01*
X0228077Y0198401D01*
X0228077Y0197180D02*
X0227861Y0197180D01*
X0227861Y0198045D02*
X0228077Y0198045D01*
X0230045Y0198401D02*
X0230045Y0196315D01*
X0229829Y0196315D01*
X0229829Y0198401D01*
X0230045Y0198401D01*
X0230045Y0197180D02*
X0229829Y0197180D01*
X0229829Y0198045D02*
X0230045Y0198045D01*
X0232014Y0198401D02*
X0232014Y0196315D01*
X0231798Y0196315D01*
X0231798Y0198401D01*
X0232014Y0198401D01*
X0232014Y0197180D02*
X0231798Y0197180D01*
X0231798Y0198045D02*
X0232014Y0198045D01*
X0233982Y0198401D02*
X0233982Y0196315D01*
X0233766Y0196315D01*
X0233766Y0198401D01*
X0233982Y0198401D01*
X0233982Y0197180D02*
X0233766Y0197180D01*
X0233766Y0198045D02*
X0233982Y0198045D01*
X0235951Y0198401D02*
X0235951Y0196315D01*
X0235735Y0196315D01*
X0235735Y0198401D01*
X0235951Y0198401D01*
X0235951Y0197180D02*
X0235735Y0197180D01*
X0235735Y0198045D02*
X0235951Y0198045D01*
X0237919Y0198401D02*
X0237919Y0196315D01*
X0237703Y0196315D01*
X0237703Y0198401D01*
X0237919Y0198401D01*
X0237919Y0197180D02*
X0237703Y0197180D01*
X0237703Y0198045D02*
X0237919Y0198045D01*
X0239888Y0198401D02*
X0239888Y0196315D01*
X0239672Y0196315D01*
X0239672Y0198401D01*
X0239888Y0198401D01*
X0239888Y0197180D02*
X0239672Y0197180D01*
X0239672Y0198045D02*
X0239888Y0198045D01*
X0241856Y0198401D02*
X0241856Y0196315D01*
X0241640Y0196315D01*
X0241640Y0198401D01*
X0241856Y0198401D01*
X0241856Y0197180D02*
X0241640Y0197180D01*
X0241640Y0198045D02*
X0241856Y0198045D01*
X0243825Y0198401D02*
X0243825Y0196315D01*
X0243609Y0196315D01*
X0243609Y0198401D01*
X0243825Y0198401D01*
X0243825Y0197180D02*
X0243609Y0197180D01*
X0243609Y0198045D02*
X0243825Y0198045D01*
X0245793Y0198401D02*
X0245793Y0196315D01*
X0245577Y0196315D01*
X0245577Y0198401D01*
X0245793Y0198401D01*
X0245793Y0197180D02*
X0245577Y0197180D01*
X0245577Y0198045D02*
X0245793Y0198045D01*
X0247762Y0198401D02*
X0247762Y0196315D01*
X0247546Y0196315D01*
X0247546Y0198401D01*
X0247762Y0198401D01*
X0247762Y0197180D02*
X0247546Y0197180D01*
X0247546Y0198045D02*
X0247762Y0198045D01*
X0249662Y0200517D02*
X0251748Y0200517D01*
X0251748Y0200301D01*
X0249662Y0200301D01*
X0249662Y0200517D01*
X0249662Y0202486D02*
X0251748Y0202486D01*
X0251748Y0202270D01*
X0249662Y0202270D01*
X0249662Y0202486D01*
X0249662Y0204454D02*
X0251748Y0204454D01*
X0251748Y0204238D01*
X0249662Y0204238D01*
X0249662Y0204454D01*
X0249662Y0206423D02*
X0251748Y0206423D01*
X0251748Y0206207D01*
X0249662Y0206207D01*
X0249662Y0206423D01*
X0249662Y0208391D02*
X0251748Y0208391D01*
X0251748Y0208175D01*
X0249662Y0208175D01*
X0249662Y0208391D01*
X0249662Y0210360D02*
X0251748Y0210360D01*
X0251748Y0210144D01*
X0249662Y0210144D01*
X0249662Y0210360D01*
X0249662Y0212328D02*
X0251748Y0212328D01*
X0251748Y0212112D01*
X0249662Y0212112D01*
X0249662Y0212328D01*
X0249662Y0214297D02*
X0251748Y0214297D01*
X0251748Y0214081D01*
X0249662Y0214081D01*
X0249662Y0214297D01*
X0249662Y0216265D02*
X0251748Y0216265D01*
X0251748Y0216049D01*
X0249662Y0216049D01*
X0249662Y0216265D01*
X0249662Y0218234D02*
X0251748Y0218234D01*
X0251748Y0218018D01*
X0249662Y0218018D01*
X0249662Y0218234D01*
X0249662Y0220202D02*
X0251748Y0220202D01*
X0251748Y0219986D01*
X0249662Y0219986D01*
X0249662Y0220202D01*
X0247546Y0222103D02*
X0247546Y0224189D01*
X0247762Y0224189D01*
X0247762Y0222103D01*
X0247546Y0222103D01*
X0247546Y0222968D02*
X0247762Y0222968D01*
X0247762Y0223833D02*
X0247546Y0223833D01*
X0245577Y0224189D02*
X0245577Y0222103D01*
X0245577Y0224189D02*
X0245793Y0224189D01*
X0245793Y0222103D01*
X0245577Y0222103D01*
X0245577Y0222968D02*
X0245793Y0222968D01*
X0245793Y0223833D02*
X0245577Y0223833D01*
X0243609Y0224189D02*
X0243609Y0222103D01*
X0243609Y0224189D02*
X0243825Y0224189D01*
X0243825Y0222103D01*
X0243609Y0222103D01*
X0243609Y0222968D02*
X0243825Y0222968D01*
X0243825Y0223833D02*
X0243609Y0223833D01*
X0241640Y0224189D02*
X0241640Y0222103D01*
X0241640Y0224189D02*
X0241856Y0224189D01*
X0241856Y0222103D01*
X0241640Y0222103D01*
X0241640Y0222968D02*
X0241856Y0222968D01*
X0241856Y0223833D02*
X0241640Y0223833D01*
X0239672Y0224189D02*
X0239672Y0222103D01*
X0239672Y0224189D02*
X0239888Y0224189D01*
X0239888Y0222103D01*
X0239672Y0222103D01*
X0239672Y0222968D02*
X0239888Y0222968D01*
X0239888Y0223833D02*
X0239672Y0223833D01*
X0237703Y0224189D02*
X0237703Y0222103D01*
X0237703Y0224189D02*
X0237919Y0224189D01*
X0237919Y0222103D01*
X0237703Y0222103D01*
X0237703Y0222968D02*
X0237919Y0222968D01*
X0237919Y0223833D02*
X0237703Y0223833D01*
X0235735Y0224189D02*
X0235735Y0222103D01*
X0235735Y0224189D02*
X0235951Y0224189D01*
X0235951Y0222103D01*
X0235735Y0222103D01*
X0235735Y0222968D02*
X0235951Y0222968D01*
X0235951Y0223833D02*
X0235735Y0223833D01*
X0233766Y0224189D02*
X0233766Y0222103D01*
X0233766Y0224189D02*
X0233982Y0224189D01*
X0233982Y0222103D01*
X0233766Y0222103D01*
X0233766Y0222968D02*
X0233982Y0222968D01*
X0233982Y0223833D02*
X0233766Y0223833D01*
X0231798Y0224189D02*
X0231798Y0222103D01*
X0231798Y0224189D02*
X0232014Y0224189D01*
X0232014Y0222103D01*
X0231798Y0222103D01*
X0231798Y0222968D02*
X0232014Y0222968D01*
X0232014Y0223833D02*
X0231798Y0223833D01*
X0229829Y0224189D02*
X0229829Y0222103D01*
X0229829Y0224189D02*
X0230045Y0224189D01*
X0230045Y0222103D01*
X0229829Y0222103D01*
X0229829Y0222968D02*
X0230045Y0222968D01*
X0230045Y0223833D02*
X0229829Y0223833D01*
X0227861Y0224189D02*
X0227861Y0222103D01*
X0227861Y0224189D02*
X0228077Y0224189D01*
X0228077Y0222103D01*
X0227861Y0222103D01*
X0227861Y0222968D02*
X0228077Y0222968D01*
X0228077Y0223833D02*
X0227861Y0223833D01*
X0225960Y0219986D02*
X0223874Y0219986D01*
X0223874Y0220202D01*
X0225960Y0220202D01*
X0225960Y0219986D01*
X0225960Y0218018D02*
X0223874Y0218018D01*
X0223874Y0218234D01*
X0225960Y0218234D01*
X0225960Y0218018D01*
X0225960Y0216049D02*
X0223874Y0216049D01*
X0223874Y0216265D01*
X0225960Y0216265D01*
X0225960Y0216049D01*
X0225960Y0214081D02*
X0223874Y0214081D01*
X0223874Y0214297D01*
X0225960Y0214297D01*
X0225960Y0214081D01*
X0225960Y0212112D02*
X0223874Y0212112D01*
X0223874Y0212328D01*
X0225960Y0212328D01*
X0225960Y0212112D01*
D26*
X0190764Y0228756D03*
X0182890Y0228756D03*
D27*
X0077024Y0215370D03*
X0077024Y0212811D03*
X0077024Y0210252D03*
X0077024Y0207693D03*
X0077024Y0205134D03*
D28*
X0077024Y0197654D03*
X0077024Y0222850D03*
D29*
X0068874Y0223244D02*
X0068872Y0223306D01*
X0068866Y0223367D01*
X0068857Y0223428D01*
X0068843Y0223489D01*
X0068826Y0223548D01*
X0068805Y0223606D01*
X0068780Y0223663D01*
X0068752Y0223718D01*
X0068721Y0223771D01*
X0068686Y0223822D01*
X0068648Y0223871D01*
X0068607Y0223918D01*
X0068564Y0223961D01*
X0068517Y0224002D01*
X0068468Y0224040D01*
X0068417Y0224075D01*
X0068364Y0224106D01*
X0068309Y0224134D01*
X0068252Y0224159D01*
X0068194Y0224180D01*
X0068135Y0224197D01*
X0068074Y0224211D01*
X0068013Y0224220D01*
X0067952Y0224226D01*
X0067890Y0224228D01*
X0065134Y0224228D01*
X0064150Y0223244D02*
X0064152Y0223182D01*
X0064158Y0223121D01*
X0064167Y0223060D01*
X0064181Y0222999D01*
X0064198Y0222940D01*
X0064219Y0222882D01*
X0064244Y0222825D01*
X0064272Y0222770D01*
X0064303Y0222717D01*
X0064338Y0222666D01*
X0064376Y0222617D01*
X0064417Y0222570D01*
X0064460Y0222527D01*
X0064507Y0222486D01*
X0064556Y0222448D01*
X0064607Y0222413D01*
X0064660Y0222382D01*
X0064715Y0222354D01*
X0064772Y0222329D01*
X0064830Y0222308D01*
X0064889Y0222291D01*
X0064950Y0222277D01*
X0065011Y0222268D01*
X0065072Y0222262D01*
X0065134Y0222260D01*
X0067890Y0222260D01*
X0067952Y0222262D01*
X0068013Y0222268D01*
X0068074Y0222277D01*
X0068135Y0222291D01*
X0068194Y0222308D01*
X0068252Y0222329D01*
X0068309Y0222354D01*
X0068364Y0222382D01*
X0068417Y0222413D01*
X0068468Y0222448D01*
X0068517Y0222486D01*
X0068564Y0222527D01*
X0068607Y0222570D01*
X0068648Y0222617D01*
X0068686Y0222666D01*
X0068721Y0222717D01*
X0068752Y0222770D01*
X0068780Y0222825D01*
X0068805Y0222882D01*
X0068826Y0222940D01*
X0068843Y0222999D01*
X0068857Y0223060D01*
X0068866Y0223121D01*
X0068872Y0223182D01*
X0068874Y0223244D01*
X0065134Y0224228D02*
X0065072Y0224226D01*
X0065011Y0224220D01*
X0064950Y0224211D01*
X0064889Y0224197D01*
X0064830Y0224180D01*
X0064772Y0224159D01*
X0064715Y0224134D01*
X0064660Y0224106D01*
X0064607Y0224075D01*
X0064556Y0224040D01*
X0064507Y0224002D01*
X0064460Y0223961D01*
X0064417Y0223918D01*
X0064376Y0223871D01*
X0064338Y0223822D01*
X0064303Y0223771D01*
X0064272Y0223718D01*
X0064244Y0223663D01*
X0064219Y0223606D01*
X0064198Y0223548D01*
X0064181Y0223489D01*
X0064167Y0223428D01*
X0064158Y0223367D01*
X0064152Y0223306D01*
X0064150Y0223244D01*
X0065134Y0198244D02*
X0067890Y0198244D01*
X0067952Y0198242D01*
X0068013Y0198236D01*
X0068074Y0198227D01*
X0068135Y0198213D01*
X0068194Y0198196D01*
X0068252Y0198175D01*
X0068309Y0198150D01*
X0068364Y0198122D01*
X0068417Y0198091D01*
X0068468Y0198056D01*
X0068517Y0198018D01*
X0068564Y0197977D01*
X0068607Y0197934D01*
X0068648Y0197887D01*
X0068686Y0197838D01*
X0068721Y0197787D01*
X0068752Y0197734D01*
X0068780Y0197679D01*
X0068805Y0197622D01*
X0068826Y0197564D01*
X0068843Y0197505D01*
X0068857Y0197444D01*
X0068866Y0197383D01*
X0068872Y0197322D01*
X0068874Y0197260D01*
X0068872Y0197198D01*
X0068866Y0197137D01*
X0068857Y0197076D01*
X0068843Y0197015D01*
X0068826Y0196956D01*
X0068805Y0196898D01*
X0068780Y0196841D01*
X0068752Y0196786D01*
X0068721Y0196733D01*
X0068686Y0196682D01*
X0068648Y0196633D01*
X0068607Y0196586D01*
X0068564Y0196543D01*
X0068517Y0196502D01*
X0068468Y0196464D01*
X0068417Y0196429D01*
X0068364Y0196398D01*
X0068309Y0196370D01*
X0068252Y0196345D01*
X0068194Y0196324D01*
X0068135Y0196307D01*
X0068074Y0196293D01*
X0068013Y0196284D01*
X0067952Y0196278D01*
X0067890Y0196276D01*
X0065134Y0196276D01*
X0065072Y0196278D01*
X0065011Y0196284D01*
X0064950Y0196293D01*
X0064889Y0196307D01*
X0064830Y0196324D01*
X0064772Y0196345D01*
X0064715Y0196370D01*
X0064660Y0196398D01*
X0064607Y0196429D01*
X0064556Y0196464D01*
X0064507Y0196502D01*
X0064460Y0196543D01*
X0064417Y0196586D01*
X0064376Y0196633D01*
X0064338Y0196682D01*
X0064303Y0196733D01*
X0064272Y0196786D01*
X0064244Y0196841D01*
X0064219Y0196898D01*
X0064198Y0196956D01*
X0064181Y0197015D01*
X0064167Y0197076D01*
X0064158Y0197137D01*
X0064152Y0197198D01*
X0064150Y0197260D01*
X0064152Y0197322D01*
X0064158Y0197383D01*
X0064167Y0197444D01*
X0064181Y0197505D01*
X0064198Y0197564D01*
X0064219Y0197622D01*
X0064244Y0197679D01*
X0064272Y0197734D01*
X0064303Y0197787D01*
X0064338Y0197838D01*
X0064376Y0197887D01*
X0064417Y0197934D01*
X0064460Y0197977D01*
X0064507Y0198018D01*
X0064556Y0198056D01*
X0064607Y0198091D01*
X0064660Y0198122D01*
X0064715Y0198150D01*
X0064772Y0198175D01*
X0064830Y0198196D01*
X0064889Y0198213D01*
X0064950Y0198227D01*
X0065011Y0198236D01*
X0065072Y0198242D01*
X0065134Y0198244D01*
D30*
X0066492Y0205528D03*
X0066492Y0214976D03*
D31*
X0067890Y0223244D02*
X0067890Y0223244D01*
X0065134Y0223244D01*
X0065134Y0223244D01*
X0067890Y0223244D01*
X0067890Y0197260D02*
X0067890Y0197260D01*
X0065134Y0197260D01*
X0065134Y0197260D01*
X0067890Y0197260D01*
D32*
X0103717Y0196118D03*
X0108047Y0196118D03*
X0108087Y0189819D03*
X0103756Y0189819D03*
X0105488Y0222063D03*
X0109819Y0222063D03*
X0152772Y0239898D03*
X0157102Y0239898D03*
X0197969Y0244366D03*
X0202299Y0244366D03*
X0200252Y0252969D03*
X0204583Y0252969D03*
X0218677Y0233638D03*
X0223008Y0233638D03*
X0212417Y0211827D03*
X0208087Y0211827D03*
X0224346Y0185409D03*
X0228677Y0185409D03*
X0238008Y0185449D03*
X0242339Y0185449D03*
X0251197Y0185409D03*
X0255528Y0185409D03*
X0289189Y0210291D03*
X0293520Y0210291D03*
X0322260Y0210252D03*
X0326591Y0210252D03*
X0375291Y0183953D03*
X0379622Y0183953D03*
X0291157Y0278362D03*
X0286827Y0278362D03*
X0156236Y0181472D03*
X0151906Y0181472D03*
X0252772Y0130921D03*
X0257102Y0130921D03*
D33*
X0293461Y0196453D03*
X0293461Y0200783D03*
X0313402Y0198638D03*
X0313402Y0194307D03*
X0313402Y0222260D03*
X0313402Y0226591D03*
X0276787Y0232496D03*
X0276787Y0236827D03*
X0256236Y0236827D03*
X0256236Y0232496D03*
X0247654Y0232496D03*
X0247654Y0236827D03*
X0166866Y0212535D03*
X0166866Y0208205D03*
X0161079Y0208205D03*
X0161079Y0212535D03*
X0140409Y0180331D03*
X0140409Y0176000D03*
X0125606Y0175921D03*
X0125606Y0180252D03*
X0106504Y0275535D03*
X0106504Y0279866D03*
X0375291Y0174110D03*
X0375291Y0169780D03*
D34*
X0301787Y0236630D03*
X0291945Y0236630D03*
X0206906Y0236630D03*
X0197063Y0236630D03*
X0163598Y0247654D03*
X0153756Y0247654D03*
X0153756Y0172850D03*
X0163598Y0172850D03*
D35*
X0173244Y0207299D03*
X0173244Y0213205D03*
X0170882Y0227693D03*
X0170882Y0233598D03*
D36*
X0156000Y0229425D03*
X0148520Y0229425D03*
D37*
X0355173Y0214110D03*
X0355173Y0211551D03*
X0355173Y0208992D03*
X0355173Y0206433D03*
X0366197Y0206433D03*
X0366197Y0208992D03*
X0366197Y0211551D03*
X0366197Y0214110D03*
D38*
X0362181Y0245843D03*
X0362181Y0253323D03*
X0370614Y0253327D03*
X0370614Y0245846D03*
X0379098Y0245807D03*
X0379098Y0253287D03*
X0353677Y0253244D03*
X0345173Y0253283D03*
X0345173Y0245803D03*
X0353677Y0245764D03*
D39*
X0391433Y0235764D03*
X0398913Y0235764D03*
X0395173Y0243638D03*
D40*
X0392850Y0225902D03*
X0412142Y0225902D03*
X0412142Y0194602D03*
X0392850Y0194602D03*
D41*
X0258677Y0284858D02*
X0251591Y0284858D01*
X0251591Y0293126D01*
X0258677Y0293126D01*
X0258677Y0288992D01*
X0258677Y0284858D01*
X0224031Y0284858D02*
X0216945Y0284858D01*
X0216945Y0288992D01*
X0216945Y0293126D01*
X0224031Y0293126D01*
X0224031Y0284858D01*
D42*
X0427772Y0216748D03*
X0427772Y0203756D03*
M02*
