                                                                        S      1
,,12HPelvis Stump,12HPelvis Stump,7Hunknown,7Hunknown,32,38,7,99,15,,1.,G      1
2,2HMM,1,0.08,15H20170708.093104,0.01,10000.,7Hunknown,7Hunknown,11,0,; G      2
     186       1                                                00000000D      1
     186            -111       1       0                               0D      2
     514       2                                                00010000D      3
     514                       1       1                               0D      4
     510       3                                                00010000D      5
     510            -111       1       1                               0D      6
     510       4                                                00010000D      7
     510            -111       1       1                               0D      8
     510       5                                                00010000D      9
     510            -111       1       1                               0D     10
     510       6                                                00010000D     11
     510            -111       1       1                               0D     12
     510       7                                                00010000D     13
     510            -111       1       1                               0D     14
     510       8                                                00010000D     15
     510            -111       1       1                               0D     16
     510       9                                                00010000D     17
     510            -111       1       1                               0D     18
     510      10                                                00010000D     19
     510            -111       1       1                               0D     20
     510      11                                                00010000D     21
     510            -111       1       1                               0D     22
     508      12                                                00010000D     23
     508                       1       1                               0D     24
     508      13                                                00010000D     25
     508                       1       1                               0D     26
     508      14                                                00010000D     27
     508                       1       1                               0D     28
     508      15                                                00010000D     29
     508                       1       1                               0D     30
     508      16                                                00010000D     31
     508                       2       1                               0D     32
     508      18                                                00010000D     33
     508                       1       1                               0D     34
     508      19                                                00010000D     35
     508                       2       1                               0D     36
     508      21                                                00010000D     37
     508                       1       1                               0D     38
     508      22                                                00010000D     39
     508                       1       1                               0D     40
     508      23                                                00010000D     41
     508                       1       1                               0D     42
     508      24                                                00010000D     43
     508                       1       1                               0D     44
     126      25                                                00010000D     45
     126       0               9       0                               0D     46
     126      34                                                00010000D     47
     126       0               2       0                               0D     48
     126      36                                                00010000D     49
     126       0               9       0                               0D     50
     126      45                                                00010000D     51
     126       0               2       0                               0D     52
     126      47                                                00010000D     53
     126       0               2       0                               0D     54
     126      49                                                00010000D     55
     126       0               2       0                               0D     56
     126      51                                                00010000D     57
     126       0               2       0                               0D     58
     126      53                                                00010000D     59
     126       0               2       0                               0D     60
     126      55                                                00010000D     61
     126       0               2       0                               0D     62
     126      57                                                00010000D     63
     126       0               2       0                               0D     64
     126      59                                                00010000D     65
     126       0               2       0                               0D     66
     126      61                                                00010000D     67
     126       0               2       0                               0D     68
     126      63                                                00010000D     69
     126       0               2       0                               0D     70
     126      65                                                00010000D     71
     126       0               2       0                               0D     72
     126      67                                                00010000D     73
     126       0               2       0                               0D     74
     126      69                                                00010000D     75
     126       0               2       0                               0D     76
     126      71                                                00010000D     77
     126       0               2       0                               0D     78
     126      73                                                00010000D     79
     126       0               2       0                               0D     80
     126      75                                                00010000D     81
     126       0               2       0                               0D     82
     126      77                                                00010000D     83
     126       0               2       0                               0D     84
     126      79                                                00010000D     85
     126       0               2       0                               0D     86
     128      81                                                00010000D     87
     128       0    -111      12       0                               0D     88
     128      93                                                00010000D     89
     128       0    -111       3       0                               0D     90
     128      96                                                00010000D     91
     128       0    -111       3       0                               0D     92
     128      99                                                00010000D     93
     128       0    -111       3       0                               0D     94
     128     102                                                00010000D     95
     128       0    -111       3       0                               0D     96
     128     105                                                00010000D     97
     128       0    -111       3       0                               0D     98
     128     108                                                00010000D     99
     128       0    -111       3       0                               0D    100
     128     111                                                00010000D    101
     128       0    -111       3       0                               0D    102
     128     114                                                00010000D    103
     128       0    -111       3       0                               0D    104
     502     117                                                00010000D    105
     502                       3       1                               0D    106
     504     120                                                00010001D    107
     504                       6       1                               0D    108
     406     126                                                00000000D    109
     406                       1      15                               0D    110
     314     127                                                00000200D    111
     314                       2       0                               0D    112
186,3,1,0,0,1,109;                                                     1P      1
514,9,5,1,7,1,9,1,11,1,13,1,15,1,17,1,19,1,21,1;                       3P      2
510,87,1,1,23;                                                         5P      3
510,89,1,1,25;                                                         7P      4
510,91,1,1,27;                                                         9P      5
510,93,1,1,29;                                                        11P      6
510,95,1,1,31;                                                        13P      7
510,97,1,1,33;                                                        15P      8
510,99,1,1,35;                                                        17P      9
510,101,2,1,37,39;                                                    19P     10
510,103,2,1,41,43;                                                    21P     11
508,4,0,107,1,0,0,0,107,2,1,0,0,107,3,0,0,0,107,2,0,0;                23P     12
508,4,0,107,4,0,0,0,107,5,1,0,0,107,6,0,0,0,107,7,0,0;                25P     13
508,4,0,107,8,1,0,0,107,9,1,0,0,107,10,1,0,0,107,6,1,0;               27P     14
508,4,0,107,11,0,0,0,107,12,1,0,0,107,13,0,0,0,107,14,0,0;            29P     15
508,6,0,107,15,0,0,0,107,14,1,0,0,107,16,0,0,0,107,17,0,0,0,107,      31P     16
7,1,0,0,107,10,0,0;                                                   31P     17
508,4,0,107,4,1,0,0,107,17,1,0,0,107,18,0,0,0,107,19,0,0;             33P     18
508,6,0,107,20,1,0,0,107,8,0,0,0,107,5,0,0,0,107,19,1,0,0,107,        35P     19
21,0,0,0,107,12,0,0;                                                  35P     20
508,4,0,107,21,1,0,0,107,18,1,0,0,107,16,1,0,0,107,13,1,0;            37P     21
508,1,0,107,1,1,0;                                                    39P     22
508,4,0,107,20,0,0,0,107,11,1,0,0,107,15,1,0,0,107,9,0,0;             41P     23
508,1,0,107,3,1,0;                                                    43P     24
126,8,2,0,1,0,0,-3.14159265358979,-3.14159265358979,                  45P     25
-3.14159265358979,-1.5707963267949,-1.5707963267949,                  45P     26
-4.44089209850063D-16,-4.44089209850063D-16,1.5707963267949,          45P     27
1.5707963267949,3.14159265358979,3.14159265358979,                    45P     28
3.14159265358979,1.,0.707106781186547,1.,0.707106781186548,1.,        45P     29
0.707106781186547,1.,0.707106781186548,1.,5.275,8.,2.25,5.275,        45P     30
8.,3.45,4.075,8.,3.45,2.875,8.,3.45,2.875,8.,2.25,2.875,8.,1.05,      45P     31
4.075,8.,1.05,5.275,8.,1.05,5.275,8.,2.25,-3.14159265358979,          45P     32
3.14159265358979,0.,0.,0.;                                            45P     33
126,1,1,0,0,1,0,0.,0.,6.66666666666667,6.66666666666667,1.,1.,        47P     34
5.275,8.,2.25,5.275,0.,2.25,0.,6.66666666666667,0.,0.,0.;             47P     35
126,8,2,0,1,0,0,-3.14159265358979,-3.14159265358979,                  49P     36
-3.14159265358979,-1.5707963267949,-1.5707963267949,                  49P     37
4.44089209850063D-16,4.44089209850063D-16,1.5707963267949,            49P     38
1.5707963267949,3.14159265358979,3.14159265358979,                    49P     39
3.14159265358979,1.,0.707106781186548,1.,0.707106781186547,1.,        49P     40
0.707106781186548,1.,0.707106781186547,1.,5.275,0.,2.25,5.275,        49P     41
0.,1.05,4.075,0.,1.05,2.875,0.,1.05,2.875,0.,2.25,2.875,0.,3.45,      49P     42
4.075,0.,3.45,5.275,0.,3.45,5.275,0.,2.25,-3.14159265358979,          49P     43
3.14159265358979,0.,0.,0.;                                            49P     44
126,1,1,0,0,1,0,-0.4075,-0.4075,0.4075,0.4075,1.,1.,0.,4.,4.5,        51P     45
8.15,4.,4.5,-0.4075,0.4075,0.,0.,0.;                                  51P     46
126,1,1,0,0,1,0,0.,0.,0.5,0.5,1.,1.,0.,4.,4.5,0.,4.,9.5,0.,0.5,       53P     47
0.,0.,0.;                                                             53P     48
126,1,1,0,0,1,0,-0.815,-0.815,0.,0.,1.,1.,8.15,4.,9.5,0.,4.,9.5,      55P     49
-0.815,0.,0.,0.,0.;                                                   55P     50
126,1,1,0,0,1,0,0.,0.,0.5,0.5,1.,1.,8.15,4.,4.5,8.15,4.,9.5,0.,       57P     51
0.5,0.,0.,0.;                                                         57P     52
126,1,1,0,0,1,0,0.4,0.4,0.8,0.8,1.,1.,0.,4.,9.5,0.,0.,9.5,0.4,        59P     53
0.8,0.,0.,0.;                                                         59P     54
126,1,1,0,0,1,0,-0.815,-0.815,0.,0.,1.,1.,0.,0.,9.5,8.15,0.,9.5,      61P     55
-0.815,0.,0.,0.,0.;                                                   61P     56
126,1,1,0,0,1,0,-0.4,-0.4,0.,0.,1.,1.,8.15,0.,9.5,8.15,4.,9.5,        63P     57
-0.4,0.,0.,0.,0.;                                                     63P     58
126,1,1,0,0,1,0,0.,0.,0.815,0.815,1.,1.,0.,0.,0.,8.15,0.,0.,0.,       65P     59
0.815,0.,0.,0.;                                                       65P     60
126,1,1,0,0,1,0,0.,0.,0.8,0.8,1.,1.,0.,0.,0.,0.,8.,0.,0.,0.8,0.,      67P     61
0.,0.;                                                                67P     62
126,1,1,0,0,1,0,-0.815,-0.815,0.,0.,1.,1.,8.15,8.,0.,0.,8.,0.,        69P     63
-0.815,0.,0.,0.,0.;                                                   69P     64
126,1,1,0,0,1,0,0.,0.,0.8,0.8,1.,1.,8.15,0.,0.,8.15,8.,0.,0.,         71P     65
0.8,0.,0.,0.;                                                         71P     66
126,1,1,0,0,1,0,-0.45,-0.45,0.5,0.5,1.,1.,8.15,0.,0.,8.15,0.,         73P     67
9.5,-0.45,0.5,0.,0.,0.;                                               73P     68
126,1,1,0,0,1,0,-0.45,-0.45,0.,0.,1.,1.,8.15,8.,4.5,8.15,8.,0.,       75P     69
-0.45,0.,0.,0.,0.;                                                    75P     70
126,1,1,0,0,1,0,0.4,0.4,0.8,0.8,1.,1.,8.15,4.,4.5,8.15,8.,4.5,        77P     71
0.4,0.8,0.,0.,0.;                                                     77P     72
126,1,1,0,0,1,0,-0.815,-0.815,0.,0.,1.,1.,0.,8.,4.5,8.15,8.,4.5,      79P     73
-0.815,0.,0.,0.,0.;                                                   79P     74
126,1,1,0,0,1,0,0.4,0.4,0.8,0.8,1.,1.,0.,4.,4.5,0.,8.,4.5,0.4,        81P     75
0.8,0.,0.,0.;                                                         81P     76
126,1,1,0,0,1,0,0.,0.,0.95,0.95,1.,1.,0.,0.,0.,0.,0.,9.5,0.,          83P     77
0.95,0.,0.,0.;                                                        83P     78
126,1,1,0,0,1,0,0.,0.,0.45,0.45,1.,1.,0.,8.,0.,0.,8.,4.5,0.,          85P     79
0.45,0.,0.,0.;                                                        85P     80
128,1,8,1,2,0,1,0,0,1,0.,0.,6.66666666666667,6.66666666666667,        87P     81
-3.14159265358979,-3.14159265358979,-3.14159265358979,                87P     82
-1.5707963267949,-1.5707963267949,0.,0.,1.5707963267949,              87P     83
1.5707963267949,3.14159265358979,3.14159265358979,                    87P     84
3.14159265358979,1.,1.,0.707106781186548,0.707106781186548,1.,        87P     85
1.,0.707106781186548,0.707106781186548,1.,1.,0.707106781186548,       87P     86
0.707106781186548,1.,1.,0.707106781186548,0.707106781186548,1.,       87P     87
1.,5.275,8.,2.25,5.275,0.,2.25,5.275,8.,3.45,5.275,0.,3.45,           87P     88
4.075,8.,3.45,4.075,0.,3.45,2.875,8.,3.45,2.875,0.,3.45,2.875,        87P     89
8.,2.25,2.875,0.,2.25,2.875,8.,1.05,2.875,0.,1.05,4.075,8.,1.05,      87P     90
4.075,0.,1.05,5.275,8.,1.05,5.275,0.,1.05,5.275,8.,2.25,5.275,        87P     91
0.,2.25,0.,6.66666666666667,-3.14159265358979,3.14159265358979;       87P     92
128,1,1,1,1,0,0,1,0,0,-0.001,-0.001,0.816,0.816,-0.001,-0.001,        89P     93
0.501,0.501,1.,1.,1.,1.,8.16,4.,4.49,-0.01,4.,4.49,8.16,4.,9.51,      89P     94
-0.01,4.,9.51,-0.001,0.816,-0.001,0.501;                              89P     95
128,1,1,1,1,0,0,1,0,0,-0.4085,-0.4085,0.4085,0.4085,-0.201,           91P     96
-0.201,0.201,0.201,1.,1.,1.,1.,-0.01,-0.01,9.5,8.16,-0.01,9.5,        91P     97
-0.01,4.01,9.5,8.16,4.01,9.5,-0.4085,0.4085,-0.201,0.201;             91P     98
128,1,1,1,1,0,0,1,0,0,-0.001,-0.001,0.816,0.816,-0.001,-0.001,        93P     99
0.801,0.801,1.,1.,1.,1.,8.16,-0.01,0.,-0.01,-0.01,0.,8.16,8.01,       93P    100
0.,-0.01,8.01,0.,-0.001,0.816,-0.001,0.801;                           93P    101
128,1,1,1,1,0,0,1,0,0,-0.501,-0.501,0.451,0.451,-0.001,-0.001,        95P    102
0.801,0.801,1.,1.,1.,1.,8.15,-0.01,9.51,8.15,-0.01,-0.01,8.15,        95P    103
8.01,9.51,8.15,8.01,-0.01,-0.501,0.451,-0.001,0.801;                  95P    104
128,1,1,1,1,0,0,1,0,0,-0.001,-0.001,0.816,0.816,0.399,0.399,          97P    105
0.801,0.801,1.,1.,1.,1.,-0.01,3.99,4.5,8.16,3.99,4.5,-0.01,8.01,      97P    106
4.5,8.16,8.01,4.5,-0.001,0.816,0.399,0.801;                           97P    107
128,1,1,1,1,0,0,1,0,0,-0.001,-0.001,0.951,0.951,-0.001,-0.001,        99P    108
0.801,0.801,1.,1.,1.,1.,0.,-0.01,-0.01,0.,-0.01,9.51,0.,8.01,         99P    109
-0.01,0.,8.01,9.51,-0.001,0.951,-0.001,0.801;                         99P    110
128,1,1,1,1,0,0,1,0,0,-0.4085,-0.4085,0.4085,0.4085,-0.226,          101P    111
-0.226,0.226,0.226,1.,1.,1.,1.,-0.01,8.,4.51,8.16,8.,4.51,-0.01,     101P    112
8.,-0.01,8.16,8.,-0.01,-0.4085,0.4085,-0.226,0.226;                  101P    113
128,1,1,1,1,0,0,1,0,0,-0.4085,-0.4085,0.4085,0.4085,-0.726,          103P    114
-0.726,0.226,0.226,1.,1.,1.,1.,8.16,0.,9.51,-0.01,0.,9.51,8.16,      103P    115
0.,-0.01,-0.01,0.,-0.01,-0.4085,0.4085,-0.726,0.226;                 103P    116
502,14,5.275,8.,2.25,5.275,0.,2.25,0.,4.,4.5,8.15,4.,4.5,0.,4.,      105P    117
9.5,8.15,4.,9.5,0.,0.,9.5,8.15,0.,9.5,0.,0.,0.,8.15,0.,0.,0.,8.,     105P    118
0.,8.15,8.,0.,8.15,8.,4.5,0.,8.,4.5;                                 105P    119
504,21,45,105,1,105,1,47,105,1,105,2,49,105,2,105,2,51,105,3,        107P    120
105,4,53,105,3,105,5,55,105,6,105,5,57,105,4,105,6,59,105,5,105,     107P    121
7,61,105,7,105,8,63,105,8,105,6,65,105,9,105,10,67,105,9,105,11,     107P    122
69,105,12,105,11,71,105,10,105,12,73,105,10,105,8,75,105,13,105,     107P    123
12,77,105,4,105,13,79,105,14,105,13,81,105,3,105,14,83,105,9,        107P    124
105,7,85,105,11,105,14;                                              107P    125
406,1,5HBody1;                                                       109P    126
314,62.7450980392157,62.7450980392157,62.7450980392157,13HSteel      111P    127
- Satin;                                                             111P    128
S      1G      2D    112P    128                                        T      1
