%
M48
M72
T01C0.02362
T02C0.02559
T03C0.02756
T04C0.03543
T05C0.03937
T06C0.04000
T07C0.05118
T08C0.06299
T09C0.11811
T10C0.12598
%
T01
X86885Y140507
X86885Y154287
X108735Y220428
X121728Y220428
X125074Y258814
X133932Y258814
X140035Y290113
X110507Y303893
X82948Y317672
X121728Y338145
X172515Y341688
X181373Y341688
X230586Y290113
X251649Y303302
X258539Y303342
X250271Y270428
X262082Y260586
X266806Y256058
X277239Y253696
X277239Y247987
X296767Y253027
X307161Y247791
X319169Y248184
X319169Y236964
X310901Y234602
X319169Y223184
X319169Y209405
X319169Y195625
X303420Y201531
X267987Y213342
X258145Y221216
X238460Y209405
X226452Y218066
X220350Y218066
X225861Y238145
X241609Y257043
X250074Y197102
X266216Y189897
X255015Y179365
X232062Y179483
X220350Y179483
X264050Y141688
X266019Y128696
X246334Y118854
X281767Y144444
X287007Y140519
X292495Y144523
X299680Y144444
X313854Y132633
X328224Y110783
X212869Y89326
X336885Y227121
X345940Y243657
X333539Y248184
X331964Y260192
X328027Y272200
X316846Y269523
X318775Y285783
X323499Y289129
X318775Y292633
X340822Y276334
X350665Y274365
X384129Y304287
X378224Y319641
X403814Y341294
X408539Y296609
X401846Y274365
X411255Y269129
X413657Y252712
X419562Y246806
X443184Y246806
X463460Y216885
X456964Y186570
X473893Y301924
X456964Y304287
X352633Y396413
X366413Y430468
X319365Y316098
X236098Y412554
T02
X102633Y272102
X102633Y253007
T03
X90625Y251826
X90625Y273283
T04
X188381Y296452
X198381Y296452
X198381Y306452
X188381Y306452
X188381Y316452
X198381Y316452
T05
X206964Y333420
X142003Y313735
X134129Y313735
X137672Y299956
X206964Y244838
X208145Y218854
X196728Y203893
X191216Y209011
X150271Y233696
X144050Y233696
X346728Y319641
X350920Y290802
X386098Y268066
X433932Y312357
X439247Y317672
X489320Y244949
X490625Y235035
X491930Y225120
X437842Y208275
X431046Y208381
X424247Y208381
X393972Y187751
X388066Y181846
X378224Y197594
T06
X53727Y132940
X60798Y140011
X67869Y147082
X173850Y41480
X166779Y34408
X159707Y27337
X232609Y126783
X225538Y133854
X218467Y140925
X222082Y167476
X232082Y167476
X242082Y167476
X252082Y167476
X262082Y167476
X272082Y167476
X282082Y167476
X292082Y167476
X308082Y167476
X318082Y167476
X328082Y167476
X338082Y167476
X348082Y167476
X358082Y167476
X360381Y141389
X353310Y134318
X346239Y127247
X405231Y40310
X412303Y33239
X419374Y26168
X517677Y137912
X510606Y144983
X503535Y152054
X425279Y317034
X418208Y324105
X411137Y331176
X342082Y357476
X332082Y357476
X322082Y357476
X312082Y357476
X302082Y357476
X292082Y357476
X272082Y357476
X262082Y357476
X252082Y357476
X242082Y357476
X232082Y357476
X222082Y357476
X222121Y346019
X222121Y336019
X232161Y336019
X232161Y346019
X242200Y346019
X252043Y346019
X252043Y336019
X242200Y336019
X242200Y326019
X252043Y326019
X262279Y326019
X272239Y325901
X272239Y335901
X272239Y345901
X262279Y346019
X262279Y336019
X232161Y326019
X222121Y326019
X168905Y331731
X161834Y324660
X154763Y317589
X69810Y377121
X62739Y384192
X55668Y391263
X161455Y497346
X168527Y490275
X175598Y483204
X399515Y480696
X406586Y487767
X413657Y494838
X522484Y391460
X515413Y384389
X508342Y377318
T07
X468184Y272515
X468972Y252515
T08
X457082Y254641
X457082Y270389
T09
X381058Y353972
X197909Y354090
X197909Y170940
X380940Y170901
T10
X321196Y98401
X258145Y98342
X218775Y262554
X360507Y262554
X321176Y399680
X321157Y427200
X289641Y427102
X289680Y399641
X258165Y399602
X258165Y427082
M30
