G75*
%MOIN*%
%OFA0B0*%
%FSLAX25Y25*%
%IPPOS*%
%LPD*%
%AMOC8*
5,1,8,0,0,1.08239X$1,22.5*
%
%ADD10C,0.12611*%
%ADD11C,0.13398*%
%ADD12C,0.07200*%
%ADD13C,0.08200*%
%ADD14R,0.07400X0.07400*%
%ADD15C,0.07400*%
%ADD16R,0.12611X0.12611*%
%ADD17C,0.03556*%
%ADD18C,0.03359*%
%ADD19R,0.15800X0.15800*%
%ADD20C,0.15800*%
%ADD21C,0.06706*%
%ADD22C,0.04762*%
D10*
X0197909Y0170940D03*
X0380940Y0170901D03*
X0457082Y0270389D03*
X0381058Y0353972D03*
X0197909Y0354090D03*
D11*
X0258165Y0399602D03*
X0258165Y0427082D03*
X0289641Y0427102D03*
X0289680Y0399641D03*
X0321176Y0399680D03*
X0321157Y0427200D03*
X0360507Y0262554D03*
X0218775Y0262554D03*
X0258145Y0098342D03*
X0321196Y0098401D03*
D12*
X0198381Y0296452D03*
X0188381Y0296452D03*
X0188381Y0306452D03*
X0188381Y0316452D03*
X0198381Y0316452D03*
X0198381Y0306452D03*
D13*
X0053727Y0132940D03*
X0060798Y0140011D03*
X0067869Y0147082D03*
X0173850Y0041480D03*
X0166779Y0034408D03*
X0159707Y0027337D03*
X0232609Y0126783D03*
X0225538Y0133854D03*
X0218467Y0140925D03*
X0222082Y0167476D03*
X0232082Y0167476D03*
X0242082Y0167476D03*
X0252082Y0167476D03*
X0262082Y0167476D03*
X0272082Y0167476D03*
X0282082Y0167476D03*
X0292082Y0167476D03*
X0308082Y0167476D03*
X0318082Y0167476D03*
X0328082Y0167476D03*
X0338082Y0167476D03*
X0348082Y0167476D03*
X0358082Y0167476D03*
X0360381Y0141389D03*
X0353310Y0134318D03*
X0346239Y0127247D03*
X0405231Y0040310D03*
X0412303Y0033239D03*
X0419374Y0026168D03*
X0517677Y0137912D03*
X0510606Y0144983D03*
X0503535Y0152054D03*
X0425279Y0317034D03*
X0418208Y0324105D03*
X0411137Y0331176D03*
X0342082Y0357476D03*
X0332082Y0357476D03*
X0322082Y0357476D03*
X0312082Y0357476D03*
X0302082Y0357476D03*
X0292082Y0357476D03*
X0272082Y0357476D03*
X0262082Y0357476D03*
X0252082Y0357476D03*
X0242082Y0357476D03*
X0232082Y0357476D03*
X0222082Y0357476D03*
X0222121Y0346019D03*
X0222121Y0336019D03*
X0232161Y0336019D03*
X0232161Y0346019D03*
X0242200Y0346019D03*
X0252043Y0346019D03*
X0252043Y0336019D03*
X0242200Y0336019D03*
X0242200Y0326019D03*
X0252043Y0326019D03*
X0262279Y0326019D03*
X0272239Y0325901D03*
X0272239Y0335901D03*
X0272239Y0345901D03*
X0262279Y0346019D03*
X0262279Y0336019D03*
X0232161Y0326019D03*
X0222121Y0326019D03*
X0168905Y0331731D03*
X0161834Y0324660D03*
X0154763Y0317589D03*
X0069810Y0377121D03*
X0062739Y0384192D03*
X0055668Y0391263D03*
X0161455Y0497346D03*
X0168527Y0490275D03*
X0175598Y0483204D03*
X0399515Y0480696D03*
X0406586Y0487767D03*
X0413657Y0494838D03*
X0522484Y0391460D03*
X0515413Y0384389D03*
X0508342Y0377318D03*
D14*
G36*
X0493810Y0239186D02*
X0494776Y0231850D01*
X0487440Y0230884D01*
X0486474Y0238220D01*
X0493810Y0239186D01*
G37*
D15*
X0489320Y0244949D03*
X0491930Y0225120D03*
D16*
X0457082Y0254641D03*
D17*
X0090625Y0251826D03*
X0090625Y0273283D03*
D18*
X0102633Y0272102D03*
X0102633Y0253007D03*
D19*
X0468972Y0252515D03*
D20*
X0468184Y0272515D03*
D21*
X0433932Y0312357D03*
X0439247Y0317672D03*
X0386098Y0268066D03*
X0350920Y0290802D03*
X0346728Y0319641D03*
X0424247Y0208381D03*
X0431046Y0208381D03*
X0437842Y0208275D03*
X0393972Y0187751D03*
X0388066Y0181846D03*
X0378224Y0197594D03*
X0208145Y0218854D03*
X0196728Y0203893D03*
X0191216Y0209011D03*
X0206964Y0244838D03*
X0150271Y0233696D03*
X0144050Y0233696D03*
X0137672Y0299956D03*
X0134129Y0313735D03*
X0142003Y0313735D03*
X0206964Y0333420D03*
D22*
X0181373Y0341688D03*
X0172515Y0341688D03*
X0121728Y0338145D03*
X0110507Y0303893D03*
X0140035Y0290113D03*
X0133932Y0258814D03*
X0125074Y0258814D03*
X0121728Y0220428D03*
X0108735Y0220428D03*
X0086885Y0154287D03*
X0086885Y0140507D03*
X0212869Y0089326D03*
X0246334Y0118854D03*
X0266019Y0128696D03*
X0264050Y0141688D03*
X0281767Y0144444D03*
X0287007Y0140519D03*
X0292495Y0144523D03*
X0299680Y0144444D03*
X0313854Y0132633D03*
X0328224Y0110783D03*
X0255015Y0179365D03*
X0266216Y0189897D03*
X0250074Y0197102D03*
X0238460Y0209405D03*
X0226452Y0218066D03*
X0220350Y0218066D03*
X0225861Y0238145D03*
X0241609Y0257043D03*
X0250271Y0270428D03*
X0262082Y0260586D03*
X0266806Y0256058D03*
X0277239Y0253696D03*
X0277239Y0247987D03*
X0296767Y0253027D03*
X0307161Y0247791D03*
X0319169Y0248184D03*
X0319169Y0236964D03*
X0310901Y0234602D03*
X0319169Y0223184D03*
X0319169Y0209405D03*
X0319169Y0195625D03*
X0303420Y0201531D03*
X0267987Y0213342D03*
X0258145Y0221216D03*
X0232062Y0179483D03*
X0220350Y0179483D03*
X0316846Y0269523D03*
X0328027Y0272200D03*
X0331964Y0260192D03*
X0333539Y0248184D03*
X0345940Y0243657D03*
X0336885Y0227121D03*
X0350665Y0274365D03*
X0340822Y0276334D03*
X0323499Y0289129D03*
X0318775Y0285783D03*
X0318775Y0292633D03*
X0319365Y0316098D03*
X0378224Y0319641D03*
X0384129Y0304287D03*
X0408539Y0296609D03*
X0401846Y0274365D03*
X0411255Y0269129D03*
X0413657Y0252712D03*
X0419562Y0246806D03*
X0443184Y0246806D03*
X0463460Y0216885D03*
X0456964Y0186570D03*
X0473893Y0301924D03*
X0456964Y0304287D03*
X0403814Y0341294D03*
X0352633Y0396413D03*
X0366413Y0430468D03*
X0236098Y0412554D03*
X0251649Y0303302D03*
X0258539Y0303342D03*
X0230586Y0290113D03*
X0082948Y0317672D03*
M02*
