G75*
%MOIN*%
%OFA0B0*%
%FSLAX25Y25*%
%IPPOS*%
%LPD*%
%AMOC8*
5,1,8,0,0,1.08239X$1,22.5*
%
%ADD10C,0.06400*%
%ADD11C,0.07400*%
%ADD12R,0.06600X0.06600*%
%ADD13C,0.06600*%
%ADD14R,0.11811X0.11811*%
%ADD15C,0.11811*%
%ADD16R,0.15000X0.15000*%
%ADD17C,0.15000*%
%ADD18C,0.05906*%
%ADD19C,0.06600*%
%ADD20C,0.03962*%
%ADD21C,0.01200*%
%ADD22C,0.04000*%
%ADD23C,0.02400*%
%ADD24C,0.01000*%
%ADD25C,0.05000*%
D10*
X0188381Y0296452D03*
X0198381Y0296452D03*
X0198381Y0306452D03*
X0188381Y0306452D03*
X0188381Y0316452D03*
X0198381Y0316452D03*
D11*
X0222121Y0326019D03*
X0232161Y0326019D03*
X0232161Y0336019D03*
X0232161Y0346019D03*
X0222121Y0346019D03*
X0222121Y0336019D03*
X0242200Y0336019D03*
X0252043Y0336019D03*
X0252043Y0346019D03*
X0242200Y0346019D03*
X0242082Y0357476D03*
X0252082Y0357476D03*
X0262082Y0357476D03*
X0272082Y0357476D03*
X0272239Y0345901D03*
X0272239Y0335901D03*
X0262279Y0336019D03*
X0262279Y0346019D03*
X0262279Y0326019D03*
X0272239Y0325901D03*
X0252043Y0326019D03*
X0242200Y0326019D03*
X0232082Y0357476D03*
X0222082Y0357476D03*
X0168905Y0331731D03*
X0161834Y0324660D03*
X0154763Y0317589D03*
X0069810Y0377121D03*
X0062739Y0384192D03*
X0055668Y0391263D03*
X0161455Y0497346D03*
X0168527Y0490275D03*
X0175598Y0483204D03*
X0292082Y0357476D03*
X0302082Y0357476D03*
X0312082Y0357476D03*
X0322082Y0357476D03*
X0332082Y0357476D03*
X0342082Y0357476D03*
X0411137Y0331176D03*
X0418208Y0324105D03*
X0425279Y0317034D03*
X0508342Y0377318D03*
X0515413Y0384389D03*
X0522484Y0391460D03*
X0413657Y0494838D03*
X0406586Y0487767D03*
X0399515Y0480696D03*
X0358082Y0167476D03*
X0348082Y0167476D03*
X0338082Y0167476D03*
X0328082Y0167476D03*
X0318082Y0167476D03*
X0308082Y0167476D03*
X0292082Y0167476D03*
X0282082Y0167476D03*
X0272082Y0167476D03*
X0262082Y0167476D03*
X0252082Y0167476D03*
X0242082Y0167476D03*
X0232082Y0167476D03*
X0222082Y0167476D03*
X0218467Y0140925D03*
X0225538Y0133854D03*
X0232609Y0126783D03*
X0173850Y0041480D03*
X0166779Y0034408D03*
X0159707Y0027337D03*
X0053727Y0132940D03*
X0060798Y0140011D03*
X0067869Y0147082D03*
X0346239Y0127247D03*
X0353310Y0134318D03*
X0360381Y0141389D03*
X0405231Y0040310D03*
X0412303Y0033239D03*
X0419374Y0026168D03*
X0517677Y0137912D03*
X0510606Y0144983D03*
X0503535Y0152054D03*
D12*
G36*
X0493466Y0238737D02*
X0494327Y0232194D01*
X0487784Y0231333D01*
X0486923Y0237876D01*
X0493466Y0238737D01*
G37*
D13*
X0489320Y0244949D03*
X0491930Y0225120D03*
D14*
X0457082Y0254641D03*
D15*
X0457082Y0270389D03*
D16*
X0468972Y0252515D03*
D17*
X0468184Y0272515D03*
D18*
X0433932Y0312357D03*
X0439247Y0317672D03*
X0386098Y0268066D03*
X0350920Y0290802D03*
X0346728Y0319641D03*
X0424247Y0208381D03*
X0431046Y0208381D03*
X0437842Y0208275D03*
X0393972Y0187751D03*
X0388066Y0181846D03*
X0378224Y0197594D03*
X0208145Y0218854D03*
X0196728Y0203893D03*
X0191216Y0209011D03*
X0206964Y0244838D03*
X0150271Y0233696D03*
X0144050Y0233696D03*
X0137672Y0299956D03*
X0134129Y0313735D03*
X0142003Y0313735D03*
X0206964Y0333420D03*
D19*
X0214365Y0326019D01*
X0222121Y0326019D01*
X0232161Y0326019D01*
X0242200Y0326019D01*
X0252043Y0326019D01*
X0271924Y0326019D01*
X0272239Y0325901D01*
X0269956Y0301924D02*
X0248302Y0280271D01*
X0210901Y0280271D01*
X0199090Y0268460D01*
X0199090Y0262554D01*
X0206964Y0254680D01*
X0206964Y0244838D01*
X0269956Y0301924D02*
X0352239Y0301924D01*
X0386098Y0268066D01*
X0425794Y0297661D02*
X0409720Y0313735D01*
X0409720Y0315617D01*
X0418208Y0324105D01*
X0433342Y0311767D02*
X0439247Y0317672D01*
X0449090Y0315704D02*
X0449090Y0339326D01*
X0458932Y0349169D01*
X0458932Y0350861D01*
X0508420Y0400350D01*
X0508420Y0404562D01*
X0527830Y0423972D01*
X0527830Y0431846D01*
X0460901Y0498775D01*
X0441216Y0498775D01*
X0430192Y0487751D01*
X0430192Y0487633D01*
X0423381Y0480822D01*
X0401964Y0459405D01*
X0348696Y0459405D01*
X0336885Y0447594D01*
X0336885Y0420035D01*
X0332948Y0416098D01*
X0246334Y0416098D01*
X0242397Y0420035D01*
X0242397Y0447594D01*
X0228617Y0461373D01*
X0210901Y0461373D01*
X0179405Y0492869D01*
X0171531Y0492869D01*
X0168995Y0490334D01*
X0167027Y0490334D02*
X0157751Y0481058D01*
X0147909Y0481058D01*
X0128224Y0500743D01*
X0118381Y0500743D01*
X0051452Y0433814D01*
X0051452Y0423972D01*
X0069169Y0406255D01*
X0147909Y0327515D01*
X0149877Y0327515D01*
X0069169Y0390507D02*
X0069169Y0406255D01*
X0069169Y0390507D02*
X0062885Y0384223D01*
X0060798Y0140011D02*
X0069169Y0131641D01*
X0069169Y0126728D01*
X0053420Y0110980D01*
X0053420Y0089326D01*
X0118381Y0024365D01*
X0134326Y0024365D01*
X0155389Y0045428D01*
X0224680Y0114720D01*
X0224680Y0124759D01*
X0252239Y0087357D02*
X0228617Y0063735D01*
X0228539Y0063657D01*
X0174011Y0063657D01*
X0155437Y0045428D02*
X0166457Y0034408D01*
X0166779Y0034408D01*
X0155437Y0045428D02*
X0155389Y0045428D01*
X0325074Y0087357D02*
X0348696Y0063735D01*
X0407751Y0063735D01*
X0408735Y0064720D01*
X0354602Y0118854D01*
X0408735Y0064720D02*
X0428420Y0045035D01*
X0449109Y0024346D01*
X0458913Y0024346D01*
X0527830Y0093263D01*
X0527830Y0103106D01*
X0492808Y0138127D01*
X0492808Y0138950D01*
X0430889Y0200869D01*
X0430889Y0208224D01*
X0431046Y0208381D01*
X0431046Y0297661D01*
X0425794Y0297661D01*
X0431046Y0297661D02*
X0449090Y0315704D01*
X0515413Y0384389D02*
X0515413Y0384696D01*
X0508420Y0391688D01*
X0508420Y0400350D01*
X0423381Y0480822D02*
X0413530Y0480822D01*
X0406586Y0487767D01*
X0492808Y0138950D02*
X0493220Y0138539D01*
X0504208Y0138539D01*
X0409326Y0064050D02*
X0408932Y0063657D01*
X0425633Y0046570D02*
X0426019Y0046570D01*
X0425633Y0046570D02*
X0412303Y0033239D01*
D20*
X0328224Y0110783D03*
X0313854Y0132633D03*
X0299680Y0144444D03*
X0292495Y0144523D03*
X0287007Y0140519D03*
X0281767Y0144444D03*
X0264050Y0141688D03*
X0266019Y0128696D03*
X0246334Y0118854D03*
X0212869Y0089326D03*
X0220350Y0179483D03*
X0232062Y0179483D03*
X0250074Y0197102D03*
X0238460Y0209405D03*
X0226452Y0218066D03*
X0220350Y0218066D03*
X0225861Y0238145D03*
X0241609Y0257043D03*
X0250271Y0270428D03*
X0262082Y0260586D03*
X0266806Y0256058D03*
X0277239Y0253696D03*
X0277239Y0247987D03*
X0296767Y0253027D03*
X0307161Y0247791D03*
X0319169Y0248184D03*
X0319169Y0236964D03*
X0310901Y0234602D03*
X0319169Y0223184D03*
X0319169Y0209405D03*
X0319169Y0195625D03*
X0303420Y0201531D03*
X0267987Y0213342D03*
X0258145Y0221216D03*
X0266216Y0189897D03*
X0255015Y0179365D03*
X0333539Y0248184D03*
X0331964Y0260192D03*
X0328027Y0272200D03*
X0316846Y0269523D03*
X0318775Y0285783D03*
X0323499Y0289129D03*
X0318775Y0292633D03*
X0340822Y0276334D03*
X0350665Y0274365D03*
X0345940Y0243657D03*
X0336885Y0227121D03*
X0401846Y0274365D03*
X0411255Y0269129D03*
X0413657Y0252712D03*
X0419562Y0246806D03*
X0443184Y0246806D03*
X0463460Y0216885D03*
X0456964Y0186570D03*
X0408539Y0296609D03*
X0384129Y0304287D03*
X0378224Y0319641D03*
X0403814Y0341294D03*
X0456964Y0304287D03*
X0473893Y0301924D03*
X0352633Y0396413D03*
X0366413Y0430468D03*
X0319365Y0316098D03*
X0258539Y0303342D03*
X0251649Y0303302D03*
X0230586Y0290113D03*
X0181373Y0341688D03*
X0172515Y0341688D03*
X0121728Y0338145D03*
X0110507Y0303893D03*
X0140035Y0290113D03*
X0133932Y0258814D03*
X0125074Y0258814D03*
X0121728Y0220428D03*
X0108735Y0220428D03*
X0086885Y0154287D03*
X0086885Y0140507D03*
X0082948Y0317672D03*
X0236098Y0412554D03*
D21*
X0230586Y0400350D02*
X0177436Y0347200D01*
X0177436Y0323578D01*
X0159129Y0305271D01*
X0127239Y0305271D01*
X0118381Y0296413D01*
X0118381Y0274365D01*
X0120350Y0272397D01*
X0145940Y0272397D01*
X0212869Y0205468D01*
X0212869Y0164129D01*
X0216357Y0160641D01*
X0224007Y0160641D01*
X0232442Y0152206D01*
X0232554Y0152318D01*
X0287672Y0152318D01*
X0292495Y0147495D01*
X0292495Y0144523D01*
X0287007Y0147078D02*
X0287007Y0140519D01*
X0281767Y0140507D02*
X0281767Y0144444D01*
X0281570Y0144444D01*
X0280389Y0145625D01*
X0231373Y0145625D01*
X0222712Y0154287D01*
X0214838Y0154287D01*
X0206964Y0162161D01*
X0206964Y0201531D01*
X0142948Y0265546D01*
X0117357Y0265546D01*
X0090822Y0292082D01*
X0090822Y0339326D01*
X0069810Y0360338D01*
X0069810Y0377121D01*
X0082948Y0317672D02*
X0086885Y0313735D01*
X0086885Y0242279D01*
X0108735Y0220428D01*
X0125074Y0258814D02*
X0133932Y0258814D01*
X0144483Y0269365D02*
X0119247Y0269365D01*
X0114444Y0274169D01*
X0112960Y0274169D01*
X0104602Y0282527D01*
X0104602Y0286176D01*
X0126255Y0307830D01*
X0155783Y0307830D01*
X0168905Y0320952D01*
X0168905Y0331731D01*
X0198381Y0316452D02*
X0312043Y0316452D01*
X0342082Y0346491D01*
X0342082Y0357476D01*
X0378224Y0327515D02*
X0378224Y0319641D01*
X0378224Y0327515D02*
X0392003Y0341294D01*
X0403814Y0341294D01*
X0411137Y0331176D02*
X0384129Y0304169D01*
X0384129Y0304287D01*
X0408539Y0296609D02*
X0417594Y0287554D01*
X0417594Y0256649D01*
X0413657Y0252712D01*
X0419562Y0246806D02*
X0419562Y0238932D01*
X0409720Y0229090D01*
X0401846Y0229090D01*
X0388066Y0215310D01*
X0388066Y0191688D01*
X0372318Y0175940D01*
X0372318Y0164129D01*
X0340822Y0132633D01*
X0313854Y0132633D01*
X0299680Y0144444D02*
X0306176Y0150940D01*
X0354011Y0150940D01*
X0368381Y0165310D01*
X0368381Y0177909D01*
X0384720Y0194247D01*
X0384720Y0215901D01*
X0401846Y0233027D01*
X0401846Y0274365D01*
X0443184Y0280271D02*
X0443184Y0246806D01*
X0467791Y0221216D02*
X0463460Y0216885D01*
X0467791Y0221216D02*
X0476649Y0221216D01*
X0480586Y0225153D01*
X0480586Y0246806D01*
X0484523Y0250743D01*
X0484523Y0291294D01*
X0473893Y0301924D01*
X0443184Y0280271D02*
X0508342Y0345428D01*
X0508342Y0377318D01*
X0350665Y0274365D02*
X0350665Y0248381D01*
X0345940Y0243657D01*
X0338854Y0242869D02*
X0338854Y0270428D01*
X0334424Y0274857D01*
X0334424Y0289621D01*
X0330980Y0293066D01*
X0323499Y0289129D02*
X0328027Y0284602D01*
X0328027Y0272200D01*
X0331964Y0260192D02*
X0312869Y0260192D01*
X0303420Y0250743D01*
X0307161Y0247791D02*
X0277436Y0247791D01*
X0277239Y0247987D01*
X0266806Y0256058D02*
X0271334Y0260586D01*
X0279798Y0260586D01*
X0289641Y0250743D01*
X0296137Y0263932D02*
X0293578Y0266491D01*
X0269956Y0266491D01*
X0267987Y0264523D01*
X0258145Y0264523D01*
X0252239Y0258617D01*
X0252239Y0244838D01*
X0226452Y0219050D01*
X0226452Y0218066D01*
X0220350Y0218066D02*
X0220350Y0242672D01*
X0234326Y0256649D01*
X0234523Y0256649D01*
X0248302Y0270428D01*
X0250271Y0270428D01*
X0262082Y0260586D02*
X0262082Y0248775D01*
X0269956Y0240901D01*
X0321137Y0240901D01*
X0325074Y0236964D01*
X0325074Y0234995D01*
X0311294Y0221216D01*
X0311294Y0209405D01*
X0303420Y0201531D01*
X0299483Y0195625D02*
X0281767Y0177909D01*
X0281767Y0167791D01*
X0282082Y0167476D01*
X0271924Y0181846D02*
X0267987Y0181846D01*
X0262082Y0175940D01*
X0262082Y0167476D01*
X0255684Y0179365D02*
X0266216Y0189897D01*
X0271924Y0181846D02*
X0277830Y0187751D01*
X0277830Y0191688D01*
X0319169Y0233027D01*
X0319169Y0236964D01*
X0310901Y0234602D02*
X0285704Y0209405D01*
X0238460Y0209405D01*
X0209731Y0204117D02*
X0144483Y0269365D01*
X0209731Y0204117D02*
X0209731Y0173791D01*
X0209739Y0173783D01*
X0209739Y0163405D01*
X0215645Y0157499D01*
X0223436Y0157499D01*
X0232554Y0148381D01*
X0285704Y0148381D01*
X0287007Y0147078D01*
X0264050Y0141688D02*
X0246334Y0123972D01*
X0246334Y0118854D01*
X0255015Y0179365D02*
X0255684Y0179365D01*
X0299483Y0195625D02*
X0319169Y0195625D01*
X0317987Y0186176D02*
X0317987Y0167570D01*
X0318082Y0167476D01*
X0317987Y0186176D02*
X0340822Y0209011D01*
X0340822Y0276334D01*
X0333539Y0248184D02*
X0319169Y0248184D01*
X0338854Y0242869D02*
X0319169Y0223184D01*
X0319169Y0209405D02*
X0336885Y0227121D01*
X0270940Y0260192D02*
X0266806Y0256058D01*
X0230586Y0400350D02*
X0230586Y0428216D01*
X0175598Y0483204D01*
X0086885Y0154287D02*
X0086885Y0140507D01*
D22*
X0173665Y0063657D02*
X0174011Y0063657D01*
X0173665Y0063657D02*
X0155437Y0045428D01*
X0224680Y0124759D02*
X0225483Y0125562D01*
X0225483Y0125925D01*
X0224680Y0126728D01*
X0224680Y0132996D01*
X0225538Y0133854D01*
X0253420Y0088539D02*
X0252239Y0087357D01*
X0253420Y0088539D02*
X0317239Y0088539D01*
X0323893Y0088539D01*
X0325074Y0087357D01*
X0317279Y0088499D02*
X0317239Y0088539D01*
X0353310Y0120145D02*
X0353310Y0134318D01*
X0353310Y0120145D02*
X0354602Y0118854D01*
X0408932Y0063657D02*
X0426019Y0046570D01*
X0427554Y0045035D01*
X0428420Y0045035D01*
X0504208Y0138539D02*
X0510606Y0144936D01*
X0510606Y0144983D01*
X0267987Y0213342D02*
X0266019Y0213342D01*
X0258145Y0221216D01*
D23*
X0079252Y0056282D02*
X0063517Y0056282D01*
X0064760Y0054476D02*
X0058164Y0064056D01*
X0052793Y0074374D01*
X0048730Y0085273D01*
X0046036Y0096588D01*
X0044751Y0108149D01*
X0044896Y0119779D01*
X0046468Y0131304D01*
X0049442Y0142549D01*
X0051388Y0147863D01*
X0055999Y0154972D01*
X0055999Y0154972D01*
X0064229Y0170267D01*
X0071180Y0186183D01*
X0076806Y0202614D01*
X0081070Y0219451D01*
X0083944Y0236579D01*
X0084485Y0242979D01*
X0084485Y0241801D01*
X0084850Y0240919D01*
X0085526Y0240244D01*
X0104854Y0220915D01*
X0104854Y0219656D01*
X0105445Y0218230D01*
X0106537Y0217138D01*
X0107963Y0216547D01*
X0109507Y0216547D01*
X0110934Y0217138D01*
X0112026Y0218230D01*
X0112617Y0219656D01*
X0112617Y0221200D01*
X0112026Y0222627D01*
X0110934Y0223719D01*
X0109507Y0224309D01*
X0108248Y0224309D01*
X0089285Y0243273D01*
X0089285Y0248528D01*
X0089665Y0248528D01*
X0090443Y0248515D01*
X0090457Y0248528D01*
X0091513Y0248528D01*
X0092380Y0248477D01*
X0092380Y0248477D01*
X0094018Y0249341D01*
X0094970Y0250929D01*
X0094970Y0251062D01*
X0094971Y0251064D01*
X0094966Y0251851D01*
X0094966Y0252641D01*
X0094963Y0252644D01*
X0094963Y0252649D01*
X0094961Y0252651D01*
X0094960Y0252762D01*
X0094032Y0254311D01*
X0094032Y0254311D01*
X0094032Y0254311D01*
X0092445Y0255174D01*
X0092445Y0255174D01*
X0091576Y0255143D01*
X0090488Y0255143D01*
X0090482Y0255149D01*
X0089694Y0255143D01*
X0089285Y0255143D01*
X0089285Y0269985D01*
X0089665Y0269985D01*
X0090443Y0269972D01*
X0090457Y0269985D01*
X0091513Y0269985D01*
X0092380Y0269934D01*
X0094018Y0270798D01*
X0094970Y0272385D01*
X0094970Y0272518D01*
X0094971Y0272520D01*
X0094966Y0273308D01*
X0094966Y0274098D01*
X0094963Y0274101D01*
X0094963Y0274106D01*
X0094961Y0274108D01*
X0094960Y0274219D01*
X0094032Y0275768D01*
X0094032Y0275768D01*
X0094032Y0275768D01*
X0092445Y0276631D01*
X0092445Y0276631D01*
X0091576Y0276600D01*
X0090488Y0276600D01*
X0090482Y0276605D01*
X0089694Y0276600D01*
X0089285Y0276600D01*
X0089285Y0290225D01*
X0104208Y0275302D01*
X0103420Y0275301D01*
X0102016Y0275301D01*
X0101189Y0275363D01*
X0099585Y0274540D01*
X0099585Y0274540D01*
X0098645Y0273001D01*
X0098645Y0273001D01*
X0098646Y0272099D01*
X0098646Y0271253D01*
X0099487Y0269779D01*
X0100948Y0268916D01*
X0101019Y0268915D01*
X0101031Y0268902D01*
X0101812Y0268902D01*
X0102591Y0268890D01*
X0102604Y0268902D01*
X0103473Y0268902D01*
X0104269Y0268902D01*
X0105743Y0269743D01*
X0105743Y0269743D01*
X0105743Y0269743D01*
X0106494Y0271014D01*
X0106554Y0271066D01*
X0106559Y0271123D01*
X0106606Y0271204D01*
X0106617Y0271896D01*
X0106682Y0272758D01*
X0106609Y0272901D01*
X0115998Y0263512D01*
X0116880Y0263146D01*
X0141954Y0263146D01*
X0204564Y0200537D01*
X0204564Y0175270D01*
X0204526Y0175362D01*
X0202330Y0177557D01*
X0199461Y0178746D01*
X0196356Y0178746D01*
X0193487Y0177557D01*
X0191291Y0175362D01*
X0190103Y0172493D01*
X0190103Y0169388D01*
X0191291Y0166519D01*
X0193487Y0164323D01*
X0196356Y0163135D01*
X0199461Y0163135D01*
X0202330Y0164323D01*
X0204526Y0166519D01*
X0204564Y0166610D01*
X0204564Y0161683D01*
X0204929Y0160801D01*
X0205604Y0160126D01*
X0205604Y0160126D01*
X0212803Y0152927D01*
X0213478Y0152252D01*
X0214360Y0151887D01*
X0221718Y0151887D01*
X0230014Y0143591D01*
X0230896Y0143225D01*
X0260486Y0143225D01*
X0260169Y0142460D01*
X0260169Y0141201D01*
X0244974Y0126006D01*
X0244299Y0125331D01*
X0243934Y0124449D01*
X0243934Y0121942D01*
X0243044Y0121052D01*
X0242453Y0119626D01*
X0242453Y0118082D01*
X0243044Y0116655D01*
X0244135Y0115563D01*
X0245562Y0114972D01*
X0247106Y0114972D01*
X0248532Y0115563D01*
X0249624Y0116655D01*
X0250215Y0118082D01*
X0250215Y0119626D01*
X0249624Y0121052D01*
X0248734Y0121942D01*
X0248734Y0122978D01*
X0263563Y0137807D01*
X0264822Y0137807D01*
X0266249Y0138398D01*
X0267341Y0139490D01*
X0267931Y0140916D01*
X0267931Y0142460D01*
X0267615Y0143225D01*
X0278071Y0143225D01*
X0278477Y0142246D01*
X0279367Y0141355D01*
X0279367Y0140030D01*
X0279732Y0139148D01*
X0280407Y0138472D01*
X0281290Y0138107D01*
X0282244Y0138107D01*
X0283126Y0138472D01*
X0283499Y0138845D01*
X0283717Y0138320D01*
X0284809Y0137229D01*
X0286235Y0136638D01*
X0287779Y0136638D01*
X0289206Y0137229D01*
X0290297Y0138320D01*
X0290888Y0139747D01*
X0290888Y0140988D01*
X0291723Y0140642D01*
X0293267Y0140642D01*
X0294694Y0141233D01*
X0295786Y0142324D01*
X0296071Y0143015D01*
X0296390Y0142246D01*
X0297482Y0141154D01*
X0298908Y0140563D01*
X0300452Y0140563D01*
X0301879Y0141154D01*
X0302971Y0142246D01*
X0303561Y0143672D01*
X0303561Y0144931D01*
X0307170Y0148540D01*
X0353335Y0148540D01*
X0339828Y0135033D01*
X0316942Y0135033D01*
X0316052Y0135923D01*
X0314626Y0136514D01*
X0313082Y0136514D01*
X0311655Y0135923D01*
X0310563Y0134832D01*
X0309972Y0133405D01*
X0309972Y0131861D01*
X0310563Y0130435D01*
X0311655Y0129343D01*
X0313082Y0128752D01*
X0314626Y0128752D01*
X0316052Y0129343D01*
X0316942Y0130233D01*
X0341299Y0130233D01*
X0341439Y0130291D01*
X0340639Y0128361D01*
X0340639Y0126133D01*
X0341492Y0124075D01*
X0343067Y0122500D01*
X0345125Y0121647D01*
X0347353Y0121647D01*
X0349412Y0122500D01*
X0349510Y0122599D01*
X0349510Y0119889D01*
X0349502Y0119868D01*
X0349502Y0117839D01*
X0350278Y0115965D01*
X0397407Y0068835D01*
X0350809Y0068835D01*
X0327963Y0091681D01*
X0326626Y0092235D01*
X0328147Y0093756D01*
X0329395Y0096770D01*
X0329395Y0100032D01*
X0328147Y0103045D01*
X0325841Y0105352D01*
X0322827Y0106600D01*
X0319565Y0106600D01*
X0316552Y0105352D01*
X0314245Y0103045D01*
X0312997Y0100032D01*
X0312997Y0096770D01*
X0314245Y0093756D01*
X0315663Y0092339D01*
X0263737Y0092339D01*
X0265096Y0093697D01*
X0266344Y0096711D01*
X0266344Y0099973D01*
X0265096Y0102986D01*
X0262789Y0105293D01*
X0259776Y0106541D01*
X0256514Y0106541D01*
X0253500Y0105293D01*
X0251194Y0102986D01*
X0249946Y0099973D01*
X0249946Y0096711D01*
X0251194Y0093697D01*
X0252434Y0092457D01*
X0251225Y0092457D01*
X0249350Y0091681D01*
X0226426Y0068757D01*
X0185930Y0068757D01*
X0227569Y0110396D01*
X0229004Y0111831D01*
X0229780Y0113705D01*
X0229780Y0121893D01*
X0231496Y0121183D01*
X0233723Y0121183D01*
X0235782Y0122035D01*
X0237357Y0123611D01*
X0238209Y0125669D01*
X0238209Y0127897D01*
X0237357Y0129955D01*
X0235782Y0131530D01*
X0233723Y0132383D01*
X0231496Y0132383D01*
X0230886Y0132130D01*
X0231138Y0132740D01*
X0231138Y0134968D01*
X0230286Y0137026D01*
X0228711Y0138601D01*
X0226652Y0139454D01*
X0224424Y0139454D01*
X0223815Y0139201D01*
X0224067Y0139811D01*
X0224067Y0142039D01*
X0223215Y0144097D01*
X0221639Y0145672D01*
X0219581Y0146525D01*
X0217353Y0146525D01*
X0215295Y0145672D01*
X0213720Y0144097D01*
X0212867Y0142039D01*
X0212867Y0139811D01*
X0213137Y0139160D01*
X0156581Y0195716D01*
X0155007Y0195716D01*
X0155005Y0195714D01*
X0154820Y0195714D01*
X0150843Y0191738D01*
X0150843Y0191738D01*
X0058520Y0099415D01*
X0058520Y0108867D01*
X0073492Y0123839D01*
X0074268Y0125713D01*
X0074268Y0132655D01*
X0073492Y0134529D01*
X0072057Y0135964D01*
X0066387Y0141634D01*
X0066755Y0141482D01*
X0068983Y0141482D01*
X0071041Y0142334D01*
X0072617Y0143910D01*
X0073469Y0145968D01*
X0073469Y0148196D01*
X0072617Y0150254D01*
X0071041Y0151829D01*
X0068983Y0152682D01*
X0066755Y0152682D01*
X0064697Y0151829D01*
X0063122Y0150254D01*
X0062269Y0148196D01*
X0062269Y0145968D01*
X0062522Y0145358D01*
X0061912Y0145611D01*
X0059684Y0145611D01*
X0057626Y0144758D01*
X0056051Y0143183D01*
X0055198Y0141125D01*
X0055198Y0138897D01*
X0055451Y0138287D01*
X0054841Y0138540D01*
X0052613Y0138540D01*
X0050555Y0137687D01*
X0048980Y0136112D01*
X0048127Y0134054D01*
X0048127Y0131826D01*
X0048980Y0129768D01*
X0050555Y0128192D01*
X0052613Y0127340D01*
X0054841Y0127340D01*
X0056899Y0128192D01*
X0058475Y0129768D01*
X0059327Y0131826D01*
X0059327Y0134054D01*
X0059175Y0134422D01*
X0064069Y0129528D01*
X0064069Y0128840D01*
X0049097Y0113868D01*
X0048320Y0111994D01*
X0048320Y0088312D01*
X0049097Y0086437D01*
X0050532Y0085002D01*
X0113710Y0021824D01*
X0112084Y0022203D01*
X0101167Y0026217D01*
X0090825Y0031541D01*
X0081216Y0038095D01*
X0072483Y0045778D01*
X0064760Y0054476D01*
X0065286Y0053884D02*
X0081650Y0053884D01*
X0084049Y0051485D02*
X0067416Y0051485D01*
X0069546Y0049087D02*
X0086447Y0049087D01*
X0088846Y0046688D02*
X0071675Y0046688D01*
X0074175Y0044290D02*
X0091244Y0044290D01*
X0093643Y0041891D02*
X0076901Y0041891D01*
X0079627Y0039493D02*
X0096041Y0039493D01*
X0098440Y0037094D02*
X0082683Y0037094D01*
X0086200Y0034696D02*
X0100838Y0034696D01*
X0103237Y0032297D02*
X0089717Y0032297D01*
X0094016Y0029899D02*
X0105635Y0029899D01*
X0108034Y0027500D02*
X0098675Y0027500D01*
X0104202Y0025102D02*
X0110432Y0025102D01*
X0110725Y0022703D02*
X0112831Y0022703D01*
X0076853Y0058681D02*
X0061865Y0058681D01*
X0060213Y0061079D02*
X0074455Y0061079D01*
X0072056Y0063478D02*
X0058562Y0063478D01*
X0057216Y0065876D02*
X0069658Y0065876D01*
X0067259Y0068275D02*
X0055968Y0068275D01*
X0054719Y0070673D02*
X0064861Y0070673D01*
X0062462Y0073072D02*
X0053471Y0073072D01*
X0052384Y0075470D02*
X0060064Y0075470D01*
X0057665Y0077869D02*
X0051490Y0077869D01*
X0050596Y0080267D02*
X0055266Y0080267D01*
X0052868Y0082666D02*
X0049702Y0082666D01*
X0050469Y0085064D02*
X0048808Y0085064D01*
X0048672Y0087463D02*
X0048209Y0087463D01*
X0048320Y0089862D02*
X0047638Y0089862D01*
X0047066Y0092260D02*
X0048320Y0092260D01*
X0048320Y0094659D02*
X0046495Y0094659D01*
X0045984Y0097057D02*
X0048320Y0097057D01*
X0048320Y0099456D02*
X0045717Y0099456D01*
X0045451Y0101854D02*
X0048320Y0101854D01*
X0048320Y0104253D02*
X0045184Y0104253D01*
X0044918Y0106651D02*
X0048320Y0106651D01*
X0048320Y0109050D02*
X0044763Y0109050D01*
X0044792Y0111448D02*
X0048320Y0111448D01*
X0049088Y0113847D02*
X0044822Y0113847D01*
X0044852Y0116245D02*
X0051474Y0116245D01*
X0053872Y0118644D02*
X0044882Y0118644D01*
X0045068Y0121042D02*
X0056271Y0121042D01*
X0058669Y0123441D02*
X0045395Y0123441D01*
X0045722Y0125839D02*
X0061068Y0125839D01*
X0063466Y0128238D02*
X0056945Y0128238D01*
X0058834Y0130636D02*
X0062960Y0130636D01*
X0060562Y0133035D02*
X0059327Y0133035D01*
X0055198Y0140230D02*
X0048829Y0140230D01*
X0048194Y0137832D02*
X0050904Y0137832D01*
X0048699Y0135433D02*
X0047560Y0135433D01*
X0048127Y0133035D02*
X0046925Y0133035D01*
X0046377Y0130636D02*
X0048620Y0130636D01*
X0050510Y0128238D02*
X0046049Y0128238D01*
X0063500Y0113847D02*
X0072952Y0113847D01*
X0075350Y0116245D02*
X0065899Y0116245D01*
X0068297Y0118644D02*
X0077749Y0118644D01*
X0080147Y0121042D02*
X0070696Y0121042D01*
X0073094Y0123441D02*
X0082546Y0123441D01*
X0084944Y0125839D02*
X0074268Y0125839D01*
X0074268Y0128238D02*
X0087343Y0128238D01*
X0089741Y0130636D02*
X0074268Y0130636D01*
X0074111Y0133035D02*
X0092140Y0133035D01*
X0094538Y0135433D02*
X0072588Y0135433D01*
X0070190Y0137832D02*
X0084072Y0137832D01*
X0083595Y0138309D02*
X0084687Y0137217D01*
X0086113Y0136626D01*
X0087657Y0136626D01*
X0089084Y0137217D01*
X0090175Y0138309D01*
X0090766Y0139735D01*
X0090766Y0141279D01*
X0090175Y0142706D01*
X0089285Y0143596D01*
X0089285Y0151198D01*
X0090175Y0152088D01*
X0090766Y0153515D01*
X0090766Y0155059D01*
X0090175Y0156485D01*
X0089084Y0157577D01*
X0087657Y0158168D01*
X0086113Y0158168D01*
X0084687Y0157577D01*
X0083595Y0156485D01*
X0083004Y0155059D01*
X0083004Y0153515D01*
X0083595Y0152088D01*
X0084485Y0151198D01*
X0084485Y0143596D01*
X0083595Y0142706D01*
X0083004Y0141279D01*
X0083004Y0139735D01*
X0083595Y0138309D01*
X0083004Y0140230D02*
X0067791Y0140230D01*
X0071336Y0142629D02*
X0083563Y0142629D01*
X0084485Y0145027D02*
X0073080Y0145027D01*
X0073469Y0147426D02*
X0084485Y0147426D01*
X0084485Y0149824D02*
X0072795Y0149824D01*
X0070091Y0152223D02*
X0083539Y0152223D01*
X0083004Y0154621D02*
X0055772Y0154621D01*
X0057101Y0157020D02*
X0084130Y0157020D01*
X0089641Y0157020D02*
X0116125Y0157020D01*
X0118524Y0159418D02*
X0058392Y0159418D01*
X0059682Y0161817D02*
X0120922Y0161817D01*
X0123321Y0164215D02*
X0060973Y0164215D01*
X0062263Y0166614D02*
X0125719Y0166614D01*
X0128118Y0169012D02*
X0063554Y0169012D01*
X0064728Y0171411D02*
X0130516Y0171411D01*
X0132915Y0173809D02*
X0065776Y0173809D01*
X0066823Y0176208D02*
X0135313Y0176208D01*
X0137712Y0178606D02*
X0067871Y0178606D01*
X0068918Y0181005D02*
X0140110Y0181005D01*
X0142509Y0183403D02*
X0069966Y0183403D01*
X0071013Y0185802D02*
X0144907Y0185802D01*
X0147306Y0188200D02*
X0071871Y0188200D01*
X0072692Y0190599D02*
X0149704Y0190599D01*
X0152103Y0192998D02*
X0073513Y0192998D01*
X0074334Y0195396D02*
X0154501Y0195396D01*
X0156901Y0195396D02*
X0204564Y0195396D01*
X0204564Y0192998D02*
X0159299Y0192998D01*
X0161698Y0190599D02*
X0204564Y0190599D01*
X0204564Y0188200D02*
X0164096Y0188200D01*
X0166495Y0185802D02*
X0204564Y0185802D01*
X0204564Y0183403D02*
X0168893Y0183403D01*
X0171292Y0181005D02*
X0204564Y0181005D01*
X0204564Y0178606D02*
X0199797Y0178606D01*
X0196020Y0178606D02*
X0173690Y0178606D01*
X0176089Y0176208D02*
X0192138Y0176208D01*
X0190649Y0173809D02*
X0178487Y0173809D01*
X0180886Y0171411D02*
X0190103Y0171411D01*
X0190259Y0169012D02*
X0183285Y0169012D01*
X0185683Y0166614D02*
X0191252Y0166614D01*
X0193747Y0164215D02*
X0188082Y0164215D01*
X0190480Y0161817D02*
X0204564Y0161817D01*
X0204564Y0164215D02*
X0202070Y0164215D01*
X0206312Y0159418D02*
X0192879Y0159418D01*
X0195277Y0157020D02*
X0208710Y0157020D01*
X0211109Y0154621D02*
X0197676Y0154621D01*
X0200074Y0152223D02*
X0213549Y0152223D01*
X0214650Y0145027D02*
X0207270Y0145027D01*
X0209668Y0142629D02*
X0213112Y0142629D01*
X0212867Y0140230D02*
X0212067Y0140230D01*
X0204871Y0147426D02*
X0226179Y0147426D01*
X0228577Y0145027D02*
X0222284Y0145027D01*
X0223823Y0142629D02*
X0260239Y0142629D01*
X0259198Y0140230D02*
X0224067Y0140230D01*
X0229480Y0137832D02*
X0256800Y0137832D01*
X0254401Y0135433D02*
X0230946Y0135433D01*
X0231138Y0133035D02*
X0252003Y0133035D01*
X0249604Y0130636D02*
X0236675Y0130636D01*
X0238068Y0128238D02*
X0247206Y0128238D01*
X0244807Y0125839D02*
X0238209Y0125839D01*
X0237187Y0123441D02*
X0243934Y0123441D01*
X0243040Y0121042D02*
X0229780Y0121042D01*
X0229780Y0118644D02*
X0242453Y0118644D01*
X0243454Y0116245D02*
X0229780Y0116245D01*
X0229780Y0113847D02*
X0352396Y0113847D01*
X0350162Y0116245D02*
X0249214Y0116245D01*
X0250215Y0118644D02*
X0349502Y0118644D01*
X0349510Y0121042D02*
X0249628Y0121042D01*
X0249197Y0123441D02*
X0342126Y0123441D01*
X0340761Y0125839D02*
X0251595Y0125839D01*
X0253994Y0128238D02*
X0340639Y0128238D01*
X0340228Y0135433D02*
X0316542Y0135433D01*
X0311165Y0135433D02*
X0261190Y0135433D01*
X0258791Y0133035D02*
X0309972Y0133035D01*
X0310480Y0130636D02*
X0256393Y0130636D01*
X0264882Y0137832D02*
X0284206Y0137832D01*
X0279367Y0140230D02*
X0267647Y0140230D01*
X0267862Y0142629D02*
X0278318Y0142629D01*
X0289809Y0137832D02*
X0342627Y0137832D01*
X0345025Y0140230D02*
X0290888Y0140230D01*
X0295912Y0142629D02*
X0296231Y0142629D01*
X0296104Y0145952D02*
X0295786Y0146721D01*
X0294895Y0147612D01*
X0294895Y0147973D01*
X0294530Y0148855D01*
X0289707Y0153678D01*
X0289032Y0154353D01*
X0288150Y0154718D01*
X0233324Y0154718D01*
X0225367Y0162676D01*
X0225247Y0162725D01*
X0225254Y0162728D01*
X0226829Y0164303D01*
X0227082Y0164913D01*
X0227334Y0164303D01*
X0228910Y0162728D01*
X0230968Y0161876D01*
X0233196Y0161876D01*
X0235254Y0162728D01*
X0236829Y0164303D01*
X0237082Y0164913D01*
X0237334Y0164303D01*
X0238910Y0162728D01*
X0240968Y0161876D01*
X0243196Y0161876D01*
X0245254Y0162728D01*
X0246829Y0164303D01*
X0247082Y0164913D01*
X0247334Y0164303D01*
X0248910Y0162728D01*
X0250968Y0161876D01*
X0253196Y0161876D01*
X0255254Y0162728D01*
X0256829Y0164303D01*
X0257082Y0164913D01*
X0257334Y0164303D01*
X0258910Y0162728D01*
X0260968Y0161876D01*
X0263196Y0161876D01*
X0265254Y0162728D01*
X0266829Y0164303D01*
X0267082Y0164913D01*
X0267334Y0164303D01*
X0268910Y0162728D01*
X0270968Y0161876D01*
X0273196Y0161876D01*
X0275254Y0162728D01*
X0276829Y0164303D01*
X0277082Y0164913D01*
X0277334Y0164303D01*
X0278910Y0162728D01*
X0280968Y0161876D01*
X0283196Y0161876D01*
X0285254Y0162728D01*
X0286829Y0164303D01*
X0287082Y0164913D01*
X0287334Y0164303D01*
X0288910Y0162728D01*
X0290968Y0161876D01*
X0293196Y0161876D01*
X0295254Y0162728D01*
X0296829Y0164303D01*
X0297682Y0166362D01*
X0297682Y0168589D01*
X0296829Y0170648D01*
X0295254Y0172223D01*
X0293196Y0173076D01*
X0290968Y0173076D01*
X0288910Y0172223D01*
X0287334Y0170648D01*
X0287082Y0170038D01*
X0286829Y0170648D01*
X0285254Y0172223D01*
X0284167Y0172673D01*
X0284167Y0176915D01*
X0300478Y0193225D01*
X0316080Y0193225D01*
X0316970Y0192335D01*
X0318396Y0191744D01*
X0319941Y0191744D01*
X0320317Y0191900D01*
X0316628Y0188211D01*
X0315953Y0187536D01*
X0315587Y0186654D01*
X0315587Y0172504D01*
X0314910Y0172223D01*
X0313334Y0170648D01*
X0313082Y0170038D01*
X0312829Y0170648D01*
X0311254Y0172223D01*
X0309196Y0173076D01*
X0306968Y0173076D01*
X0304910Y0172223D01*
X0303334Y0170648D01*
X0302482Y0168589D01*
X0302482Y0166362D01*
X0303334Y0164303D01*
X0304910Y0162728D01*
X0306968Y0161876D01*
X0309196Y0161876D01*
X0311254Y0162728D01*
X0312829Y0164303D01*
X0313082Y0164913D01*
X0313334Y0164303D01*
X0314910Y0162728D01*
X0316968Y0161876D01*
X0319196Y0161876D01*
X0321254Y0162728D01*
X0322829Y0164303D01*
X0323082Y0164913D01*
X0323334Y0164303D01*
X0324910Y0162728D01*
X0326968Y0161876D01*
X0329196Y0161876D01*
X0331254Y0162728D01*
X0332829Y0164303D01*
X0333082Y0164913D01*
X0333334Y0164303D01*
X0334910Y0162728D01*
X0336968Y0161876D01*
X0339196Y0161876D01*
X0341254Y0162728D01*
X0342829Y0164303D01*
X0343082Y0164913D01*
X0343334Y0164303D01*
X0344910Y0162728D01*
X0346968Y0161876D01*
X0349196Y0161876D01*
X0351254Y0162728D01*
X0352829Y0164303D01*
X0353082Y0164913D01*
X0353334Y0164303D01*
X0354910Y0162728D01*
X0356968Y0161876D01*
X0359196Y0161876D01*
X0361254Y0162728D01*
X0362829Y0164303D01*
X0363682Y0166362D01*
X0363682Y0168589D01*
X0362829Y0170648D01*
X0361254Y0172223D01*
X0359196Y0173076D01*
X0356968Y0173076D01*
X0354910Y0172223D01*
X0353334Y0170648D01*
X0353082Y0170038D01*
X0352829Y0170648D01*
X0351254Y0172223D01*
X0349196Y0173076D01*
X0346968Y0173076D01*
X0344910Y0172223D01*
X0343334Y0170648D01*
X0343082Y0170038D01*
X0342829Y0170648D01*
X0341254Y0172223D01*
X0339196Y0173076D01*
X0336968Y0173076D01*
X0334910Y0172223D01*
X0333334Y0170648D01*
X0333082Y0170038D01*
X0332829Y0170648D01*
X0331254Y0172223D01*
X0329196Y0173076D01*
X0326968Y0173076D01*
X0324910Y0172223D01*
X0323334Y0170648D01*
X0323082Y0170038D01*
X0322829Y0170648D01*
X0321254Y0172223D01*
X0320387Y0172582D01*
X0320387Y0185182D01*
X0342857Y0207652D01*
X0343222Y0208534D01*
X0343222Y0240886D01*
X0343742Y0240366D01*
X0345168Y0239776D01*
X0346712Y0239776D01*
X0348139Y0240366D01*
X0349230Y0241458D01*
X0349821Y0242885D01*
X0349821Y0244144D01*
X0352024Y0246346D01*
X0352699Y0247022D01*
X0353065Y0247904D01*
X0353065Y0259097D01*
X0353556Y0257910D01*
X0355863Y0255603D01*
X0358876Y0254355D01*
X0362138Y0254355D01*
X0365152Y0255603D01*
X0367458Y0257910D01*
X0368706Y0260923D01*
X0368706Y0264185D01*
X0367458Y0267199D01*
X0365152Y0269505D01*
X0362138Y0270754D01*
X0358876Y0270754D01*
X0355863Y0269505D01*
X0353556Y0267199D01*
X0353065Y0266012D01*
X0353065Y0271277D01*
X0353955Y0272167D01*
X0354546Y0273593D01*
X0354546Y0275137D01*
X0353955Y0276564D01*
X0352863Y0277656D01*
X0351437Y0278246D01*
X0349893Y0278246D01*
X0348466Y0277656D01*
X0347374Y0276564D01*
X0346783Y0275137D01*
X0346783Y0273593D01*
X0347374Y0272167D01*
X0348265Y0271277D01*
X0348265Y0249375D01*
X0346427Y0247538D01*
X0345168Y0247538D01*
X0343742Y0246947D01*
X0343222Y0246427D01*
X0343222Y0273245D01*
X0344112Y0274135D01*
X0344703Y0275562D01*
X0344703Y0277106D01*
X0344112Y0278532D01*
X0343021Y0279624D01*
X0341594Y0280215D01*
X0340050Y0280215D01*
X0338624Y0279624D01*
X0337532Y0278532D01*
X0336941Y0277106D01*
X0336941Y0275735D01*
X0336824Y0275852D01*
X0336824Y0290099D01*
X0336459Y0290981D01*
X0335784Y0291656D01*
X0332339Y0295101D01*
X0332098Y0295201D01*
X0331932Y0295366D01*
X0331698Y0295366D01*
X0331457Y0295466D01*
X0330502Y0295466D01*
X0330261Y0295366D01*
X0321530Y0295366D01*
X0320973Y0295923D01*
X0319547Y0296514D01*
X0318003Y0296514D01*
X0316576Y0295923D01*
X0315485Y0294832D01*
X0314894Y0293405D01*
X0314894Y0291861D01*
X0315485Y0290435D01*
X0316576Y0289343D01*
X0316902Y0289208D01*
X0316576Y0289073D01*
X0315485Y0287981D01*
X0314894Y0286555D01*
X0314894Y0285011D01*
X0315485Y0283584D01*
X0316576Y0282492D01*
X0318003Y0281902D01*
X0319547Y0281902D01*
X0320973Y0282492D01*
X0322065Y0283584D01*
X0322656Y0285011D01*
X0322656Y0285278D01*
X0322727Y0285248D01*
X0323986Y0285248D01*
X0325627Y0283607D01*
X0325627Y0275289D01*
X0324737Y0274398D01*
X0324146Y0272972D01*
X0324146Y0271428D01*
X0324737Y0270002D01*
X0325828Y0268910D01*
X0327255Y0268319D01*
X0328799Y0268319D01*
X0330225Y0268910D01*
X0331317Y0270002D01*
X0331908Y0271428D01*
X0331908Y0272972D01*
X0331317Y0274398D01*
X0330427Y0275289D01*
X0330427Y0285079D01*
X0330061Y0285961D01*
X0327380Y0288642D01*
X0327380Y0289901D01*
X0327022Y0290766D01*
X0329885Y0290766D01*
X0332024Y0288627D01*
X0332024Y0274380D01*
X0332390Y0273498D01*
X0333065Y0272823D01*
X0336454Y0269434D01*
X0336454Y0250758D01*
X0335737Y0251474D01*
X0334311Y0252065D01*
X0332767Y0252065D01*
X0331340Y0251474D01*
X0330450Y0250584D01*
X0322257Y0250584D01*
X0321367Y0251474D01*
X0319941Y0252065D01*
X0318396Y0252065D01*
X0316970Y0251474D01*
X0315878Y0250383D01*
X0315287Y0248956D01*
X0315287Y0247412D01*
X0315878Y0245986D01*
X0316970Y0244894D01*
X0318396Y0244303D01*
X0319941Y0244303D01*
X0321367Y0244894D01*
X0322257Y0245784D01*
X0330450Y0245784D01*
X0331340Y0244894D01*
X0332767Y0244303D01*
X0334311Y0244303D01*
X0335737Y0244894D01*
X0336454Y0245611D01*
X0336454Y0243863D01*
X0327474Y0234884D01*
X0327474Y0237441D01*
X0327109Y0238323D01*
X0326434Y0238998D01*
X0322496Y0242935D01*
X0321614Y0243301D01*
X0270950Y0243301D01*
X0264482Y0249769D01*
X0264482Y0252894D01*
X0264608Y0252768D01*
X0266034Y0252177D01*
X0267578Y0252177D01*
X0269005Y0252768D01*
X0270097Y0253860D01*
X0270687Y0255286D01*
X0270687Y0256545D01*
X0272328Y0258186D01*
X0278804Y0258186D01*
X0286800Y0250191D01*
X0280525Y0250191D01*
X0279438Y0251278D01*
X0278011Y0251868D01*
X0276467Y0251868D01*
X0275041Y0251278D01*
X0273949Y0250186D01*
X0273358Y0248759D01*
X0273358Y0247215D01*
X0273949Y0245789D01*
X0275041Y0244697D01*
X0276467Y0244106D01*
X0278011Y0244106D01*
X0279438Y0244697D01*
X0280131Y0245391D01*
X0304072Y0245391D01*
X0304962Y0244500D01*
X0306389Y0243909D01*
X0307933Y0243909D01*
X0309359Y0244500D01*
X0310451Y0245592D01*
X0311042Y0247019D01*
X0311042Y0248563D01*
X0310451Y0249989D01*
X0309359Y0251081D01*
X0307933Y0251672D01*
X0307743Y0251672D01*
X0313863Y0257792D01*
X0328875Y0257792D01*
X0329765Y0256902D01*
X0331192Y0256311D01*
X0332736Y0256311D01*
X0334162Y0256902D01*
X0335254Y0257994D01*
X0335845Y0259420D01*
X0335845Y0260964D01*
X0335254Y0262391D01*
X0334162Y0263482D01*
X0332736Y0264073D01*
X0331192Y0264073D01*
X0329765Y0263482D01*
X0328875Y0262592D01*
X0312392Y0262592D01*
X0311510Y0262227D01*
X0301386Y0252103D01*
X0301368Y0252059D01*
X0300567Y0252059D01*
X0300648Y0252255D01*
X0300648Y0253799D01*
X0300057Y0255225D01*
X0298965Y0256317D01*
X0298437Y0256536D01*
X0298437Y0263213D01*
X0298537Y0263455D01*
X0298537Y0264410D01*
X0298437Y0264651D01*
X0298437Y0264885D01*
X0298272Y0265050D01*
X0298172Y0265292D01*
X0295613Y0267851D01*
X0294937Y0268526D01*
X0294055Y0268891D01*
X0269479Y0268891D01*
X0268596Y0268526D01*
X0266993Y0266923D01*
X0257667Y0266923D01*
X0256785Y0266557D01*
X0250880Y0260652D01*
X0250205Y0259977D01*
X0249839Y0259095D01*
X0249839Y0245832D01*
X0225955Y0221947D01*
X0225680Y0221947D01*
X0224253Y0221356D01*
X0223401Y0220504D01*
X0222750Y0221155D01*
X0222750Y0241678D01*
X0235546Y0254475D01*
X0235882Y0254614D01*
X0236557Y0255289D01*
X0248308Y0267040D01*
X0249499Y0266547D01*
X0251043Y0266547D01*
X0252469Y0267138D01*
X0253561Y0268230D01*
X0254152Y0269656D01*
X0254152Y0271200D01*
X0253561Y0272627D01*
X0252469Y0273719D01*
X0251043Y0274309D01*
X0249499Y0274309D01*
X0248072Y0273719D01*
X0246981Y0272627D01*
X0246891Y0272412D01*
X0233303Y0258823D01*
X0232966Y0258683D01*
X0218315Y0244032D01*
X0217950Y0243150D01*
X0217950Y0221155D01*
X0217059Y0220265D01*
X0216469Y0218838D01*
X0216469Y0217294D01*
X0217059Y0215868D01*
X0218151Y0214776D01*
X0219578Y0214185D01*
X0221122Y0214185D01*
X0222548Y0214776D01*
X0223401Y0215629D01*
X0224253Y0214776D01*
X0225680Y0214185D01*
X0227224Y0214185D01*
X0228650Y0214776D01*
X0229742Y0215868D01*
X0230333Y0217294D01*
X0230333Y0218838D01*
X0230128Y0219333D01*
X0254274Y0243478D01*
X0254639Y0244360D01*
X0254639Y0257623D01*
X0258201Y0261185D01*
X0258201Y0259814D01*
X0258792Y0258387D01*
X0259682Y0257497D01*
X0259682Y0248297D01*
X0260047Y0247415D01*
X0267921Y0239541D01*
X0268596Y0238866D01*
X0269479Y0238501D01*
X0315604Y0238501D01*
X0315287Y0237736D01*
X0315287Y0236192D01*
X0315878Y0234765D01*
X0316696Y0233948D01*
X0276470Y0193723D01*
X0275795Y0193048D01*
X0275430Y0192166D01*
X0275430Y0188745D01*
X0270930Y0184246D01*
X0267510Y0184246D01*
X0266628Y0183880D01*
X0260047Y0177300D01*
X0259682Y0176418D01*
X0259682Y0172543D01*
X0258910Y0172223D01*
X0257334Y0170648D01*
X0257082Y0170038D01*
X0256829Y0170648D01*
X0255254Y0172223D01*
X0253196Y0173076D01*
X0250968Y0173076D01*
X0248910Y0172223D01*
X0247334Y0170648D01*
X0247082Y0170038D01*
X0246829Y0170648D01*
X0245254Y0172223D01*
X0243196Y0173076D01*
X0240968Y0173076D01*
X0238910Y0172223D01*
X0237334Y0170648D01*
X0237082Y0170038D01*
X0236829Y0170648D01*
X0235254Y0172223D01*
X0233196Y0173076D01*
X0230968Y0173076D01*
X0228910Y0172223D01*
X0227334Y0170648D01*
X0227082Y0170038D01*
X0226829Y0170648D01*
X0225254Y0172223D01*
X0223196Y0173076D01*
X0220968Y0173076D01*
X0218910Y0172223D01*
X0217334Y0170648D01*
X0216482Y0168589D01*
X0216482Y0166362D01*
X0217334Y0164303D01*
X0218597Y0163041D01*
X0217352Y0163041D01*
X0215269Y0165123D01*
X0215269Y0205945D01*
X0214904Y0206827D01*
X0214229Y0207502D01*
X0214229Y0207502D01*
X0147975Y0273756D01*
X0147975Y0273756D01*
X0147300Y0274431D01*
X0146418Y0274797D01*
X0121344Y0274797D01*
X0120781Y0275359D01*
X0120781Y0295418D01*
X0128233Y0302871D01*
X0159607Y0302871D01*
X0160489Y0303236D01*
X0161164Y0303911D01*
X0161164Y0303911D01*
X0179471Y0322218D01*
X0179836Y0323101D01*
X0179836Y0346206D01*
X0190690Y0357060D01*
X0190103Y0355642D01*
X0190103Y0352537D01*
X0191291Y0349668D01*
X0193487Y0347473D01*
X0196356Y0346284D01*
X0199461Y0346284D01*
X0202330Y0347473D01*
X0204526Y0349668D01*
X0205714Y0352537D01*
X0205714Y0355642D01*
X0204526Y0358511D01*
X0202330Y0360707D01*
X0199461Y0361895D01*
X0196356Y0361895D01*
X0194938Y0361308D01*
X0232620Y0398990D01*
X0232986Y0399872D01*
X0232986Y0428693D01*
X0232620Y0429575D01*
X0231945Y0430250D01*
X0180878Y0481318D01*
X0181198Y0482090D01*
X0181198Y0483864D01*
X0206577Y0458484D01*
X0208012Y0457050D01*
X0209886Y0456273D01*
X0226505Y0456273D01*
X0237297Y0445481D01*
X0237297Y0419020D01*
X0238073Y0417146D01*
X0242010Y0413209D01*
X0243445Y0411774D01*
X0245319Y0410998D01*
X0333962Y0410998D01*
X0335837Y0411774D01*
X0339774Y0415711D01*
X0341209Y0417146D01*
X0341985Y0419020D01*
X0341985Y0445481D01*
X0350809Y0454305D01*
X0402978Y0454305D01*
X0404853Y0455081D01*
X0406287Y0456516D01*
X0427705Y0477933D01*
X0427705Y0477933D01*
X0434516Y0484744D01*
X0434599Y0484946D01*
X0443328Y0493675D01*
X0453255Y0493675D01*
X0357755Y0398155D01*
X0357738Y0398155D01*
X0356625Y0397042D01*
X0356625Y0395468D01*
X0356629Y0395465D01*
X0356629Y0395455D01*
X0357742Y0394342D01*
X0357751Y0394342D01*
X0421474Y0330620D01*
X0421474Y0330591D01*
X0422587Y0329478D01*
X0424161Y0329478D01*
X0424174Y0329491D01*
X0424177Y0329491D01*
X0425290Y0330604D01*
X0425290Y0330607D01*
X0521596Y0426913D01*
X0521598Y0426913D01*
X0522712Y0428025D01*
X0522712Y0428029D01*
X0522716Y0428033D01*
X0522716Y0429607D01*
X0521603Y0430720D01*
X0521593Y0430720D01*
X0458691Y0493675D01*
X0458788Y0493675D01*
X0522730Y0429733D01*
X0522730Y0426084D01*
X0504097Y0407451D01*
X0503320Y0405577D01*
X0503320Y0402462D01*
X0454609Y0353750D01*
X0453832Y0351876D01*
X0453832Y0351281D01*
X0444766Y0342215D01*
X0443990Y0340340D01*
X0443990Y0317816D01*
X0428934Y0302761D01*
X0427907Y0302761D01*
X0415991Y0314676D01*
X0419832Y0318516D01*
X0419679Y0318148D01*
X0419679Y0315920D01*
X0420532Y0313862D01*
X0422107Y0312287D01*
X0424165Y0311434D01*
X0426393Y0311434D01*
X0428451Y0312287D01*
X0430027Y0313862D01*
X0430879Y0315920D01*
X0430879Y0318148D01*
X0430027Y0320206D01*
X0428451Y0321782D01*
X0426393Y0322634D01*
X0424165Y0322634D01*
X0423555Y0322382D01*
X0423808Y0322991D01*
X0423808Y0325219D01*
X0422956Y0327277D01*
X0421380Y0328853D01*
X0419322Y0329705D01*
X0417094Y0329705D01*
X0416484Y0329453D01*
X0416737Y0330062D01*
X0416737Y0332290D01*
X0415884Y0334349D01*
X0414309Y0335924D01*
X0412251Y0336776D01*
X0410023Y0336776D01*
X0407965Y0335924D01*
X0406390Y0334349D01*
X0405537Y0332290D01*
X0405537Y0330062D01*
X0405857Y0329290D01*
X0384734Y0308168D01*
X0383357Y0308168D01*
X0381931Y0307577D01*
X0380839Y0306485D01*
X0380248Y0305059D01*
X0380248Y0303515D01*
X0380839Y0302088D01*
X0381931Y0300996D01*
X0383357Y0300406D01*
X0384901Y0300406D01*
X0386328Y0300996D01*
X0387419Y0302088D01*
X0388010Y0303515D01*
X0388010Y0304655D01*
X0409251Y0325896D01*
X0410023Y0325576D01*
X0412251Y0325576D01*
X0412619Y0325729D01*
X0405396Y0318506D01*
X0404620Y0316631D01*
X0404620Y0312721D01*
X0405396Y0310847D01*
X0406831Y0309412D01*
X0422906Y0293337D01*
X0424780Y0292561D01*
X0425946Y0292561D01*
X0425946Y0212930D01*
X0425213Y0213234D01*
X0423282Y0213234D01*
X0421498Y0212495D01*
X0420133Y0211130D01*
X0419394Y0209346D01*
X0419394Y0207416D01*
X0420133Y0205632D01*
X0421498Y0204267D01*
X0423282Y0203528D01*
X0425213Y0203528D01*
X0425789Y0203767D01*
X0425789Y0199855D01*
X0426565Y0197980D01*
X0428000Y0196546D01*
X0487903Y0136643D01*
X0488485Y0135238D01*
X0489919Y0133804D01*
X0522730Y0100993D01*
X0522730Y0095375D01*
X0456800Y0029446D01*
X0456438Y0029446D01*
X0456925Y0029932D01*
X0521274Y0094228D01*
X0521274Y0094228D01*
X0521830Y0094783D01*
X0522387Y0095340D01*
X0522387Y0095341D01*
X0522387Y0096127D01*
X0522388Y0096914D01*
X0522387Y0096914D01*
X0522387Y0096915D01*
X0521839Y0097463D01*
X0521275Y0098027D01*
X0521275Y0098027D01*
X0424171Y0195131D01*
X0423825Y0195477D01*
X0423813Y0195488D01*
X0422239Y0195488D01*
X0421126Y0194375D01*
X0421126Y0194353D01*
X0365226Y0138453D01*
X0365981Y0140275D01*
X0365981Y0142503D01*
X0365129Y0144562D01*
X0363554Y0146137D01*
X0361495Y0146989D01*
X0359268Y0146989D01*
X0358081Y0146498D01*
X0373678Y0162095D01*
X0374353Y0162770D01*
X0374718Y0163652D01*
X0374718Y0166084D01*
X0376519Y0164284D01*
X0379388Y0163095D01*
X0382493Y0163095D01*
X0385362Y0164284D01*
X0387557Y0166479D01*
X0388746Y0169348D01*
X0388746Y0172453D01*
X0387557Y0175322D01*
X0385362Y0177518D01*
X0382493Y0178706D01*
X0379388Y0178706D01*
X0377835Y0178063D01*
X0389426Y0189654D01*
X0390101Y0190329D01*
X0390466Y0191211D01*
X0390466Y0214316D01*
X0402840Y0226690D01*
X0410197Y0226690D01*
X0411079Y0227055D01*
X0420922Y0236898D01*
X0421597Y0237573D01*
X0421962Y0238455D01*
X0421962Y0243718D01*
X0422852Y0244608D01*
X0423443Y0246034D01*
X0423443Y0247578D01*
X0422852Y0249005D01*
X0421761Y0250097D01*
X0420334Y0250687D01*
X0418790Y0250687D01*
X0417364Y0250097D01*
X0416272Y0249005D01*
X0415681Y0247578D01*
X0415681Y0246034D01*
X0416272Y0244608D01*
X0417162Y0243718D01*
X0417162Y0239926D01*
X0408726Y0231490D01*
X0403703Y0231490D01*
X0403880Y0231667D01*
X0404246Y0232549D01*
X0404246Y0271277D01*
X0405136Y0272167D01*
X0405727Y0273593D01*
X0405727Y0275137D01*
X0405136Y0276564D01*
X0404044Y0277656D01*
X0402618Y0278246D01*
X0401074Y0278246D01*
X0399647Y0277656D01*
X0398555Y0276564D01*
X0397965Y0275137D01*
X0397965Y0273593D01*
X0398555Y0272167D01*
X0399446Y0271277D01*
X0399446Y0234021D01*
X0383360Y0217935D01*
X0382685Y0217260D01*
X0382320Y0216378D01*
X0382320Y0195241D01*
X0367022Y0179943D01*
X0366346Y0179268D01*
X0365981Y0178386D01*
X0365981Y0166304D01*
X0353017Y0153340D01*
X0305699Y0153340D01*
X0304817Y0152975D01*
X0300167Y0148325D01*
X0298908Y0148325D01*
X0297482Y0147734D01*
X0296390Y0146643D01*
X0296104Y0145952D01*
X0295081Y0147426D02*
X0297173Y0147426D01*
X0293560Y0149824D02*
X0301666Y0149824D01*
X0304065Y0152223D02*
X0291162Y0152223D01*
X0288383Y0154621D02*
X0354298Y0154621D01*
X0356697Y0157020D02*
X0231022Y0157020D01*
X0228624Y0159418D02*
X0359095Y0159418D01*
X0361494Y0161817D02*
X0226225Y0161817D01*
X0226741Y0164215D02*
X0227423Y0164215D01*
X0236741Y0164215D02*
X0237423Y0164215D01*
X0238098Y0171411D02*
X0236066Y0171411D01*
X0228098Y0171411D02*
X0226066Y0171411D01*
X0218098Y0171411D02*
X0215269Y0171411D01*
X0215269Y0173809D02*
X0259682Y0173809D01*
X0259682Y0176208D02*
X0257346Y0176208D01*
X0257213Y0176075D02*
X0258305Y0177167D01*
X0258896Y0178593D01*
X0258896Y0179183D01*
X0265729Y0186016D01*
X0266988Y0186016D01*
X0268414Y0186607D01*
X0269506Y0187698D01*
X0270097Y0189125D01*
X0270097Y0190669D01*
X0269506Y0192095D01*
X0268414Y0193187D01*
X0266988Y0193778D01*
X0265444Y0193778D01*
X0264017Y0193187D01*
X0262926Y0192095D01*
X0262335Y0190669D01*
X0262335Y0189410D01*
X0256059Y0183134D01*
X0255787Y0183246D01*
X0254243Y0183246D01*
X0252816Y0182656D01*
X0251725Y0181564D01*
X0251134Y0180137D01*
X0251134Y0178593D01*
X0251725Y0177167D01*
X0252816Y0176075D01*
X0254243Y0175484D01*
X0255787Y0175484D01*
X0257213Y0176075D01*
X0258896Y0178606D02*
X0261354Y0178606D01*
X0260718Y0181005D02*
X0263753Y0181005D01*
X0263116Y0183403D02*
X0266151Y0183403D01*
X0265515Y0185802D02*
X0272487Y0185802D01*
X0274885Y0188200D02*
X0269714Y0188200D01*
X0270097Y0190599D02*
X0275430Y0190599D01*
X0275775Y0192998D02*
X0268604Y0192998D01*
X0263828Y0192998D02*
X0215269Y0192998D01*
X0215269Y0195396D02*
X0278144Y0195396D01*
X0280542Y0197795D02*
X0215269Y0197795D01*
X0215269Y0200193D02*
X0282941Y0200193D01*
X0285339Y0202592D02*
X0215269Y0202592D01*
X0215269Y0204990D02*
X0287738Y0204990D01*
X0287063Y0207370D02*
X0287739Y0208045D01*
X0310414Y0230720D01*
X0311673Y0230720D01*
X0313099Y0231311D01*
X0314191Y0232403D01*
X0314782Y0233830D01*
X0314782Y0235374D01*
X0314191Y0236800D01*
X0313099Y0237892D01*
X0311673Y0238483D01*
X0310129Y0238483D01*
X0308702Y0237892D01*
X0307611Y0236800D01*
X0307020Y0235374D01*
X0307020Y0234115D01*
X0284710Y0211805D01*
X0271552Y0211805D01*
X0271868Y0212570D01*
X0271868Y0214114D01*
X0271278Y0215540D01*
X0270186Y0216632D01*
X0268759Y0217223D01*
X0267512Y0217223D01*
X0261516Y0223218D01*
X0261435Y0223414D01*
X0260343Y0224506D01*
X0258917Y0225097D01*
X0257373Y0225097D01*
X0255946Y0224506D01*
X0254855Y0223414D01*
X0254264Y0221988D01*
X0254264Y0220444D01*
X0254855Y0219017D01*
X0255946Y0217926D01*
X0256142Y0217844D01*
X0262182Y0211805D01*
X0241549Y0211805D01*
X0240658Y0212695D01*
X0239232Y0213286D01*
X0237688Y0213286D01*
X0236261Y0212695D01*
X0235170Y0211603D01*
X0234579Y0210177D01*
X0234579Y0208633D01*
X0235170Y0207206D01*
X0236261Y0206114D01*
X0237688Y0205524D01*
X0239232Y0205524D01*
X0240658Y0206114D01*
X0241549Y0207005D01*
X0286181Y0207005D01*
X0287063Y0207370D01*
X0287082Y0207389D02*
X0290136Y0207389D01*
X0289480Y0209787D02*
X0292535Y0209787D01*
X0291879Y0212186D02*
X0294933Y0212186D01*
X0294277Y0214584D02*
X0297332Y0214584D01*
X0296676Y0216983D02*
X0299730Y0216983D01*
X0299074Y0219381D02*
X0302129Y0219381D01*
X0301473Y0221780D02*
X0304527Y0221780D01*
X0303871Y0224178D02*
X0306926Y0224178D01*
X0306270Y0226577D02*
X0309324Y0226577D01*
X0308668Y0228975D02*
X0311723Y0228975D01*
X0313162Y0231374D02*
X0314121Y0231374D01*
X0314758Y0233772D02*
X0316520Y0233772D01*
X0315296Y0236171D02*
X0314452Y0236171D01*
X0307350Y0236171D02*
X0246966Y0236171D01*
X0244568Y0233772D02*
X0306677Y0233772D01*
X0304279Y0231374D02*
X0242169Y0231374D01*
X0239771Y0228975D02*
X0301880Y0228975D01*
X0299482Y0226577D02*
X0237372Y0226577D01*
X0234974Y0224178D02*
X0255619Y0224178D01*
X0254264Y0221780D02*
X0232575Y0221780D01*
X0230177Y0219381D02*
X0254704Y0219381D01*
X0257004Y0216983D02*
X0230204Y0216983D01*
X0228187Y0214584D02*
X0259403Y0214584D01*
X0261801Y0212186D02*
X0241168Y0212186D01*
X0235752Y0212186D02*
X0209545Y0212186D01*
X0207147Y0214584D02*
X0218614Y0214584D01*
X0216598Y0216983D02*
X0204748Y0216983D01*
X0202350Y0219381D02*
X0216693Y0219381D01*
X0217950Y0221780D02*
X0199951Y0221780D01*
X0197553Y0224178D02*
X0217950Y0224178D01*
X0217950Y0226577D02*
X0195154Y0226577D01*
X0192756Y0228975D02*
X0217950Y0228975D01*
X0217950Y0231374D02*
X0190357Y0231374D01*
X0187959Y0233772D02*
X0217950Y0233772D01*
X0217950Y0236171D02*
X0185560Y0236171D01*
X0183162Y0238569D02*
X0217950Y0238569D01*
X0217950Y0240968D02*
X0210306Y0240968D01*
X0209853Y0240514D02*
X0211287Y0241949D01*
X0212064Y0243823D01*
X0212064Y0255695D01*
X0211287Y0257569D01*
X0209853Y0259004D01*
X0209853Y0259004D01*
X0204190Y0264667D01*
X0204190Y0266347D01*
X0213013Y0275171D01*
X0249317Y0275171D01*
X0251191Y0275947D01*
X0272068Y0296824D01*
X0350127Y0296824D01*
X0383209Y0263743D01*
X0385083Y0262966D01*
X0387112Y0262966D01*
X0388987Y0263743D01*
X0390421Y0265177D01*
X0391198Y0267052D01*
X0391198Y0269081D01*
X0390421Y0270955D01*
X0378200Y0283176D01*
X0402572Y0283176D01*
X0408255Y0277493D01*
X0408255Y0271618D01*
X0407965Y0271328D01*
X0407374Y0269901D01*
X0407374Y0268357D01*
X0407965Y0266931D01*
X0409057Y0265839D01*
X0410483Y0265248D01*
X0412027Y0265248D01*
X0413454Y0265839D01*
X0414545Y0266931D01*
X0415136Y0268357D01*
X0415136Y0269901D01*
X0414545Y0271328D01*
X0414255Y0271618D01*
X0414255Y0279332D01*
X0413798Y0280435D01*
X0412954Y0281279D01*
X0406357Y0287876D01*
X0405514Y0288720D01*
X0404411Y0289176D01*
X0379860Y0289176D01*
X0356695Y0312342D01*
X0355592Y0312798D01*
X0249674Y0312798D01*
X0248571Y0312342D01*
X0230224Y0293994D01*
X0229814Y0293994D01*
X0228387Y0293404D01*
X0228097Y0293113D01*
X0202255Y0293113D01*
X0202705Y0293563D01*
X0203481Y0295438D01*
X0203481Y0297466D01*
X0202705Y0299341D01*
X0201270Y0300776D01*
X0199637Y0301452D01*
X0201270Y0302128D01*
X0202705Y0303563D01*
X0203481Y0305438D01*
X0203481Y0307466D01*
X0202705Y0309341D01*
X0201270Y0310776D01*
X0199637Y0311452D01*
X0201270Y0312128D01*
X0202705Y0313563D01*
X0202907Y0314052D01*
X0312520Y0314052D01*
X0313402Y0314417D01*
X0344116Y0345132D01*
X0344482Y0346014D01*
X0344482Y0352408D01*
X0345254Y0352728D01*
X0346829Y0354303D01*
X0347682Y0356362D01*
X0347682Y0358589D01*
X0346829Y0360648D01*
X0345254Y0362223D01*
X0343196Y0363076D01*
X0340968Y0363076D01*
X0338910Y0362223D01*
X0337334Y0360648D01*
X0337082Y0360038D01*
X0336829Y0360648D01*
X0335254Y0362223D01*
X0333196Y0363076D01*
X0330968Y0363076D01*
X0328910Y0362223D01*
X0327334Y0360648D01*
X0327224Y0360380D01*
X0327128Y0360568D01*
X0326582Y0361319D01*
X0325925Y0361976D01*
X0325174Y0362522D01*
X0324347Y0362943D01*
X0323463Y0363230D01*
X0322546Y0363376D01*
X0322082Y0363376D01*
X0322082Y0357476D01*
X0322082Y0357476D01*
X0322082Y0363376D01*
X0321618Y0363376D01*
X0320700Y0363230D01*
X0319817Y0362943D01*
X0318990Y0362522D01*
X0318238Y0361976D01*
X0317582Y0361319D01*
X0317036Y0360568D01*
X0316940Y0360380D01*
X0316829Y0360648D01*
X0315254Y0362223D01*
X0313196Y0363076D01*
X0310968Y0363076D01*
X0308910Y0362223D01*
X0307334Y0360648D01*
X0307082Y0360038D01*
X0306829Y0360648D01*
X0305254Y0362223D01*
X0303196Y0363076D01*
X0300968Y0363076D01*
X0298910Y0362223D01*
X0297334Y0360648D01*
X0297082Y0360038D01*
X0296829Y0360648D01*
X0295254Y0362223D01*
X0293196Y0363076D01*
X0290968Y0363076D01*
X0288910Y0362223D01*
X0287334Y0360648D01*
X0286482Y0358589D01*
X0286482Y0356362D01*
X0287334Y0354303D01*
X0288910Y0352728D01*
X0290968Y0351876D01*
X0293196Y0351876D01*
X0295254Y0352728D01*
X0296829Y0354303D01*
X0297082Y0354913D01*
X0297334Y0354303D01*
X0298910Y0352728D01*
X0300968Y0351876D01*
X0303196Y0351876D01*
X0305254Y0352728D01*
X0306829Y0354303D01*
X0307082Y0354913D01*
X0307334Y0354303D01*
X0308910Y0352728D01*
X0310968Y0351876D01*
X0313196Y0351876D01*
X0315254Y0352728D01*
X0316829Y0354303D01*
X0316940Y0354571D01*
X0317036Y0354383D01*
X0317582Y0353632D01*
X0318238Y0352975D01*
X0318990Y0352429D01*
X0319817Y0352008D01*
X0320700Y0351721D01*
X0321618Y0351576D01*
X0322082Y0351576D01*
X0322546Y0351576D01*
X0323463Y0351721D01*
X0324347Y0352008D01*
X0325174Y0352429D01*
X0325925Y0352975D01*
X0326582Y0353632D01*
X0327128Y0354383D01*
X0327224Y0354571D01*
X0327334Y0354303D01*
X0328910Y0352728D01*
X0330968Y0351876D01*
X0333196Y0351876D01*
X0335254Y0352728D01*
X0336829Y0354303D01*
X0337082Y0354913D01*
X0337334Y0354303D01*
X0338910Y0352728D01*
X0339682Y0352408D01*
X0339682Y0347485D01*
X0311048Y0318852D01*
X0202907Y0318852D01*
X0202705Y0319341D01*
X0201270Y0320776D01*
X0199396Y0321552D01*
X0197367Y0321552D01*
X0195492Y0320776D01*
X0194058Y0319341D01*
X0193381Y0317708D01*
X0192705Y0319341D01*
X0191270Y0320776D01*
X0189396Y0321552D01*
X0187367Y0321552D01*
X0185492Y0320776D01*
X0184058Y0319341D01*
X0183281Y0317466D01*
X0183281Y0315438D01*
X0184058Y0313563D01*
X0185492Y0312128D01*
X0187125Y0311452D01*
X0185492Y0310776D01*
X0184058Y0309341D01*
X0183281Y0307466D01*
X0183281Y0305438D01*
X0184058Y0303563D01*
X0185492Y0302128D01*
X0186760Y0301603D01*
X0186308Y0301456D01*
X0185551Y0301070D01*
X0184863Y0300571D01*
X0184262Y0299970D01*
X0183763Y0299282D01*
X0183377Y0298525D01*
X0183114Y0297716D01*
X0182981Y0296877D01*
X0182981Y0296452D01*
X0188381Y0296452D01*
X0188381Y0296452D01*
X0182981Y0296452D01*
X0182981Y0296027D01*
X0183114Y0295187D01*
X0183377Y0294379D01*
X0183763Y0293622D01*
X0184132Y0293113D01*
X0142523Y0293113D01*
X0142233Y0293404D01*
X0140807Y0293994D01*
X0139263Y0293994D01*
X0137836Y0293404D01*
X0136744Y0292312D01*
X0136154Y0290885D01*
X0136154Y0289341D01*
X0136744Y0287915D01*
X0137836Y0286823D01*
X0139263Y0286232D01*
X0140807Y0286232D01*
X0142233Y0286823D01*
X0142523Y0287113D01*
X0228097Y0287113D01*
X0228387Y0286823D01*
X0229814Y0286232D01*
X0231358Y0286232D01*
X0232784Y0286823D01*
X0233876Y0287915D01*
X0234467Y0289341D01*
X0234467Y0289752D01*
X0251514Y0306798D01*
X0268396Y0306798D01*
X0267067Y0306248D01*
X0246190Y0285371D01*
X0209886Y0285371D01*
X0208012Y0284594D01*
X0206577Y0283160D01*
X0194766Y0271349D01*
X0193990Y0269474D01*
X0193990Y0261540D01*
X0194766Y0259665D01*
X0196201Y0258231D01*
X0201864Y0252568D01*
X0201864Y0243823D01*
X0202640Y0241949D01*
X0204075Y0240514D01*
X0205949Y0239738D01*
X0207978Y0239738D01*
X0209853Y0240514D01*
X0211874Y0243366D02*
X0218039Y0243366D01*
X0220048Y0245765D02*
X0212064Y0245765D01*
X0212064Y0248163D02*
X0222446Y0248163D01*
X0224845Y0250562D02*
X0212064Y0250562D01*
X0212064Y0252960D02*
X0227243Y0252960D01*
X0229642Y0255359D02*
X0222829Y0255359D01*
X0223419Y0255603D02*
X0225726Y0257910D01*
X0226974Y0260923D01*
X0226974Y0264185D01*
X0225726Y0267199D01*
X0223419Y0269505D01*
X0220406Y0270754D01*
X0217144Y0270754D01*
X0214130Y0269505D01*
X0211824Y0267199D01*
X0210576Y0264185D01*
X0210576Y0260923D01*
X0211824Y0257910D01*
X0214130Y0255603D01*
X0217144Y0254355D01*
X0220406Y0254355D01*
X0223419Y0255603D01*
X0225573Y0257757D02*
X0232040Y0257757D01*
X0234636Y0260156D02*
X0226656Y0260156D01*
X0226974Y0262554D02*
X0237034Y0262554D01*
X0239433Y0264953D02*
X0226656Y0264953D01*
X0225573Y0267351D02*
X0241831Y0267351D01*
X0244230Y0269750D02*
X0222829Y0269750D01*
X0214721Y0269750D02*
X0207592Y0269750D01*
X0205194Y0267351D02*
X0211976Y0267351D01*
X0210894Y0264953D02*
X0204190Y0264953D01*
X0206302Y0262554D02*
X0210576Y0262554D01*
X0210894Y0260156D02*
X0208701Y0260156D01*
X0211099Y0257757D02*
X0211976Y0257757D01*
X0212064Y0255359D02*
X0214721Y0255359D01*
X0201471Y0252960D02*
X0168771Y0252960D01*
X0171169Y0250562D02*
X0201864Y0250562D01*
X0201864Y0248163D02*
X0173568Y0248163D01*
X0175966Y0245765D02*
X0201864Y0245765D01*
X0202053Y0243366D02*
X0178365Y0243366D01*
X0180763Y0240968D02*
X0203621Y0240968D01*
X0199073Y0255359D02*
X0166372Y0255359D01*
X0163974Y0257757D02*
X0196674Y0257757D01*
X0194563Y0260156D02*
X0161575Y0260156D01*
X0159177Y0262554D02*
X0193990Y0262554D01*
X0193990Y0264953D02*
X0156778Y0264953D01*
X0154380Y0267351D02*
X0193990Y0267351D01*
X0194104Y0269750D02*
X0151981Y0269750D01*
X0149583Y0272148D02*
X0195566Y0272148D01*
X0197964Y0274547D02*
X0147021Y0274547D01*
X0142546Y0262554D02*
X0135045Y0262554D01*
X0134704Y0262695D02*
X0133160Y0262695D01*
X0131734Y0262104D01*
X0130844Y0261214D01*
X0128163Y0261214D01*
X0127272Y0262104D01*
X0125846Y0262695D01*
X0124302Y0262695D01*
X0122876Y0262104D01*
X0121784Y0261013D01*
X0121193Y0259586D01*
X0121193Y0258042D01*
X0121784Y0256616D01*
X0122876Y0255524D01*
X0124302Y0254933D01*
X0125846Y0254933D01*
X0127272Y0255524D01*
X0128163Y0256414D01*
X0130844Y0256414D01*
X0131734Y0255524D01*
X0133160Y0254933D01*
X0134704Y0254933D01*
X0136131Y0255524D01*
X0137223Y0256616D01*
X0137813Y0258042D01*
X0137813Y0259586D01*
X0137223Y0261013D01*
X0136131Y0262104D01*
X0134704Y0262695D01*
X0132820Y0262554D02*
X0126186Y0262554D01*
X0123962Y0262554D02*
X0089285Y0262554D01*
X0089285Y0260156D02*
X0121429Y0260156D01*
X0121311Y0257757D02*
X0089285Y0257757D01*
X0089285Y0255359D02*
X0099531Y0255359D01*
X0099585Y0255446D02*
X0098645Y0253906D01*
X0098646Y0253005D01*
X0098646Y0252159D01*
X0099487Y0250685D01*
X0099487Y0250685D01*
X0100948Y0249821D01*
X0101019Y0249820D01*
X0101031Y0249808D01*
X0101812Y0249808D01*
X0102591Y0249796D01*
X0102604Y0249808D01*
X0103468Y0249808D01*
X0104269Y0249808D01*
X0105743Y0250649D01*
X0106494Y0251919D01*
X0106554Y0251971D01*
X0106559Y0252029D01*
X0106606Y0252109D01*
X0106617Y0252801D01*
X0106682Y0253663D01*
X0106682Y0253663D01*
X0105859Y0255268D01*
X0104320Y0256208D01*
X0103419Y0256206D01*
X0102017Y0256206D01*
X0101189Y0256269D01*
X0099585Y0255446D01*
X0099585Y0255446D01*
X0099585Y0255446D01*
X0101189Y0256269D02*
X0101189Y0256269D01*
X0104320Y0256208D02*
X0104320Y0256208D01*
X0105711Y0255359D02*
X0123274Y0255359D01*
X0126874Y0255359D02*
X0132132Y0255359D01*
X0135732Y0255359D02*
X0149742Y0255359D01*
X0152140Y0252960D02*
X0106629Y0252960D01*
X0106606Y0252109D02*
X0106606Y0252109D01*
X0105743Y0250649D02*
X0105743Y0250649D01*
X0105743Y0250649D01*
X0105590Y0250562D02*
X0154539Y0250562D01*
X0156937Y0248163D02*
X0089285Y0248163D01*
X0089285Y0245765D02*
X0159336Y0245765D01*
X0161734Y0243366D02*
X0089285Y0243366D01*
X0091590Y0240968D02*
X0164133Y0240968D01*
X0166531Y0238569D02*
X0093989Y0238569D01*
X0096387Y0236171D02*
X0168930Y0236171D01*
X0171328Y0233772D02*
X0098786Y0233772D01*
X0101184Y0231374D02*
X0173727Y0231374D01*
X0176125Y0228975D02*
X0103583Y0228975D01*
X0105981Y0226577D02*
X0178524Y0226577D01*
X0180922Y0224178D02*
X0109824Y0224178D01*
X0112377Y0221780D02*
X0183321Y0221780D01*
X0185719Y0219381D02*
X0112503Y0219381D01*
X0110559Y0216983D02*
X0188118Y0216983D01*
X0190516Y0214584D02*
X0079838Y0214584D01*
X0079230Y0212186D02*
X0192915Y0212186D01*
X0195313Y0209787D02*
X0078623Y0209787D01*
X0078015Y0207389D02*
X0197712Y0207389D01*
X0200110Y0204990D02*
X0077408Y0204990D01*
X0076798Y0202592D02*
X0202509Y0202592D01*
X0204564Y0200193D02*
X0075977Y0200193D01*
X0075156Y0197795D02*
X0204564Y0197795D01*
X0215269Y0190599D02*
X0262335Y0190599D01*
X0261125Y0188200D02*
X0215269Y0188200D01*
X0215269Y0185802D02*
X0258727Y0185802D01*
X0256328Y0183403D02*
X0215269Y0183403D01*
X0215269Y0181005D02*
X0251493Y0181005D01*
X0251134Y0178606D02*
X0215269Y0178606D01*
X0215269Y0176208D02*
X0252684Y0176208D01*
X0256066Y0171411D02*
X0258098Y0171411D01*
X0248098Y0171411D02*
X0246066Y0171411D01*
X0246741Y0164215D02*
X0247423Y0164215D01*
X0256741Y0164215D02*
X0257423Y0164215D01*
X0266741Y0164215D02*
X0267423Y0164215D01*
X0276741Y0164215D02*
X0277423Y0164215D01*
X0286741Y0164215D02*
X0287423Y0164215D01*
X0296741Y0164215D02*
X0303423Y0164215D01*
X0302482Y0166614D02*
X0297682Y0166614D01*
X0297507Y0169012D02*
X0302657Y0169012D01*
X0304098Y0171411D02*
X0296066Y0171411D01*
X0288098Y0171411D02*
X0286066Y0171411D01*
X0284167Y0173809D02*
X0315587Y0173809D01*
X0315587Y0176208D02*
X0284167Y0176208D01*
X0285859Y0178606D02*
X0315587Y0178606D01*
X0315587Y0181005D02*
X0288257Y0181005D01*
X0290656Y0183403D02*
X0315587Y0183403D01*
X0315587Y0185802D02*
X0293054Y0185802D01*
X0295453Y0188200D02*
X0316617Y0188200D01*
X0319016Y0190599D02*
X0297851Y0190599D01*
X0300250Y0192998D02*
X0316307Y0192998D01*
X0323406Y0188200D02*
X0375279Y0188200D01*
X0372880Y0185802D02*
X0321007Y0185802D01*
X0320387Y0183403D02*
X0370482Y0183403D01*
X0368083Y0181005D02*
X0320387Y0181005D01*
X0320387Y0178606D02*
X0366072Y0178606D01*
X0365981Y0176208D02*
X0320387Y0176208D01*
X0320387Y0173809D02*
X0365981Y0173809D01*
X0365981Y0171411D02*
X0362066Y0171411D01*
X0363507Y0169012D02*
X0365981Y0169012D01*
X0365981Y0166614D02*
X0363682Y0166614D01*
X0363892Y0164215D02*
X0362741Y0164215D01*
X0368603Y0157020D02*
X0383794Y0157020D01*
X0386192Y0159418D02*
X0371001Y0159418D01*
X0373400Y0161817D02*
X0388591Y0161817D01*
X0390989Y0164215D02*
X0385197Y0164215D01*
X0387613Y0166614D02*
X0393388Y0166614D01*
X0395786Y0169012D02*
X0388607Y0169012D01*
X0388746Y0171411D02*
X0398185Y0171411D01*
X0400583Y0173809D02*
X0388184Y0173809D01*
X0386672Y0176208D02*
X0402982Y0176208D01*
X0405380Y0178606D02*
X0382734Y0178606D01*
X0380777Y0181005D02*
X0407779Y0181005D01*
X0410177Y0183403D02*
X0383176Y0183403D01*
X0385574Y0185802D02*
X0412576Y0185802D01*
X0414974Y0188200D02*
X0387973Y0188200D01*
X0390213Y0190599D02*
X0417373Y0190599D01*
X0419771Y0192998D02*
X0390466Y0192998D01*
X0390466Y0195396D02*
X0422147Y0195396D01*
X0423906Y0195396D02*
X0429150Y0195396D01*
X0431548Y0192998D02*
X0426304Y0192998D01*
X0428703Y0190599D02*
X0433947Y0190599D01*
X0436345Y0188200D02*
X0431101Y0188200D01*
X0433500Y0185802D02*
X0438744Y0185802D01*
X0441142Y0183403D02*
X0435898Y0183403D01*
X0438297Y0181005D02*
X0443541Y0181005D01*
X0445939Y0178606D02*
X0440695Y0178606D01*
X0443094Y0176208D02*
X0448338Y0176208D01*
X0450736Y0173809D02*
X0445492Y0173809D01*
X0447891Y0171411D02*
X0453135Y0171411D01*
X0455533Y0169012D02*
X0450289Y0169012D01*
X0452688Y0166614D02*
X0457932Y0166614D01*
X0460330Y0164215D02*
X0455086Y0164215D01*
X0457485Y0161817D02*
X0462729Y0161817D01*
X0465127Y0159418D02*
X0459883Y0159418D01*
X0462282Y0157020D02*
X0467526Y0157020D01*
X0469924Y0154621D02*
X0464681Y0154621D01*
X0467079Y0152223D02*
X0472323Y0152223D01*
X0474721Y0149824D02*
X0469478Y0149824D01*
X0471876Y0147426D02*
X0477120Y0147426D01*
X0479518Y0145027D02*
X0474275Y0145027D01*
X0476673Y0142629D02*
X0481917Y0142629D01*
X0484316Y0140230D02*
X0479072Y0140230D01*
X0481470Y0137832D02*
X0486714Y0137832D01*
X0488404Y0135433D02*
X0483869Y0135433D01*
X0486267Y0133035D02*
X0490688Y0133035D01*
X0488666Y0130636D02*
X0493087Y0130636D01*
X0491064Y0128238D02*
X0495485Y0128238D01*
X0493463Y0125839D02*
X0497884Y0125839D01*
X0495861Y0123441D02*
X0500282Y0123441D01*
X0498260Y0121042D02*
X0502681Y0121042D01*
X0500658Y0118644D02*
X0505079Y0118644D01*
X0503057Y0116245D02*
X0507478Y0116245D01*
X0505455Y0113847D02*
X0509876Y0113847D01*
X0507854Y0111448D02*
X0512275Y0111448D01*
X0510252Y0109050D02*
X0514673Y0109050D01*
X0512651Y0106651D02*
X0517072Y0106651D01*
X0515049Y0104253D02*
X0519470Y0104253D01*
X0517448Y0101854D02*
X0521869Y0101854D01*
X0522730Y0099456D02*
X0519846Y0099456D01*
X0522245Y0097057D02*
X0522730Y0097057D01*
X0522387Y0095340D02*
X0522387Y0095340D01*
X0522013Y0094659D02*
X0521705Y0094659D01*
X0519614Y0092260D02*
X0519305Y0092260D01*
X0517216Y0089862D02*
X0516904Y0089862D01*
X0514817Y0087463D02*
X0514504Y0087463D01*
X0512419Y0085064D02*
X0512103Y0085064D01*
X0510020Y0082666D02*
X0509703Y0082666D01*
X0507622Y0080267D02*
X0507302Y0080267D01*
X0505223Y0077869D02*
X0504902Y0077869D01*
X0502825Y0075470D02*
X0502501Y0075470D01*
X0500426Y0073072D02*
X0500101Y0073072D01*
X0498028Y0070673D02*
X0497700Y0070673D01*
X0495629Y0068275D02*
X0495299Y0068275D01*
X0493231Y0065876D02*
X0492899Y0065876D01*
X0490832Y0063478D02*
X0490498Y0063478D01*
X0488434Y0061079D02*
X0488098Y0061079D01*
X0486035Y0058681D02*
X0485697Y0058681D01*
X0483637Y0056282D02*
X0483297Y0056282D01*
X0481238Y0053884D02*
X0480896Y0053884D01*
X0478840Y0051485D02*
X0478496Y0051485D01*
X0476441Y0049087D02*
X0476095Y0049087D01*
X0474043Y0046688D02*
X0473695Y0046688D01*
X0471644Y0044290D02*
X0471294Y0044290D01*
X0469246Y0041891D02*
X0468894Y0041891D01*
X0466847Y0039493D02*
X0466493Y0039493D01*
X0464449Y0037094D02*
X0464093Y0037094D01*
X0462050Y0034696D02*
X0461692Y0034696D01*
X0459652Y0032297D02*
X0459292Y0032297D01*
X0457253Y0029899D02*
X0456891Y0029899D01*
X0395569Y0070673D02*
X0348971Y0070673D01*
X0346572Y0073072D02*
X0393171Y0073072D01*
X0390772Y0075470D02*
X0344174Y0075470D01*
X0341775Y0077869D02*
X0388374Y0077869D01*
X0385975Y0080267D02*
X0339377Y0080267D01*
X0336978Y0082666D02*
X0383577Y0082666D01*
X0381178Y0085064D02*
X0334579Y0085064D01*
X0332181Y0087463D02*
X0378780Y0087463D01*
X0376381Y0089862D02*
X0329782Y0089862D01*
X0326651Y0092260D02*
X0373983Y0092260D01*
X0371584Y0094659D02*
X0328521Y0094659D01*
X0329395Y0097057D02*
X0369186Y0097057D01*
X0366787Y0099456D02*
X0329395Y0099456D01*
X0328640Y0101854D02*
X0364389Y0101854D01*
X0361990Y0104253D02*
X0326940Y0104253D01*
X0315452Y0104253D02*
X0263829Y0104253D01*
X0265565Y0101854D02*
X0313752Y0101854D01*
X0312997Y0099456D02*
X0266344Y0099456D01*
X0266344Y0097057D02*
X0312997Y0097057D01*
X0313871Y0094659D02*
X0265494Y0094659D01*
X0252460Y0104253D02*
X0221426Y0104253D01*
X0223824Y0106651D02*
X0359592Y0106651D01*
X0357193Y0109050D02*
X0226223Y0109050D01*
X0228621Y0111448D02*
X0354795Y0111448D01*
X0365963Y0140230D02*
X0367004Y0140230D01*
X0365930Y0142629D02*
X0369403Y0142629D01*
X0371801Y0145027D02*
X0364663Y0145027D01*
X0361407Y0149824D02*
X0376598Y0149824D01*
X0374200Y0147426D02*
X0359009Y0147426D01*
X0363806Y0152223D02*
X0378997Y0152223D01*
X0381395Y0154621D02*
X0366204Y0154621D01*
X0374718Y0164215D02*
X0376683Y0164215D01*
X0378378Y0178606D02*
X0379146Y0178606D01*
X0377677Y0190599D02*
X0325804Y0190599D01*
X0328203Y0192998D02*
X0380076Y0192998D01*
X0382320Y0195396D02*
X0330601Y0195396D01*
X0333000Y0197795D02*
X0382320Y0197795D01*
X0382320Y0200193D02*
X0335398Y0200193D01*
X0337797Y0202592D02*
X0382320Y0202592D01*
X0382320Y0204990D02*
X0340195Y0204990D01*
X0342594Y0207389D02*
X0382320Y0207389D01*
X0382320Y0209787D02*
X0343222Y0209787D01*
X0343222Y0212186D02*
X0382320Y0212186D01*
X0382320Y0214584D02*
X0343222Y0214584D01*
X0343222Y0216983D02*
X0382570Y0216983D01*
X0384806Y0219381D02*
X0343222Y0219381D01*
X0343222Y0221780D02*
X0387204Y0221780D01*
X0389603Y0224178D02*
X0343222Y0224178D01*
X0343222Y0226577D02*
X0392001Y0226577D01*
X0394400Y0228975D02*
X0343222Y0228975D01*
X0343222Y0231374D02*
X0396798Y0231374D01*
X0399197Y0233772D02*
X0343222Y0233772D01*
X0343222Y0236171D02*
X0399446Y0236171D01*
X0399446Y0238569D02*
X0343222Y0238569D01*
X0348740Y0240968D02*
X0399446Y0240968D01*
X0399446Y0243366D02*
X0349821Y0243366D01*
X0351442Y0245765D02*
X0399446Y0245765D01*
X0399446Y0248163D02*
X0353065Y0248163D01*
X0353065Y0250562D02*
X0399446Y0250562D01*
X0399446Y0252960D02*
X0353065Y0252960D01*
X0353065Y0255359D02*
X0356453Y0255359D01*
X0353709Y0257757D02*
X0353065Y0257757D01*
X0348265Y0257757D02*
X0343222Y0257757D01*
X0343222Y0255359D02*
X0348265Y0255359D01*
X0348265Y0252960D02*
X0343222Y0252960D01*
X0343222Y0250562D02*
X0348265Y0250562D01*
X0347053Y0248163D02*
X0343222Y0248163D01*
X0336454Y0252960D02*
X0309032Y0252960D01*
X0309878Y0250562D02*
X0316057Y0250562D01*
X0315287Y0248163D02*
X0311042Y0248163D01*
X0310522Y0245765D02*
X0316099Y0245765D01*
X0322238Y0245765D02*
X0330469Y0245765D01*
X0333558Y0240968D02*
X0324464Y0240968D01*
X0326863Y0238569D02*
X0331159Y0238569D01*
X0328761Y0236171D02*
X0327474Y0236171D01*
X0335956Y0243366D02*
X0270885Y0243366D01*
X0268486Y0245765D02*
X0273973Y0245765D01*
X0273358Y0248163D02*
X0266088Y0248163D01*
X0264482Y0250562D02*
X0274325Y0250562D01*
X0269197Y0252960D02*
X0284030Y0252960D01*
X0286428Y0250562D02*
X0280154Y0250562D01*
X0281631Y0255359D02*
X0270687Y0255359D01*
X0271899Y0257757D02*
X0279233Y0257757D01*
X0267422Y0267351D02*
X0252683Y0267351D01*
X0254152Y0269750D02*
X0324988Y0269750D01*
X0324146Y0272148D02*
X0253759Y0272148D01*
X0252189Y0276945D02*
X0325627Y0276945D01*
X0325627Y0279344D02*
X0254588Y0279344D01*
X0256986Y0281742D02*
X0325627Y0281742D01*
X0325093Y0284141D02*
X0322296Y0284141D01*
X0327380Y0288938D02*
X0331714Y0288938D01*
X0332024Y0286539D02*
X0329483Y0286539D01*
X0330427Y0284141D02*
X0332024Y0284141D01*
X0332024Y0281742D02*
X0330427Y0281742D01*
X0330427Y0279344D02*
X0332024Y0279344D01*
X0332024Y0276945D02*
X0330427Y0276945D01*
X0331169Y0274547D02*
X0332024Y0274547D01*
X0331908Y0272148D02*
X0333739Y0272148D01*
X0336138Y0269750D02*
X0331065Y0269750D01*
X0336454Y0267351D02*
X0296112Y0267351D01*
X0298369Y0264953D02*
X0336454Y0264953D01*
X0336454Y0262554D02*
X0335090Y0262554D01*
X0335845Y0260156D02*
X0336454Y0260156D01*
X0336454Y0257757D02*
X0335018Y0257757D01*
X0336454Y0255359D02*
X0311430Y0255359D01*
X0313829Y0257757D02*
X0328910Y0257757D01*
X0312301Y0262554D02*
X0298437Y0262554D01*
X0298437Y0260156D02*
X0309439Y0260156D01*
X0307040Y0257757D02*
X0298437Y0257757D01*
X0299924Y0255359D02*
X0304642Y0255359D01*
X0302243Y0252960D02*
X0300648Y0252960D01*
X0324885Y0274547D02*
X0212389Y0274547D01*
X0209991Y0272148D02*
X0246628Y0272148D01*
X0246221Y0264953D02*
X0255181Y0264953D01*
X0252782Y0262554D02*
X0243822Y0262554D01*
X0241424Y0260156D02*
X0250384Y0260156D01*
X0249839Y0257757D02*
X0239025Y0257757D01*
X0236627Y0255359D02*
X0249839Y0255359D01*
X0249839Y0252960D02*
X0234032Y0252960D01*
X0231633Y0250562D02*
X0249839Y0250562D01*
X0249839Y0248163D02*
X0229235Y0248163D01*
X0226836Y0245765D02*
X0249772Y0245765D01*
X0247374Y0243366D02*
X0224437Y0243366D01*
X0222750Y0240968D02*
X0244975Y0240968D01*
X0242577Y0238569D02*
X0222750Y0238569D01*
X0222750Y0236171D02*
X0240178Y0236171D01*
X0237780Y0233772D02*
X0222750Y0233772D01*
X0222750Y0231374D02*
X0235381Y0231374D01*
X0232983Y0228975D02*
X0222750Y0228975D01*
X0222750Y0226577D02*
X0230584Y0226577D01*
X0228186Y0224178D02*
X0222750Y0224178D01*
X0222750Y0221780D02*
X0225275Y0221780D01*
X0224717Y0214584D02*
X0222085Y0214584D01*
X0214343Y0207389D02*
X0235094Y0207389D01*
X0234579Y0209787D02*
X0211944Y0209787D01*
X0204564Y0176208D02*
X0203680Y0176208D01*
X0215269Y0169012D02*
X0216657Y0169012D01*
X0216482Y0166614D02*
X0215269Y0166614D01*
X0216177Y0164215D02*
X0217423Y0164215D01*
X0223780Y0149824D02*
X0202473Y0149824D01*
X0219027Y0101854D02*
X0250725Y0101854D01*
X0249946Y0099456D02*
X0216629Y0099456D01*
X0214230Y0097057D02*
X0249946Y0097057D01*
X0250796Y0094659D02*
X0211832Y0094659D01*
X0209433Y0092260D02*
X0250748Y0092260D01*
X0247531Y0089862D02*
X0207035Y0089862D01*
X0204636Y0087463D02*
X0245132Y0087463D01*
X0242734Y0085064D02*
X0202238Y0085064D01*
X0199839Y0082666D02*
X0240335Y0082666D01*
X0237937Y0080267D02*
X0197441Y0080267D01*
X0195042Y0077869D02*
X0235538Y0077869D01*
X0233140Y0075470D02*
X0192644Y0075470D01*
X0190245Y0073072D02*
X0230741Y0073072D01*
X0228343Y0070673D02*
X0187847Y0070673D01*
X0228617Y0063735D02*
X0254208Y0063735D01*
X0257161Y0060783D01*
X0322121Y0060783D01*
X0325074Y0063735D01*
X0348696Y0063735D01*
X0347424Y0142629D02*
X0303129Y0142629D01*
X0303658Y0145027D02*
X0349822Y0145027D01*
X0352221Y0147426D02*
X0306056Y0147426D01*
X0312741Y0164215D02*
X0313423Y0164215D01*
X0322741Y0164215D02*
X0323423Y0164215D01*
X0324098Y0171411D02*
X0322066Y0171411D01*
X0314098Y0171411D02*
X0312066Y0171411D01*
X0332066Y0171411D02*
X0334098Y0171411D01*
X0342066Y0171411D02*
X0344098Y0171411D01*
X0352066Y0171411D02*
X0354098Y0171411D01*
X0353423Y0164215D02*
X0352741Y0164215D01*
X0343423Y0164215D02*
X0342741Y0164215D01*
X0333423Y0164215D02*
X0332741Y0164215D01*
X0390466Y0197795D02*
X0426751Y0197795D01*
X0425789Y0200193D02*
X0390466Y0200193D01*
X0390466Y0202592D02*
X0425789Y0202592D01*
X0420775Y0204990D02*
X0390466Y0204990D01*
X0390466Y0207389D02*
X0419406Y0207389D01*
X0419577Y0209787D02*
X0390466Y0209787D01*
X0390466Y0212186D02*
X0421189Y0212186D01*
X0425946Y0214584D02*
X0390734Y0214584D01*
X0393133Y0216983D02*
X0425946Y0216983D01*
X0425946Y0219381D02*
X0395531Y0219381D01*
X0397930Y0221780D02*
X0425946Y0221780D01*
X0425946Y0224178D02*
X0400328Y0224178D01*
X0402727Y0226577D02*
X0425946Y0226577D01*
X0425946Y0228975D02*
X0412999Y0228975D01*
X0415398Y0231374D02*
X0425946Y0231374D01*
X0425946Y0233772D02*
X0417796Y0233772D01*
X0420195Y0236171D02*
X0425946Y0236171D01*
X0425946Y0238569D02*
X0421962Y0238569D01*
X0421962Y0240968D02*
X0425946Y0240968D01*
X0425946Y0243366D02*
X0421962Y0243366D01*
X0423332Y0245765D02*
X0425946Y0245765D01*
X0425946Y0248163D02*
X0423201Y0248163D01*
X0420637Y0250562D02*
X0425946Y0250562D01*
X0425946Y0252960D02*
X0417538Y0252960D01*
X0417538Y0253199D02*
X0419628Y0255289D01*
X0419994Y0256171D01*
X0419994Y0288032D01*
X0419628Y0288914D01*
X0418953Y0289589D01*
X0412420Y0296122D01*
X0412420Y0297381D01*
X0411829Y0298808D01*
X0410737Y0299900D01*
X0409311Y0300491D01*
X0407767Y0300491D01*
X0406340Y0299900D01*
X0405248Y0298808D01*
X0404657Y0297381D01*
X0404657Y0295837D01*
X0405248Y0294411D01*
X0406340Y0293319D01*
X0407767Y0292728D01*
X0409026Y0292728D01*
X0415194Y0286560D01*
X0415194Y0257643D01*
X0414144Y0256593D01*
X0412885Y0256593D01*
X0411458Y0256002D01*
X0410366Y0254910D01*
X0409776Y0253484D01*
X0409776Y0251940D01*
X0410366Y0250513D01*
X0411458Y0249422D01*
X0412885Y0248831D01*
X0414429Y0248831D01*
X0415855Y0249422D01*
X0416947Y0250513D01*
X0417538Y0251940D01*
X0417538Y0253199D01*
X0416967Y0250562D02*
X0418487Y0250562D01*
X0415923Y0248163D02*
X0404246Y0248163D01*
X0404246Y0245765D02*
X0415793Y0245765D01*
X0417162Y0243366D02*
X0404246Y0243366D01*
X0404246Y0240968D02*
X0417162Y0240968D01*
X0415805Y0238569D02*
X0404246Y0238569D01*
X0404246Y0236171D02*
X0413407Y0236171D01*
X0411008Y0233772D02*
X0404246Y0233772D01*
X0404246Y0250562D02*
X0410346Y0250562D01*
X0409776Y0252960D02*
X0404246Y0252960D01*
X0404246Y0255359D02*
X0410815Y0255359D01*
X0415194Y0257757D02*
X0404246Y0257757D01*
X0404246Y0260156D02*
X0415194Y0260156D01*
X0415194Y0262554D02*
X0404246Y0262554D01*
X0404246Y0264953D02*
X0415194Y0264953D01*
X0415194Y0267351D02*
X0414720Y0267351D01*
X0415136Y0269750D02*
X0415194Y0269750D01*
X0415194Y0272148D02*
X0414255Y0272148D01*
X0414255Y0274547D02*
X0415194Y0274547D01*
X0415194Y0276945D02*
X0414255Y0276945D01*
X0414250Y0279344D02*
X0415194Y0279344D01*
X0415194Y0281742D02*
X0412491Y0281742D01*
X0411255Y0278735D02*
X0411255Y0269129D01*
X0407791Y0267351D02*
X0404246Y0267351D01*
X0404246Y0269750D02*
X0407374Y0269750D01*
X0408255Y0272148D02*
X0405117Y0272148D01*
X0405727Y0274547D02*
X0408255Y0274547D01*
X0408255Y0276945D02*
X0404754Y0276945D01*
X0406404Y0279344D02*
X0382032Y0279344D01*
X0379634Y0281742D02*
X0404005Y0281742D01*
X0403814Y0286176D02*
X0378617Y0286176D01*
X0354995Y0309798D01*
X0250271Y0309798D01*
X0230586Y0290113D01*
X0140035Y0290113D01*
X0141548Y0286539D02*
X0229072Y0286539D01*
X0232099Y0286539D02*
X0247358Y0286539D01*
X0249757Y0288938D02*
X0234300Y0288938D01*
X0236052Y0291336D02*
X0252155Y0291336D01*
X0254554Y0293735D02*
X0238450Y0293735D01*
X0240849Y0296133D02*
X0256952Y0296133D01*
X0259351Y0298532D02*
X0243247Y0298532D01*
X0245646Y0300931D02*
X0261750Y0300931D01*
X0264148Y0303329D02*
X0248044Y0303329D01*
X0250443Y0305728D02*
X0266547Y0305728D01*
X0271377Y0296133D02*
X0317084Y0296133D01*
X0315030Y0293735D02*
X0268979Y0293735D01*
X0266580Y0291336D02*
X0315111Y0291336D01*
X0316441Y0288938D02*
X0264182Y0288938D01*
X0261783Y0286539D02*
X0314894Y0286539D01*
X0315254Y0284141D02*
X0259385Y0284141D01*
X0239559Y0303329D02*
X0202471Y0303329D01*
X0203481Y0305728D02*
X0241957Y0305728D01*
X0244356Y0308126D02*
X0203208Y0308126D01*
X0201521Y0310525D02*
X0246754Y0310525D01*
X0243314Y0320419D02*
X0244521Y0320919D01*
X0249722Y0320919D01*
X0250929Y0320419D01*
X0253156Y0320419D01*
X0254364Y0320919D01*
X0259958Y0320919D01*
X0261165Y0320419D01*
X0263393Y0320419D01*
X0264600Y0320919D01*
X0269633Y0320919D01*
X0271125Y0320301D01*
X0273353Y0320301D01*
X0275412Y0321153D01*
X0276987Y0322729D01*
X0277839Y0324787D01*
X0277839Y0327015D01*
X0276987Y0329073D01*
X0275412Y0330648D01*
X0275144Y0330759D01*
X0275332Y0330855D01*
X0276083Y0331401D01*
X0276740Y0332057D01*
X0277285Y0332809D01*
X0277707Y0333636D01*
X0277994Y0334519D01*
X0278139Y0335436D01*
X0278139Y0335901D01*
X0278139Y0336365D01*
X0277994Y0337282D01*
X0277707Y0338166D01*
X0277285Y0338993D01*
X0276740Y0339744D01*
X0276083Y0340401D01*
X0275332Y0340947D01*
X0275144Y0341043D01*
X0275412Y0341153D01*
X0276987Y0342729D01*
X0277839Y0344787D01*
X0277839Y0347015D01*
X0276987Y0349073D01*
X0275412Y0350648D01*
X0275190Y0350740D01*
X0275170Y0352693D01*
X0275254Y0352728D01*
X0276829Y0354303D01*
X0277682Y0356362D01*
X0277682Y0358589D01*
X0276829Y0360648D01*
X0275254Y0362223D01*
X0273196Y0363076D01*
X0270968Y0363076D01*
X0268910Y0362223D01*
X0267334Y0360648D01*
X0267082Y0360038D01*
X0266829Y0360648D01*
X0265254Y0362223D01*
X0263196Y0363076D01*
X0260968Y0363076D01*
X0258910Y0362223D01*
X0257334Y0360648D01*
X0257082Y0360038D01*
X0256829Y0360648D01*
X0255254Y0362223D01*
X0253196Y0363076D01*
X0250968Y0363076D01*
X0248910Y0362223D01*
X0247334Y0360648D01*
X0247082Y0360038D01*
X0246829Y0360648D01*
X0245254Y0362223D01*
X0243196Y0363076D01*
X0240968Y0363076D01*
X0238910Y0362223D01*
X0237334Y0360648D01*
X0237082Y0360038D01*
X0236829Y0360648D01*
X0235254Y0362223D01*
X0233196Y0363076D01*
X0230968Y0363076D01*
X0228910Y0362223D01*
X0227334Y0360648D01*
X0227082Y0360038D01*
X0226829Y0360648D01*
X0225254Y0362223D01*
X0223196Y0363076D01*
X0220968Y0363076D01*
X0218910Y0362223D01*
X0217334Y0360648D01*
X0216482Y0358589D01*
X0216482Y0356362D01*
X0217334Y0354303D01*
X0218910Y0352728D01*
X0219082Y0352657D01*
X0219082Y0350821D01*
X0218949Y0350766D01*
X0217374Y0349191D01*
X0216521Y0347133D01*
X0216521Y0344905D01*
X0217374Y0342847D01*
X0218949Y0341271D01*
X0219217Y0341161D01*
X0219029Y0341065D01*
X0218278Y0340519D01*
X0217621Y0339862D01*
X0217075Y0339111D01*
X0216654Y0338284D01*
X0216367Y0337400D01*
X0216221Y0336483D01*
X0216221Y0336019D01*
X0222121Y0336019D01*
X0222121Y0336019D01*
X0216221Y0336019D01*
X0216221Y0335555D01*
X0216367Y0334637D01*
X0216654Y0333754D01*
X0217075Y0332927D01*
X0217621Y0332175D01*
X0218278Y0331519D01*
X0218828Y0331119D01*
X0216478Y0331119D01*
X0209853Y0337744D01*
X0207978Y0338520D01*
X0205949Y0338520D01*
X0204075Y0337744D01*
X0202640Y0336309D01*
X0201864Y0334435D01*
X0201864Y0332406D01*
X0202640Y0330532D01*
X0211476Y0321695D01*
X0213351Y0320919D01*
X0219800Y0320919D01*
X0221007Y0320419D01*
X0223235Y0320419D01*
X0224442Y0320919D01*
X0229840Y0320919D01*
X0231047Y0320419D01*
X0233275Y0320419D01*
X0234482Y0320919D01*
X0239879Y0320919D01*
X0241086Y0320419D01*
X0243314Y0320419D01*
X0242200Y0336019D02*
X0242200Y0336019D01*
X0252042Y0336019D01*
X0252042Y0336019D01*
X0246143Y0336019D01*
X0242200Y0336019D01*
X0242200Y0336019D01*
X0238061Y0336019D01*
X0232161Y0336019D01*
X0232161Y0336019D01*
X0242200Y0336019D01*
X0252043Y0336019D02*
X0262279Y0336019D01*
X0262279Y0336019D01*
X0256379Y0336019D01*
X0252043Y0336019D01*
X0252043Y0336019D01*
X0252043Y0346019D02*
X0252082Y0346058D01*
X0252082Y0357476D01*
X0256584Y0360893D02*
X0257580Y0360893D01*
X0262082Y0357476D02*
X0262082Y0346216D01*
X0262279Y0346019D01*
X0272239Y0345901D02*
X0272121Y0357436D01*
X0272082Y0357476D01*
X0276224Y0353698D02*
X0287940Y0353698D01*
X0286592Y0356096D02*
X0277572Y0356096D01*
X0277682Y0358495D02*
X0286482Y0358495D01*
X0287580Y0360893D02*
X0276584Y0360893D01*
X0267580Y0360893D02*
X0266584Y0360893D01*
X0275184Y0351299D02*
X0339682Y0351299D01*
X0339682Y0348901D02*
X0277058Y0348901D01*
X0277839Y0346502D02*
X0338699Y0346502D01*
X0336300Y0344104D02*
X0277556Y0344104D01*
X0275963Y0341705D02*
X0333902Y0341705D01*
X0331503Y0339307D02*
X0277058Y0339307D01*
X0278053Y0336908D02*
X0329105Y0336908D01*
X0326706Y0334510D02*
X0277991Y0334510D01*
X0278139Y0335901D02*
X0272239Y0335901D01*
X0278139Y0335901D01*
X0276779Y0332111D02*
X0324308Y0332111D01*
X0321909Y0329713D02*
X0276347Y0329713D01*
X0277715Y0327314D02*
X0319511Y0327314D01*
X0317112Y0324916D02*
X0277839Y0324916D01*
X0276775Y0322517D02*
X0314714Y0322517D01*
X0312315Y0320119D02*
X0201927Y0320119D01*
X0194835Y0320119D02*
X0191927Y0320119D01*
X0193376Y0317720D02*
X0193386Y0317720D01*
X0184835Y0320119D02*
X0177371Y0320119D01*
X0179595Y0322517D02*
X0210655Y0322517D01*
X0208256Y0324916D02*
X0179836Y0324916D01*
X0179836Y0327314D02*
X0205858Y0327314D01*
X0203459Y0329713D02*
X0179836Y0329713D01*
X0179836Y0332111D02*
X0201986Y0332111D01*
X0201895Y0334510D02*
X0179836Y0334510D01*
X0179836Y0336908D02*
X0203239Y0336908D01*
X0210689Y0336908D02*
X0216289Y0336908D01*
X0216408Y0334510D02*
X0213087Y0334510D01*
X0215486Y0332111D02*
X0217685Y0332111D01*
X0222121Y0336019D02*
X0222121Y0336019D01*
X0226261Y0336019D01*
X0232160Y0336019D01*
X0232160Y0336019D01*
X0222121Y0336019D01*
X0217217Y0339307D02*
X0179836Y0339307D01*
X0179836Y0341705D02*
X0218515Y0341705D01*
X0216853Y0344104D02*
X0179836Y0344104D01*
X0180133Y0346502D02*
X0195830Y0346502D01*
X0199987Y0346502D02*
X0216521Y0346502D01*
X0217254Y0348901D02*
X0203758Y0348901D01*
X0205201Y0351299D02*
X0219082Y0351299D01*
X0217940Y0353698D02*
X0205714Y0353698D01*
X0205526Y0356096D02*
X0216592Y0356096D01*
X0216482Y0358495D02*
X0204533Y0358495D01*
X0201880Y0360893D02*
X0217580Y0360893D01*
X0222082Y0357476D02*
X0222082Y0346058D01*
X0222121Y0346019D01*
X0232161Y0346019D02*
X0232161Y0357397D01*
X0232082Y0357476D01*
X0236584Y0360893D02*
X0237580Y0360893D01*
X0242082Y0357476D02*
X0242082Y0346137D01*
X0242200Y0346019D01*
X0246584Y0360893D02*
X0247580Y0360893D01*
X0227580Y0360893D02*
X0226584Y0360893D01*
X0211313Y0377683D02*
X0374411Y0377683D01*
X0376809Y0375284D02*
X0208915Y0375284D01*
X0206516Y0372886D02*
X0379208Y0372886D01*
X0381606Y0370487D02*
X0204118Y0370487D01*
X0201719Y0368089D02*
X0384005Y0368089D01*
X0386403Y0365690D02*
X0199321Y0365690D01*
X0196922Y0363292D02*
X0321089Y0363292D01*
X0322082Y0363292D02*
X0322082Y0363292D01*
X0323075Y0363292D02*
X0388802Y0363292D01*
X0391200Y0360893D02*
X0384745Y0360893D01*
X0385480Y0360589D02*
X0382611Y0361777D01*
X0379506Y0361777D01*
X0376637Y0360589D01*
X0374441Y0358393D01*
X0373253Y0355524D01*
X0373253Y0352419D01*
X0374441Y0349550D01*
X0376637Y0347354D01*
X0379506Y0346166D01*
X0382611Y0346166D01*
X0385480Y0347354D01*
X0387675Y0349550D01*
X0388864Y0352419D01*
X0388864Y0355524D01*
X0387675Y0358393D01*
X0385480Y0360589D01*
X0387574Y0358495D02*
X0393599Y0358495D01*
X0395997Y0356096D02*
X0388627Y0356096D01*
X0388864Y0353698D02*
X0398396Y0353698D01*
X0400794Y0351299D02*
X0388400Y0351299D01*
X0387026Y0348901D02*
X0403193Y0348901D01*
X0405591Y0346502D02*
X0383422Y0346502D01*
X0378694Y0346502D02*
X0344482Y0346502D01*
X0344482Y0348901D02*
X0375091Y0348901D01*
X0373717Y0351299D02*
X0344482Y0351299D01*
X0346224Y0353698D02*
X0373253Y0353698D01*
X0373490Y0356096D02*
X0347572Y0356096D01*
X0347682Y0358495D02*
X0374543Y0358495D01*
X0377372Y0360893D02*
X0346584Y0360893D01*
X0337580Y0360893D02*
X0336584Y0360893D01*
X0336224Y0353698D02*
X0337940Y0353698D01*
X0327940Y0353698D02*
X0326630Y0353698D01*
X0322082Y0353698D02*
X0322082Y0353698D01*
X0322082Y0351576D02*
X0322082Y0357475D01*
X0322082Y0357475D01*
X0322082Y0351576D01*
X0322082Y0356096D02*
X0322082Y0356096D01*
X0322082Y0358495D02*
X0322082Y0358495D01*
X0322082Y0360893D02*
X0322082Y0360893D01*
X0326892Y0360893D02*
X0327580Y0360893D01*
X0317272Y0360893D02*
X0316584Y0360893D01*
X0316224Y0353698D02*
X0317534Y0353698D01*
X0307940Y0353698D02*
X0306224Y0353698D01*
X0306584Y0360893D02*
X0307580Y0360893D01*
X0297940Y0353698D02*
X0296224Y0353698D01*
X0296584Y0360893D02*
X0297580Y0360893D01*
X0272239Y0335901D02*
X0272239Y0335901D01*
X0314306Y0315322D02*
X0391888Y0315322D01*
X0394287Y0317720D02*
X0381629Y0317720D01*
X0381514Y0317442D02*
X0382105Y0318869D01*
X0382105Y0320413D01*
X0381514Y0321839D01*
X0380624Y0322730D01*
X0380624Y0326521D01*
X0392997Y0338894D01*
X0400725Y0338894D01*
X0401616Y0338004D01*
X0403042Y0337413D01*
X0404586Y0337413D01*
X0406013Y0338004D01*
X0407104Y0339096D01*
X0407695Y0340522D01*
X0407695Y0342066D01*
X0407104Y0343493D01*
X0406013Y0344585D01*
X0404586Y0345176D01*
X0403042Y0345176D01*
X0401616Y0344585D01*
X0400725Y0343694D01*
X0391526Y0343694D01*
X0390644Y0343329D01*
X0376864Y0329550D01*
X0376189Y0328874D01*
X0375824Y0327992D01*
X0375824Y0322730D01*
X0374933Y0321839D01*
X0374343Y0320413D01*
X0374343Y0318869D01*
X0374933Y0317442D01*
X0376025Y0316351D01*
X0377452Y0315760D01*
X0378996Y0315760D01*
X0380422Y0316351D01*
X0381514Y0317442D01*
X0382105Y0320119D02*
X0396685Y0320119D01*
X0399084Y0322517D02*
X0380836Y0322517D01*
X0380624Y0324916D02*
X0401482Y0324916D01*
X0403881Y0327314D02*
X0381417Y0327314D01*
X0383815Y0329713D02*
X0405682Y0329713D01*
X0405537Y0332111D02*
X0386214Y0332111D01*
X0388612Y0334510D02*
X0406551Y0334510D01*
X0407192Y0339307D02*
X0412787Y0339307D01*
X0410388Y0341705D02*
X0407695Y0341705D01*
X0407990Y0344104D02*
X0406494Y0344104D01*
X0401135Y0344104D02*
X0343088Y0344104D01*
X0340690Y0341705D02*
X0389020Y0341705D01*
X0386621Y0339307D02*
X0338291Y0339307D01*
X0335893Y0336908D02*
X0384223Y0336908D01*
X0381824Y0334510D02*
X0333494Y0334510D01*
X0331096Y0332111D02*
X0379426Y0332111D01*
X0377027Y0329713D02*
X0328697Y0329713D01*
X0326299Y0327314D02*
X0375824Y0327314D01*
X0375824Y0324916D02*
X0323900Y0324916D01*
X0321502Y0322517D02*
X0375611Y0322517D01*
X0374343Y0320119D02*
X0319103Y0320119D01*
X0316705Y0317720D02*
X0374818Y0317720D01*
X0383257Y0308126D02*
X0360910Y0308126D01*
X0358512Y0310525D02*
X0387091Y0310525D01*
X0389490Y0312923D02*
X0202065Y0312923D01*
X0200896Y0300931D02*
X0237160Y0300931D01*
X0234762Y0298532D02*
X0203040Y0298532D01*
X0203481Y0296133D02*
X0232363Y0296133D01*
X0229187Y0293735D02*
X0202776Y0293735D01*
X0207558Y0284141D02*
X0120781Y0284141D01*
X0120781Y0286539D02*
X0138521Y0286539D01*
X0136321Y0288938D02*
X0120781Y0288938D01*
X0120781Y0291336D02*
X0136340Y0291336D01*
X0138636Y0293735D02*
X0120781Y0293735D01*
X0121496Y0296133D02*
X0182981Y0296133D01*
X0183380Y0298532D02*
X0123895Y0298532D01*
X0126293Y0300931D02*
X0185358Y0300931D01*
X0184292Y0303329D02*
X0160581Y0303329D01*
X0162980Y0305728D02*
X0183281Y0305728D01*
X0183554Y0308126D02*
X0165378Y0308126D01*
X0167777Y0310525D02*
X0185241Y0310525D01*
X0184698Y0312923D02*
X0170175Y0312923D01*
X0172574Y0315322D02*
X0183329Y0315322D01*
X0183386Y0317720D02*
X0174972Y0317720D01*
X0171305Y0320841D02*
X0171305Y0326664D01*
X0172077Y0326984D01*
X0173652Y0328559D01*
X0174505Y0330618D01*
X0174505Y0332845D01*
X0173652Y0334904D01*
X0172077Y0336479D01*
X0170019Y0337331D01*
X0167791Y0337331D01*
X0165733Y0336479D01*
X0164157Y0334904D01*
X0163305Y0332845D01*
X0163305Y0330618D01*
X0163557Y0330008D01*
X0162948Y0330260D01*
X0161087Y0330260D01*
X0160187Y0331160D01*
X0158764Y0331750D01*
X0175280Y0348266D01*
X0175036Y0347677D01*
X0175036Y0324572D01*
X0171305Y0320841D01*
X0171305Y0322517D02*
X0172981Y0322517D01*
X0171305Y0324916D02*
X0175036Y0324916D01*
X0175036Y0327314D02*
X0172407Y0327314D01*
X0174130Y0329713D02*
X0175036Y0329713D01*
X0175036Y0332111D02*
X0174505Y0332111D01*
X0175036Y0334510D02*
X0173815Y0334510D01*
X0175036Y0336908D02*
X0171041Y0336908D01*
X0166769Y0336908D02*
X0163922Y0336908D01*
X0163994Y0334510D02*
X0161524Y0334510D01*
X0163305Y0332111D02*
X0159125Y0332111D01*
X0166321Y0339307D02*
X0175036Y0339307D01*
X0175036Y0341705D02*
X0168719Y0341705D01*
X0171118Y0344104D02*
X0175036Y0344104D01*
X0175036Y0346502D02*
X0173516Y0346502D01*
X0182531Y0348901D02*
X0192059Y0348901D01*
X0190616Y0351299D02*
X0184930Y0351299D01*
X0187328Y0353698D02*
X0190103Y0353698D01*
X0190291Y0356096D02*
X0189727Y0356096D01*
X0213712Y0380081D02*
X0372012Y0380081D01*
X0369614Y0382480D02*
X0216110Y0382480D01*
X0218509Y0384878D02*
X0367215Y0384878D01*
X0364817Y0387277D02*
X0220907Y0387277D01*
X0223306Y0389675D02*
X0362418Y0389675D01*
X0360020Y0392074D02*
X0324239Y0392074D01*
X0322807Y0391481D02*
X0325821Y0392729D01*
X0328127Y0395036D01*
X0329376Y0398049D01*
X0329376Y0401311D01*
X0328127Y0404325D01*
X0325821Y0406631D01*
X0322807Y0407880D01*
X0319545Y0407880D01*
X0316532Y0406631D01*
X0314225Y0404325D01*
X0312977Y0401311D01*
X0312977Y0398049D01*
X0314225Y0395036D01*
X0316532Y0392729D01*
X0319545Y0391481D01*
X0322807Y0391481D01*
X0318114Y0392074D02*
X0292838Y0392074D01*
X0294325Y0392690D02*
X0296631Y0394996D01*
X0297880Y0398010D01*
X0297880Y0401272D01*
X0296631Y0404285D01*
X0294325Y0406592D01*
X0291311Y0407840D01*
X0288049Y0407840D01*
X0285036Y0406592D01*
X0282729Y0404285D01*
X0281481Y0401272D01*
X0281481Y0398010D01*
X0282729Y0394996D01*
X0285036Y0392690D01*
X0288049Y0391442D01*
X0291311Y0391442D01*
X0294325Y0392690D01*
X0296107Y0394472D02*
X0314789Y0394472D01*
X0313465Y0396871D02*
X0297408Y0396871D01*
X0297880Y0399269D02*
X0312977Y0399269D01*
X0313125Y0401668D02*
X0297715Y0401668D01*
X0296722Y0404066D02*
X0314118Y0404066D01*
X0316366Y0406465D02*
X0294452Y0406465D01*
X0284909Y0406465D02*
X0262897Y0406465D01*
X0262809Y0406553D02*
X0259795Y0407801D01*
X0256534Y0407801D01*
X0253520Y0406553D01*
X0251214Y0404246D01*
X0249965Y0401232D01*
X0249965Y0397971D01*
X0251214Y0394957D01*
X0253520Y0392651D01*
X0256534Y0391402D01*
X0259795Y0391402D01*
X0262809Y0392651D01*
X0265116Y0394957D01*
X0266364Y0397971D01*
X0266364Y0401232D01*
X0265116Y0404246D01*
X0262809Y0406553D01*
X0265190Y0404066D02*
X0282639Y0404066D01*
X0281645Y0401668D02*
X0266183Y0401668D01*
X0266364Y0399269D02*
X0281481Y0399269D01*
X0281953Y0396871D02*
X0265908Y0396871D01*
X0264631Y0394472D02*
X0283253Y0394472D01*
X0286523Y0392074D02*
X0261417Y0392074D01*
X0254912Y0392074D02*
X0225704Y0392074D01*
X0228103Y0394472D02*
X0251698Y0394472D01*
X0250421Y0396871D02*
X0230501Y0396871D01*
X0232736Y0399269D02*
X0249965Y0399269D01*
X0250146Y0401668D02*
X0232986Y0401668D01*
X0232986Y0404066D02*
X0251139Y0404066D01*
X0253433Y0406465D02*
X0232986Y0406465D01*
X0232986Y0408864D02*
X0368461Y0408864D01*
X0370859Y0411262D02*
X0334601Y0411262D01*
X0337723Y0413661D02*
X0373257Y0413661D01*
X0375655Y0416059D02*
X0340122Y0416059D01*
X0341752Y0418458D02*
X0378053Y0418458D01*
X0380451Y0420856D02*
X0341985Y0420856D01*
X0341985Y0423255D02*
X0382849Y0423255D01*
X0385247Y0425653D02*
X0341985Y0425653D01*
X0341985Y0428052D02*
X0387645Y0428052D01*
X0390043Y0430450D02*
X0341985Y0430450D01*
X0341985Y0432849D02*
X0392441Y0432849D01*
X0394839Y0435247D02*
X0341985Y0435247D01*
X0341985Y0437646D02*
X0397237Y0437646D01*
X0399635Y0440044D02*
X0341985Y0440044D01*
X0341985Y0442443D02*
X0402033Y0442443D01*
X0404431Y0444841D02*
X0341985Y0444841D01*
X0343744Y0447240D02*
X0406829Y0447240D01*
X0409227Y0449638D02*
X0346142Y0449638D01*
X0348541Y0452037D02*
X0411625Y0452037D01*
X0414023Y0454435D02*
X0403293Y0454435D01*
X0406287Y0456516D02*
X0406287Y0456516D01*
X0406605Y0456834D02*
X0416421Y0456834D01*
X0418819Y0459232D02*
X0409004Y0459232D01*
X0411402Y0461631D02*
X0421217Y0461631D01*
X0423615Y0464029D02*
X0413801Y0464029D01*
X0416199Y0466428D02*
X0426013Y0466428D01*
X0428411Y0468826D02*
X0418598Y0468826D01*
X0420996Y0471225D02*
X0430809Y0471225D01*
X0433207Y0473623D02*
X0423395Y0473623D01*
X0425793Y0476022D02*
X0435605Y0476022D01*
X0438004Y0478420D02*
X0428192Y0478420D01*
X0430590Y0480819D02*
X0440402Y0480819D01*
X0442800Y0483217D02*
X0432989Y0483217D01*
X0435269Y0485616D02*
X0445198Y0485616D01*
X0447596Y0488014D02*
X0437668Y0488014D01*
X0440066Y0490413D02*
X0449994Y0490413D01*
X0452392Y0492811D02*
X0442465Y0492811D01*
X0459553Y0492811D02*
X0459652Y0492811D01*
X0461950Y0490413D02*
X0462050Y0490413D01*
X0464346Y0488014D02*
X0464449Y0488014D01*
X0466743Y0485616D02*
X0466847Y0485616D01*
X0469139Y0483217D02*
X0469246Y0483217D01*
X0471536Y0480819D02*
X0471644Y0480819D01*
X0473932Y0478420D02*
X0474043Y0478420D01*
X0476329Y0476022D02*
X0476441Y0476022D01*
X0478725Y0473623D02*
X0478840Y0473623D01*
X0481122Y0471225D02*
X0481238Y0471225D01*
X0483518Y0468826D02*
X0483637Y0468826D01*
X0485915Y0466428D02*
X0486035Y0466428D01*
X0488311Y0464029D02*
X0488434Y0464029D01*
X0490708Y0461631D02*
X0490832Y0461631D01*
X0493104Y0459232D02*
X0493231Y0459232D01*
X0495501Y0456834D02*
X0495629Y0456834D01*
X0497897Y0454435D02*
X0498028Y0454435D01*
X0500294Y0452037D02*
X0500426Y0452037D01*
X0502690Y0449638D02*
X0502825Y0449638D01*
X0505087Y0447240D02*
X0505223Y0447240D01*
X0507483Y0444841D02*
X0507622Y0444841D01*
X0509880Y0442443D02*
X0510020Y0442443D01*
X0512276Y0440044D02*
X0512419Y0440044D01*
X0514673Y0437646D02*
X0514817Y0437646D01*
X0517069Y0435247D02*
X0517216Y0435247D01*
X0519466Y0432849D02*
X0519614Y0432849D01*
X0521872Y0430450D02*
X0522013Y0430450D01*
X0522716Y0428052D02*
X0522730Y0428052D01*
X0522299Y0425653D02*
X0520336Y0425653D01*
X0519900Y0423255D02*
X0517937Y0423255D01*
X0517502Y0420856D02*
X0515539Y0420856D01*
X0515103Y0418458D02*
X0513140Y0418458D01*
X0512705Y0416059D02*
X0510742Y0416059D01*
X0510306Y0413661D02*
X0508343Y0413661D01*
X0507908Y0411262D02*
X0505945Y0411262D01*
X0505509Y0408864D02*
X0503546Y0408864D01*
X0503688Y0406465D02*
X0501148Y0406465D01*
X0503320Y0404066D02*
X0498749Y0404066D01*
X0496351Y0401668D02*
X0502526Y0401668D01*
X0500128Y0399269D02*
X0493952Y0399269D01*
X0491554Y0396871D02*
X0497729Y0396871D01*
X0495331Y0394472D02*
X0489155Y0394472D01*
X0486757Y0392074D02*
X0492932Y0392074D01*
X0490534Y0389675D02*
X0484358Y0389675D01*
X0481960Y0387277D02*
X0488135Y0387277D01*
X0485737Y0384878D02*
X0479561Y0384878D01*
X0477163Y0382480D02*
X0483338Y0382480D01*
X0480940Y0380081D02*
X0474764Y0380081D01*
X0472366Y0377683D02*
X0478541Y0377683D01*
X0476143Y0375284D02*
X0469967Y0375284D01*
X0467568Y0372886D02*
X0473744Y0372886D01*
X0471346Y0370487D02*
X0465170Y0370487D01*
X0462771Y0368089D02*
X0468947Y0368089D01*
X0466549Y0365690D02*
X0460373Y0365690D01*
X0457974Y0363292D02*
X0464150Y0363292D01*
X0461752Y0360893D02*
X0455576Y0360893D01*
X0453177Y0358495D02*
X0459353Y0358495D01*
X0456955Y0356096D02*
X0450779Y0356096D01*
X0448380Y0353698D02*
X0454587Y0353698D01*
X0453832Y0351299D02*
X0445982Y0351299D01*
X0443583Y0348901D02*
X0451452Y0348901D01*
X0449054Y0346502D02*
X0441185Y0346502D01*
X0438786Y0344104D02*
X0446655Y0344104D01*
X0444555Y0341705D02*
X0436388Y0341705D01*
X0433989Y0339307D02*
X0443990Y0339307D01*
X0443990Y0336908D02*
X0431591Y0336908D01*
X0429192Y0334510D02*
X0443990Y0334510D01*
X0443990Y0332111D02*
X0426794Y0332111D01*
X0424398Y0329713D02*
X0443990Y0329713D01*
X0443990Y0327314D02*
X0422919Y0327314D01*
X0422352Y0329713D02*
X0416592Y0329713D01*
X0416737Y0332111D02*
X0419982Y0332111D01*
X0417584Y0334510D02*
X0415723Y0334510D01*
X0415185Y0336908D02*
X0391011Y0336908D01*
X0405872Y0322517D02*
X0409407Y0322517D01*
X0408270Y0324916D02*
X0411806Y0324916D01*
X0407009Y0320119D02*
X0403473Y0320119D01*
X0405071Y0317720D02*
X0401075Y0317720D01*
X0398676Y0315322D02*
X0404620Y0315322D01*
X0404620Y0312923D02*
X0396278Y0312923D01*
X0393879Y0310525D02*
X0405718Y0310525D01*
X0408117Y0308126D02*
X0391481Y0308126D01*
X0389082Y0305728D02*
X0410515Y0305728D01*
X0412914Y0303329D02*
X0387933Y0303329D01*
X0386169Y0300931D02*
X0415312Y0300931D01*
X0417711Y0298532D02*
X0411943Y0298532D01*
X0412420Y0296133D02*
X0420109Y0296133D01*
X0422508Y0293735D02*
X0414807Y0293735D01*
X0417206Y0291336D02*
X0425946Y0291336D01*
X0425946Y0288938D02*
X0419604Y0288938D01*
X0419994Y0286539D02*
X0425946Y0286539D01*
X0425946Y0284141D02*
X0419994Y0284141D01*
X0419994Y0281742D02*
X0425946Y0281742D01*
X0425946Y0279344D02*
X0419994Y0279344D01*
X0419994Y0276945D02*
X0425946Y0276945D01*
X0425946Y0274547D02*
X0419994Y0274547D01*
X0419994Y0272148D02*
X0425946Y0272148D01*
X0425946Y0269750D02*
X0419994Y0269750D01*
X0419994Y0267351D02*
X0425946Y0267351D01*
X0425946Y0264953D02*
X0419994Y0264953D01*
X0419994Y0262554D02*
X0425946Y0262554D01*
X0425946Y0260156D02*
X0419994Y0260156D01*
X0419994Y0257757D02*
X0425946Y0257757D01*
X0425946Y0255359D02*
X0419657Y0255359D01*
X0436146Y0255359D02*
X0440784Y0255359D01*
X0440784Y0257757D02*
X0436146Y0257757D01*
X0436146Y0260156D02*
X0440784Y0260156D01*
X0440784Y0262554D02*
X0436146Y0262554D01*
X0436146Y0264953D02*
X0440784Y0264953D01*
X0440784Y0267351D02*
X0436146Y0267351D01*
X0436146Y0269750D02*
X0440784Y0269750D01*
X0440784Y0272148D02*
X0436146Y0272148D01*
X0436146Y0274547D02*
X0440784Y0274547D01*
X0440784Y0276945D02*
X0436146Y0276945D01*
X0436146Y0279344D02*
X0440784Y0279344D01*
X0440784Y0280748D02*
X0440784Y0249895D01*
X0439894Y0249005D01*
X0439303Y0247578D01*
X0439303Y0246034D01*
X0439894Y0244608D01*
X0440986Y0243516D01*
X0442412Y0242925D01*
X0443956Y0242925D01*
X0445383Y0243516D01*
X0446474Y0244608D01*
X0447065Y0246034D01*
X0447065Y0247578D01*
X0446474Y0249005D01*
X0445584Y0249895D01*
X0445584Y0279277D01*
X0509241Y0342933D01*
X0507472Y0338923D01*
X0501797Y0322508D01*
X0497495Y0305681D01*
X0494597Y0288557D01*
X0493120Y0271252D01*
X0493120Y0271252D01*
X0493077Y0253884D01*
X0493077Y0253884D01*
X0493543Y0248080D01*
X0492266Y0249357D01*
X0490354Y0250149D01*
X0488286Y0250149D01*
X0486582Y0249443D01*
X0486923Y0250266D01*
X0486923Y0291772D01*
X0486557Y0292654D01*
X0485882Y0293329D01*
X0477774Y0301437D01*
X0477774Y0302696D01*
X0477183Y0304123D01*
X0476091Y0305215D01*
X0474665Y0305805D01*
X0473121Y0305805D01*
X0471694Y0305215D01*
X0470603Y0304123D01*
X0470012Y0302696D01*
X0470012Y0301152D01*
X0470603Y0299726D01*
X0471694Y0298634D01*
X0473121Y0298043D01*
X0474380Y0298043D01*
X0482123Y0290300D01*
X0482123Y0251737D01*
X0479226Y0248841D01*
X0478551Y0248166D01*
X0478372Y0247732D01*
X0478372Y0260802D01*
X0477259Y0261915D01*
X0464306Y0261915D01*
X0463774Y0262446D01*
X0450389Y0262446D01*
X0449276Y0261333D01*
X0449276Y0247948D01*
X0450389Y0246835D01*
X0459572Y0246835D01*
X0459572Y0244228D01*
X0460685Y0243115D01*
X0477259Y0243115D01*
X0478186Y0244042D01*
X0478186Y0226147D01*
X0475655Y0223616D01*
X0467313Y0223616D01*
X0466431Y0223250D01*
X0463947Y0220766D01*
X0462688Y0220766D01*
X0461261Y0220175D01*
X0460170Y0219084D01*
X0459579Y0217657D01*
X0459579Y0216113D01*
X0460170Y0214687D01*
X0461261Y0213595D01*
X0462688Y0213004D01*
X0464232Y0213004D01*
X0465658Y0213595D01*
X0466750Y0214687D01*
X0467341Y0216113D01*
X0467341Y0217372D01*
X0468785Y0218816D01*
X0477126Y0218816D01*
X0478008Y0219181D01*
X0478683Y0219856D01*
X0482620Y0223793D01*
X0482986Y0224675D01*
X0482986Y0245812D01*
X0484801Y0247627D01*
X0484120Y0245983D01*
X0484120Y0243915D01*
X0484912Y0242004D01*
X0486374Y0240541D01*
X0487878Y0239918D01*
X0485894Y0239657D01*
X0484936Y0238408D01*
X0486003Y0230304D01*
X0487252Y0229346D01*
X0489145Y0229595D01*
X0488985Y0229529D01*
X0487522Y0228066D01*
X0486730Y0226155D01*
X0486730Y0224086D01*
X0487522Y0222175D01*
X0488985Y0220712D01*
X0490896Y0219920D01*
X0492965Y0219920D01*
X0494876Y0220712D01*
X0496339Y0222175D01*
X0496690Y0223022D01*
X0497279Y0219432D01*
X0501496Y0202584D01*
X0507089Y0186141D01*
X0514019Y0170216D01*
X0514019Y0170216D01*
X0522239Y0154916D01*
X0522239Y0154916D01*
X0526854Y0147804D01*
X0528826Y0142492D01*
X0531852Y0131253D01*
X0533475Y0119728D01*
X0533670Y0108092D01*
X0532930Y0101170D01*
X0532930Y0104120D01*
X0532153Y0105994D01*
X0504709Y0133439D01*
X0505222Y0133439D01*
X0507097Y0134215D01*
X0508531Y0135650D01*
X0509308Y0137524D01*
X0509308Y0138265D01*
X0510427Y0139383D01*
X0511720Y0139383D01*
X0512329Y0139636D01*
X0512077Y0139026D01*
X0512077Y0136798D01*
X0512929Y0134740D01*
X0514505Y0133165D01*
X0516563Y0132312D01*
X0518791Y0132312D01*
X0520849Y0133165D01*
X0522424Y0134740D01*
X0523277Y0136798D01*
X0523277Y0139026D01*
X0522424Y0141084D01*
X0520849Y0142660D01*
X0518791Y0143512D01*
X0516563Y0143512D01*
X0515953Y0143260D01*
X0516206Y0143869D01*
X0516206Y0146097D01*
X0515353Y0148155D01*
X0513778Y0149731D01*
X0511720Y0150583D01*
X0509492Y0150583D01*
X0508882Y0150331D01*
X0509135Y0150940D01*
X0509135Y0153168D01*
X0508282Y0155226D01*
X0506707Y0156802D01*
X0504649Y0157654D01*
X0502421Y0157654D01*
X0500362Y0156802D01*
X0498787Y0155226D01*
X0497935Y0153168D01*
X0497935Y0150940D01*
X0498787Y0148882D01*
X0500362Y0147307D01*
X0502421Y0146454D01*
X0504649Y0146454D01*
X0505258Y0146707D01*
X0505006Y0146097D01*
X0505006Y0144710D01*
X0503934Y0143639D01*
X0495332Y0143639D01*
X0435989Y0202982D01*
X0435989Y0203790D01*
X0436876Y0203422D01*
X0438807Y0203422D01*
X0440591Y0204161D01*
X0441956Y0205526D01*
X0442694Y0207310D01*
X0442694Y0209240D01*
X0441956Y0211024D01*
X0440591Y0212389D01*
X0438807Y0213128D01*
X0436876Y0213128D01*
X0436146Y0212825D01*
X0436146Y0295548D01*
X0451979Y0311380D01*
X0453413Y0312815D01*
X0454190Y0314689D01*
X0454190Y0337213D01*
X0461821Y0344845D01*
X0463256Y0346280D01*
X0464032Y0348154D01*
X0464032Y0348749D01*
X0504093Y0388809D01*
X0504097Y0388799D01*
X0505532Y0387365D01*
X0509948Y0382948D01*
X0510065Y0382666D01*
X0509456Y0382918D01*
X0507228Y0382918D01*
X0505170Y0382066D01*
X0503594Y0380490D01*
X0502742Y0378432D01*
X0502742Y0376204D01*
X0503594Y0374146D01*
X0505170Y0372571D01*
X0505942Y0372251D01*
X0505942Y0346422D01*
X0441150Y0281630D01*
X0440784Y0280748D01*
X0441262Y0281742D02*
X0436146Y0281742D01*
X0436146Y0284141D02*
X0443660Y0284141D01*
X0446059Y0286539D02*
X0436146Y0286539D01*
X0436146Y0288938D02*
X0448457Y0288938D01*
X0450856Y0291336D02*
X0436146Y0291336D01*
X0436146Y0293735D02*
X0453254Y0293735D01*
X0455653Y0296133D02*
X0436732Y0296133D01*
X0439130Y0298532D02*
X0458051Y0298532D01*
X0460450Y0300931D02*
X0441529Y0300931D01*
X0443927Y0303329D02*
X0462848Y0303329D01*
X0465247Y0305728D02*
X0446326Y0305728D01*
X0448724Y0308126D02*
X0467645Y0308126D01*
X0470044Y0310525D02*
X0451123Y0310525D01*
X0453458Y0312923D02*
X0472442Y0312923D01*
X0474841Y0315322D02*
X0454190Y0315322D01*
X0454190Y0317720D02*
X0477239Y0317720D01*
X0479638Y0320119D02*
X0454190Y0320119D01*
X0454190Y0322517D02*
X0482036Y0322517D01*
X0484435Y0324916D02*
X0454190Y0324916D01*
X0454190Y0327314D02*
X0486833Y0327314D01*
X0489232Y0329713D02*
X0454190Y0329713D01*
X0454190Y0332111D02*
X0491630Y0332111D01*
X0494029Y0334510D02*
X0454190Y0334510D01*
X0454190Y0336908D02*
X0496427Y0336908D01*
X0498826Y0339307D02*
X0456283Y0339307D01*
X0458681Y0341705D02*
X0501224Y0341705D01*
X0503623Y0344104D02*
X0461080Y0344104D01*
X0463348Y0346502D02*
X0505942Y0346502D01*
X0505942Y0348901D02*
X0464184Y0348901D01*
X0466583Y0351299D02*
X0505942Y0351299D01*
X0505942Y0353698D02*
X0468981Y0353698D01*
X0471380Y0356096D02*
X0505942Y0356096D01*
X0505942Y0358495D02*
X0473778Y0358495D01*
X0476177Y0360893D02*
X0505942Y0360893D01*
X0505942Y0363292D02*
X0478575Y0363292D01*
X0480974Y0365690D02*
X0505942Y0365690D01*
X0505942Y0368089D02*
X0483372Y0368089D01*
X0485771Y0370487D02*
X0505942Y0370487D01*
X0504854Y0372886D02*
X0488169Y0372886D01*
X0490568Y0375284D02*
X0503123Y0375284D01*
X0502742Y0377683D02*
X0492966Y0377683D01*
X0495365Y0380081D02*
X0503425Y0380081D01*
X0506170Y0382480D02*
X0497763Y0382480D01*
X0500162Y0384878D02*
X0508018Y0384878D01*
X0505619Y0387277D02*
X0502560Y0387277D01*
X0505532Y0387365D02*
X0505532Y0387365D01*
X0508013Y0341705D02*
X0508699Y0341705D01*
X0507641Y0339307D02*
X0505614Y0339307D01*
X0506775Y0336908D02*
X0503216Y0336908D01*
X0500817Y0334510D02*
X0505946Y0334510D01*
X0505117Y0332111D02*
X0498419Y0332111D01*
X0496020Y0329713D02*
X0504288Y0329713D01*
X0503458Y0327314D02*
X0493622Y0327314D01*
X0491223Y0324916D02*
X0502629Y0324916D01*
X0501800Y0322517D02*
X0488825Y0322517D01*
X0486426Y0320119D02*
X0501186Y0320119D01*
X0500573Y0317720D02*
X0484028Y0317720D01*
X0481629Y0315322D02*
X0499960Y0315322D01*
X0499347Y0312923D02*
X0479231Y0312923D01*
X0476832Y0310525D02*
X0498733Y0310525D01*
X0498120Y0308126D02*
X0474434Y0308126D01*
X0474853Y0305728D02*
X0497507Y0305728D01*
X0497097Y0303329D02*
X0477512Y0303329D01*
X0478281Y0300931D02*
X0496691Y0300931D01*
X0496285Y0298532D02*
X0480679Y0298532D01*
X0483078Y0296133D02*
X0495879Y0296133D01*
X0495473Y0293735D02*
X0485476Y0293735D01*
X0486923Y0291336D02*
X0495067Y0291336D01*
X0494661Y0288938D02*
X0486923Y0288938D01*
X0486923Y0286539D02*
X0494424Y0286539D01*
X0494220Y0284141D02*
X0486923Y0284141D01*
X0486923Y0281742D02*
X0494015Y0281742D01*
X0493811Y0279344D02*
X0486923Y0279344D01*
X0486923Y0276945D02*
X0493606Y0276945D01*
X0493401Y0274547D02*
X0486923Y0274547D01*
X0486923Y0272148D02*
X0493197Y0272148D01*
X0493117Y0269750D02*
X0486923Y0269750D01*
X0486923Y0267351D02*
X0493111Y0267351D01*
X0493105Y0264953D02*
X0486923Y0264953D01*
X0486923Y0262554D02*
X0493099Y0262554D01*
X0493093Y0260156D02*
X0486923Y0260156D01*
X0486923Y0257757D02*
X0493087Y0257757D01*
X0493081Y0255359D02*
X0486923Y0255359D01*
X0486923Y0252960D02*
X0493151Y0252960D01*
X0493343Y0250562D02*
X0486923Y0250562D01*
X0482123Y0252960D02*
X0478372Y0252960D01*
X0478372Y0250562D02*
X0480947Y0250562D01*
X0478550Y0248163D02*
X0478372Y0248163D01*
X0478186Y0243366D02*
X0477510Y0243366D01*
X0478186Y0240968D02*
X0436146Y0240968D01*
X0436146Y0243366D02*
X0441347Y0243366D01*
X0439415Y0245765D02*
X0436146Y0245765D01*
X0436146Y0248163D02*
X0439545Y0248163D01*
X0440784Y0250562D02*
X0436146Y0250562D01*
X0436146Y0252960D02*
X0440784Y0252960D01*
X0445584Y0252960D02*
X0449276Y0252960D01*
X0449276Y0250562D02*
X0445584Y0250562D01*
X0446823Y0248163D02*
X0449276Y0248163D01*
X0446954Y0245765D02*
X0459572Y0245765D01*
X0460433Y0243366D02*
X0445021Y0243366D01*
X0436146Y0238569D02*
X0478186Y0238569D01*
X0478186Y0236171D02*
X0436146Y0236171D01*
X0436146Y0233772D02*
X0478186Y0233772D01*
X0478186Y0231374D02*
X0436146Y0231374D01*
X0436146Y0228975D02*
X0478186Y0228975D01*
X0478186Y0226577D02*
X0436146Y0226577D01*
X0436146Y0224178D02*
X0476217Y0224178D01*
X0480607Y0221780D02*
X0487917Y0221780D01*
X0486730Y0224178D02*
X0482780Y0224178D01*
X0482986Y0226577D02*
X0486905Y0226577D01*
X0488432Y0228975D02*
X0482986Y0228975D01*
X0482986Y0231374D02*
X0485862Y0231374D01*
X0485547Y0233772D02*
X0482986Y0233772D01*
X0482986Y0236171D02*
X0485231Y0236171D01*
X0485060Y0238569D02*
X0482986Y0238569D01*
X0482986Y0240968D02*
X0485947Y0240968D01*
X0484347Y0243366D02*
X0482986Y0243366D01*
X0482986Y0245765D02*
X0484120Y0245765D01*
X0493460Y0248163D02*
X0493536Y0248163D01*
X0482123Y0255359D02*
X0478372Y0255359D01*
X0478372Y0257757D02*
X0482123Y0257757D01*
X0482123Y0260156D02*
X0478372Y0260156D01*
X0482123Y0262554D02*
X0445584Y0262554D01*
X0445584Y0260156D02*
X0449276Y0260156D01*
X0449276Y0257757D02*
X0445584Y0257757D01*
X0445584Y0255359D02*
X0449276Y0255359D01*
X0452660Y0263772D02*
X0455529Y0262583D01*
X0458634Y0262583D01*
X0461503Y0263772D01*
X0462569Y0264837D01*
X0462860Y0264546D01*
X0466314Y0263115D01*
X0470054Y0263115D01*
X0473509Y0264546D01*
X0476153Y0267190D01*
X0477584Y0270645D01*
X0477584Y0274385D01*
X0476153Y0277840D01*
X0473509Y0280484D01*
X0470054Y0281915D01*
X0466314Y0281915D01*
X0462860Y0280484D01*
X0460215Y0277840D01*
X0460109Y0277584D01*
X0458634Y0278194D01*
X0455529Y0278194D01*
X0452660Y0277006D01*
X0450465Y0274810D01*
X0449276Y0271942D01*
X0449276Y0268836D01*
X0450465Y0265968D01*
X0452660Y0263772D01*
X0451479Y0264953D02*
X0445584Y0264953D01*
X0445584Y0267351D02*
X0449891Y0267351D01*
X0449276Y0269750D02*
X0445584Y0269750D01*
X0445584Y0272148D02*
X0449362Y0272148D01*
X0450356Y0274547D02*
X0445584Y0274547D01*
X0445584Y0276945D02*
X0452600Y0276945D01*
X0448050Y0281742D02*
X0465898Y0281742D01*
X0470471Y0281742D02*
X0482123Y0281742D01*
X0482123Y0279344D02*
X0474649Y0279344D01*
X0476524Y0276945D02*
X0482123Y0276945D01*
X0482123Y0274547D02*
X0477517Y0274547D01*
X0477584Y0272148D02*
X0482123Y0272148D01*
X0482123Y0269750D02*
X0477213Y0269750D01*
X0476220Y0267351D02*
X0482123Y0267351D01*
X0482123Y0264953D02*
X0473916Y0264953D01*
X0461720Y0279344D02*
X0445651Y0279344D01*
X0450448Y0284141D02*
X0482123Y0284141D01*
X0482123Y0286539D02*
X0452847Y0286539D01*
X0455245Y0288938D02*
X0482123Y0288938D01*
X0481087Y0291336D02*
X0457644Y0291336D01*
X0460042Y0293735D02*
X0478688Y0293735D01*
X0476290Y0296133D02*
X0462441Y0296133D01*
X0464839Y0298532D02*
X0471941Y0298532D01*
X0470104Y0300931D02*
X0467238Y0300931D01*
X0469637Y0303329D02*
X0470274Y0303329D01*
X0472035Y0305728D02*
X0472933Y0305728D01*
X0443893Y0317720D02*
X0430879Y0317720D01*
X0430631Y0315322D02*
X0441495Y0315322D01*
X0439096Y0312923D02*
X0429088Y0312923D01*
X0434299Y0308126D02*
X0422542Y0308126D01*
X0424940Y0305728D02*
X0431901Y0305728D01*
X0429502Y0303329D02*
X0427339Y0303329D01*
X0420143Y0310525D02*
X0436698Y0310525D01*
X0430063Y0320119D02*
X0443990Y0320119D01*
X0443990Y0322517D02*
X0426676Y0322517D01*
X0423882Y0322517D02*
X0423612Y0322517D01*
X0423808Y0324916D02*
X0443990Y0324916D01*
X0421471Y0312923D02*
X0417745Y0312923D01*
X0416637Y0315322D02*
X0419927Y0315322D01*
X0419679Y0317720D02*
X0419035Y0317720D01*
X0405134Y0298532D02*
X0370504Y0298532D01*
X0368106Y0300931D02*
X0382090Y0300931D01*
X0380325Y0303329D02*
X0365707Y0303329D01*
X0363309Y0305728D02*
X0380525Y0305728D01*
X0372903Y0296133D02*
X0404657Y0296133D01*
X0405924Y0293735D02*
X0375301Y0293735D01*
X0377700Y0291336D02*
X0410417Y0291336D01*
X0412816Y0288938D02*
X0404986Y0288938D01*
X0403814Y0286176D02*
X0411255Y0278735D01*
X0410092Y0284141D02*
X0415194Y0284141D01*
X0415194Y0286539D02*
X0407694Y0286539D01*
X0398937Y0276945D02*
X0384431Y0276945D01*
X0386829Y0274547D02*
X0397965Y0274547D01*
X0398574Y0272148D02*
X0389228Y0272148D01*
X0390920Y0269750D02*
X0399446Y0269750D01*
X0399446Y0267351D02*
X0391198Y0267351D01*
X0390197Y0264953D02*
X0399446Y0264953D01*
X0399446Y0262554D02*
X0368706Y0262554D01*
X0368388Y0260156D02*
X0399446Y0260156D01*
X0399446Y0257757D02*
X0367305Y0257757D01*
X0364561Y0255359D02*
X0399446Y0255359D01*
X0381998Y0264953D02*
X0368388Y0264953D01*
X0367305Y0267351D02*
X0379600Y0267351D01*
X0377201Y0269750D02*
X0364561Y0269750D01*
X0356453Y0269750D02*
X0353065Y0269750D01*
X0353065Y0267351D02*
X0353709Y0267351D01*
X0353936Y0272148D02*
X0374803Y0272148D01*
X0372404Y0274547D02*
X0354546Y0274547D01*
X0353573Y0276945D02*
X0370006Y0276945D01*
X0367607Y0279344D02*
X0343301Y0279344D01*
X0344703Y0276945D02*
X0347756Y0276945D01*
X0346783Y0274547D02*
X0344283Y0274547D01*
X0343222Y0272148D02*
X0347393Y0272148D01*
X0348265Y0269750D02*
X0343222Y0269750D01*
X0343222Y0267351D02*
X0348265Y0267351D01*
X0348265Y0264953D02*
X0343222Y0264953D01*
X0343222Y0262554D02*
X0348265Y0262554D01*
X0348265Y0260156D02*
X0343222Y0260156D01*
X0336941Y0276945D02*
X0336824Y0276945D01*
X0336824Y0279344D02*
X0338343Y0279344D01*
X0336824Y0281742D02*
X0365209Y0281742D01*
X0362810Y0284141D02*
X0336824Y0284141D01*
X0336824Y0286539D02*
X0360412Y0286539D01*
X0358013Y0288938D02*
X0336824Y0288938D01*
X0336103Y0291336D02*
X0355615Y0291336D01*
X0353216Y0293735D02*
X0333705Y0293735D01*
X0320466Y0296133D02*
X0350818Y0296133D01*
X0297083Y0224178D02*
X0260671Y0224178D01*
X0262955Y0221780D02*
X0294685Y0221780D01*
X0292286Y0219381D02*
X0265353Y0219381D01*
X0269339Y0216983D02*
X0289888Y0216983D01*
X0287489Y0214584D02*
X0271674Y0214584D01*
X0271709Y0212186D02*
X0285091Y0212186D01*
X0269313Y0238569D02*
X0249365Y0238569D01*
X0251763Y0240968D02*
X0266495Y0240968D01*
X0264096Y0243366D02*
X0254162Y0243366D01*
X0254639Y0245765D02*
X0261698Y0245765D01*
X0259737Y0248163D02*
X0254639Y0248163D01*
X0254639Y0250562D02*
X0259682Y0250562D01*
X0259682Y0252960D02*
X0254639Y0252960D01*
X0254639Y0255359D02*
X0259682Y0255359D01*
X0259422Y0257757D02*
X0254773Y0257757D01*
X0257172Y0260156D02*
X0258201Y0260156D01*
X0205160Y0281742D02*
X0120781Y0281742D01*
X0120781Y0279344D02*
X0202761Y0279344D01*
X0200363Y0276945D02*
X0120781Y0276945D01*
X0112158Y0267351D02*
X0089285Y0267351D01*
X0089285Y0264953D02*
X0114557Y0264953D01*
X0109760Y0269750D02*
X0105747Y0269750D01*
X0106606Y0271204D02*
X0106606Y0271204D01*
X0106636Y0272148D02*
X0107361Y0272148D01*
X0106682Y0272758D02*
X0106682Y0272758D01*
X0104269Y0268902D02*
X0104269Y0268902D01*
X0100948Y0268916D02*
X0100948Y0268916D01*
X0099537Y0269750D02*
X0089285Y0269750D01*
X0092380Y0269934D02*
X0092380Y0269934D01*
X0094018Y0270798D02*
X0094018Y0270798D01*
X0094828Y0272148D02*
X0098646Y0272148D01*
X0098646Y0271253D02*
X0098646Y0271253D01*
X0099487Y0269779D02*
X0099487Y0269779D01*
X0099487Y0269779D01*
X0099597Y0274547D02*
X0094763Y0274547D01*
X0094960Y0274219D02*
X0094960Y0274219D01*
X0094970Y0272385D02*
X0094970Y0272385D01*
X0101189Y0275363D02*
X0101189Y0275363D01*
X0102564Y0276945D02*
X0089285Y0276945D01*
X0089285Y0279344D02*
X0100166Y0279344D01*
X0097767Y0281742D02*
X0089285Y0281742D01*
X0089285Y0284141D02*
X0095369Y0284141D01*
X0092970Y0286539D02*
X0089285Y0286539D01*
X0089285Y0288938D02*
X0090572Y0288938D01*
X0093222Y0293076D02*
X0093222Y0339803D01*
X0092857Y0340685D01*
X0092182Y0341361D01*
X0072210Y0361332D01*
X0072210Y0372054D01*
X0072982Y0372374D01*
X0074558Y0373949D01*
X0075410Y0376007D01*
X0075410Y0378235D01*
X0074558Y0380293D01*
X0072982Y0381869D01*
X0070924Y0382721D01*
X0068696Y0382721D01*
X0068524Y0382650D01*
X0072057Y0386184D01*
X0073492Y0387618D01*
X0074268Y0389493D01*
X0074268Y0393943D01*
X0145020Y0323191D01*
X0146894Y0322415D01*
X0148923Y0322415D01*
X0150892Y0322415D01*
X0152766Y0323191D01*
X0152790Y0323215D01*
X0155970Y0323215D01*
X0156080Y0323105D01*
X0155876Y0323189D01*
X0153649Y0323189D01*
X0151590Y0322337D01*
X0150015Y0320761D01*
X0149163Y0318703D01*
X0149163Y0316475D01*
X0150015Y0314417D01*
X0151590Y0312842D01*
X0153649Y0311989D01*
X0155876Y0311989D01*
X0157023Y0312464D01*
X0154789Y0310230D01*
X0125778Y0310230D01*
X0124896Y0309865D01*
X0102567Y0287536D01*
X0102202Y0286654D01*
X0102202Y0284096D01*
X0093222Y0293076D01*
X0093222Y0293735D02*
X0108766Y0293735D01*
X0106368Y0291336D02*
X0094962Y0291336D01*
X0097360Y0288938D02*
X0103969Y0288938D01*
X0102202Y0286539D02*
X0099759Y0286539D01*
X0102157Y0284141D02*
X0102202Y0284141D01*
X0111165Y0296133D02*
X0093222Y0296133D01*
X0093222Y0298532D02*
X0113563Y0298532D01*
X0112706Y0300603D02*
X0113797Y0301694D01*
X0114388Y0303121D01*
X0114388Y0304665D01*
X0113797Y0306091D01*
X0112706Y0307183D01*
X0111279Y0307774D01*
X0109735Y0307774D01*
X0108309Y0307183D01*
X0107217Y0306091D01*
X0106626Y0304665D01*
X0106626Y0303121D01*
X0107217Y0301694D01*
X0108309Y0300603D01*
X0109735Y0300012D01*
X0111279Y0300012D01*
X0112706Y0300603D01*
X0113033Y0300931D02*
X0115962Y0300931D01*
X0114388Y0303329D02*
X0118360Y0303329D01*
X0120759Y0305728D02*
X0113948Y0305728D01*
X0107066Y0305728D02*
X0093222Y0305728D01*
X0093222Y0308126D02*
X0123157Y0308126D01*
X0107981Y0300931D02*
X0093222Y0300931D01*
X0093222Y0303329D02*
X0106626Y0303329D01*
X0093222Y0310525D02*
X0155083Y0310525D01*
X0151509Y0312923D02*
X0093222Y0312923D01*
X0093222Y0315322D02*
X0149641Y0315322D01*
X0149163Y0317720D02*
X0093222Y0317720D01*
X0093222Y0320119D02*
X0149749Y0320119D01*
X0151138Y0322517D02*
X0152026Y0322517D01*
X0146648Y0322517D02*
X0093222Y0322517D01*
X0093222Y0324916D02*
X0143295Y0324916D01*
X0140897Y0327314D02*
X0093222Y0327314D01*
X0093222Y0329713D02*
X0138498Y0329713D01*
X0136100Y0332111D02*
X0093222Y0332111D01*
X0093222Y0334510D02*
X0133701Y0334510D01*
X0131303Y0336908D02*
X0093222Y0336908D01*
X0093222Y0339307D02*
X0128904Y0339307D01*
X0126506Y0341705D02*
X0091837Y0341705D01*
X0089438Y0344104D02*
X0124107Y0344104D01*
X0121709Y0346502D02*
X0087040Y0346502D01*
X0084641Y0348901D02*
X0119310Y0348901D01*
X0116912Y0351299D02*
X0082243Y0351299D01*
X0079844Y0353698D02*
X0114513Y0353698D01*
X0112115Y0356096D02*
X0077446Y0356096D01*
X0075047Y0358495D02*
X0109716Y0358495D01*
X0107318Y0360893D02*
X0072649Y0360893D01*
X0072210Y0363292D02*
X0104919Y0363292D01*
X0102521Y0365690D02*
X0072210Y0365690D01*
X0072210Y0368089D02*
X0100122Y0368089D01*
X0097724Y0370487D02*
X0072210Y0370487D01*
X0073494Y0372886D02*
X0095325Y0372886D01*
X0092927Y0375284D02*
X0075111Y0375284D01*
X0075410Y0377683D02*
X0090528Y0377683D01*
X0088130Y0380081D02*
X0074645Y0380081D01*
X0071507Y0382480D02*
X0085731Y0382480D01*
X0083333Y0384878D02*
X0070752Y0384878D01*
X0073151Y0387277D02*
X0080934Y0387277D01*
X0078536Y0389675D02*
X0074268Y0389675D01*
X0074268Y0392074D02*
X0076137Y0392074D01*
X0062885Y0384223D02*
X0062854Y0384192D01*
X0062739Y0384192D01*
X0141433Y0293735D02*
X0183705Y0293735D01*
X0147343Y0257757D02*
X0137695Y0257757D01*
X0137577Y0260156D02*
X0144945Y0260156D01*
X0105859Y0255268D02*
X0105859Y0255268D01*
X0105859Y0255268D01*
X0104269Y0249808D02*
X0104269Y0249808D01*
X0099695Y0250562D02*
X0094750Y0250562D01*
X0094970Y0250929D02*
X0094970Y0250929D01*
X0094960Y0252762D02*
X0094960Y0252762D01*
X0094841Y0252960D02*
X0098646Y0252960D01*
X0098646Y0252159D02*
X0098646Y0252159D01*
X0099487Y0250685D02*
X0099487Y0250685D01*
X0098645Y0253906D02*
X0098645Y0253906D01*
X0094018Y0249341D02*
X0094018Y0249341D01*
X0094018Y0249341D01*
X0084830Y0240968D02*
X0084315Y0240968D01*
X0084112Y0238569D02*
X0087200Y0238569D01*
X0089599Y0236171D02*
X0083875Y0236171D01*
X0083473Y0233772D02*
X0091997Y0233772D01*
X0094396Y0231374D02*
X0083071Y0231374D01*
X0082668Y0228975D02*
X0096794Y0228975D01*
X0099193Y0226577D02*
X0082266Y0226577D01*
X0081864Y0224178D02*
X0101592Y0224178D01*
X0103990Y0221780D02*
X0081461Y0221780D01*
X0081053Y0219381D02*
X0104968Y0219381D01*
X0106912Y0216983D02*
X0080445Y0216983D01*
X0090766Y0154621D02*
X0113727Y0154621D01*
X0111328Y0152223D02*
X0090231Y0152223D01*
X0089285Y0149824D02*
X0108930Y0149824D01*
X0106531Y0147426D02*
X0089285Y0147426D01*
X0089285Y0145027D02*
X0104133Y0145027D01*
X0101734Y0142629D02*
X0090207Y0142629D01*
X0090766Y0140230D02*
X0099335Y0140230D01*
X0096937Y0137832D02*
X0089698Y0137832D01*
X0065647Y0152223D02*
X0054216Y0152223D01*
X0052660Y0149824D02*
X0062944Y0149824D01*
X0062269Y0147426D02*
X0051228Y0147426D01*
X0050349Y0145027D02*
X0058276Y0145027D01*
X0055821Y0142629D02*
X0049471Y0142629D01*
X0061102Y0111448D02*
X0070553Y0111448D01*
X0068155Y0109050D02*
X0058703Y0109050D01*
X0058520Y0106651D02*
X0065756Y0106651D01*
X0063358Y0104253D02*
X0058520Y0104253D01*
X0058520Y0101854D02*
X0060959Y0101854D01*
X0058561Y0099456D02*
X0058520Y0099456D01*
X0350435Y0393122D02*
X0351861Y0392531D01*
X0353405Y0392531D01*
X0354832Y0393122D01*
X0355923Y0394214D01*
X0356514Y0395641D01*
X0356514Y0397185D01*
X0355923Y0398611D01*
X0354832Y0399703D01*
X0353405Y0400294D01*
X0351861Y0400294D01*
X0350435Y0399703D01*
X0349343Y0398611D01*
X0348752Y0397185D01*
X0348752Y0395641D01*
X0349343Y0394214D01*
X0350435Y0393122D01*
X0349236Y0394472D02*
X0327564Y0394472D01*
X0328887Y0396871D02*
X0348752Y0396871D01*
X0350001Y0399269D02*
X0329376Y0399269D01*
X0329228Y0401668D02*
X0361267Y0401668D01*
X0363665Y0404066D02*
X0328234Y0404066D01*
X0325987Y0406465D02*
X0366063Y0406465D01*
X0358869Y0399269D02*
X0355265Y0399269D01*
X0356514Y0396871D02*
X0356625Y0396871D01*
X0356030Y0394472D02*
X0357612Y0394472D01*
X0244681Y0411262D02*
X0232986Y0411262D01*
X0232986Y0413661D02*
X0241558Y0413661D01*
X0239160Y0416059D02*
X0232986Y0416059D01*
X0232986Y0418458D02*
X0237530Y0418458D01*
X0237297Y0420856D02*
X0232986Y0420856D01*
X0232986Y0423255D02*
X0237297Y0423255D01*
X0237297Y0425653D02*
X0232986Y0425653D01*
X0232986Y0428052D02*
X0237297Y0428052D01*
X0237297Y0430450D02*
X0231746Y0430450D01*
X0229347Y0432849D02*
X0237297Y0432849D01*
X0237297Y0435247D02*
X0226949Y0435247D01*
X0224550Y0437646D02*
X0237297Y0437646D01*
X0237297Y0440044D02*
X0222152Y0440044D01*
X0219753Y0442443D02*
X0237297Y0442443D01*
X0237297Y0444841D02*
X0217354Y0444841D01*
X0214956Y0447240D02*
X0235538Y0447240D01*
X0233140Y0449638D02*
X0212557Y0449638D01*
X0210159Y0452037D02*
X0230741Y0452037D01*
X0228343Y0454435D02*
X0207760Y0454435D01*
X0208533Y0456834D02*
X0205362Y0456834D01*
X0205829Y0459232D02*
X0202963Y0459232D01*
X0203431Y0461631D02*
X0200565Y0461631D01*
X0201032Y0464029D02*
X0198166Y0464029D01*
X0198634Y0466428D02*
X0195768Y0466428D01*
X0196235Y0468826D02*
X0193369Y0468826D01*
X0193837Y0471225D02*
X0190971Y0471225D01*
X0191438Y0473623D02*
X0188572Y0473623D01*
X0189040Y0476022D02*
X0186174Y0476022D01*
X0186641Y0478420D02*
X0183775Y0478420D01*
X0184243Y0480819D02*
X0181377Y0480819D01*
X0181198Y0483217D02*
X0181844Y0483217D01*
X0168995Y0490334D02*
X0168936Y0490275D01*
X0168527Y0490275D01*
X0167086Y0490275D01*
X0167027Y0490334D01*
X0436146Y0221780D02*
X0464960Y0221780D01*
X0460467Y0219381D02*
X0436146Y0219381D01*
X0436146Y0216983D02*
X0459579Y0216983D01*
X0460272Y0214584D02*
X0436146Y0214584D01*
X0440794Y0212186D02*
X0499093Y0212186D01*
X0498493Y0214584D02*
X0466648Y0214584D01*
X0467341Y0216983D02*
X0497892Y0216983D01*
X0497292Y0219381D02*
X0478208Y0219381D01*
X0495944Y0221780D02*
X0496894Y0221780D01*
X0497279Y0219432D02*
X0497279Y0219432D01*
X0499693Y0209787D02*
X0442468Y0209787D01*
X0442694Y0207389D02*
X0500294Y0207389D01*
X0500894Y0204990D02*
X0441420Y0204990D01*
X0438778Y0200193D02*
X0502309Y0200193D01*
X0501496Y0202584D02*
X0501496Y0202584D01*
X0501494Y0202592D02*
X0436379Y0202592D01*
X0441176Y0197795D02*
X0503125Y0197795D01*
X0503941Y0195396D02*
X0443575Y0195396D01*
X0445973Y0192998D02*
X0504757Y0192998D01*
X0505573Y0190599D02*
X0448372Y0190599D01*
X0450770Y0188200D02*
X0506388Y0188200D01*
X0507089Y0186141D02*
X0507089Y0186141D01*
X0507236Y0185802D02*
X0453169Y0185802D01*
X0455567Y0183403D02*
X0508280Y0183403D01*
X0509324Y0181005D02*
X0457966Y0181005D01*
X0460364Y0178606D02*
X0510367Y0178606D01*
X0511411Y0176208D02*
X0462763Y0176208D01*
X0465161Y0173809D02*
X0512455Y0173809D01*
X0513499Y0171411D02*
X0467560Y0171411D01*
X0469958Y0169012D02*
X0514665Y0169012D01*
X0515954Y0166614D02*
X0472357Y0166614D01*
X0474755Y0164215D02*
X0517243Y0164215D01*
X0518531Y0161817D02*
X0477154Y0161817D01*
X0479552Y0159418D02*
X0519820Y0159418D01*
X0521109Y0157020D02*
X0506180Y0157020D01*
X0508533Y0154621D02*
X0522430Y0154621D01*
X0523987Y0152223D02*
X0509135Y0152223D01*
X0513552Y0149824D02*
X0525543Y0149824D01*
X0526994Y0147426D02*
X0515655Y0147426D01*
X0516206Y0145027D02*
X0527885Y0145027D01*
X0528775Y0142629D02*
X0520880Y0142629D01*
X0522778Y0140230D02*
X0529435Y0140230D01*
X0530081Y0137832D02*
X0523277Y0137832D01*
X0522711Y0135433D02*
X0530727Y0135433D01*
X0531373Y0133035D02*
X0520535Y0133035D01*
X0514819Y0133035D02*
X0505113Y0133035D01*
X0507512Y0130636D02*
X0531939Y0130636D01*
X0532277Y0128238D02*
X0509910Y0128238D01*
X0512309Y0125839D02*
X0532615Y0125839D01*
X0532952Y0123441D02*
X0514707Y0123441D01*
X0517106Y0121042D02*
X0533290Y0121042D01*
X0533493Y0118644D02*
X0519504Y0118644D01*
X0521903Y0116245D02*
X0533533Y0116245D01*
X0533573Y0113847D02*
X0524301Y0113847D01*
X0526700Y0111448D02*
X0533613Y0111448D01*
X0533653Y0109050D02*
X0529098Y0109050D01*
X0531497Y0106651D02*
X0533516Y0106651D01*
X0533259Y0104253D02*
X0532875Y0104253D01*
X0532930Y0101854D02*
X0533003Y0101854D01*
X0512642Y0135433D02*
X0508315Y0135433D01*
X0509308Y0137832D02*
X0512077Y0137832D01*
X0505006Y0145027D02*
X0493943Y0145027D01*
X0491545Y0147426D02*
X0500244Y0147426D01*
X0498397Y0149824D02*
X0489146Y0149824D01*
X0486748Y0152223D02*
X0497935Y0152223D01*
X0498537Y0154621D02*
X0484349Y0154621D01*
X0481951Y0157020D02*
X0500889Y0157020D01*
D24*
X0330980Y0293066D02*
X0319208Y0293066D01*
X0318775Y0292633D01*
X0296137Y0263932D02*
X0296137Y0253657D01*
X0296767Y0253027D01*
X0302436Y0249759D02*
X0290625Y0249759D01*
X0289641Y0250743D01*
X0302436Y0249759D02*
X0303420Y0250743D01*
D25*
X0161834Y0324660D02*
X0160606Y0324660D01*
X0157751Y0327515D01*
X0149877Y0327515D01*
M02*
