G75*
%MOIN*%
%OFA0B0*%
%FSLAX25Y25*%
%IPPOS*%
%LPD*%
%AMOC8*
5,1,8,0,0,1.08239X$1,22.5*
%
%ADD10C,0.00400*%
%ADD11C,0.00700*%
%ADD12C,0.02100*%
%ADD13C,0.00600*%
%ADD14C,0.00200*%
%ADD15C,0.00500*%
%ADD16C,0.00197*%
%ADD17C,0.00300*%
%ADD18C,0.00800*%
%ADD19C,0.01000*%
%ADD20C,0.00000*%
%ADD21C,0.01000*%
%ADD22C,0.00039*%
%ADD23C,0.00394*%
D10*
X0061263Y0124095D02*
X0061263Y0125483D01*
X0060800Y0125483D02*
X0062652Y0125483D01*
X0061726Y0126409D02*
X0060337Y0125020D01*
X0059725Y0125633D02*
X0058799Y0126558D01*
X0060188Y0127947D01*
X0059344Y0128328D02*
X0059113Y0128096D01*
X0058650Y0128096D01*
X0057956Y0128791D01*
X0058650Y0129485D02*
X0057261Y0128096D01*
X0057956Y0127402D01*
X0058419Y0127402D01*
X0058650Y0127634D01*
X0058650Y0128096D01*
X0059344Y0128328D02*
X0059344Y0128791D01*
X0058650Y0129485D01*
X0065135Y0134789D02*
X0066524Y0136178D01*
X0067218Y0135484D01*
X0067218Y0135021D01*
X0066756Y0134558D01*
X0066293Y0134558D01*
X0065598Y0135252D01*
X0066061Y0134789D02*
X0066061Y0133864D01*
X0066673Y0133251D02*
X0067599Y0132326D01*
X0068211Y0131713D02*
X0068906Y0131019D01*
X0069369Y0131019D01*
X0070294Y0131945D01*
X0070294Y0132408D01*
X0069600Y0133102D01*
X0068211Y0131713D01*
X0067831Y0133483D02*
X0067368Y0133946D01*
X0068062Y0134640D02*
X0066673Y0133251D01*
X0068062Y0134640D02*
X0068988Y0133714D01*
X0075080Y0139412D02*
X0075080Y0140338D01*
X0075311Y0140107D02*
X0074617Y0140801D01*
X0074154Y0140338D02*
X0075542Y0141727D01*
X0076237Y0141032D01*
X0076237Y0140569D01*
X0075774Y0140107D01*
X0075311Y0140107D01*
X0075923Y0139031D02*
X0075923Y0138568D01*
X0076386Y0138106D01*
X0076849Y0138106D01*
X0077312Y0138568D01*
X0076849Y0139031D01*
X0076849Y0139957D02*
X0075923Y0139031D01*
X0076849Y0139957D02*
X0077312Y0139957D01*
X0077775Y0139494D01*
X0077775Y0139031D01*
X0074699Y0142107D02*
X0074699Y0142570D01*
X0074236Y0143033D01*
X0073773Y0143033D01*
X0072847Y0142107D01*
X0072847Y0141645D01*
X0073310Y0141182D01*
X0073773Y0141182D01*
X0074699Y0142107D01*
X0181180Y0210392D02*
X0182489Y0210392D01*
X0183355Y0210392D02*
X0184664Y0210392D01*
X0184009Y0210392D02*
X0184009Y0212356D01*
X0183355Y0211701D01*
X0181180Y0212356D02*
X0181180Y0210392D01*
X0213461Y0205609D02*
X0215425Y0204299D01*
X0215425Y0203434D02*
X0214771Y0202779D01*
X0214771Y0203106D02*
X0214771Y0202124D01*
X0215425Y0202124D02*
X0213461Y0202124D01*
X0213461Y0203106D01*
X0213789Y0203434D01*
X0214443Y0203434D01*
X0214771Y0203106D01*
X0213461Y0204299D02*
X0215425Y0205609D01*
X0237477Y0205215D02*
X0239441Y0203906D01*
X0239441Y0205215D02*
X0237477Y0203906D01*
X0237477Y0203040D02*
X0237477Y0201731D01*
X0237477Y0202385D02*
X0239441Y0202385D01*
X0246928Y0222597D02*
X0246928Y0224561D01*
X0247909Y0224561D01*
X0248237Y0224233D01*
X0248237Y0223579D01*
X0247909Y0223251D01*
X0246928Y0223251D01*
X0247582Y0223251D02*
X0248237Y0222597D01*
X0249103Y0222597D02*
X0250412Y0222597D01*
X0251278Y0222924D02*
X0251605Y0222597D01*
X0252260Y0222597D01*
X0252587Y0222924D01*
X0252587Y0223251D01*
X0252260Y0223579D01*
X0251605Y0223579D01*
X0251278Y0223906D01*
X0251278Y0224233D01*
X0251605Y0224561D01*
X0252260Y0224561D01*
X0252587Y0224233D01*
X0253453Y0224561D02*
X0253453Y0222597D01*
X0254762Y0222597D01*
X0254107Y0223579D02*
X0253453Y0223579D01*
X0253453Y0224561D02*
X0254762Y0224561D01*
X0255628Y0224561D02*
X0256937Y0224561D01*
X0256283Y0224561D02*
X0256283Y0222597D01*
X0250412Y0224561D02*
X0249103Y0224561D01*
X0249103Y0222597D01*
X0249103Y0223579D02*
X0249757Y0223579D01*
X0276849Y0222265D02*
X0276849Y0220956D01*
X0277176Y0220628D01*
X0277831Y0220628D01*
X0278158Y0220956D01*
X0279024Y0221283D02*
X0280006Y0221283D01*
X0280333Y0221610D01*
X0280333Y0222265D01*
X0280006Y0222592D01*
X0279024Y0222592D01*
X0279024Y0220628D01*
X0279679Y0221283D02*
X0280333Y0220628D01*
X0281854Y0220628D02*
X0281854Y0221610D01*
X0282508Y0222265D01*
X0282508Y0222592D01*
X0283374Y0222265D02*
X0283374Y0221938D01*
X0283701Y0221610D01*
X0284356Y0221610D01*
X0284683Y0221283D01*
X0284683Y0220956D01*
X0284356Y0220628D01*
X0283701Y0220628D01*
X0283374Y0220956D01*
X0283374Y0222265D02*
X0283701Y0222592D01*
X0284356Y0222592D01*
X0284683Y0222265D01*
X0285549Y0222592D02*
X0286858Y0222592D01*
X0286204Y0222592D02*
X0286204Y0220628D01*
X0287724Y0220628D02*
X0287724Y0221938D01*
X0288379Y0222592D01*
X0289034Y0221938D01*
X0289034Y0220628D01*
X0289899Y0220628D02*
X0291209Y0220628D01*
X0289899Y0220628D02*
X0289899Y0222592D01*
X0289034Y0221610D02*
X0287724Y0221610D01*
X0281854Y0221610D02*
X0281199Y0222265D01*
X0281199Y0222592D01*
X0278158Y0222265D02*
X0277831Y0222592D01*
X0277176Y0222592D01*
X0276849Y0222265D01*
X0222874Y0147597D02*
X0223106Y0147366D01*
X0223106Y0146903D01*
X0222411Y0146209D01*
X0221717Y0146903D02*
X0222411Y0147597D01*
X0222874Y0147597D01*
X0223106Y0146903D02*
X0223568Y0146903D01*
X0223800Y0146672D01*
X0223800Y0146209D01*
X0223106Y0145514D01*
X0221717Y0146903D01*
X0229197Y0139423D02*
X0229891Y0140117D01*
X0230354Y0140117D01*
X0230817Y0139654D01*
X0230817Y0139191D01*
X0230123Y0138497D01*
X0230586Y0138960D02*
X0231512Y0138960D01*
X0232124Y0139572D02*
X0233050Y0140498D01*
X0233662Y0141110D02*
X0234356Y0141804D01*
X0234356Y0142267D01*
X0233430Y0143193D01*
X0232968Y0143193D01*
X0232273Y0142499D01*
X0233662Y0141110D01*
X0231892Y0140729D02*
X0231430Y0140266D01*
X0232124Y0139572D02*
X0230735Y0140961D01*
X0231661Y0141886D01*
X0229197Y0139423D02*
X0230586Y0138034D01*
X0236515Y0132568D02*
X0236515Y0132105D01*
X0237441Y0131179D01*
X0237904Y0131179D01*
X0238367Y0131642D01*
X0238367Y0132105D01*
X0237441Y0133030D01*
X0236978Y0133030D01*
X0236515Y0132568D01*
X0237822Y0133874D02*
X0238516Y0134568D01*
X0238979Y0134568D01*
X0239442Y0134106D01*
X0239442Y0133643D01*
X0238748Y0132948D01*
X0239210Y0132485D02*
X0237822Y0133874D01*
X0239210Y0133411D02*
X0240136Y0133411D01*
X0240517Y0134255D02*
X0240980Y0134255D01*
X0241443Y0134718D01*
X0241443Y0135181D01*
X0240980Y0135644D01*
X0240517Y0135181D01*
X0240517Y0136106D02*
X0240054Y0136106D01*
X0239591Y0135644D01*
X0239591Y0135181D01*
X0240517Y0134255D01*
X0279605Y0105336D02*
X0279605Y0105008D01*
X0279932Y0104681D01*
X0280587Y0104681D01*
X0280914Y0104354D01*
X0280914Y0104027D01*
X0280587Y0103699D01*
X0279932Y0103699D01*
X0279605Y0104027D01*
X0279605Y0105336D02*
X0279932Y0105663D01*
X0280587Y0105663D01*
X0280914Y0105336D01*
X0281780Y0105663D02*
X0281780Y0103699D01*
X0283089Y0103699D01*
X0283955Y0103699D02*
X0283955Y0105663D01*
X0284937Y0105663D01*
X0285264Y0105336D01*
X0285264Y0104681D01*
X0284937Y0104354D01*
X0283955Y0104354D01*
X0284610Y0104354D02*
X0285264Y0103699D01*
X0286130Y0104354D02*
X0286785Y0103699D01*
X0287439Y0104354D01*
X0287439Y0105663D01*
X0288305Y0105336D02*
X0288305Y0104027D01*
X0288632Y0103699D01*
X0289287Y0103699D01*
X0289614Y0104027D01*
X0289614Y0105336D01*
X0289287Y0105663D01*
X0288632Y0105663D01*
X0288305Y0105336D01*
X0286130Y0105663D02*
X0286130Y0104354D01*
X0283089Y0105663D02*
X0281780Y0105663D01*
X0281780Y0104681D02*
X0282434Y0104681D01*
X0292655Y0103699D02*
X0292655Y0105663D01*
X0293310Y0105008D01*
X0293964Y0105663D01*
X0293964Y0103699D01*
X0294830Y0104027D02*
X0295158Y0103699D01*
X0295812Y0103699D01*
X0296140Y0104027D01*
X0296140Y0105663D01*
X0297005Y0105663D02*
X0298315Y0103699D01*
X0297005Y0103699D02*
X0298315Y0105663D01*
X0294830Y0105663D02*
X0294830Y0104027D01*
X0336627Y0135345D02*
X0337090Y0134882D01*
X0337553Y0134882D01*
X0338478Y0135808D01*
X0338478Y0136271D01*
X0338015Y0136734D01*
X0337553Y0136734D01*
X0336627Y0135808D01*
X0336627Y0135345D01*
X0337933Y0134039D02*
X0339322Y0135427D01*
X0340016Y0134733D01*
X0340016Y0134270D01*
X0339553Y0133807D01*
X0339091Y0133807D01*
X0338396Y0134502D01*
X0338859Y0134039D02*
X0338859Y0133113D01*
X0339703Y0132732D02*
X0339703Y0132269D01*
X0340166Y0131806D01*
X0340629Y0131806D01*
X0341091Y0132269D01*
X0340629Y0132732D01*
X0341554Y0132732D02*
X0341554Y0133195D01*
X0341091Y0133658D01*
X0340629Y0133658D01*
X0339703Y0132732D01*
X0346558Y0139981D02*
X0347947Y0141370D01*
X0348641Y0140675D01*
X0348641Y0140213D01*
X0348178Y0139750D01*
X0347715Y0139750D01*
X0347021Y0140444D01*
X0347484Y0139981D02*
X0347484Y0139055D01*
X0400798Y0222991D02*
X0400471Y0223318D01*
X0400798Y0222991D02*
X0401453Y0222991D01*
X0401780Y0223318D01*
X0401780Y0223645D01*
X0401453Y0223972D01*
X0401125Y0223972D01*
X0401453Y0223972D02*
X0401780Y0224300D01*
X0401780Y0224627D01*
X0401453Y0224954D01*
X0400798Y0224954D01*
X0400471Y0224627D01*
X0402646Y0223318D02*
X0402973Y0223318D01*
X0402973Y0222991D01*
X0402646Y0222991D01*
X0402646Y0223318D01*
X0403733Y0223318D02*
X0404061Y0222991D01*
X0404715Y0222991D01*
X0405043Y0223318D01*
X0405043Y0223645D01*
X0404715Y0223972D01*
X0404388Y0223972D01*
X0404715Y0223972D02*
X0405043Y0224300D01*
X0405043Y0224627D01*
X0404715Y0224954D01*
X0404061Y0224954D01*
X0403733Y0224627D01*
X0405909Y0224954D02*
X0405909Y0223645D01*
X0406563Y0222991D01*
X0407218Y0223645D01*
X0407218Y0224954D01*
X0410259Y0224954D02*
X0410259Y0222991D01*
X0410259Y0223645D02*
X0411241Y0223645D01*
X0411568Y0223972D01*
X0411568Y0224627D01*
X0411241Y0224954D01*
X0410259Y0224954D01*
X0410913Y0223645D02*
X0411568Y0222991D01*
X0412434Y0222991D02*
X0413743Y0222991D01*
X0414609Y0223318D02*
X0414609Y0224627D01*
X0414936Y0224954D01*
X0415591Y0224954D01*
X0415918Y0224627D01*
X0415918Y0223972D02*
X0415264Y0223972D01*
X0415918Y0223972D02*
X0415918Y0223318D01*
X0415591Y0222991D01*
X0414936Y0222991D01*
X0414609Y0223318D01*
X0413088Y0223972D02*
X0412434Y0223972D01*
X0412434Y0222991D02*
X0412434Y0224954D01*
X0413743Y0224954D01*
X0422518Y0224167D02*
X0422518Y0222858D01*
X0423173Y0222203D01*
X0423827Y0222858D01*
X0423827Y0224167D01*
X0424693Y0224167D02*
X0425348Y0223512D01*
X0426002Y0224167D01*
X0426002Y0222203D01*
X0426868Y0222530D02*
X0427196Y0222203D01*
X0427850Y0222203D01*
X0428178Y0222530D01*
X0428178Y0223840D01*
X0427850Y0224167D01*
X0427196Y0224167D01*
X0426868Y0223840D01*
X0426868Y0222530D01*
X0424693Y0222203D02*
X0424693Y0224167D01*
X0429043Y0224167D02*
X0430353Y0224167D01*
X0429698Y0224167D02*
X0429698Y0222203D01*
X0433394Y0222530D02*
X0433721Y0222203D01*
X0434048Y0222203D01*
X0434375Y0222530D01*
X0434375Y0224167D01*
X0434048Y0224167D02*
X0434703Y0224167D01*
X0435569Y0224167D02*
X0435569Y0222530D01*
X0435896Y0222203D01*
X0436551Y0222203D01*
X0436878Y0222530D01*
X0436878Y0224167D01*
X0437744Y0224167D02*
X0438398Y0223512D01*
X0439053Y0224167D01*
X0439053Y0222203D01*
X0439919Y0222203D02*
X0439919Y0224167D01*
X0440901Y0224167D01*
X0441228Y0223840D01*
X0441228Y0223185D01*
X0440901Y0222858D01*
X0439919Y0222858D01*
X0437744Y0222203D02*
X0437744Y0224167D01*
X0493778Y0186765D02*
X0493778Y0185784D01*
X0494433Y0186111D01*
X0494760Y0186111D01*
X0495087Y0185784D01*
X0495087Y0185129D01*
X0494760Y0184802D01*
X0494105Y0184802D01*
X0493778Y0185129D01*
X0493778Y0186765D02*
X0495087Y0186765D01*
X0495953Y0186765D02*
X0495953Y0185456D01*
X0496608Y0184802D01*
X0497262Y0185456D01*
X0497262Y0186765D01*
X0496841Y0167474D02*
X0497169Y0167147D01*
X0497169Y0166819D01*
X0496841Y0166492D01*
X0497169Y0166165D01*
X0497169Y0165838D01*
X0496841Y0165510D01*
X0496187Y0165510D01*
X0495859Y0165838D01*
X0495099Y0165838D02*
X0495099Y0165510D01*
X0494772Y0165510D01*
X0494772Y0165838D01*
X0495099Y0165838D01*
X0493906Y0165838D02*
X0493579Y0165510D01*
X0492924Y0165510D01*
X0492597Y0165838D01*
X0493251Y0166492D02*
X0493579Y0166492D01*
X0493906Y0166165D01*
X0493906Y0165838D01*
X0493579Y0166492D02*
X0493906Y0166819D01*
X0493906Y0167147D01*
X0493579Y0167474D01*
X0492924Y0167474D01*
X0492597Y0167147D01*
X0495859Y0167147D02*
X0496187Y0167474D01*
X0496841Y0167474D01*
X0496841Y0166492D02*
X0496514Y0166492D01*
X0498035Y0166165D02*
X0498689Y0165510D01*
X0499344Y0166165D01*
X0499344Y0167474D01*
X0498035Y0167474D02*
X0498035Y0166165D01*
X0497604Y0146736D02*
X0497141Y0146736D01*
X0496678Y0146273D01*
X0496678Y0145811D01*
X0497604Y0144885D01*
X0498067Y0144885D01*
X0498529Y0145348D01*
X0498529Y0145811D01*
X0498067Y0146273D01*
X0497604Y0145811D01*
X0496529Y0144735D02*
X0496529Y0144273D01*
X0495834Y0143578D01*
X0496297Y0143115D02*
X0494908Y0144504D01*
X0495603Y0145198D01*
X0496066Y0145198D01*
X0496529Y0144735D01*
X0496297Y0144041D02*
X0497223Y0144041D01*
X0495453Y0142735D02*
X0494528Y0143660D01*
X0494065Y0143660D01*
X0493602Y0143197D01*
X0493602Y0142735D01*
X0494528Y0141809D01*
X0494990Y0141809D01*
X0495453Y0142272D01*
X0495453Y0142735D01*
X0500851Y0136667D02*
X0501545Y0137361D01*
X0502008Y0137361D01*
X0502471Y0136898D01*
X0502471Y0136435D01*
X0501776Y0135741D01*
X0502239Y0136204D02*
X0503165Y0136204D01*
X0503777Y0136816D02*
X0504703Y0137742D01*
X0505315Y0138354D02*
X0503927Y0139743D01*
X0504621Y0140437D01*
X0505084Y0140437D01*
X0506010Y0139511D01*
X0506010Y0139048D01*
X0505315Y0138354D01*
X0503546Y0137973D02*
X0503083Y0137510D01*
X0503777Y0136816D02*
X0502389Y0138205D01*
X0503314Y0139131D01*
X0500851Y0136667D02*
X0502239Y0135278D01*
X0508725Y0129974D02*
X0510113Y0128585D01*
X0510808Y0129280D01*
X0510808Y0129742D01*
X0510576Y0129974D01*
X0510113Y0129974D01*
X0509419Y0129280D01*
X0508725Y0129974D02*
X0509419Y0130668D01*
X0509882Y0130668D01*
X0510113Y0130437D01*
X0510113Y0129974D01*
X0510263Y0131512D02*
X0511651Y0130123D01*
X0512577Y0131049D01*
X0513189Y0131661D02*
X0511801Y0133050D01*
X0512727Y0132587D02*
X0514115Y0132587D01*
X0512727Y0132124D02*
X0512727Y0133976D01*
X0420970Y0041480D02*
X0420045Y0042406D01*
X0419582Y0042406D01*
X0418887Y0041711D01*
X0420276Y0040323D01*
X0420970Y0041017D01*
X0420970Y0041480D01*
X0419664Y0039710D02*
X0418738Y0038785D01*
X0417349Y0040173D01*
X0418275Y0041099D01*
X0418507Y0039942D02*
X0418044Y0039479D01*
X0417431Y0038867D02*
X0417431Y0038404D01*
X0416737Y0037709D01*
X0417200Y0037247D02*
X0415811Y0038635D01*
X0416506Y0039330D01*
X0416969Y0039330D01*
X0417431Y0038867D01*
X0417200Y0038172D02*
X0418126Y0038172D01*
X0423986Y0032243D02*
X0424449Y0032243D01*
X0424680Y0032012D01*
X0424680Y0031549D01*
X0423986Y0030854D01*
X0424680Y0030160D02*
X0425375Y0030854D01*
X0425375Y0031317D01*
X0425143Y0031549D01*
X0424680Y0031549D01*
X0423986Y0032243D02*
X0423292Y0031549D01*
X0424680Y0030160D01*
X0426218Y0031698D02*
X0427144Y0032624D01*
X0427756Y0033236D02*
X0426368Y0034625D01*
X0427293Y0034162D02*
X0428682Y0034162D01*
X0427293Y0033699D02*
X0427293Y0035550D01*
X0424830Y0033087D02*
X0426218Y0031698D01*
X0411651Y0045871D02*
X0410263Y0047260D01*
X0410957Y0047954D01*
X0411420Y0047954D01*
X0411883Y0047491D01*
X0411883Y0047028D01*
X0411189Y0046334D01*
X0411651Y0046797D02*
X0412577Y0046797D01*
X0412958Y0047641D02*
X0413421Y0047641D01*
X0413884Y0048104D01*
X0413884Y0048566D01*
X0413421Y0049029D01*
X0412958Y0048566D01*
X0412958Y0047641D02*
X0412032Y0048566D01*
X0412032Y0049029D01*
X0412495Y0049492D01*
X0412958Y0049492D01*
X0409882Y0046416D02*
X0409419Y0046416D01*
X0408956Y0045953D01*
X0408956Y0045490D01*
X0409882Y0044565D01*
X0410345Y0044565D01*
X0410808Y0045028D01*
X0410808Y0045490D01*
X0409882Y0046416D01*
X0169507Y0046905D02*
X0169507Y0047368D01*
X0169044Y0047831D01*
X0168581Y0047831D01*
X0167656Y0046905D01*
X0167656Y0046443D01*
X0168118Y0045980D01*
X0168581Y0045980D01*
X0169044Y0046443D01*
X0168581Y0046905D01*
X0167506Y0047981D02*
X0167043Y0047981D01*
X0166349Y0048675D01*
X0166812Y0048212D02*
X0166812Y0047286D01*
X0167506Y0047981D02*
X0167969Y0048443D01*
X0167969Y0048906D01*
X0167275Y0049601D01*
X0165886Y0048212D01*
X0165505Y0049056D02*
X0166431Y0049981D01*
X0166431Y0050444D01*
X0165968Y0050907D01*
X0165505Y0050907D01*
X0164579Y0049981D01*
X0164579Y0049519D01*
X0165042Y0049056D01*
X0165505Y0049056D01*
X0159794Y0042514D02*
X0158406Y0041125D01*
X0159332Y0040200D01*
X0159944Y0039587D02*
X0160638Y0038893D01*
X0161101Y0038893D01*
X0162027Y0039819D01*
X0162027Y0040282D01*
X0161332Y0040976D01*
X0159944Y0039587D01*
X0159563Y0041357D02*
X0159100Y0041820D01*
X0158488Y0042432D02*
X0158025Y0042432D01*
X0157331Y0043126D01*
X0157794Y0042663D02*
X0157794Y0041738D01*
X0158488Y0042432D02*
X0158951Y0042895D01*
X0158951Y0043358D01*
X0158256Y0044052D01*
X0156868Y0042663D01*
X0159794Y0042514D02*
X0160720Y0041588D01*
X0152708Y0036215D02*
X0151319Y0034826D01*
X0152245Y0033900D01*
X0152857Y0033288D02*
X0154246Y0034677D01*
X0153783Y0033751D02*
X0153783Y0032362D01*
X0153320Y0033751D02*
X0155172Y0033751D01*
X0151864Y0036596D02*
X0151633Y0036364D01*
X0151170Y0036364D01*
X0150475Y0037059D01*
X0151170Y0037753D02*
X0151864Y0037059D01*
X0151864Y0036596D01*
X0151170Y0036364D02*
X0151170Y0035901D01*
X0150938Y0035670D01*
X0150475Y0035670D01*
X0149781Y0036364D01*
X0151170Y0037753D01*
X0151504Y0247400D02*
X0151504Y0249364D01*
X0152158Y0248709D01*
X0152813Y0249364D01*
X0152813Y0247400D01*
X0153679Y0247400D02*
X0153679Y0249364D01*
X0154661Y0249364D01*
X0154988Y0249037D01*
X0154988Y0248382D01*
X0154661Y0248055D01*
X0153679Y0248055D01*
X0150638Y0247727D02*
X0150638Y0249364D01*
X0149329Y0249364D02*
X0149329Y0247727D01*
X0149656Y0247400D01*
X0150311Y0247400D01*
X0150638Y0247727D01*
X0148136Y0247727D02*
X0148136Y0249364D01*
X0148463Y0249364D02*
X0147808Y0249364D01*
X0148136Y0247727D02*
X0147808Y0247400D01*
X0147481Y0247400D01*
X0147154Y0247727D01*
X0144113Y0248055D02*
X0144113Y0249364D01*
X0144113Y0248055D02*
X0143458Y0247400D01*
X0142803Y0248055D01*
X0142803Y0249364D01*
X0141938Y0249364D02*
X0140628Y0249364D01*
X0140628Y0248382D01*
X0141283Y0248709D01*
X0141610Y0248709D01*
X0141938Y0248382D01*
X0141938Y0247727D01*
X0141610Y0247400D01*
X0140956Y0247400D01*
X0140628Y0247727D01*
X0171271Y0281652D02*
X0170943Y0281979D01*
X0171271Y0281652D02*
X0171925Y0281652D01*
X0172253Y0281979D01*
X0172253Y0282634D01*
X0171925Y0282961D01*
X0171598Y0282961D01*
X0170943Y0282634D01*
X0170943Y0283616D01*
X0172253Y0283616D01*
X0173118Y0283616D02*
X0173118Y0282307D01*
X0173773Y0281652D01*
X0174428Y0282307D01*
X0174428Y0283616D01*
X0177469Y0283616D02*
X0177469Y0281652D01*
X0177469Y0282307D02*
X0178451Y0282307D01*
X0178778Y0282634D01*
X0178778Y0283289D01*
X0178451Y0283616D01*
X0177469Y0283616D01*
X0178123Y0282307D02*
X0178778Y0281652D01*
X0179644Y0281652D02*
X0180953Y0281652D01*
X0181819Y0281979D02*
X0181819Y0283289D01*
X0182146Y0283616D01*
X0182801Y0283616D01*
X0183128Y0283289D01*
X0183128Y0282634D02*
X0182473Y0282634D01*
X0183128Y0282634D02*
X0183128Y0281979D01*
X0182801Y0281652D01*
X0182146Y0281652D01*
X0181819Y0281979D01*
X0180298Y0282634D02*
X0179644Y0282634D01*
X0179644Y0283616D02*
X0179644Y0281652D01*
X0179644Y0283616D02*
X0180953Y0283616D01*
X0183994Y0283616D02*
X0183994Y0281979D01*
X0184321Y0281652D01*
X0184976Y0281652D01*
X0185303Y0281979D01*
X0185303Y0283616D01*
X0186169Y0283616D02*
X0186169Y0281652D01*
X0187478Y0281652D01*
X0188344Y0281652D02*
X0188344Y0282961D01*
X0188999Y0283616D01*
X0189653Y0282961D01*
X0189653Y0281652D01*
X0189653Y0282634D02*
X0188344Y0282634D01*
X0190519Y0283616D02*
X0191828Y0283616D01*
X0191174Y0283616D02*
X0191174Y0281652D01*
X0192694Y0281979D02*
X0193021Y0281652D01*
X0193676Y0281652D01*
X0194003Y0281979D01*
X0194003Y0283289D01*
X0193676Y0283616D01*
X0193021Y0283616D01*
X0192694Y0283289D01*
X0192694Y0281979D01*
X0194869Y0281652D02*
X0194869Y0283616D01*
X0195851Y0283616D01*
X0196179Y0283289D01*
X0196179Y0282634D01*
X0195851Y0282307D01*
X0194869Y0282307D01*
X0195524Y0282307D02*
X0196179Y0281652D01*
X0204408Y0295431D02*
X0204408Y0297395D01*
X0205062Y0296741D01*
X0205717Y0297395D01*
X0205717Y0295431D01*
X0206583Y0295431D02*
X0207238Y0295431D01*
X0206910Y0295431D02*
X0206910Y0297395D01*
X0206583Y0297395D02*
X0207238Y0297395D01*
X0208033Y0297068D02*
X0208033Y0296741D01*
X0208360Y0296413D01*
X0209015Y0296413D01*
X0209342Y0296086D01*
X0209342Y0295759D01*
X0209015Y0295431D01*
X0208360Y0295431D01*
X0208033Y0295759D01*
X0208033Y0297068D02*
X0208360Y0297395D01*
X0209015Y0297395D01*
X0209342Y0297068D01*
X0210208Y0297068D02*
X0210208Y0295759D01*
X0210535Y0295431D01*
X0211190Y0295431D01*
X0211517Y0295759D01*
X0211517Y0297068D01*
X0211190Y0297395D01*
X0210535Y0297395D01*
X0210208Y0297068D01*
X0210067Y0306061D02*
X0209085Y0307043D01*
X0208758Y0306716D02*
X0210067Y0308025D01*
X0208758Y0308025D02*
X0208758Y0306061D01*
X0207892Y0306389D02*
X0207565Y0306061D01*
X0206910Y0306061D01*
X0206583Y0306389D01*
X0206583Y0307698D01*
X0206910Y0308025D01*
X0207565Y0308025D01*
X0207892Y0307698D01*
X0205717Y0307698D02*
X0205390Y0308025D01*
X0204735Y0308025D01*
X0204408Y0307698D01*
X0204408Y0307371D01*
X0204735Y0307043D01*
X0205390Y0307043D01*
X0205717Y0306716D01*
X0205717Y0306389D01*
X0205390Y0306061D01*
X0204735Y0306061D01*
X0204408Y0306389D01*
X0204408Y0315510D02*
X0204408Y0317474D01*
X0205390Y0317474D01*
X0205717Y0317147D01*
X0205717Y0316492D01*
X0205390Y0316165D01*
X0204408Y0316165D01*
X0205062Y0316165D02*
X0205717Y0315510D01*
X0206583Y0315838D02*
X0206910Y0315510D01*
X0207565Y0315510D01*
X0207892Y0315838D01*
X0207892Y0316165D01*
X0207565Y0316492D01*
X0206910Y0316492D01*
X0206583Y0316819D01*
X0206583Y0317147D01*
X0206910Y0317474D01*
X0207565Y0317474D01*
X0207892Y0317147D01*
X0208758Y0317474D02*
X0210067Y0317474D01*
X0209413Y0317474D02*
X0209413Y0315510D01*
X0196350Y0324760D02*
X0196023Y0324433D01*
X0195041Y0324433D01*
X0195041Y0323778D02*
X0195041Y0325742D01*
X0196023Y0325742D01*
X0196350Y0325415D01*
X0196350Y0324760D01*
X0194175Y0324433D02*
X0194175Y0324105D01*
X0193848Y0323778D01*
X0193193Y0323778D01*
X0192866Y0324105D01*
X0193193Y0324760D02*
X0193848Y0324760D01*
X0194175Y0324433D01*
X0194175Y0325415D02*
X0193848Y0325742D01*
X0193193Y0325742D01*
X0192866Y0325415D01*
X0192866Y0325087D01*
X0193193Y0324760D01*
X0192070Y0325742D02*
X0191416Y0325742D01*
X0191743Y0325742D02*
X0191743Y0323778D01*
X0191416Y0323778D02*
X0192070Y0323778D01*
X0181327Y0316753D02*
X0181000Y0317080D01*
X0180018Y0317080D01*
X0180018Y0315117D01*
X0181000Y0315117D01*
X0181327Y0315444D01*
X0181327Y0316753D01*
X0179152Y0317080D02*
X0179152Y0315117D01*
X0177843Y0317080D01*
X0177843Y0315117D01*
X0176977Y0315444D02*
X0176977Y0316098D01*
X0176322Y0316098D01*
X0175668Y0315444D02*
X0175995Y0315117D01*
X0176650Y0315117D01*
X0176977Y0315444D01*
X0176977Y0316753D02*
X0176650Y0317080D01*
X0175995Y0317080D01*
X0175668Y0316753D01*
X0175668Y0315444D01*
X0170688Y0316197D02*
X0170688Y0316660D01*
X0169994Y0317354D01*
X0168605Y0315965D01*
X0169300Y0315271D01*
X0169762Y0315271D01*
X0170688Y0316197D01*
X0169382Y0317966D02*
X0168456Y0318892D01*
X0167067Y0317503D01*
X0167993Y0316578D01*
X0168224Y0317735D02*
X0167762Y0318198D01*
X0167149Y0318810D02*
X0166686Y0318810D01*
X0165992Y0319504D01*
X0165529Y0319041D02*
X0166918Y0320430D01*
X0167612Y0319736D01*
X0167612Y0319273D01*
X0167149Y0318810D01*
X0166455Y0319041D02*
X0166455Y0318116D01*
X0160976Y0312593D02*
X0159587Y0311204D01*
X0160513Y0310278D01*
X0161125Y0309666D02*
X0162514Y0311055D01*
X0162051Y0310129D02*
X0162051Y0308740D01*
X0161588Y0310129D02*
X0163439Y0310129D01*
X0160132Y0312974D02*
X0159900Y0312742D01*
X0159438Y0312742D01*
X0158743Y0313436D01*
X0158049Y0312742D02*
X0158743Y0312048D01*
X0159206Y0312048D01*
X0159438Y0312279D01*
X0159438Y0312742D01*
X0160132Y0312974D02*
X0160132Y0313436D01*
X0159438Y0314131D01*
X0158049Y0312742D01*
X0174487Y0307632D02*
X0174487Y0305668D01*
X0175796Y0305668D02*
X0175796Y0307632D01*
X0175141Y0306977D01*
X0174487Y0307632D01*
X0176662Y0307304D02*
X0176662Y0305995D01*
X0176989Y0305668D01*
X0177644Y0305668D01*
X0177971Y0305995D01*
X0177971Y0307304D01*
X0177644Y0307632D01*
X0176989Y0307632D01*
X0176662Y0307304D01*
X0178837Y0307304D02*
X0178837Y0306977D01*
X0179164Y0306650D01*
X0179819Y0306650D01*
X0180146Y0306322D01*
X0180146Y0305995D01*
X0179819Y0305668D01*
X0179164Y0305668D01*
X0178837Y0305995D01*
X0178837Y0307304D02*
X0179164Y0307632D01*
X0179819Y0307632D01*
X0180146Y0307304D01*
X0181012Y0307632D02*
X0181666Y0307632D01*
X0181339Y0307632D02*
X0181339Y0305668D01*
X0181012Y0305668D02*
X0181666Y0305668D01*
X0182302Y0297395D02*
X0182302Y0296086D01*
X0181647Y0295431D01*
X0180992Y0296086D01*
X0180992Y0297395D01*
X0180127Y0297395D02*
X0178817Y0297395D01*
X0178817Y0296413D01*
X0179472Y0296741D01*
X0179799Y0296741D01*
X0180127Y0296413D01*
X0180127Y0295759D01*
X0179799Y0295431D01*
X0179145Y0295431D01*
X0178817Y0295759D01*
X0177636Y0322751D02*
X0178099Y0323214D01*
X0177636Y0323677D01*
X0176711Y0323677D02*
X0176711Y0323214D01*
X0177174Y0322751D01*
X0177636Y0322751D01*
X0176711Y0323677D02*
X0177636Y0324603D01*
X0178099Y0324603D01*
X0178562Y0324140D01*
X0178562Y0323677D01*
X0177024Y0325215D02*
X0176561Y0324752D01*
X0176098Y0324752D01*
X0175404Y0325447D01*
X0174941Y0324984D02*
X0176330Y0326372D01*
X0177024Y0325678D01*
X0177024Y0325215D01*
X0175867Y0324984D02*
X0175867Y0324058D01*
X0174560Y0325827D02*
X0175486Y0326753D01*
X0175486Y0327216D01*
X0175023Y0327679D01*
X0174560Y0327679D01*
X0173635Y0326753D01*
X0173635Y0326290D01*
X0174098Y0325827D01*
X0174560Y0325827D01*
X0109913Y0290668D02*
X0109913Y0289358D01*
X0107950Y0289358D01*
X0107950Y0290668D01*
X0108931Y0290013D02*
X0108931Y0289358D01*
X0109259Y0288492D02*
X0109586Y0288492D01*
X0109913Y0288165D01*
X0109913Y0287511D01*
X0109586Y0287183D01*
X0108931Y0287511D02*
X0108931Y0288165D01*
X0109259Y0288492D01*
X0108277Y0288492D02*
X0107950Y0288165D01*
X0107950Y0287511D01*
X0108277Y0287183D01*
X0108604Y0287183D01*
X0108931Y0287511D01*
X0109586Y0286317D02*
X0107950Y0286317D01*
X0107950Y0285008D02*
X0109586Y0285008D01*
X0109913Y0285335D01*
X0109913Y0285990D01*
X0109586Y0286317D01*
X0107950Y0284142D02*
X0107950Y0282833D01*
X0109913Y0282833D01*
X0108931Y0282833D02*
X0108931Y0283488D01*
X0075305Y0380785D02*
X0075768Y0381248D01*
X0075768Y0381711D01*
X0074843Y0382637D01*
X0074380Y0382637D01*
X0073917Y0382174D01*
X0073917Y0381711D01*
X0074843Y0380785D01*
X0075305Y0380785D01*
X0076612Y0382092D02*
X0075223Y0383480D01*
X0075918Y0384175D01*
X0076381Y0384175D01*
X0076843Y0383712D01*
X0076843Y0383249D01*
X0076149Y0382555D01*
X0076612Y0383017D02*
X0077538Y0383017D01*
X0077919Y0383861D02*
X0076993Y0384787D01*
X0076993Y0385250D01*
X0077456Y0385713D01*
X0077919Y0385713D01*
X0078381Y0385250D02*
X0077919Y0384787D01*
X0078381Y0385250D02*
X0078844Y0384787D01*
X0078844Y0384324D01*
X0078381Y0383861D01*
X0077919Y0383861D01*
X0070670Y0391110D02*
X0071364Y0391804D01*
X0071364Y0392267D01*
X0070438Y0393193D01*
X0069975Y0393193D01*
X0069281Y0392499D01*
X0070670Y0391110D01*
X0070057Y0390498D02*
X0069132Y0389572D01*
X0067743Y0390961D01*
X0068669Y0391886D01*
X0068900Y0390729D02*
X0068437Y0390266D01*
X0067825Y0389654D02*
X0067825Y0389191D01*
X0067131Y0388497D01*
X0067594Y0388960D02*
X0068519Y0388960D01*
X0067825Y0389654D02*
X0067362Y0390117D01*
X0066899Y0390117D01*
X0066205Y0389423D01*
X0067594Y0388034D01*
X0060901Y0395121D02*
X0061595Y0395815D01*
X0061595Y0396278D01*
X0061364Y0396509D01*
X0060901Y0396509D01*
X0060206Y0395815D01*
X0059512Y0396509D02*
X0060206Y0397204D01*
X0060669Y0397204D01*
X0060901Y0396972D01*
X0060901Y0396509D01*
X0060901Y0395121D02*
X0059512Y0396509D01*
X0061050Y0398047D02*
X0062439Y0396659D01*
X0063365Y0397584D01*
X0063977Y0398197D02*
X0062588Y0399585D01*
X0063514Y0399122D02*
X0064903Y0399122D01*
X0063514Y0398660D02*
X0063514Y0400511D01*
X0158725Y0482336D02*
X0159419Y0483030D01*
X0159882Y0483030D01*
X0160345Y0482568D01*
X0160345Y0482105D01*
X0159650Y0481410D01*
X0160113Y0480947D02*
X0158725Y0482336D01*
X0160113Y0481873D02*
X0161039Y0481873D01*
X0161651Y0482485D02*
X0162577Y0483411D01*
X0163189Y0484023D02*
X0163884Y0484718D01*
X0163884Y0485181D01*
X0162958Y0486106D01*
X0162495Y0486106D01*
X0161801Y0485412D01*
X0163189Y0484023D01*
X0161420Y0483643D02*
X0160957Y0483180D01*
X0160263Y0483874D02*
X0161651Y0482485D01*
X0160263Y0483874D02*
X0161189Y0484800D01*
X0155884Y0490892D02*
X0154958Y0489966D01*
X0153570Y0491354D01*
X0153189Y0490511D02*
X0153420Y0490279D01*
X0153420Y0489816D01*
X0152726Y0489122D01*
X0152032Y0489816D02*
X0152726Y0490511D01*
X0153189Y0490511D01*
X0153420Y0489816D02*
X0153883Y0489816D01*
X0154115Y0489585D01*
X0154115Y0489122D01*
X0153420Y0488428D01*
X0152032Y0489816D01*
X0155108Y0492892D02*
X0156497Y0491504D01*
X0156034Y0491967D02*
X0156034Y0493818D01*
X0156034Y0492430D02*
X0157422Y0492430D01*
X0169188Y0478232D02*
X0168725Y0477770D01*
X0168725Y0477307D01*
X0169651Y0476381D01*
X0170114Y0476381D01*
X0170577Y0476844D01*
X0170577Y0477307D01*
X0170114Y0477770D01*
X0169651Y0477307D01*
X0169651Y0478232D02*
X0169188Y0478232D01*
X0168113Y0476694D02*
X0168576Y0476232D01*
X0168576Y0475769D01*
X0167881Y0475074D01*
X0168344Y0474611D02*
X0166956Y0476000D01*
X0167650Y0476694D01*
X0168113Y0476694D01*
X0168344Y0475537D02*
X0169270Y0475537D01*
X0167501Y0474231D02*
X0166575Y0475156D01*
X0166112Y0475156D01*
X0165649Y0474694D01*
X0165649Y0474231D01*
X0166575Y0473305D01*
X0167038Y0473305D01*
X0167501Y0473768D01*
X0167501Y0474231D01*
X0276322Y0312750D02*
X0276977Y0312095D01*
X0276977Y0310786D01*
X0276977Y0311768D02*
X0275668Y0311768D01*
X0275668Y0312095D02*
X0276322Y0312750D01*
X0275668Y0312095D02*
X0275668Y0310786D01*
X0278497Y0310786D02*
X0278497Y0312750D01*
X0277843Y0312750D02*
X0279152Y0312750D01*
X0280018Y0312750D02*
X0280673Y0312095D01*
X0281327Y0312750D01*
X0281327Y0310786D01*
X0282193Y0310786D02*
X0283502Y0310786D01*
X0284368Y0311113D02*
X0284695Y0310786D01*
X0285350Y0310786D01*
X0285677Y0311113D01*
X0285677Y0311768D01*
X0285023Y0311768D01*
X0285677Y0312422D02*
X0285350Y0312750D01*
X0284695Y0312750D01*
X0284368Y0312422D01*
X0284368Y0311113D01*
X0282848Y0311768D02*
X0282193Y0311768D01*
X0282193Y0312750D02*
X0282193Y0310786D01*
X0282193Y0312750D02*
X0283502Y0312750D01*
X0286543Y0312095D02*
X0286543Y0310786D01*
X0286543Y0311768D02*
X0287852Y0311768D01*
X0287852Y0312095D02*
X0287852Y0310786D01*
X0287852Y0312095D02*
X0287198Y0312750D01*
X0286543Y0312095D01*
X0290893Y0312422D02*
X0291221Y0312750D01*
X0291875Y0312750D01*
X0292203Y0312422D01*
X0292203Y0312095D01*
X0291875Y0311768D01*
X0292203Y0311440D01*
X0292203Y0311113D01*
X0291875Y0310786D01*
X0291221Y0310786D01*
X0290893Y0311113D01*
X0291548Y0311768D02*
X0291875Y0311768D01*
X0293068Y0312422D02*
X0293396Y0312750D01*
X0294050Y0312750D01*
X0294378Y0312422D01*
X0294378Y0312095D01*
X0293068Y0310786D01*
X0294378Y0310786D01*
X0295243Y0311113D02*
X0295571Y0310786D01*
X0296225Y0310786D01*
X0296553Y0311113D01*
X0296553Y0312750D01*
X0297419Y0311768D02*
X0298728Y0311768D01*
X0298401Y0312750D02*
X0297419Y0311768D01*
X0298401Y0310786D02*
X0298401Y0312750D01*
X0295243Y0312750D02*
X0295243Y0311113D01*
X0280018Y0310786D02*
X0280018Y0312750D01*
X0401082Y0322656D02*
X0402008Y0321730D01*
X0402471Y0321730D01*
X0402934Y0322193D01*
X0402934Y0322656D01*
X0402008Y0323582D01*
X0401545Y0323582D01*
X0401082Y0323119D01*
X0401082Y0322656D01*
X0402389Y0324425D02*
X0403083Y0325120D01*
X0403546Y0325120D01*
X0404009Y0324657D01*
X0404009Y0324194D01*
X0403314Y0323499D01*
X0403777Y0323037D02*
X0402389Y0324425D01*
X0403777Y0323962D02*
X0404703Y0323962D01*
X0405084Y0324806D02*
X0405547Y0324806D01*
X0406010Y0325269D01*
X0406010Y0325732D01*
X0405547Y0326195D01*
X0405084Y0325732D01*
X0405084Y0326658D02*
X0404621Y0326658D01*
X0404158Y0326195D01*
X0404158Y0325732D01*
X0405084Y0324806D01*
X0411874Y0318950D02*
X0412569Y0319645D01*
X0413032Y0319645D01*
X0413494Y0319182D01*
X0413494Y0318719D01*
X0412800Y0318024D01*
X0413263Y0317562D02*
X0411874Y0318950D01*
X0413263Y0318487D02*
X0414189Y0318487D01*
X0419813Y0313110D02*
X0419813Y0311258D01*
X0419813Y0311721D02*
X0421202Y0311721D01*
X0420276Y0310795D02*
X0418887Y0312184D01*
X0419664Y0310183D02*
X0418738Y0309257D01*
X0417349Y0310646D01*
X0416969Y0309802D02*
X0417200Y0309571D01*
X0417200Y0309108D01*
X0416506Y0308413D01*
X0417200Y0307719D02*
X0417894Y0308413D01*
X0417894Y0308876D01*
X0417663Y0309108D01*
X0417200Y0309108D01*
X0416969Y0309802D02*
X0416506Y0309802D01*
X0415811Y0309108D01*
X0417200Y0307719D01*
X0417026Y0303695D02*
X0418335Y0303695D01*
X0417680Y0303695D02*
X0417680Y0301731D01*
X0416160Y0301731D02*
X0416160Y0303040D01*
X0415505Y0303695D01*
X0414851Y0303040D01*
X0414851Y0301731D01*
X0413985Y0302058D02*
X0413658Y0301731D01*
X0412676Y0301731D01*
X0412676Y0303695D01*
X0413658Y0303695D01*
X0413985Y0303367D01*
X0413985Y0303040D01*
X0413658Y0302713D01*
X0412676Y0302713D01*
X0413658Y0302713D02*
X0413985Y0302385D01*
X0413985Y0302058D01*
X0414851Y0302713D02*
X0416160Y0302713D01*
X0419201Y0303695D02*
X0420510Y0303695D01*
X0419855Y0303695D02*
X0419855Y0301731D01*
X0423551Y0301731D02*
X0423551Y0303695D01*
X0424206Y0303040D01*
X0424860Y0303695D01*
X0424860Y0301731D01*
X0425726Y0302058D02*
X0426053Y0301731D01*
X0426708Y0301731D01*
X0427035Y0302058D01*
X0427035Y0303367D01*
X0426708Y0303695D01*
X0426053Y0303695D01*
X0425726Y0303367D01*
X0425726Y0302058D01*
X0427901Y0301731D02*
X0427901Y0303695D01*
X0429210Y0301731D01*
X0429210Y0303695D01*
X0430076Y0303695D02*
X0430731Y0303695D01*
X0430404Y0303695D02*
X0430404Y0301731D01*
X0430731Y0301731D02*
X0430076Y0301731D01*
X0432181Y0301731D02*
X0432181Y0303695D01*
X0431526Y0303695D02*
X0432836Y0303695D01*
X0433701Y0303367D02*
X0433701Y0302058D01*
X0434029Y0301731D01*
X0434683Y0301731D01*
X0435011Y0302058D01*
X0435011Y0303367D01*
X0434683Y0303695D01*
X0434029Y0303695D01*
X0433701Y0303367D01*
X0435877Y0303695D02*
X0436858Y0303695D01*
X0437186Y0303367D01*
X0437186Y0302713D01*
X0436858Y0302385D01*
X0435877Y0302385D01*
X0436531Y0302385D02*
X0437186Y0301731D01*
X0435877Y0301731D02*
X0435877Y0303695D01*
X0435490Y0296214D02*
X0434181Y0296214D01*
X0434181Y0294250D01*
X0435490Y0294250D01*
X0436356Y0294250D02*
X0436356Y0296214D01*
X0437338Y0296214D01*
X0437665Y0295887D01*
X0437665Y0295232D01*
X0437338Y0294905D01*
X0436356Y0294905D01*
X0437011Y0294905D02*
X0437665Y0294250D01*
X0434836Y0295232D02*
X0434181Y0295232D01*
X0433315Y0295232D02*
X0432660Y0295232D01*
X0433315Y0295232D02*
X0433315Y0294578D01*
X0432988Y0294250D01*
X0432333Y0294250D01*
X0432006Y0294578D01*
X0432006Y0295887D01*
X0432333Y0296214D01*
X0432988Y0296214D01*
X0433315Y0295887D01*
X0431140Y0295887D02*
X0431140Y0295232D01*
X0430813Y0294905D01*
X0429831Y0294905D01*
X0430485Y0294905D02*
X0431140Y0294250D01*
X0429831Y0294250D02*
X0429831Y0296214D01*
X0430813Y0296214D01*
X0431140Y0295887D01*
X0428965Y0295560D02*
X0428965Y0294250D01*
X0428965Y0295232D02*
X0427656Y0295232D01*
X0427656Y0295560D02*
X0428310Y0296214D01*
X0428965Y0295560D01*
X0427656Y0295560D02*
X0427656Y0294250D01*
X0426790Y0294250D02*
X0426790Y0296214D01*
X0426790Y0295232D02*
X0425481Y0295232D01*
X0425481Y0294250D02*
X0425481Y0296214D01*
X0424615Y0295887D02*
X0424287Y0296214D01*
X0423633Y0296214D01*
X0423306Y0295887D01*
X0423306Y0294578D01*
X0423633Y0294250D01*
X0424287Y0294250D01*
X0424615Y0294578D01*
X0461101Y0296153D02*
X0461428Y0295825D01*
X0462083Y0295825D01*
X0462410Y0296153D01*
X0463276Y0295825D02*
X0463276Y0297789D01*
X0462410Y0297462D02*
X0462083Y0297789D01*
X0461428Y0297789D01*
X0461101Y0297462D01*
X0461101Y0296153D01*
X0463276Y0296807D02*
X0464585Y0296807D01*
X0465451Y0296807D02*
X0466760Y0296807D01*
X0466760Y0297134D02*
X0466760Y0295825D01*
X0467626Y0295825D02*
X0467626Y0297789D01*
X0468608Y0297789D01*
X0468935Y0297462D01*
X0468935Y0296807D01*
X0468608Y0296480D01*
X0467626Y0296480D01*
X0468281Y0296480D02*
X0468935Y0295825D01*
X0469801Y0296153D02*
X0470128Y0295825D01*
X0470783Y0295825D01*
X0471110Y0296153D01*
X0471110Y0296807D01*
X0470456Y0296807D01*
X0471110Y0297462D02*
X0470783Y0297789D01*
X0470128Y0297789D01*
X0469801Y0297462D01*
X0469801Y0296153D01*
X0471976Y0295825D02*
X0473285Y0295825D01*
X0472631Y0296807D02*
X0471976Y0296807D01*
X0471976Y0297789D02*
X0471976Y0295825D01*
X0471976Y0297789D02*
X0473285Y0297789D01*
X0466760Y0297134D02*
X0466106Y0297789D01*
X0465451Y0297134D01*
X0465451Y0295825D01*
X0464585Y0295825D02*
X0464585Y0297789D01*
X0502370Y0381806D02*
X0502833Y0381806D01*
X0503296Y0382269D01*
X0502833Y0382732D01*
X0501907Y0382732D02*
X0501907Y0382269D01*
X0502370Y0381806D01*
X0501907Y0382732D02*
X0502833Y0383658D01*
X0503296Y0383658D01*
X0503759Y0383195D01*
X0503759Y0382732D01*
X0502221Y0384270D02*
X0501758Y0383807D01*
X0501295Y0383807D01*
X0500601Y0384502D01*
X0501064Y0384039D02*
X0501064Y0383113D01*
X0500138Y0384039D02*
X0501527Y0385427D01*
X0502221Y0384733D01*
X0502221Y0384270D01*
X0500683Y0385808D02*
X0500683Y0386271D01*
X0500220Y0386734D01*
X0499757Y0386734D01*
X0498831Y0385808D01*
X0498831Y0385345D01*
X0499294Y0384882D01*
X0499757Y0384882D01*
X0500683Y0385808D01*
X0507006Y0391738D02*
X0507006Y0392663D01*
X0507238Y0392432D02*
X0506543Y0393126D01*
X0506080Y0392663D02*
X0507469Y0394052D01*
X0508163Y0393358D01*
X0508163Y0392895D01*
X0507700Y0392432D01*
X0507238Y0392432D01*
X0508313Y0391820D02*
X0508776Y0391357D01*
X0509933Y0391588D02*
X0509007Y0392514D01*
X0507618Y0391125D01*
X0508544Y0390200D01*
X0509156Y0389587D02*
X0509851Y0388893D01*
X0510314Y0388893D01*
X0511239Y0389819D01*
X0511239Y0390282D01*
X0510545Y0390976D01*
X0509156Y0389587D01*
X0515849Y0396280D02*
X0517238Y0397669D01*
X0516775Y0396743D02*
X0516775Y0395354D01*
X0516312Y0396743D02*
X0518164Y0396743D01*
X0515237Y0396892D02*
X0514311Y0397818D01*
X0515700Y0399207D01*
X0514856Y0399588D02*
X0514625Y0399356D01*
X0514162Y0399356D01*
X0513468Y0400051D01*
X0514162Y0400745D02*
X0514856Y0400051D01*
X0514856Y0399588D01*
X0514162Y0399356D02*
X0514162Y0398893D01*
X0513930Y0398662D01*
X0513468Y0398662D01*
X0512773Y0399356D01*
X0514162Y0400745D01*
X0423444Y0486275D02*
X0423444Y0486738D01*
X0422981Y0487201D01*
X0422518Y0487201D01*
X0421593Y0486275D01*
X0421593Y0485813D01*
X0422055Y0485350D01*
X0422518Y0485350D01*
X0422981Y0485813D01*
X0422518Y0486275D01*
X0421443Y0487351D02*
X0420980Y0487351D01*
X0420286Y0488045D01*
X0420749Y0487582D02*
X0420749Y0486656D01*
X0421443Y0487351D02*
X0421906Y0487813D01*
X0421906Y0488276D01*
X0421212Y0488971D01*
X0419823Y0487582D01*
X0419442Y0488426D02*
X0420368Y0489352D01*
X0420368Y0489814D01*
X0419905Y0490277D01*
X0419442Y0490277D01*
X0418516Y0489352D01*
X0418516Y0488889D01*
X0418979Y0488426D01*
X0419442Y0488426D01*
X0412494Y0482728D02*
X0412494Y0482265D01*
X0412031Y0481802D01*
X0411568Y0481802D01*
X0410874Y0482496D01*
X0411337Y0482033D02*
X0411337Y0481108D01*
X0411949Y0480495D02*
X0412875Y0479570D01*
X0413487Y0478957D02*
X0414181Y0478263D01*
X0414644Y0478263D01*
X0415570Y0479189D01*
X0415570Y0479652D01*
X0414876Y0480346D01*
X0413487Y0478957D01*
X0413106Y0480727D02*
X0412643Y0481190D01*
X0413338Y0481884D02*
X0411949Y0480495D01*
X0413338Y0481884D02*
X0414264Y0480958D01*
X0412494Y0482728D02*
X0411800Y0483422D01*
X0410411Y0482033D01*
X0405407Y0476429D02*
X0405407Y0475966D01*
X0405176Y0475734D01*
X0404713Y0475734D01*
X0404019Y0476429D01*
X0404713Y0477123D02*
X0405407Y0476429D01*
X0404713Y0477123D02*
X0403324Y0475734D01*
X0404019Y0475040D01*
X0404482Y0475040D01*
X0404713Y0475271D01*
X0404713Y0475734D01*
X0404862Y0474196D02*
X0405788Y0473270D01*
X0406400Y0472658D02*
X0407789Y0474047D01*
X0407326Y0473121D02*
X0407326Y0471732D01*
X0406863Y0473121D02*
X0408715Y0473121D01*
X0406251Y0475585D02*
X0404862Y0474196D01*
D11*
X0457314Y0285042D02*
X0458934Y0285042D01*
X0459474Y0284502D01*
X0459474Y0283962D01*
X0458934Y0283422D01*
X0457314Y0283422D01*
X0458934Y0283422D02*
X0459474Y0282882D01*
X0459474Y0282342D01*
X0458934Y0281802D01*
X0457314Y0281802D01*
X0457314Y0285042D01*
X0460939Y0283962D02*
X0460939Y0281802D01*
X0460939Y0283422D02*
X0463099Y0283422D01*
X0463099Y0283962D02*
X0463099Y0281802D01*
X0463099Y0283962D02*
X0462019Y0285042D01*
X0460939Y0283962D01*
X0464564Y0285042D02*
X0466724Y0285042D01*
X0465644Y0285042D02*
X0465644Y0281802D01*
X0469269Y0281802D02*
X0469269Y0285042D01*
X0468189Y0285042D02*
X0470349Y0285042D01*
X0471814Y0283422D02*
X0473974Y0283422D01*
X0480803Y0244632D02*
X0480312Y0244047D01*
X0480407Y0242971D01*
X0480992Y0242480D01*
X0483143Y0242668D01*
X0483634Y0243253D01*
X0483540Y0244329D01*
X0482955Y0244820D01*
X0480803Y0244632D01*
X0480581Y0240973D02*
X0483809Y0241256D01*
X0480770Y0238822D01*
X0483997Y0239104D01*
X0480897Y0237362D02*
X0484313Y0235493D01*
X0483903Y0233986D02*
X0481751Y0233798D01*
X0481260Y0233213D01*
X0481354Y0232137D01*
X0481939Y0231646D01*
X0484091Y0231834D01*
X0484582Y0232419D01*
X0484488Y0233495D01*
X0483903Y0233986D01*
X0484757Y0230422D02*
X0484945Y0228270D01*
X0485073Y0226810D02*
X0485261Y0224659D01*
X0483553Y0225593D02*
X0483459Y0226669D01*
X0481845Y0226528D02*
X0485073Y0226810D01*
X0483237Y0229205D02*
X0483143Y0230281D01*
X0481529Y0230139D02*
X0484757Y0230422D01*
X0472399Y0240902D02*
X0470240Y0240902D01*
X0471319Y0241982D02*
X0471319Y0239822D01*
X0467694Y0239282D02*
X0467694Y0242522D01*
X0466614Y0242522D02*
X0468774Y0242522D01*
X0465149Y0242522D02*
X0462989Y0242522D01*
X0464069Y0242522D02*
X0464069Y0239282D01*
X0461524Y0239282D02*
X0461524Y0241442D01*
X0460444Y0242522D01*
X0459364Y0241442D01*
X0459364Y0239282D01*
X0457899Y0239822D02*
X0457359Y0239282D01*
X0455739Y0239282D01*
X0455739Y0242522D01*
X0457359Y0242522D01*
X0457899Y0241982D01*
X0457899Y0241442D01*
X0457359Y0240902D01*
X0455739Y0240902D01*
X0457359Y0240902D02*
X0457899Y0240362D01*
X0457899Y0239822D01*
X0459364Y0240902D02*
X0461524Y0240902D01*
D12*
X0326366Y0072536D02*
X0319887Y0072536D01*
X0319887Y0062817D01*
X0326366Y0062817D01*
X0323127Y0067677D02*
X0319887Y0067677D01*
X0315491Y0072536D02*
X0309011Y0066057D01*
X0310631Y0067677D02*
X0315491Y0062817D01*
X0309011Y0062817D02*
X0309011Y0072536D01*
X0304615Y0069296D02*
X0304615Y0062817D01*
X0304615Y0067677D02*
X0298136Y0067677D01*
X0298136Y0069296D02*
X0301376Y0072536D01*
X0304615Y0069296D01*
X0298136Y0069296D02*
X0298136Y0062817D01*
X0293740Y0062817D02*
X0293740Y0072536D01*
X0290500Y0069296D01*
X0287260Y0072536D01*
X0287260Y0062817D01*
X0283250Y0062817D02*
X0280010Y0062817D01*
X0281630Y0062817D02*
X0281630Y0072536D01*
X0280010Y0072536D02*
X0283250Y0072536D01*
X0275614Y0070916D02*
X0273994Y0072536D01*
X0270755Y0072536D01*
X0269135Y0070916D01*
X0269135Y0064437D01*
X0270755Y0062817D01*
X0273994Y0062817D01*
X0275614Y0064437D01*
X0275614Y0067677D01*
X0272374Y0067677D01*
X0264739Y0062817D02*
X0264739Y0072536D01*
X0258259Y0072536D02*
X0264739Y0062817D01*
X0258259Y0062817D02*
X0258259Y0072536D01*
X0253863Y0072536D02*
X0247384Y0072536D01*
X0247384Y0062817D01*
X0253863Y0062817D01*
X0250624Y0067677D02*
X0247384Y0067677D01*
X0249450Y0452581D02*
X0249450Y0459060D01*
X0252689Y0462300D01*
X0255929Y0459060D01*
X0255929Y0452581D01*
X0260325Y0452581D02*
X0265185Y0452581D01*
X0266805Y0454201D01*
X0266805Y0460680D01*
X0265185Y0462300D01*
X0260325Y0462300D01*
X0260325Y0452581D01*
X0255929Y0457440D02*
X0249450Y0457440D01*
X0245054Y0454201D02*
X0243434Y0452581D01*
X0240194Y0452581D01*
X0238574Y0454201D01*
X0238574Y0462300D01*
X0234178Y0460680D02*
X0234178Y0454201D01*
X0232558Y0452581D01*
X0229319Y0452581D01*
X0227699Y0454201D01*
X0227699Y0460680D01*
X0229319Y0462300D01*
X0232558Y0462300D01*
X0234178Y0460680D01*
X0230939Y0455820D02*
X0234178Y0452581D01*
X0245054Y0454201D02*
X0245054Y0462300D01*
X0271201Y0462300D02*
X0271201Y0452581D01*
X0276060Y0452581D01*
X0277680Y0454201D01*
X0277680Y0455820D01*
X0276060Y0457440D01*
X0271201Y0457440D01*
X0276060Y0457440D02*
X0277680Y0459060D01*
X0277680Y0460680D01*
X0276060Y0462300D01*
X0271201Y0462300D01*
X0282076Y0460680D02*
X0282076Y0454201D01*
X0283696Y0452581D01*
X0286936Y0452581D01*
X0288556Y0454201D01*
X0288556Y0460680D01*
X0286936Y0462300D01*
X0283696Y0462300D01*
X0282076Y0460680D01*
X0292951Y0459060D02*
X0292951Y0452581D01*
X0292951Y0457440D02*
X0299431Y0457440D01*
X0299431Y0459060D02*
X0296191Y0462300D01*
X0292951Y0459060D01*
X0299431Y0459060D02*
X0299431Y0452581D01*
X0303827Y0452581D02*
X0303827Y0462300D01*
X0308686Y0462300D01*
X0310306Y0460680D01*
X0310306Y0457440D01*
X0308686Y0455820D01*
X0303827Y0455820D01*
X0307067Y0455820D02*
X0310306Y0452581D01*
X0314702Y0452581D02*
X0319562Y0452581D01*
X0321182Y0454201D01*
X0321182Y0460680D01*
X0319562Y0462300D01*
X0314702Y0462300D01*
X0314702Y0452581D01*
X0336453Y0455820D02*
X0339693Y0452581D01*
X0342933Y0455820D01*
X0342933Y0462300D01*
X0347329Y0460680D02*
X0348948Y0462300D01*
X0352188Y0462300D01*
X0353808Y0460680D01*
X0353808Y0459060D01*
X0347329Y0452581D01*
X0353808Y0452581D01*
X0336453Y0455820D02*
X0336453Y0462300D01*
D13*
X0340379Y0385761D02*
X0340379Y0383492D01*
X0340379Y0384627D02*
X0343782Y0384627D01*
X0343782Y0382078D02*
X0343782Y0379809D01*
X0340379Y0379809D01*
X0340379Y0382078D01*
X0342080Y0380944D02*
X0342080Y0379809D01*
X0342648Y0378395D02*
X0343215Y0378395D01*
X0343782Y0377828D01*
X0343782Y0376693D01*
X0343215Y0376126D01*
X0342080Y0376693D02*
X0342080Y0377828D01*
X0342648Y0378395D01*
X0340946Y0378395D02*
X0340379Y0377828D01*
X0340379Y0376693D01*
X0340946Y0376126D01*
X0341513Y0376126D01*
X0342080Y0376693D01*
X0340379Y0374712D02*
X0340379Y0372443D01*
X0343782Y0372443D01*
X0343782Y0374712D01*
X0342080Y0373577D02*
X0342080Y0372443D01*
X0342080Y0371028D02*
X0342648Y0370461D01*
X0342648Y0368760D01*
X0343782Y0368760D02*
X0340379Y0368760D01*
X0340379Y0370461D01*
X0340946Y0371028D01*
X0342080Y0371028D01*
X0342648Y0369894D02*
X0343782Y0371028D01*
X0333782Y0370986D02*
X0333782Y0369852D01*
X0333215Y0369285D01*
X0332080Y0370419D02*
X0332080Y0370986D01*
X0332648Y0371553D01*
X0333215Y0371553D01*
X0333782Y0370986D01*
X0332080Y0370986D02*
X0331513Y0371553D01*
X0330946Y0371553D01*
X0330379Y0370986D01*
X0330379Y0369852D01*
X0330946Y0369285D01*
X0333215Y0372968D02*
X0333215Y0373535D01*
X0333782Y0373535D01*
X0333782Y0372968D01*
X0333215Y0372968D01*
X0333215Y0374809D02*
X0333782Y0375376D01*
X0333782Y0376511D01*
X0333215Y0377078D01*
X0332648Y0377078D01*
X0332080Y0376511D01*
X0332080Y0375944D01*
X0332080Y0376511D02*
X0331513Y0377078D01*
X0330946Y0377078D01*
X0330379Y0376511D01*
X0330379Y0375376D01*
X0330946Y0374809D01*
X0330379Y0378492D02*
X0332648Y0378492D01*
X0333782Y0379627D01*
X0332648Y0380761D01*
X0330379Y0380761D01*
X0323782Y0374127D02*
X0322648Y0375261D01*
X0320379Y0375261D01*
X0320379Y0372992D02*
X0322648Y0372992D01*
X0323782Y0374127D01*
X0323215Y0371578D02*
X0323782Y0371011D01*
X0323782Y0369876D01*
X0323215Y0369309D01*
X0322080Y0369309D02*
X0321513Y0370444D01*
X0321513Y0371011D01*
X0322080Y0371578D01*
X0323215Y0371578D01*
X0322080Y0369309D02*
X0320379Y0369309D01*
X0320379Y0371578D01*
X0313782Y0370828D02*
X0313782Y0369693D01*
X0313215Y0369126D01*
X0310946Y0369126D01*
X0310379Y0369693D01*
X0310379Y0370828D01*
X0310946Y0371395D01*
X0312080Y0371395D02*
X0312080Y0370260D01*
X0312080Y0371395D02*
X0313215Y0371395D01*
X0313782Y0370828D01*
X0313782Y0372809D02*
X0310379Y0372809D01*
X0313782Y0375078D01*
X0310379Y0375078D01*
X0310379Y0376492D02*
X0310379Y0378194D01*
X0310946Y0378761D01*
X0313215Y0378761D01*
X0313782Y0378194D01*
X0313782Y0376492D01*
X0310379Y0376492D01*
X0303782Y0376492D02*
X0303782Y0378194D01*
X0303215Y0378761D01*
X0300946Y0378761D01*
X0300379Y0378194D01*
X0300379Y0376492D01*
X0303782Y0376492D01*
X0303782Y0375078D02*
X0300379Y0375078D01*
X0300379Y0372809D02*
X0303782Y0375078D01*
X0303782Y0372809D02*
X0300379Y0372809D01*
X0300946Y0371395D02*
X0300379Y0370828D01*
X0300379Y0369693D01*
X0300946Y0369126D01*
X0303215Y0369126D01*
X0303782Y0369693D01*
X0303782Y0370828D01*
X0303215Y0371395D01*
X0302080Y0371395D01*
X0302080Y0370260D01*
X0293782Y0370488D02*
X0292648Y0371622D01*
X0290379Y0371622D01*
X0291513Y0373037D02*
X0291513Y0373604D01*
X0293782Y0373604D01*
X0293782Y0373037D02*
X0293782Y0374171D01*
X0293782Y0375492D02*
X0291513Y0375492D01*
X0291513Y0377194D01*
X0292080Y0377761D01*
X0293782Y0377761D01*
X0290379Y0373604D02*
X0289812Y0373604D01*
X0290379Y0369354D02*
X0292648Y0369354D01*
X0293782Y0370488D01*
X0304444Y0319090D02*
X0304444Y0316728D01*
X0309169Y0316728D02*
X0309169Y0319090D01*
X0324838Y0308381D02*
X0324838Y0306019D01*
X0329562Y0306019D02*
X0329562Y0308381D01*
X0376609Y0309523D02*
X0378972Y0309523D01*
X0378972Y0314247D02*
X0376609Y0314247D01*
X0409050Y0284208D02*
X0409050Y0281846D01*
X0413775Y0281846D02*
X0413775Y0284208D01*
X0483342Y0289011D02*
X0485704Y0289011D01*
X0485704Y0293735D02*
X0483342Y0293735D01*
X0484129Y0263735D02*
X0484129Y0261373D01*
X0488854Y0261373D02*
X0488854Y0263735D01*
X0481491Y0182239D02*
X0479129Y0182239D01*
X0479129Y0177515D02*
X0481491Y0177515D01*
X0481491Y0174365D02*
X0479129Y0174365D01*
X0479129Y0169641D02*
X0481491Y0169641D01*
X0306982Y0129849D02*
X0306982Y0111874D01*
X0273528Y0116061D02*
X0273530Y0116145D01*
X0273536Y0116230D01*
X0273546Y0116313D01*
X0273560Y0116397D01*
X0273577Y0116479D01*
X0273599Y0116561D01*
X0273624Y0116641D01*
X0273653Y0116720D01*
X0273686Y0116798D01*
X0273722Y0116874D01*
X0273762Y0116949D01*
X0273806Y0117021D01*
X0273852Y0117092D01*
X0273902Y0117160D01*
X0273955Y0117225D01*
X0274011Y0117288D01*
X0274070Y0117349D01*
X0274132Y0117406D01*
X0274196Y0117461D01*
X0274263Y0117512D01*
X0274332Y0117561D01*
X0274404Y0117606D01*
X0274477Y0117647D01*
X0274552Y0117685D01*
X0274629Y0117720D01*
X0274708Y0117751D01*
X0274788Y0117778D01*
X0274869Y0117801D01*
X0274951Y0117821D01*
X0275034Y0117837D01*
X0275117Y0117849D01*
X0275202Y0117857D01*
X0275286Y0117861D01*
X0275370Y0117861D01*
X0275454Y0117857D01*
X0275539Y0117849D01*
X0275622Y0117837D01*
X0275705Y0117821D01*
X0275787Y0117801D01*
X0275868Y0117778D01*
X0275948Y0117751D01*
X0276027Y0117720D01*
X0276104Y0117685D01*
X0276179Y0117647D01*
X0276252Y0117606D01*
X0276324Y0117561D01*
X0276393Y0117512D01*
X0276460Y0117461D01*
X0276524Y0117406D01*
X0276586Y0117349D01*
X0276645Y0117288D01*
X0276701Y0117225D01*
X0276754Y0117160D01*
X0276804Y0117092D01*
X0276850Y0117021D01*
X0276894Y0116949D01*
X0276934Y0116874D01*
X0276970Y0116798D01*
X0277003Y0116720D01*
X0277032Y0116641D01*
X0277057Y0116561D01*
X0277079Y0116479D01*
X0277096Y0116397D01*
X0277110Y0116313D01*
X0277120Y0116230D01*
X0277126Y0116145D01*
X0277128Y0116061D01*
X0277126Y0115977D01*
X0277120Y0115892D01*
X0277110Y0115809D01*
X0277096Y0115725D01*
X0277079Y0115643D01*
X0277057Y0115561D01*
X0277032Y0115481D01*
X0277003Y0115402D01*
X0276970Y0115324D01*
X0276934Y0115248D01*
X0276894Y0115173D01*
X0276850Y0115101D01*
X0276804Y0115030D01*
X0276754Y0114962D01*
X0276701Y0114897D01*
X0276645Y0114834D01*
X0276586Y0114773D01*
X0276524Y0114716D01*
X0276460Y0114661D01*
X0276393Y0114610D01*
X0276324Y0114561D01*
X0276252Y0114516D01*
X0276179Y0114475D01*
X0276104Y0114437D01*
X0276027Y0114402D01*
X0275948Y0114371D01*
X0275868Y0114344D01*
X0275787Y0114321D01*
X0275705Y0114301D01*
X0275622Y0114285D01*
X0275539Y0114273D01*
X0275454Y0114265D01*
X0275370Y0114261D01*
X0275286Y0114261D01*
X0275202Y0114265D01*
X0275117Y0114273D01*
X0275034Y0114285D01*
X0274951Y0114301D01*
X0274869Y0114321D01*
X0274788Y0114344D01*
X0274708Y0114371D01*
X0274629Y0114402D01*
X0274552Y0114437D01*
X0274477Y0114475D01*
X0274404Y0114516D01*
X0274332Y0114561D01*
X0274263Y0114610D01*
X0274196Y0114661D01*
X0274132Y0114716D01*
X0274070Y0114773D01*
X0274011Y0114834D01*
X0273955Y0114897D01*
X0273902Y0114962D01*
X0273852Y0115030D01*
X0273806Y0115101D01*
X0273762Y0115173D01*
X0273722Y0115248D01*
X0273686Y0115324D01*
X0273653Y0115402D01*
X0273624Y0115481D01*
X0273599Y0115561D01*
X0273577Y0115643D01*
X0273560Y0115725D01*
X0273546Y0115809D01*
X0273536Y0115892D01*
X0273530Y0115977D01*
X0273528Y0116061D01*
X0271828Y0111874D02*
X0271828Y0129849D01*
X0248696Y0110861D02*
X0248696Y0108499D01*
X0243972Y0108499D02*
X0243972Y0110861D01*
X0247554Y0185625D02*
X0249917Y0185625D01*
X0249917Y0190350D02*
X0247554Y0190350D01*
X0234562Y0189444D02*
X0234562Y0187082D01*
X0229838Y0187082D02*
X0229838Y0189444D01*
X0222672Y0189365D02*
X0222672Y0187003D01*
X0217948Y0187003D02*
X0217948Y0189365D01*
X0261531Y0194326D02*
X0263893Y0194326D01*
X0263893Y0199050D02*
X0261531Y0199050D01*
X0281216Y0211728D02*
X0283578Y0211728D01*
X0283578Y0216452D02*
X0281216Y0216452D01*
X0294287Y0227987D02*
X0294287Y0230350D01*
X0299011Y0230350D02*
X0299011Y0227987D01*
X0294838Y0236452D02*
X0292476Y0236452D01*
X0292476Y0241176D02*
X0294838Y0241176D01*
X0255743Y0247318D02*
X0253381Y0247318D01*
X0253381Y0252043D02*
X0255743Y0252043D01*
X0234720Y0235822D02*
X0234720Y0233460D01*
X0229995Y0233460D02*
X0229995Y0235822D01*
X0208893Y0279090D02*
X0208893Y0281452D01*
X0204169Y0281452D02*
X0204169Y0279090D01*
X0248184Y0280428D02*
X0250546Y0280428D01*
X0250546Y0285153D02*
X0248184Y0285153D01*
X0134917Y0284050D02*
X0134917Y0281688D01*
X0130192Y0281688D02*
X0130192Y0284050D01*
X0128066Y0268617D02*
X0125704Y0268617D01*
X0125704Y0263893D02*
X0128066Y0263893D01*
X0118224Y0261176D02*
X0115861Y0261176D01*
X0115861Y0256452D02*
X0118224Y0256452D01*
D14*
X0118338Y0254879D02*
X0118338Y0252715D01*
X0117617Y0252715D02*
X0119060Y0252715D01*
X0117617Y0254158D02*
X0118338Y0254879D01*
X0116884Y0254519D02*
X0116884Y0253797D01*
X0116524Y0253437D01*
X0115442Y0253437D01*
X0116163Y0253437D02*
X0116884Y0252715D01*
X0115442Y0252715D02*
X0115442Y0254879D01*
X0116524Y0254879D01*
X0116884Y0254519D01*
X0105373Y0245011D02*
X0105373Y0242847D01*
X0104652Y0242847D02*
X0106095Y0242847D01*
X0104652Y0244290D02*
X0105373Y0245011D01*
X0103920Y0244651D02*
X0103920Y0244290D01*
X0103559Y0243929D01*
X0102477Y0243929D01*
X0101745Y0243569D02*
X0101745Y0243208D01*
X0101384Y0242847D01*
X0100663Y0242847D01*
X0100302Y0243208D01*
X0099569Y0243208D02*
X0099569Y0245011D01*
X0100302Y0244651D02*
X0100302Y0244290D01*
X0100663Y0243929D01*
X0101384Y0243929D01*
X0101745Y0243569D01*
X0102477Y0242847D02*
X0103559Y0242847D01*
X0103920Y0243208D01*
X0103920Y0243569D01*
X0103559Y0243929D01*
X0103920Y0244651D02*
X0103559Y0245011D01*
X0102477Y0245011D01*
X0102477Y0242847D01*
X0101745Y0244651D02*
X0101384Y0245011D01*
X0100663Y0245011D01*
X0100302Y0244651D01*
X0099569Y0243208D02*
X0099209Y0242847D01*
X0098487Y0242847D01*
X0098127Y0243208D01*
X0098127Y0245011D01*
X0113757Y0235724D02*
X0113757Y0234281D01*
X0114478Y0233560D01*
X0115199Y0234281D01*
X0115199Y0235724D01*
X0115932Y0235724D02*
X0117014Y0235724D01*
X0117374Y0235363D01*
X0117374Y0234642D01*
X0117014Y0234281D01*
X0115932Y0234281D01*
X0116653Y0234281D02*
X0117374Y0233560D01*
X0118107Y0233560D02*
X0119550Y0235003D01*
X0119550Y0235363D01*
X0119189Y0235724D01*
X0118468Y0235724D01*
X0118107Y0235363D01*
X0118107Y0233560D02*
X0119550Y0233560D01*
X0122694Y0234163D02*
X0123415Y0233442D01*
X0124136Y0234163D01*
X0124136Y0235606D01*
X0124869Y0235606D02*
X0125951Y0235606D01*
X0126311Y0235245D01*
X0126311Y0234524D01*
X0125951Y0234163D01*
X0124869Y0234163D01*
X0125590Y0234163D02*
X0126311Y0233442D01*
X0127044Y0233442D02*
X0128487Y0233442D01*
X0127765Y0233442D02*
X0127765Y0235606D01*
X0127044Y0234884D01*
X0124869Y0235606D02*
X0124869Y0233442D01*
X0122694Y0234163D02*
X0122694Y0235606D01*
X0115932Y0235724D02*
X0115932Y0233560D01*
X0116269Y0217387D02*
X0116269Y0215223D01*
X0115548Y0215223D02*
X0116991Y0215223D01*
X0115548Y0216666D02*
X0116269Y0217387D01*
X0114816Y0217387D02*
X0114816Y0215223D01*
X0113373Y0217387D01*
X0113373Y0215223D01*
X0125481Y0269841D02*
X0125481Y0272005D01*
X0126563Y0272005D01*
X0126924Y0271645D01*
X0126924Y0270923D01*
X0126563Y0270563D01*
X0125481Y0270563D01*
X0126202Y0270563D02*
X0126924Y0269841D01*
X0127656Y0269841D02*
X0129099Y0271284D01*
X0129099Y0271645D01*
X0128738Y0272005D01*
X0128017Y0272005D01*
X0127656Y0271645D01*
X0127656Y0269841D02*
X0129099Y0269841D01*
X0131354Y0289920D02*
X0132075Y0289920D01*
X0132436Y0290281D01*
X0133168Y0289920D02*
X0134611Y0289920D01*
X0133889Y0289920D02*
X0133889Y0292084D01*
X0133168Y0291363D01*
X0132436Y0291723D02*
X0132075Y0292084D01*
X0131354Y0292084D01*
X0130993Y0291723D01*
X0130993Y0290281D01*
X0131354Y0289920D01*
X0153619Y0285954D02*
X0153619Y0284511D01*
X0153980Y0284150D01*
X0154701Y0284150D01*
X0155062Y0284511D01*
X0155794Y0285232D02*
X0157237Y0285232D01*
X0156876Y0284150D02*
X0156876Y0286314D01*
X0155794Y0285232D01*
X0155062Y0285954D02*
X0154701Y0286314D01*
X0153980Y0286314D01*
X0153619Y0285954D01*
X0151103Y0310202D02*
X0150593Y0310202D01*
X0150083Y0310712D01*
X0150083Y0311222D01*
X0152123Y0311222D01*
X0151103Y0310202D01*
X0150083Y0311222D02*
X0151103Y0312242D01*
X0151613Y0312242D01*
X0152123Y0311732D01*
X0152123Y0311222D01*
X0149310Y0311485D02*
X0148290Y0312505D01*
X0148800Y0311995D02*
X0150330Y0313525D01*
X0149310Y0313525D01*
X0149302Y0314553D02*
X0147772Y0313023D01*
X0146752Y0314043D02*
X0148282Y0315573D01*
X0148282Y0314553D01*
X0149302Y0314553D01*
X0116991Y0333097D02*
X0115548Y0333097D01*
X0116991Y0334540D01*
X0116991Y0334901D01*
X0116630Y0335261D01*
X0115909Y0335261D01*
X0115548Y0334901D01*
X0114816Y0335261D02*
X0114816Y0333097D01*
X0113373Y0335261D01*
X0113373Y0333097D01*
X0076047Y0371260D02*
X0075027Y0370240D01*
X0075537Y0370750D02*
X0074007Y0372280D01*
X0074007Y0371260D01*
X0072979Y0371252D02*
X0074509Y0369722D01*
X0073489Y0368702D02*
X0071959Y0370232D01*
X0072979Y0370232D01*
X0072979Y0371252D01*
X0075545Y0372798D02*
X0075545Y0373818D01*
X0077075Y0372288D01*
X0076565Y0371778D02*
X0077585Y0372798D01*
X0180361Y0475633D02*
X0178831Y0477164D01*
X0179851Y0477164D01*
X0179851Y0478184D01*
X0181382Y0476654D01*
X0181644Y0477426D02*
X0182154Y0477426D01*
X0182665Y0477937D01*
X0182665Y0478447D01*
X0181644Y0479467D01*
X0181134Y0479467D01*
X0180624Y0478957D01*
X0180624Y0478447D01*
X0180879Y0478192D01*
X0181389Y0478192D01*
X0182154Y0478957D01*
X0229121Y0450576D02*
X0230564Y0448412D01*
X0230564Y0450576D01*
X0231296Y0450216D02*
X0231657Y0450576D01*
X0232378Y0450576D01*
X0232739Y0450216D01*
X0232739Y0449855D01*
X0232378Y0449494D01*
X0232739Y0449134D01*
X0232739Y0448773D01*
X0232378Y0448412D01*
X0231657Y0448412D01*
X0231296Y0448773D01*
X0232017Y0449494D02*
X0232378Y0449494D01*
X0229121Y0448412D02*
X0229121Y0450576D01*
X0347625Y0450576D02*
X0349067Y0448412D01*
X0349067Y0450576D01*
X0349800Y0449494D02*
X0351243Y0449494D01*
X0350882Y0448412D02*
X0350882Y0450576D01*
X0349800Y0449494D01*
X0347625Y0448412D02*
X0347625Y0450576D01*
X0392124Y0476300D02*
X0393654Y0477831D01*
X0393654Y0476810D01*
X0394674Y0476811D01*
X0393144Y0475280D01*
X0393917Y0475017D02*
X0394172Y0475272D01*
X0394682Y0475272D01*
X0395192Y0474762D01*
X0395192Y0474252D01*
X0394937Y0473997D01*
X0394427Y0473997D01*
X0393917Y0474507D01*
X0393917Y0475017D01*
X0394682Y0475272D02*
X0394682Y0475783D01*
X0394937Y0476038D01*
X0395447Y0476038D01*
X0395957Y0475527D01*
X0395957Y0475017D01*
X0395702Y0474762D01*
X0395192Y0474762D01*
X0501029Y0372458D02*
X0502560Y0373988D01*
X0502560Y0372968D01*
X0503580Y0372968D01*
X0502049Y0371438D01*
X0502822Y0371175D02*
X0502822Y0370665D01*
X0503332Y0370155D01*
X0503843Y0370155D01*
X0504098Y0370410D01*
X0504098Y0370920D01*
X0503332Y0371685D01*
X0502822Y0371175D01*
X0503332Y0371685D02*
X0504353Y0371685D01*
X0505118Y0371430D01*
X0478369Y0323155D02*
X0476926Y0323155D01*
X0476926Y0322073D01*
X0477647Y0322434D01*
X0478008Y0322434D01*
X0478369Y0322073D01*
X0478369Y0321352D01*
X0478008Y0320991D01*
X0477287Y0320991D01*
X0476926Y0321352D01*
X0476194Y0320991D02*
X0476194Y0323155D01*
X0474751Y0323155D02*
X0476194Y0320991D01*
X0474751Y0320991D02*
X0474751Y0323155D01*
X0480704Y0297474D02*
X0481786Y0297474D01*
X0482147Y0297113D01*
X0482147Y0296392D01*
X0481786Y0296031D01*
X0480704Y0296031D01*
X0480704Y0295310D02*
X0480704Y0297474D01*
X0481425Y0296031D02*
X0482147Y0295310D01*
X0482879Y0295310D02*
X0484322Y0295310D01*
X0483600Y0295310D02*
X0483600Y0297474D01*
X0482879Y0296753D01*
X0485054Y0297474D02*
X0486497Y0297474D01*
X0486497Y0297113D01*
X0485054Y0295671D01*
X0485054Y0295310D01*
X0483141Y0263272D02*
X0483141Y0261829D01*
X0481699Y0263272D01*
X0481338Y0263272D01*
X0480977Y0262911D01*
X0480977Y0262190D01*
X0481338Y0261829D01*
X0481338Y0261097D02*
X0480977Y0260736D01*
X0480977Y0260015D01*
X0481338Y0259654D01*
X0482781Y0259654D01*
X0483141Y0260015D01*
X0483141Y0260736D01*
X0482781Y0261097D01*
X0478270Y0204631D02*
X0477549Y0204271D01*
X0476828Y0203549D01*
X0477910Y0203549D01*
X0478270Y0203189D01*
X0478270Y0202828D01*
X0477910Y0202467D01*
X0477188Y0202467D01*
X0476828Y0202828D01*
X0476828Y0203549D01*
X0476095Y0202467D02*
X0476095Y0204631D01*
X0474653Y0204631D02*
X0476095Y0202467D01*
X0474653Y0202467D02*
X0474653Y0204631D01*
X0476491Y0185584D02*
X0477573Y0185584D01*
X0477934Y0185223D01*
X0477934Y0184502D01*
X0477573Y0184141D01*
X0476491Y0184141D01*
X0476491Y0183420D02*
X0476491Y0185584D01*
X0477213Y0184141D02*
X0477934Y0183420D01*
X0478666Y0183420D02*
X0480109Y0183420D01*
X0479388Y0183420D02*
X0479388Y0185584D01*
X0478666Y0184863D01*
X0480841Y0184502D02*
X0482284Y0184502D01*
X0481923Y0183420D02*
X0481923Y0185584D01*
X0480841Y0184502D01*
X0481596Y0168261D02*
X0482317Y0168261D01*
X0482678Y0167901D01*
X0482678Y0167540D01*
X0482317Y0167179D01*
X0482678Y0166819D01*
X0482678Y0166458D01*
X0482317Y0166097D01*
X0481596Y0166097D01*
X0481235Y0166458D01*
X0480503Y0166097D02*
X0479060Y0166097D01*
X0479781Y0166097D02*
X0479781Y0168261D01*
X0479060Y0167540D01*
X0478328Y0167901D02*
X0478328Y0167179D01*
X0477967Y0166819D01*
X0476885Y0166819D01*
X0477606Y0166819D02*
X0478328Y0166097D01*
X0476885Y0166097D02*
X0476885Y0168261D01*
X0477967Y0168261D01*
X0478328Y0167901D01*
X0481235Y0167901D02*
X0481596Y0168261D01*
X0481956Y0167179D02*
X0482317Y0167179D01*
X0496071Y0156629D02*
X0497091Y0156629D01*
X0497091Y0157649D01*
X0498621Y0156118D01*
X0498884Y0156891D02*
X0499394Y0156891D01*
X0499904Y0157401D01*
X0499904Y0157911D01*
X0499394Y0158422D01*
X0498884Y0158422D01*
X0498629Y0158167D01*
X0498374Y0157401D01*
X0497609Y0158167D01*
X0498629Y0159187D01*
X0496071Y0156629D02*
X0497601Y0155098D01*
X0397809Y0249216D02*
X0397809Y0249937D01*
X0397448Y0250298D01*
X0397448Y0251030D02*
X0397809Y0251391D01*
X0397809Y0252112D01*
X0397448Y0252473D01*
X0396727Y0252473D01*
X0396366Y0252112D01*
X0396366Y0251752D01*
X0396727Y0251030D01*
X0395645Y0251030D01*
X0395645Y0252473D01*
X0396005Y0250298D02*
X0395645Y0249937D01*
X0395645Y0249216D01*
X0396005Y0248855D01*
X0397448Y0248855D01*
X0397809Y0249216D01*
X0405312Y0281383D02*
X0405312Y0282465D01*
X0405673Y0282826D01*
X0406394Y0282826D01*
X0406755Y0282465D01*
X0406755Y0281383D01*
X0407476Y0281383D02*
X0405312Y0281383D01*
X0406755Y0282104D02*
X0407476Y0282826D01*
X0407115Y0283558D02*
X0407476Y0283919D01*
X0407476Y0284640D01*
X0407115Y0285001D01*
X0406755Y0285001D01*
X0406394Y0284640D01*
X0406394Y0284279D01*
X0406394Y0284640D02*
X0406033Y0285001D01*
X0405673Y0285001D01*
X0405312Y0284640D01*
X0405312Y0283919D01*
X0405673Y0283558D01*
X0379329Y0305786D02*
X0379329Y0307950D01*
X0378247Y0306868D01*
X0379689Y0306868D01*
X0377514Y0306868D02*
X0377154Y0306508D01*
X0376072Y0306508D01*
X0376793Y0306508D02*
X0377514Y0305786D01*
X0377514Y0306868D02*
X0377514Y0307590D01*
X0377154Y0307950D01*
X0376072Y0307950D01*
X0376072Y0305786D01*
X0405487Y0334354D02*
X0403957Y0335884D01*
X0404977Y0335884D01*
X0404977Y0336905D01*
X0406507Y0335374D01*
X0407025Y0335892D02*
X0406770Y0336147D01*
X0406770Y0338188D01*
X0406515Y0338443D01*
X0405495Y0337422D01*
X0328465Y0316090D02*
X0328465Y0315729D01*
X0328105Y0315368D01*
X0327383Y0315368D01*
X0327023Y0315729D01*
X0327023Y0316090D01*
X0327383Y0316450D01*
X0328105Y0316450D01*
X0328465Y0316090D01*
X0328105Y0315368D02*
X0328465Y0315008D01*
X0328465Y0314647D01*
X0328105Y0314286D01*
X0327383Y0314286D01*
X0327023Y0314647D01*
X0327023Y0315008D01*
X0327383Y0315368D01*
X0326290Y0315368D02*
X0325929Y0315008D01*
X0324847Y0315008D01*
X0324847Y0314286D02*
X0324847Y0316450D01*
X0325929Y0316450D01*
X0326290Y0316090D01*
X0326290Y0315368D01*
X0325569Y0315008D02*
X0326290Y0314286D01*
X0308701Y0325389D02*
X0307259Y0325389D01*
X0307980Y0325389D02*
X0307980Y0327553D01*
X0307259Y0326831D01*
X0306526Y0325389D02*
X0305084Y0325389D01*
X0305805Y0325389D02*
X0305805Y0327553D01*
X0305084Y0326831D01*
X0304351Y0327192D02*
X0303991Y0327553D01*
X0303269Y0327553D01*
X0302909Y0327192D01*
X0302909Y0325749D01*
X0303269Y0325389D01*
X0303991Y0325389D01*
X0304351Y0325749D01*
X0242416Y0283613D02*
X0240973Y0282171D01*
X0241334Y0281810D01*
X0242055Y0281810D01*
X0242416Y0282171D01*
X0242416Y0283613D01*
X0242055Y0283974D01*
X0241334Y0283974D01*
X0240973Y0283613D01*
X0240973Y0282171D01*
X0240241Y0281810D02*
X0238798Y0281810D01*
X0239519Y0281810D02*
X0239519Y0283974D01*
X0238798Y0283253D01*
X0238066Y0283613D02*
X0237705Y0283974D01*
X0236984Y0283974D01*
X0236623Y0283613D01*
X0236623Y0282171D01*
X0236984Y0281810D01*
X0237705Y0281810D01*
X0238066Y0282171D01*
X0237240Y0256248D02*
X0236158Y0256248D01*
X0236158Y0254083D01*
X0237240Y0254083D01*
X0237601Y0254444D01*
X0237601Y0255887D01*
X0237240Y0256248D01*
X0238333Y0255526D02*
X0239055Y0256248D01*
X0239055Y0254083D01*
X0239776Y0254083D02*
X0238333Y0254083D01*
X0252525Y0253945D02*
X0253607Y0253945D01*
X0253967Y0254305D01*
X0253967Y0255027D01*
X0253607Y0255387D01*
X0252525Y0255387D01*
X0252525Y0253223D01*
X0253246Y0253945D02*
X0253967Y0253223D01*
X0254700Y0253584D02*
X0255060Y0253223D01*
X0255782Y0253223D01*
X0256142Y0253584D01*
X0256142Y0253945D01*
X0255782Y0254305D01*
X0254700Y0254305D01*
X0254700Y0253584D01*
X0254700Y0254305D02*
X0255421Y0255027D01*
X0256142Y0255387D01*
X0236460Y0235827D02*
X0237903Y0234385D01*
X0238263Y0234385D01*
X0237903Y0233652D02*
X0238263Y0233292D01*
X0238263Y0232570D01*
X0237903Y0232210D01*
X0236460Y0232210D01*
X0236099Y0232570D01*
X0236099Y0233292D01*
X0236460Y0233652D01*
X0236099Y0234385D02*
X0236099Y0235827D01*
X0236460Y0235827D01*
X0271229Y0214912D02*
X0271229Y0213470D01*
X0271590Y0213109D01*
X0272311Y0213109D01*
X0272672Y0213470D01*
X0273404Y0213470D02*
X0273404Y0213830D01*
X0273765Y0214191D01*
X0274486Y0214191D01*
X0274847Y0213830D01*
X0274847Y0213470D01*
X0274486Y0213109D01*
X0273765Y0213109D01*
X0273404Y0213470D01*
X0273765Y0214191D02*
X0273404Y0214552D01*
X0273404Y0214912D01*
X0273765Y0215273D01*
X0274486Y0215273D01*
X0274847Y0214912D01*
X0274847Y0214552D01*
X0274486Y0214191D01*
X0272672Y0214912D02*
X0272311Y0215273D01*
X0271590Y0215273D01*
X0271229Y0214912D01*
X0264719Y0202789D02*
X0265079Y0202428D01*
X0263637Y0200985D01*
X0263997Y0200625D01*
X0264719Y0200625D01*
X0265079Y0200985D01*
X0265079Y0202428D01*
X0264719Y0202789D02*
X0263997Y0202789D01*
X0263637Y0202428D01*
X0263637Y0200985D01*
X0262904Y0200625D02*
X0261462Y0200625D01*
X0262183Y0200625D02*
X0262183Y0202789D01*
X0261462Y0202067D01*
X0260729Y0201707D02*
X0260369Y0201346D01*
X0259287Y0201346D01*
X0260008Y0201346D02*
X0260729Y0200625D01*
X0260729Y0201707D02*
X0260729Y0202428D01*
X0260369Y0202789D01*
X0259287Y0202789D01*
X0259287Y0200625D01*
X0249955Y0184246D02*
X0249234Y0184246D01*
X0248873Y0183885D01*
X0248873Y0183524D01*
X0249234Y0183164D01*
X0250316Y0183164D01*
X0250316Y0183885D02*
X0249955Y0184246D01*
X0250316Y0183885D02*
X0250316Y0182442D01*
X0249955Y0182081D01*
X0249234Y0182081D01*
X0248873Y0182442D01*
X0248141Y0182081D02*
X0247419Y0182803D01*
X0247780Y0182803D02*
X0246698Y0182803D01*
X0246698Y0182081D02*
X0246698Y0184246D01*
X0247780Y0184246D01*
X0248141Y0183885D01*
X0248141Y0183164D01*
X0247780Y0182803D01*
X0238500Y0184444D02*
X0236336Y0184444D01*
X0236336Y0185526D01*
X0236696Y0185887D01*
X0237418Y0185887D01*
X0237778Y0185526D01*
X0237778Y0184444D01*
X0237778Y0185165D02*
X0238500Y0185887D01*
X0238500Y0186619D02*
X0238500Y0188062D01*
X0238500Y0187340D02*
X0236336Y0187340D01*
X0237057Y0186619D01*
X0237418Y0188794D02*
X0237057Y0189516D01*
X0237057Y0189876D01*
X0237418Y0190237D01*
X0238139Y0190237D01*
X0238500Y0189876D01*
X0238500Y0189155D01*
X0238139Y0188794D01*
X0237418Y0188794D02*
X0236336Y0188794D01*
X0236336Y0190237D01*
X0215980Y0190191D02*
X0215619Y0190552D01*
X0215259Y0190552D01*
X0214898Y0190191D01*
X0214898Y0189109D01*
X0215619Y0189109D01*
X0215980Y0189470D01*
X0215980Y0190191D01*
X0214898Y0189109D02*
X0214177Y0189831D01*
X0213816Y0190552D01*
X0213816Y0187655D02*
X0215980Y0187655D01*
X0215980Y0186934D02*
X0215980Y0188377D01*
X0214537Y0186934D02*
X0213816Y0187655D01*
X0214177Y0186202D02*
X0214898Y0186202D01*
X0215259Y0185841D01*
X0215259Y0184759D01*
X0215980Y0184759D02*
X0213816Y0184759D01*
X0213816Y0185841D01*
X0214177Y0186202D01*
X0215259Y0185480D02*
X0215980Y0186202D01*
X0238088Y0123231D02*
X0239618Y0121701D01*
X0239108Y0121191D02*
X0240128Y0122211D01*
X0238088Y0122211D02*
X0238088Y0123231D01*
X0237060Y0122203D02*
X0238590Y0120673D01*
X0237570Y0119653D02*
X0236040Y0121183D01*
X0237060Y0121183D01*
X0237060Y0122203D01*
X0250469Y0111530D02*
X0250830Y0111890D01*
X0251191Y0111890D01*
X0251551Y0111530D01*
X0251551Y0110808D01*
X0251191Y0110448D01*
X0250830Y0110448D01*
X0250469Y0110808D01*
X0250469Y0111530D01*
X0251551Y0111530D02*
X0251912Y0111890D01*
X0252273Y0111890D01*
X0252633Y0111530D01*
X0252633Y0110808D01*
X0252273Y0110448D01*
X0251912Y0110448D01*
X0251551Y0110808D01*
X0252633Y0109715D02*
X0252633Y0108273D01*
X0252633Y0108994D02*
X0250469Y0108994D01*
X0251191Y0108273D01*
X0251551Y0107540D02*
X0251912Y0107180D01*
X0251912Y0106098D01*
X0251912Y0106819D02*
X0252633Y0107540D01*
X0251551Y0107540D02*
X0250830Y0107540D01*
X0250469Y0107180D01*
X0250469Y0106098D01*
X0252633Y0106098D01*
X0231912Y0101534D02*
X0230469Y0100092D01*
X0230830Y0099731D01*
X0231551Y0099731D01*
X0231912Y0100092D01*
X0231912Y0101534D01*
X0231551Y0101895D01*
X0230830Y0101895D01*
X0230469Y0101534D01*
X0230469Y0100092D01*
X0229737Y0099731D02*
X0229737Y0101895D01*
X0228294Y0101895D02*
X0229737Y0099731D01*
X0228294Y0099731D02*
X0228294Y0101895D01*
X0178298Y0049258D02*
X0178298Y0048238D01*
X0179318Y0048238D01*
X0177788Y0046708D01*
X0178306Y0046190D02*
X0180346Y0046190D01*
X0180601Y0046445D01*
X0180601Y0046955D01*
X0180091Y0047465D01*
X0179581Y0047465D01*
X0178306Y0046190D02*
X0179326Y0045170D01*
X0176768Y0047728D02*
X0178298Y0049258D01*
X0074999Y0151882D02*
X0072958Y0151882D01*
X0072958Y0151372D01*
X0073468Y0150862D01*
X0073978Y0150862D01*
X0074999Y0151882D01*
X0074999Y0152392D01*
X0074488Y0152902D01*
X0073978Y0152902D01*
X0072958Y0151882D01*
X0072185Y0152145D02*
X0073716Y0153675D01*
X0072695Y0153675D01*
X0072695Y0154695D01*
X0071165Y0153165D01*
X0204893Y0286924D02*
X0205615Y0286924D01*
X0205975Y0287285D01*
X0206708Y0287285D02*
X0207068Y0286924D01*
X0207790Y0286924D01*
X0208150Y0287285D01*
X0208150Y0287645D01*
X0207790Y0288006D01*
X0207429Y0288006D01*
X0207790Y0288006D02*
X0208150Y0288367D01*
X0208150Y0288727D01*
X0207790Y0289088D01*
X0207068Y0289088D01*
X0206708Y0288727D01*
X0205975Y0288727D02*
X0205615Y0289088D01*
X0204893Y0289088D01*
X0204533Y0288727D01*
X0204533Y0287285D01*
X0204893Y0286924D01*
X0291619Y0244554D02*
X0291619Y0243111D01*
X0291980Y0242751D01*
X0292701Y0242751D01*
X0293062Y0243111D01*
X0293794Y0243111D02*
X0294155Y0242751D01*
X0294876Y0242751D01*
X0295237Y0243111D01*
X0295237Y0244554D01*
X0294876Y0244915D01*
X0294155Y0244915D01*
X0293794Y0244554D01*
X0293794Y0244193D01*
X0294155Y0243833D01*
X0295237Y0243833D01*
X0293062Y0244554D02*
X0292701Y0244915D01*
X0291980Y0244915D01*
X0291619Y0244554D01*
X0295324Y0222320D02*
X0296406Y0222320D01*
X0296766Y0221960D01*
X0296766Y0221238D01*
X0296406Y0220878D01*
X0295324Y0220878D01*
X0296045Y0220878D02*
X0296766Y0220156D01*
X0297499Y0220156D02*
X0297499Y0220517D01*
X0298941Y0221960D01*
X0298941Y0222320D01*
X0297499Y0222320D01*
X0295324Y0222320D02*
X0295324Y0220156D01*
X0365412Y0149077D02*
X0365412Y0148056D01*
X0366432Y0148056D01*
X0364902Y0146526D01*
X0366185Y0146773D02*
X0367205Y0145753D01*
X0366185Y0145243D02*
X0367715Y0146773D01*
X0366185Y0146773D01*
X0363881Y0147546D02*
X0365412Y0149077D01*
X0350764Y0102102D02*
X0350042Y0102102D01*
X0349682Y0101741D01*
X0349983Y0101928D02*
X0348540Y0100485D01*
X0348540Y0100125D01*
X0348228Y0099938D02*
X0348228Y0102102D01*
X0347507Y0101380D01*
X0346774Y0101741D02*
X0346414Y0102102D01*
X0345692Y0102102D01*
X0345331Y0101741D01*
X0345331Y0100298D01*
X0345692Y0099938D01*
X0346414Y0099938D01*
X0346774Y0100298D01*
X0346365Y0100125D02*
X0346365Y0102289D01*
X0347808Y0100125D01*
X0347808Y0102289D01*
X0348540Y0102289D02*
X0349983Y0102289D01*
X0349983Y0101928D01*
X0350764Y0102102D02*
X0351124Y0101741D01*
X0351124Y0101380D01*
X0349682Y0099938D01*
X0351124Y0099938D01*
X0348949Y0099938D02*
X0347507Y0099938D01*
X0399882Y0047636D02*
X0400392Y0047636D01*
X0400647Y0047381D01*
X0400647Y0046871D01*
X0401157Y0046871D01*
X0401412Y0046616D01*
X0401412Y0046106D01*
X0400902Y0045596D01*
X0400392Y0045596D01*
X0400129Y0044823D02*
X0398599Y0046353D01*
X0398599Y0045333D01*
X0397579Y0045333D01*
X0399109Y0043803D01*
X0399372Y0046616D02*
X0399372Y0047126D01*
X0399882Y0047636D01*
X0400647Y0046871D02*
X0400392Y0046616D01*
D15*
X0358578Y0078696D02*
X0355428Y0075940D01*
X0353854Y0077515D01*
X0355035Y0078696D01*
X0358578Y0082239D01*
X0358578Y0078696D01*
X0355035Y0078696D01*
X0338893Y0078696D01*
X0338893Y0098381D01*
X0358578Y0098381D01*
X0358578Y0082239D01*
X0341962Y0088539D02*
X0341964Y0088705D01*
X0341970Y0088871D01*
X0341980Y0089037D01*
X0341995Y0089203D01*
X0342013Y0089368D01*
X0342035Y0089533D01*
X0342062Y0089697D01*
X0342092Y0089860D01*
X0342127Y0090023D01*
X0342165Y0090185D01*
X0342207Y0090345D01*
X0342254Y0090505D01*
X0342304Y0090664D01*
X0342358Y0090821D01*
X0342416Y0090977D01*
X0342478Y0091131D01*
X0342543Y0091284D01*
X0342612Y0091435D01*
X0342685Y0091584D01*
X0342762Y0091732D01*
X0342842Y0091877D01*
X0342926Y0092021D01*
X0343013Y0092163D01*
X0343103Y0092302D01*
X0343197Y0092439D01*
X0343295Y0092574D01*
X0343396Y0092706D01*
X0343499Y0092836D01*
X0343606Y0092963D01*
X0343717Y0093087D01*
X0343830Y0093209D01*
X0343946Y0093328D01*
X0344065Y0093444D01*
X0344187Y0093557D01*
X0344311Y0093668D01*
X0344438Y0093775D01*
X0344568Y0093878D01*
X0344700Y0093979D01*
X0344835Y0094077D01*
X0344972Y0094171D01*
X0345111Y0094261D01*
X0345253Y0094348D01*
X0345397Y0094432D01*
X0345542Y0094512D01*
X0345690Y0094589D01*
X0345839Y0094662D01*
X0345990Y0094731D01*
X0346143Y0094796D01*
X0346297Y0094858D01*
X0346453Y0094916D01*
X0346610Y0094970D01*
X0346769Y0095020D01*
X0346929Y0095067D01*
X0347089Y0095109D01*
X0347251Y0095147D01*
X0347414Y0095182D01*
X0347577Y0095212D01*
X0347741Y0095239D01*
X0347906Y0095261D01*
X0348071Y0095279D01*
X0348237Y0095294D01*
X0348403Y0095304D01*
X0348569Y0095310D01*
X0348735Y0095312D01*
X0348901Y0095310D01*
X0349067Y0095304D01*
X0349233Y0095294D01*
X0349399Y0095279D01*
X0349564Y0095261D01*
X0349729Y0095239D01*
X0349893Y0095212D01*
X0350056Y0095182D01*
X0350219Y0095147D01*
X0350381Y0095109D01*
X0350541Y0095067D01*
X0350701Y0095020D01*
X0350860Y0094970D01*
X0351017Y0094916D01*
X0351173Y0094858D01*
X0351327Y0094796D01*
X0351480Y0094731D01*
X0351631Y0094662D01*
X0351780Y0094589D01*
X0351928Y0094512D01*
X0352073Y0094432D01*
X0352217Y0094348D01*
X0352359Y0094261D01*
X0352498Y0094171D01*
X0352635Y0094077D01*
X0352770Y0093979D01*
X0352902Y0093878D01*
X0353032Y0093775D01*
X0353159Y0093668D01*
X0353283Y0093557D01*
X0353405Y0093444D01*
X0353524Y0093328D01*
X0353640Y0093209D01*
X0353753Y0093087D01*
X0353864Y0092963D01*
X0353971Y0092836D01*
X0354074Y0092706D01*
X0354175Y0092574D01*
X0354273Y0092439D01*
X0354367Y0092302D01*
X0354457Y0092163D01*
X0354544Y0092021D01*
X0354628Y0091877D01*
X0354708Y0091732D01*
X0354785Y0091584D01*
X0354858Y0091435D01*
X0354927Y0091284D01*
X0354992Y0091131D01*
X0355054Y0090977D01*
X0355112Y0090821D01*
X0355166Y0090664D01*
X0355216Y0090505D01*
X0355263Y0090345D01*
X0355305Y0090185D01*
X0355343Y0090023D01*
X0355378Y0089860D01*
X0355408Y0089697D01*
X0355435Y0089533D01*
X0355457Y0089368D01*
X0355475Y0089203D01*
X0355490Y0089037D01*
X0355500Y0088871D01*
X0355506Y0088705D01*
X0355508Y0088539D01*
X0355506Y0088373D01*
X0355500Y0088207D01*
X0355490Y0088041D01*
X0355475Y0087875D01*
X0355457Y0087710D01*
X0355435Y0087545D01*
X0355408Y0087381D01*
X0355378Y0087218D01*
X0355343Y0087055D01*
X0355305Y0086893D01*
X0355263Y0086733D01*
X0355216Y0086573D01*
X0355166Y0086414D01*
X0355112Y0086257D01*
X0355054Y0086101D01*
X0354992Y0085947D01*
X0354927Y0085794D01*
X0354858Y0085643D01*
X0354785Y0085494D01*
X0354708Y0085346D01*
X0354628Y0085201D01*
X0354544Y0085057D01*
X0354457Y0084915D01*
X0354367Y0084776D01*
X0354273Y0084639D01*
X0354175Y0084504D01*
X0354074Y0084372D01*
X0353971Y0084242D01*
X0353864Y0084115D01*
X0353753Y0083991D01*
X0353640Y0083869D01*
X0353524Y0083750D01*
X0353405Y0083634D01*
X0353283Y0083521D01*
X0353159Y0083410D01*
X0353032Y0083303D01*
X0352902Y0083200D01*
X0352770Y0083099D01*
X0352635Y0083001D01*
X0352498Y0082907D01*
X0352359Y0082817D01*
X0352217Y0082730D01*
X0352073Y0082646D01*
X0351928Y0082566D01*
X0351780Y0082489D01*
X0351631Y0082416D01*
X0351480Y0082347D01*
X0351327Y0082282D01*
X0351173Y0082220D01*
X0351017Y0082162D01*
X0350860Y0082108D01*
X0350701Y0082058D01*
X0350541Y0082011D01*
X0350381Y0081969D01*
X0350219Y0081931D01*
X0350056Y0081896D01*
X0349893Y0081866D01*
X0349729Y0081839D01*
X0349564Y0081817D01*
X0349399Y0081799D01*
X0349233Y0081784D01*
X0349067Y0081774D01*
X0348901Y0081768D01*
X0348735Y0081766D01*
X0348569Y0081768D01*
X0348403Y0081774D01*
X0348237Y0081784D01*
X0348071Y0081799D01*
X0347906Y0081817D01*
X0347741Y0081839D01*
X0347577Y0081866D01*
X0347414Y0081896D01*
X0347251Y0081931D01*
X0347089Y0081969D01*
X0346929Y0082011D01*
X0346769Y0082058D01*
X0346610Y0082108D01*
X0346453Y0082162D01*
X0346297Y0082220D01*
X0346143Y0082282D01*
X0345990Y0082347D01*
X0345839Y0082416D01*
X0345690Y0082489D01*
X0345542Y0082566D01*
X0345397Y0082646D01*
X0345253Y0082730D01*
X0345111Y0082817D01*
X0344972Y0082907D01*
X0344835Y0083001D01*
X0344700Y0083099D01*
X0344568Y0083200D01*
X0344438Y0083303D01*
X0344311Y0083410D01*
X0344187Y0083521D01*
X0344065Y0083634D01*
X0343946Y0083750D01*
X0343830Y0083869D01*
X0343717Y0083991D01*
X0343606Y0084115D01*
X0343499Y0084242D01*
X0343396Y0084372D01*
X0343295Y0084504D01*
X0343197Y0084639D01*
X0343103Y0084776D01*
X0343013Y0084915D01*
X0342926Y0085057D01*
X0342842Y0085201D01*
X0342762Y0085346D01*
X0342685Y0085494D01*
X0342612Y0085643D01*
X0342543Y0085794D01*
X0342478Y0085947D01*
X0342416Y0086101D01*
X0342358Y0086257D01*
X0342304Y0086414D01*
X0342254Y0086573D01*
X0342207Y0086733D01*
X0342165Y0086893D01*
X0342127Y0087055D01*
X0342092Y0087218D01*
X0342062Y0087381D01*
X0342035Y0087545D01*
X0342013Y0087710D01*
X0341995Y0087875D01*
X0341980Y0088041D01*
X0341970Y0088207D01*
X0341964Y0088373D01*
X0341962Y0088539D01*
X0335389Y0103381D02*
X0361767Y0103381D01*
X0361767Y0115980D01*
X0335389Y0115980D01*
X0335389Y0103381D01*
X0367082Y0157476D02*
X0367082Y0367476D01*
X0212082Y0367476D01*
X0212082Y0157476D01*
X0367082Y0157476D01*
X0381767Y0228302D02*
X0381767Y0254680D01*
X0394365Y0254680D01*
X0394365Y0228302D01*
X0381767Y0228302D01*
X0453755Y0213361D02*
X0453755Y0193676D01*
X0473440Y0193676D01*
X0473440Y0209818D01*
X0474621Y0208637D01*
X0476196Y0210212D01*
X0473440Y0213361D01*
X0473440Y0209818D01*
X0469897Y0213361D01*
X0473440Y0213361D01*
X0469897Y0213361D02*
X0453755Y0213361D01*
X0456825Y0203519D02*
X0456827Y0203685D01*
X0456833Y0203851D01*
X0456843Y0204017D01*
X0456858Y0204183D01*
X0456876Y0204348D01*
X0456898Y0204513D01*
X0456925Y0204677D01*
X0456955Y0204840D01*
X0456990Y0205003D01*
X0457028Y0205165D01*
X0457070Y0205325D01*
X0457117Y0205485D01*
X0457167Y0205644D01*
X0457221Y0205801D01*
X0457279Y0205957D01*
X0457341Y0206111D01*
X0457406Y0206264D01*
X0457475Y0206415D01*
X0457548Y0206564D01*
X0457625Y0206712D01*
X0457705Y0206857D01*
X0457789Y0207001D01*
X0457876Y0207143D01*
X0457966Y0207282D01*
X0458060Y0207419D01*
X0458158Y0207554D01*
X0458259Y0207686D01*
X0458362Y0207816D01*
X0458469Y0207943D01*
X0458580Y0208067D01*
X0458693Y0208189D01*
X0458809Y0208308D01*
X0458928Y0208424D01*
X0459050Y0208537D01*
X0459174Y0208648D01*
X0459301Y0208755D01*
X0459431Y0208858D01*
X0459563Y0208959D01*
X0459698Y0209057D01*
X0459835Y0209151D01*
X0459974Y0209241D01*
X0460116Y0209328D01*
X0460260Y0209412D01*
X0460405Y0209492D01*
X0460553Y0209569D01*
X0460702Y0209642D01*
X0460853Y0209711D01*
X0461006Y0209776D01*
X0461160Y0209838D01*
X0461316Y0209896D01*
X0461473Y0209950D01*
X0461632Y0210000D01*
X0461792Y0210047D01*
X0461952Y0210089D01*
X0462114Y0210127D01*
X0462277Y0210162D01*
X0462440Y0210192D01*
X0462604Y0210219D01*
X0462769Y0210241D01*
X0462934Y0210259D01*
X0463100Y0210274D01*
X0463266Y0210284D01*
X0463432Y0210290D01*
X0463598Y0210292D01*
X0463764Y0210290D01*
X0463930Y0210284D01*
X0464096Y0210274D01*
X0464262Y0210259D01*
X0464427Y0210241D01*
X0464592Y0210219D01*
X0464756Y0210192D01*
X0464919Y0210162D01*
X0465082Y0210127D01*
X0465244Y0210089D01*
X0465404Y0210047D01*
X0465564Y0210000D01*
X0465723Y0209950D01*
X0465880Y0209896D01*
X0466036Y0209838D01*
X0466190Y0209776D01*
X0466343Y0209711D01*
X0466494Y0209642D01*
X0466643Y0209569D01*
X0466791Y0209492D01*
X0466936Y0209412D01*
X0467080Y0209328D01*
X0467222Y0209241D01*
X0467361Y0209151D01*
X0467498Y0209057D01*
X0467633Y0208959D01*
X0467765Y0208858D01*
X0467895Y0208755D01*
X0468022Y0208648D01*
X0468146Y0208537D01*
X0468268Y0208424D01*
X0468387Y0208308D01*
X0468503Y0208189D01*
X0468616Y0208067D01*
X0468727Y0207943D01*
X0468834Y0207816D01*
X0468937Y0207686D01*
X0469038Y0207554D01*
X0469136Y0207419D01*
X0469230Y0207282D01*
X0469320Y0207143D01*
X0469407Y0207001D01*
X0469491Y0206857D01*
X0469571Y0206712D01*
X0469648Y0206564D01*
X0469721Y0206415D01*
X0469790Y0206264D01*
X0469855Y0206111D01*
X0469917Y0205957D01*
X0469975Y0205801D01*
X0470029Y0205644D01*
X0470079Y0205485D01*
X0470126Y0205325D01*
X0470168Y0205165D01*
X0470206Y0205003D01*
X0470241Y0204840D01*
X0470271Y0204677D01*
X0470298Y0204513D01*
X0470320Y0204348D01*
X0470338Y0204183D01*
X0470353Y0204017D01*
X0470363Y0203851D01*
X0470369Y0203685D01*
X0470371Y0203519D01*
X0470369Y0203353D01*
X0470363Y0203187D01*
X0470353Y0203021D01*
X0470338Y0202855D01*
X0470320Y0202690D01*
X0470298Y0202525D01*
X0470271Y0202361D01*
X0470241Y0202198D01*
X0470206Y0202035D01*
X0470168Y0201873D01*
X0470126Y0201713D01*
X0470079Y0201553D01*
X0470029Y0201394D01*
X0469975Y0201237D01*
X0469917Y0201081D01*
X0469855Y0200927D01*
X0469790Y0200774D01*
X0469721Y0200623D01*
X0469648Y0200474D01*
X0469571Y0200326D01*
X0469491Y0200181D01*
X0469407Y0200037D01*
X0469320Y0199895D01*
X0469230Y0199756D01*
X0469136Y0199619D01*
X0469038Y0199484D01*
X0468937Y0199352D01*
X0468834Y0199222D01*
X0468727Y0199095D01*
X0468616Y0198971D01*
X0468503Y0198849D01*
X0468387Y0198730D01*
X0468268Y0198614D01*
X0468146Y0198501D01*
X0468022Y0198390D01*
X0467895Y0198283D01*
X0467765Y0198180D01*
X0467633Y0198079D01*
X0467498Y0197981D01*
X0467361Y0197887D01*
X0467222Y0197797D01*
X0467080Y0197710D01*
X0466936Y0197626D01*
X0466791Y0197546D01*
X0466643Y0197469D01*
X0466494Y0197396D01*
X0466343Y0197327D01*
X0466190Y0197262D01*
X0466036Y0197200D01*
X0465880Y0197142D01*
X0465723Y0197088D01*
X0465564Y0197038D01*
X0465404Y0196991D01*
X0465244Y0196949D01*
X0465082Y0196911D01*
X0464919Y0196876D01*
X0464756Y0196846D01*
X0464592Y0196819D01*
X0464427Y0196797D01*
X0464262Y0196779D01*
X0464096Y0196764D01*
X0463930Y0196754D01*
X0463764Y0196748D01*
X0463598Y0196746D01*
X0463432Y0196748D01*
X0463266Y0196754D01*
X0463100Y0196764D01*
X0462934Y0196779D01*
X0462769Y0196797D01*
X0462604Y0196819D01*
X0462440Y0196846D01*
X0462277Y0196876D01*
X0462114Y0196911D01*
X0461952Y0196949D01*
X0461792Y0196991D01*
X0461632Y0197038D01*
X0461473Y0197088D01*
X0461316Y0197142D01*
X0461160Y0197200D01*
X0461006Y0197262D01*
X0460853Y0197327D01*
X0460702Y0197396D01*
X0460553Y0197469D01*
X0460405Y0197546D01*
X0460260Y0197626D01*
X0460116Y0197710D01*
X0459974Y0197797D01*
X0459835Y0197887D01*
X0459698Y0197981D01*
X0459563Y0198079D01*
X0459431Y0198180D01*
X0459301Y0198283D01*
X0459174Y0198390D01*
X0459050Y0198501D01*
X0458928Y0198614D01*
X0458809Y0198730D01*
X0458693Y0198849D01*
X0458580Y0198971D01*
X0458469Y0199095D01*
X0458362Y0199222D01*
X0458259Y0199352D01*
X0458158Y0199484D01*
X0458060Y0199619D01*
X0457966Y0199756D01*
X0457876Y0199895D01*
X0457789Y0200037D01*
X0457705Y0200181D01*
X0457625Y0200326D01*
X0457548Y0200474D01*
X0457475Y0200623D01*
X0457406Y0200774D01*
X0457341Y0200927D01*
X0457279Y0201081D01*
X0457221Y0201237D01*
X0457167Y0201394D01*
X0457117Y0201553D01*
X0457070Y0201713D01*
X0457028Y0201873D01*
X0456990Y0202035D01*
X0456955Y0202198D01*
X0456925Y0202361D01*
X0456898Y0202525D01*
X0456876Y0202690D01*
X0456858Y0202855D01*
X0456843Y0203021D01*
X0456833Y0203187D01*
X0456827Y0203353D01*
X0456825Y0203519D01*
X0453854Y0311806D02*
X0473539Y0311806D01*
X0473539Y0327948D01*
X0474720Y0326767D01*
X0476294Y0328342D01*
X0473539Y0331491D01*
X0473539Y0327948D01*
X0469995Y0331491D01*
X0473539Y0331491D01*
X0469995Y0331491D02*
X0453854Y0331491D01*
X0453854Y0311806D01*
X0456923Y0321649D02*
X0456925Y0321815D01*
X0456931Y0321981D01*
X0456941Y0322147D01*
X0456956Y0322313D01*
X0456974Y0322478D01*
X0456996Y0322643D01*
X0457023Y0322807D01*
X0457053Y0322970D01*
X0457088Y0323133D01*
X0457126Y0323295D01*
X0457168Y0323455D01*
X0457215Y0323615D01*
X0457265Y0323774D01*
X0457319Y0323931D01*
X0457377Y0324087D01*
X0457439Y0324241D01*
X0457504Y0324394D01*
X0457573Y0324545D01*
X0457646Y0324694D01*
X0457723Y0324842D01*
X0457803Y0324987D01*
X0457887Y0325131D01*
X0457974Y0325273D01*
X0458064Y0325412D01*
X0458158Y0325549D01*
X0458256Y0325684D01*
X0458357Y0325816D01*
X0458460Y0325946D01*
X0458567Y0326073D01*
X0458678Y0326197D01*
X0458791Y0326319D01*
X0458907Y0326438D01*
X0459026Y0326554D01*
X0459148Y0326667D01*
X0459272Y0326778D01*
X0459399Y0326885D01*
X0459529Y0326988D01*
X0459661Y0327089D01*
X0459796Y0327187D01*
X0459933Y0327281D01*
X0460072Y0327371D01*
X0460214Y0327458D01*
X0460358Y0327542D01*
X0460503Y0327622D01*
X0460651Y0327699D01*
X0460800Y0327772D01*
X0460951Y0327841D01*
X0461104Y0327906D01*
X0461258Y0327968D01*
X0461414Y0328026D01*
X0461571Y0328080D01*
X0461730Y0328130D01*
X0461890Y0328177D01*
X0462050Y0328219D01*
X0462212Y0328257D01*
X0462375Y0328292D01*
X0462538Y0328322D01*
X0462702Y0328349D01*
X0462867Y0328371D01*
X0463032Y0328389D01*
X0463198Y0328404D01*
X0463364Y0328414D01*
X0463530Y0328420D01*
X0463696Y0328422D01*
X0463862Y0328420D01*
X0464028Y0328414D01*
X0464194Y0328404D01*
X0464360Y0328389D01*
X0464525Y0328371D01*
X0464690Y0328349D01*
X0464854Y0328322D01*
X0465017Y0328292D01*
X0465180Y0328257D01*
X0465342Y0328219D01*
X0465502Y0328177D01*
X0465662Y0328130D01*
X0465821Y0328080D01*
X0465978Y0328026D01*
X0466134Y0327968D01*
X0466288Y0327906D01*
X0466441Y0327841D01*
X0466592Y0327772D01*
X0466741Y0327699D01*
X0466889Y0327622D01*
X0467034Y0327542D01*
X0467178Y0327458D01*
X0467320Y0327371D01*
X0467459Y0327281D01*
X0467596Y0327187D01*
X0467731Y0327089D01*
X0467863Y0326988D01*
X0467993Y0326885D01*
X0468120Y0326778D01*
X0468244Y0326667D01*
X0468366Y0326554D01*
X0468485Y0326438D01*
X0468601Y0326319D01*
X0468714Y0326197D01*
X0468825Y0326073D01*
X0468932Y0325946D01*
X0469035Y0325816D01*
X0469136Y0325684D01*
X0469234Y0325549D01*
X0469328Y0325412D01*
X0469418Y0325273D01*
X0469505Y0325131D01*
X0469589Y0324987D01*
X0469669Y0324842D01*
X0469746Y0324694D01*
X0469819Y0324545D01*
X0469888Y0324394D01*
X0469953Y0324241D01*
X0470015Y0324087D01*
X0470073Y0323931D01*
X0470127Y0323774D01*
X0470177Y0323615D01*
X0470224Y0323455D01*
X0470266Y0323295D01*
X0470304Y0323133D01*
X0470339Y0322970D01*
X0470369Y0322807D01*
X0470396Y0322643D01*
X0470418Y0322478D01*
X0470436Y0322313D01*
X0470451Y0322147D01*
X0470461Y0321981D01*
X0470467Y0321815D01*
X0470469Y0321649D01*
X0470467Y0321483D01*
X0470461Y0321317D01*
X0470451Y0321151D01*
X0470436Y0320985D01*
X0470418Y0320820D01*
X0470396Y0320655D01*
X0470369Y0320491D01*
X0470339Y0320328D01*
X0470304Y0320165D01*
X0470266Y0320003D01*
X0470224Y0319843D01*
X0470177Y0319683D01*
X0470127Y0319524D01*
X0470073Y0319367D01*
X0470015Y0319211D01*
X0469953Y0319057D01*
X0469888Y0318904D01*
X0469819Y0318753D01*
X0469746Y0318604D01*
X0469669Y0318456D01*
X0469589Y0318311D01*
X0469505Y0318167D01*
X0469418Y0318025D01*
X0469328Y0317886D01*
X0469234Y0317749D01*
X0469136Y0317614D01*
X0469035Y0317482D01*
X0468932Y0317352D01*
X0468825Y0317225D01*
X0468714Y0317101D01*
X0468601Y0316979D01*
X0468485Y0316860D01*
X0468366Y0316744D01*
X0468244Y0316631D01*
X0468120Y0316520D01*
X0467993Y0316413D01*
X0467863Y0316310D01*
X0467731Y0316209D01*
X0467596Y0316111D01*
X0467459Y0316017D01*
X0467320Y0315927D01*
X0467178Y0315840D01*
X0467034Y0315756D01*
X0466889Y0315676D01*
X0466741Y0315599D01*
X0466592Y0315526D01*
X0466441Y0315457D01*
X0466288Y0315392D01*
X0466134Y0315330D01*
X0465978Y0315272D01*
X0465821Y0315218D01*
X0465662Y0315168D01*
X0465502Y0315121D01*
X0465342Y0315079D01*
X0465180Y0315041D01*
X0465017Y0315006D01*
X0464854Y0314976D01*
X0464690Y0314949D01*
X0464525Y0314927D01*
X0464360Y0314909D01*
X0464194Y0314894D01*
X0464028Y0314884D01*
X0463862Y0314878D01*
X0463696Y0314876D01*
X0463530Y0314878D01*
X0463364Y0314884D01*
X0463198Y0314894D01*
X0463032Y0314909D01*
X0462867Y0314927D01*
X0462702Y0314949D01*
X0462538Y0314976D01*
X0462375Y0315006D01*
X0462212Y0315041D01*
X0462050Y0315079D01*
X0461890Y0315121D01*
X0461730Y0315168D01*
X0461571Y0315218D01*
X0461414Y0315272D01*
X0461258Y0315330D01*
X0461104Y0315392D01*
X0460951Y0315457D01*
X0460800Y0315526D01*
X0460651Y0315599D01*
X0460503Y0315676D01*
X0460358Y0315756D01*
X0460214Y0315840D01*
X0460072Y0315927D01*
X0459933Y0316017D01*
X0459796Y0316111D01*
X0459661Y0316209D01*
X0459529Y0316310D01*
X0459399Y0316413D01*
X0459272Y0316520D01*
X0459148Y0316631D01*
X0459026Y0316744D01*
X0458907Y0316860D01*
X0458791Y0316979D01*
X0458678Y0317101D01*
X0458567Y0317225D01*
X0458460Y0317352D01*
X0458357Y0317482D01*
X0458256Y0317614D01*
X0458158Y0317749D01*
X0458064Y0317886D01*
X0457974Y0318025D01*
X0457887Y0318167D01*
X0457803Y0318311D01*
X0457723Y0318456D01*
X0457646Y0318604D01*
X0457573Y0318753D01*
X0457504Y0318904D01*
X0457439Y0319057D01*
X0457377Y0319211D01*
X0457319Y0319367D01*
X0457265Y0319524D01*
X0457215Y0319683D01*
X0457168Y0319843D01*
X0457126Y0320003D01*
X0457088Y0320165D01*
X0457053Y0320328D01*
X0457023Y0320491D01*
X0456996Y0320655D01*
X0456974Y0320820D01*
X0456956Y0320985D01*
X0456941Y0321151D01*
X0456931Y0321317D01*
X0456925Y0321483D01*
X0456923Y0321649D01*
X0358499Y0427161D02*
X0338814Y0427161D01*
X0338814Y0443302D01*
X0342357Y0446846D01*
X0343539Y0448027D01*
X0341964Y0449602D01*
X0338814Y0446846D01*
X0342357Y0446846D01*
X0358499Y0446846D01*
X0358499Y0427161D01*
X0341884Y0437003D02*
X0341886Y0437169D01*
X0341892Y0437335D01*
X0341902Y0437501D01*
X0341917Y0437667D01*
X0341935Y0437832D01*
X0341957Y0437997D01*
X0341984Y0438161D01*
X0342014Y0438324D01*
X0342049Y0438487D01*
X0342087Y0438649D01*
X0342129Y0438809D01*
X0342176Y0438969D01*
X0342226Y0439128D01*
X0342280Y0439285D01*
X0342338Y0439441D01*
X0342400Y0439595D01*
X0342465Y0439748D01*
X0342534Y0439899D01*
X0342607Y0440048D01*
X0342684Y0440196D01*
X0342764Y0440341D01*
X0342848Y0440485D01*
X0342935Y0440627D01*
X0343025Y0440766D01*
X0343119Y0440903D01*
X0343217Y0441038D01*
X0343318Y0441170D01*
X0343421Y0441300D01*
X0343528Y0441427D01*
X0343639Y0441551D01*
X0343752Y0441673D01*
X0343868Y0441792D01*
X0343987Y0441908D01*
X0344109Y0442021D01*
X0344233Y0442132D01*
X0344360Y0442239D01*
X0344490Y0442342D01*
X0344622Y0442443D01*
X0344757Y0442541D01*
X0344894Y0442635D01*
X0345033Y0442725D01*
X0345175Y0442812D01*
X0345319Y0442896D01*
X0345464Y0442976D01*
X0345612Y0443053D01*
X0345761Y0443126D01*
X0345912Y0443195D01*
X0346065Y0443260D01*
X0346219Y0443322D01*
X0346375Y0443380D01*
X0346532Y0443434D01*
X0346691Y0443484D01*
X0346851Y0443531D01*
X0347011Y0443573D01*
X0347173Y0443611D01*
X0347336Y0443646D01*
X0347499Y0443676D01*
X0347663Y0443703D01*
X0347828Y0443725D01*
X0347993Y0443743D01*
X0348159Y0443758D01*
X0348325Y0443768D01*
X0348491Y0443774D01*
X0348657Y0443776D01*
X0348823Y0443774D01*
X0348989Y0443768D01*
X0349155Y0443758D01*
X0349321Y0443743D01*
X0349486Y0443725D01*
X0349651Y0443703D01*
X0349815Y0443676D01*
X0349978Y0443646D01*
X0350141Y0443611D01*
X0350303Y0443573D01*
X0350463Y0443531D01*
X0350623Y0443484D01*
X0350782Y0443434D01*
X0350939Y0443380D01*
X0351095Y0443322D01*
X0351249Y0443260D01*
X0351402Y0443195D01*
X0351553Y0443126D01*
X0351702Y0443053D01*
X0351850Y0442976D01*
X0351995Y0442896D01*
X0352139Y0442812D01*
X0352281Y0442725D01*
X0352420Y0442635D01*
X0352557Y0442541D01*
X0352692Y0442443D01*
X0352824Y0442342D01*
X0352954Y0442239D01*
X0353081Y0442132D01*
X0353205Y0442021D01*
X0353327Y0441908D01*
X0353446Y0441792D01*
X0353562Y0441673D01*
X0353675Y0441551D01*
X0353786Y0441427D01*
X0353893Y0441300D01*
X0353996Y0441170D01*
X0354097Y0441038D01*
X0354195Y0440903D01*
X0354289Y0440766D01*
X0354379Y0440627D01*
X0354466Y0440485D01*
X0354550Y0440341D01*
X0354630Y0440196D01*
X0354707Y0440048D01*
X0354780Y0439899D01*
X0354849Y0439748D01*
X0354914Y0439595D01*
X0354976Y0439441D01*
X0355034Y0439285D01*
X0355088Y0439128D01*
X0355138Y0438969D01*
X0355185Y0438809D01*
X0355227Y0438649D01*
X0355265Y0438487D01*
X0355300Y0438324D01*
X0355330Y0438161D01*
X0355357Y0437997D01*
X0355379Y0437832D01*
X0355397Y0437667D01*
X0355412Y0437501D01*
X0355422Y0437335D01*
X0355428Y0437169D01*
X0355430Y0437003D01*
X0355428Y0436837D01*
X0355422Y0436671D01*
X0355412Y0436505D01*
X0355397Y0436339D01*
X0355379Y0436174D01*
X0355357Y0436009D01*
X0355330Y0435845D01*
X0355300Y0435682D01*
X0355265Y0435519D01*
X0355227Y0435357D01*
X0355185Y0435197D01*
X0355138Y0435037D01*
X0355088Y0434878D01*
X0355034Y0434721D01*
X0354976Y0434565D01*
X0354914Y0434411D01*
X0354849Y0434258D01*
X0354780Y0434107D01*
X0354707Y0433958D01*
X0354630Y0433810D01*
X0354550Y0433665D01*
X0354466Y0433521D01*
X0354379Y0433379D01*
X0354289Y0433240D01*
X0354195Y0433103D01*
X0354097Y0432968D01*
X0353996Y0432836D01*
X0353893Y0432706D01*
X0353786Y0432579D01*
X0353675Y0432455D01*
X0353562Y0432333D01*
X0353446Y0432214D01*
X0353327Y0432098D01*
X0353205Y0431985D01*
X0353081Y0431874D01*
X0352954Y0431767D01*
X0352824Y0431664D01*
X0352692Y0431563D01*
X0352557Y0431465D01*
X0352420Y0431371D01*
X0352281Y0431281D01*
X0352139Y0431194D01*
X0351995Y0431110D01*
X0351850Y0431030D01*
X0351702Y0430953D01*
X0351553Y0430880D01*
X0351402Y0430811D01*
X0351249Y0430746D01*
X0351095Y0430684D01*
X0350939Y0430626D01*
X0350782Y0430572D01*
X0350623Y0430522D01*
X0350463Y0430475D01*
X0350303Y0430433D01*
X0350141Y0430395D01*
X0349978Y0430360D01*
X0349815Y0430330D01*
X0349651Y0430303D01*
X0349486Y0430281D01*
X0349321Y0430263D01*
X0349155Y0430248D01*
X0348989Y0430238D01*
X0348823Y0430232D01*
X0348657Y0430230D01*
X0348491Y0430232D01*
X0348325Y0430238D01*
X0348159Y0430248D01*
X0347993Y0430263D01*
X0347828Y0430281D01*
X0347663Y0430303D01*
X0347499Y0430330D01*
X0347336Y0430360D01*
X0347173Y0430395D01*
X0347011Y0430433D01*
X0346851Y0430475D01*
X0346691Y0430522D01*
X0346532Y0430572D01*
X0346375Y0430626D01*
X0346219Y0430684D01*
X0346065Y0430746D01*
X0345912Y0430811D01*
X0345761Y0430880D01*
X0345612Y0430953D01*
X0345464Y0431030D01*
X0345319Y0431110D01*
X0345175Y0431194D01*
X0345033Y0431281D01*
X0344894Y0431371D01*
X0344757Y0431465D01*
X0344622Y0431563D01*
X0344490Y0431664D01*
X0344360Y0431767D01*
X0344233Y0431874D01*
X0344109Y0431985D01*
X0343987Y0432098D01*
X0343868Y0432214D01*
X0343752Y0432333D01*
X0343639Y0432455D01*
X0343528Y0432579D01*
X0343421Y0432706D01*
X0343318Y0432836D01*
X0343217Y0432968D01*
X0343119Y0433103D01*
X0343025Y0433240D01*
X0342935Y0433379D01*
X0342848Y0433521D01*
X0342764Y0433665D01*
X0342684Y0433810D01*
X0342607Y0433958D01*
X0342534Y0434107D01*
X0342465Y0434258D01*
X0342400Y0434411D01*
X0342338Y0434565D01*
X0342280Y0434721D01*
X0342226Y0434878D01*
X0342176Y0435037D01*
X0342129Y0435197D01*
X0342087Y0435357D01*
X0342049Y0435519D01*
X0342014Y0435682D01*
X0341984Y0435845D01*
X0341957Y0436009D01*
X0341935Y0436174D01*
X0341917Y0436339D01*
X0341902Y0436505D01*
X0341892Y0436671D01*
X0341886Y0436837D01*
X0341884Y0437003D01*
X0338814Y0443302D02*
X0338814Y0446846D01*
X0240389Y0446846D02*
X0240389Y0427161D01*
X0220704Y0427161D01*
X0220704Y0443302D01*
X0224247Y0446846D01*
X0225428Y0448027D01*
X0223854Y0449602D01*
X0220704Y0446846D01*
X0224247Y0446846D01*
X0240389Y0446846D01*
X0223773Y0437003D02*
X0223775Y0437169D01*
X0223781Y0437335D01*
X0223791Y0437501D01*
X0223806Y0437667D01*
X0223824Y0437832D01*
X0223846Y0437997D01*
X0223873Y0438161D01*
X0223903Y0438324D01*
X0223938Y0438487D01*
X0223976Y0438649D01*
X0224018Y0438809D01*
X0224065Y0438969D01*
X0224115Y0439128D01*
X0224169Y0439285D01*
X0224227Y0439441D01*
X0224289Y0439595D01*
X0224354Y0439748D01*
X0224423Y0439899D01*
X0224496Y0440048D01*
X0224573Y0440196D01*
X0224653Y0440341D01*
X0224737Y0440485D01*
X0224824Y0440627D01*
X0224914Y0440766D01*
X0225008Y0440903D01*
X0225106Y0441038D01*
X0225207Y0441170D01*
X0225310Y0441300D01*
X0225417Y0441427D01*
X0225528Y0441551D01*
X0225641Y0441673D01*
X0225757Y0441792D01*
X0225876Y0441908D01*
X0225998Y0442021D01*
X0226122Y0442132D01*
X0226249Y0442239D01*
X0226379Y0442342D01*
X0226511Y0442443D01*
X0226646Y0442541D01*
X0226783Y0442635D01*
X0226922Y0442725D01*
X0227064Y0442812D01*
X0227208Y0442896D01*
X0227353Y0442976D01*
X0227501Y0443053D01*
X0227650Y0443126D01*
X0227801Y0443195D01*
X0227954Y0443260D01*
X0228108Y0443322D01*
X0228264Y0443380D01*
X0228421Y0443434D01*
X0228580Y0443484D01*
X0228740Y0443531D01*
X0228900Y0443573D01*
X0229062Y0443611D01*
X0229225Y0443646D01*
X0229388Y0443676D01*
X0229552Y0443703D01*
X0229717Y0443725D01*
X0229882Y0443743D01*
X0230048Y0443758D01*
X0230214Y0443768D01*
X0230380Y0443774D01*
X0230546Y0443776D01*
X0230712Y0443774D01*
X0230878Y0443768D01*
X0231044Y0443758D01*
X0231210Y0443743D01*
X0231375Y0443725D01*
X0231540Y0443703D01*
X0231704Y0443676D01*
X0231867Y0443646D01*
X0232030Y0443611D01*
X0232192Y0443573D01*
X0232352Y0443531D01*
X0232512Y0443484D01*
X0232671Y0443434D01*
X0232828Y0443380D01*
X0232984Y0443322D01*
X0233138Y0443260D01*
X0233291Y0443195D01*
X0233442Y0443126D01*
X0233591Y0443053D01*
X0233739Y0442976D01*
X0233884Y0442896D01*
X0234028Y0442812D01*
X0234170Y0442725D01*
X0234309Y0442635D01*
X0234446Y0442541D01*
X0234581Y0442443D01*
X0234713Y0442342D01*
X0234843Y0442239D01*
X0234970Y0442132D01*
X0235094Y0442021D01*
X0235216Y0441908D01*
X0235335Y0441792D01*
X0235451Y0441673D01*
X0235564Y0441551D01*
X0235675Y0441427D01*
X0235782Y0441300D01*
X0235885Y0441170D01*
X0235986Y0441038D01*
X0236084Y0440903D01*
X0236178Y0440766D01*
X0236268Y0440627D01*
X0236355Y0440485D01*
X0236439Y0440341D01*
X0236519Y0440196D01*
X0236596Y0440048D01*
X0236669Y0439899D01*
X0236738Y0439748D01*
X0236803Y0439595D01*
X0236865Y0439441D01*
X0236923Y0439285D01*
X0236977Y0439128D01*
X0237027Y0438969D01*
X0237074Y0438809D01*
X0237116Y0438649D01*
X0237154Y0438487D01*
X0237189Y0438324D01*
X0237219Y0438161D01*
X0237246Y0437997D01*
X0237268Y0437832D01*
X0237286Y0437667D01*
X0237301Y0437501D01*
X0237311Y0437335D01*
X0237317Y0437169D01*
X0237319Y0437003D01*
X0237317Y0436837D01*
X0237311Y0436671D01*
X0237301Y0436505D01*
X0237286Y0436339D01*
X0237268Y0436174D01*
X0237246Y0436009D01*
X0237219Y0435845D01*
X0237189Y0435682D01*
X0237154Y0435519D01*
X0237116Y0435357D01*
X0237074Y0435197D01*
X0237027Y0435037D01*
X0236977Y0434878D01*
X0236923Y0434721D01*
X0236865Y0434565D01*
X0236803Y0434411D01*
X0236738Y0434258D01*
X0236669Y0434107D01*
X0236596Y0433958D01*
X0236519Y0433810D01*
X0236439Y0433665D01*
X0236355Y0433521D01*
X0236268Y0433379D01*
X0236178Y0433240D01*
X0236084Y0433103D01*
X0235986Y0432968D01*
X0235885Y0432836D01*
X0235782Y0432706D01*
X0235675Y0432579D01*
X0235564Y0432455D01*
X0235451Y0432333D01*
X0235335Y0432214D01*
X0235216Y0432098D01*
X0235094Y0431985D01*
X0234970Y0431874D01*
X0234843Y0431767D01*
X0234713Y0431664D01*
X0234581Y0431563D01*
X0234446Y0431465D01*
X0234309Y0431371D01*
X0234170Y0431281D01*
X0234028Y0431194D01*
X0233884Y0431110D01*
X0233739Y0431030D01*
X0233591Y0430953D01*
X0233442Y0430880D01*
X0233291Y0430811D01*
X0233138Y0430746D01*
X0232984Y0430684D01*
X0232828Y0430626D01*
X0232671Y0430572D01*
X0232512Y0430522D01*
X0232352Y0430475D01*
X0232192Y0430433D01*
X0232030Y0430395D01*
X0231867Y0430360D01*
X0231704Y0430330D01*
X0231540Y0430303D01*
X0231375Y0430281D01*
X0231210Y0430263D01*
X0231044Y0430248D01*
X0230878Y0430238D01*
X0230712Y0430232D01*
X0230546Y0430230D01*
X0230380Y0430232D01*
X0230214Y0430238D01*
X0230048Y0430248D01*
X0229882Y0430263D01*
X0229717Y0430281D01*
X0229552Y0430303D01*
X0229388Y0430330D01*
X0229225Y0430360D01*
X0229062Y0430395D01*
X0228900Y0430433D01*
X0228740Y0430475D01*
X0228580Y0430522D01*
X0228421Y0430572D01*
X0228264Y0430626D01*
X0228108Y0430684D01*
X0227954Y0430746D01*
X0227801Y0430811D01*
X0227650Y0430880D01*
X0227501Y0430953D01*
X0227353Y0431030D01*
X0227208Y0431110D01*
X0227064Y0431194D01*
X0226922Y0431281D01*
X0226783Y0431371D01*
X0226646Y0431465D01*
X0226511Y0431563D01*
X0226379Y0431664D01*
X0226249Y0431767D01*
X0226122Y0431874D01*
X0225998Y0431985D01*
X0225876Y0432098D01*
X0225757Y0432214D01*
X0225641Y0432333D01*
X0225528Y0432455D01*
X0225417Y0432579D01*
X0225310Y0432706D01*
X0225207Y0432836D01*
X0225106Y0432968D01*
X0225008Y0433103D01*
X0224914Y0433240D01*
X0224824Y0433379D01*
X0224737Y0433521D01*
X0224653Y0433665D01*
X0224573Y0433810D01*
X0224496Y0433958D01*
X0224423Y0434107D01*
X0224354Y0434258D01*
X0224289Y0434411D01*
X0224227Y0434565D01*
X0224169Y0434721D01*
X0224115Y0434878D01*
X0224065Y0435037D01*
X0224018Y0435197D01*
X0223976Y0435357D01*
X0223938Y0435519D01*
X0223903Y0435682D01*
X0223873Y0435845D01*
X0223846Y0436009D01*
X0223824Y0436174D01*
X0223806Y0436339D01*
X0223791Y0436505D01*
X0223781Y0436671D01*
X0223775Y0436837D01*
X0223773Y0437003D01*
X0220704Y0443302D02*
X0220704Y0446846D01*
X0125035Y0331452D02*
X0105350Y0331452D01*
X0105350Y0315310D01*
X0104169Y0316491D01*
X0102594Y0314917D01*
X0105350Y0311767D01*
X0105350Y0315310D01*
X0108893Y0311767D01*
X0105350Y0311767D01*
X0108893Y0311767D02*
X0125035Y0311767D01*
X0125035Y0331452D01*
X0108419Y0321609D02*
X0108421Y0321775D01*
X0108427Y0321941D01*
X0108437Y0322107D01*
X0108452Y0322273D01*
X0108470Y0322438D01*
X0108492Y0322603D01*
X0108519Y0322767D01*
X0108549Y0322930D01*
X0108584Y0323093D01*
X0108622Y0323255D01*
X0108664Y0323415D01*
X0108711Y0323575D01*
X0108761Y0323734D01*
X0108815Y0323891D01*
X0108873Y0324047D01*
X0108935Y0324201D01*
X0109000Y0324354D01*
X0109069Y0324505D01*
X0109142Y0324654D01*
X0109219Y0324802D01*
X0109299Y0324947D01*
X0109383Y0325091D01*
X0109470Y0325233D01*
X0109560Y0325372D01*
X0109654Y0325509D01*
X0109752Y0325644D01*
X0109853Y0325776D01*
X0109956Y0325906D01*
X0110063Y0326033D01*
X0110174Y0326157D01*
X0110287Y0326279D01*
X0110403Y0326398D01*
X0110522Y0326514D01*
X0110644Y0326627D01*
X0110768Y0326738D01*
X0110895Y0326845D01*
X0111025Y0326948D01*
X0111157Y0327049D01*
X0111292Y0327147D01*
X0111429Y0327241D01*
X0111568Y0327331D01*
X0111710Y0327418D01*
X0111854Y0327502D01*
X0111999Y0327582D01*
X0112147Y0327659D01*
X0112296Y0327732D01*
X0112447Y0327801D01*
X0112600Y0327866D01*
X0112754Y0327928D01*
X0112910Y0327986D01*
X0113067Y0328040D01*
X0113226Y0328090D01*
X0113386Y0328137D01*
X0113546Y0328179D01*
X0113708Y0328217D01*
X0113871Y0328252D01*
X0114034Y0328282D01*
X0114198Y0328309D01*
X0114363Y0328331D01*
X0114528Y0328349D01*
X0114694Y0328364D01*
X0114860Y0328374D01*
X0115026Y0328380D01*
X0115192Y0328382D01*
X0115358Y0328380D01*
X0115524Y0328374D01*
X0115690Y0328364D01*
X0115856Y0328349D01*
X0116021Y0328331D01*
X0116186Y0328309D01*
X0116350Y0328282D01*
X0116513Y0328252D01*
X0116676Y0328217D01*
X0116838Y0328179D01*
X0116998Y0328137D01*
X0117158Y0328090D01*
X0117317Y0328040D01*
X0117474Y0327986D01*
X0117630Y0327928D01*
X0117784Y0327866D01*
X0117937Y0327801D01*
X0118088Y0327732D01*
X0118237Y0327659D01*
X0118385Y0327582D01*
X0118530Y0327502D01*
X0118674Y0327418D01*
X0118816Y0327331D01*
X0118955Y0327241D01*
X0119092Y0327147D01*
X0119227Y0327049D01*
X0119359Y0326948D01*
X0119489Y0326845D01*
X0119616Y0326738D01*
X0119740Y0326627D01*
X0119862Y0326514D01*
X0119981Y0326398D01*
X0120097Y0326279D01*
X0120210Y0326157D01*
X0120321Y0326033D01*
X0120428Y0325906D01*
X0120531Y0325776D01*
X0120632Y0325644D01*
X0120730Y0325509D01*
X0120824Y0325372D01*
X0120914Y0325233D01*
X0121001Y0325091D01*
X0121085Y0324947D01*
X0121165Y0324802D01*
X0121242Y0324654D01*
X0121315Y0324505D01*
X0121384Y0324354D01*
X0121449Y0324201D01*
X0121511Y0324047D01*
X0121569Y0323891D01*
X0121623Y0323734D01*
X0121673Y0323575D01*
X0121720Y0323415D01*
X0121762Y0323255D01*
X0121800Y0323093D01*
X0121835Y0322930D01*
X0121865Y0322767D01*
X0121892Y0322603D01*
X0121914Y0322438D01*
X0121932Y0322273D01*
X0121947Y0322107D01*
X0121957Y0321941D01*
X0121963Y0321775D01*
X0121965Y0321609D01*
X0121963Y0321443D01*
X0121957Y0321277D01*
X0121947Y0321111D01*
X0121932Y0320945D01*
X0121914Y0320780D01*
X0121892Y0320615D01*
X0121865Y0320451D01*
X0121835Y0320288D01*
X0121800Y0320125D01*
X0121762Y0319963D01*
X0121720Y0319803D01*
X0121673Y0319643D01*
X0121623Y0319484D01*
X0121569Y0319327D01*
X0121511Y0319171D01*
X0121449Y0319017D01*
X0121384Y0318864D01*
X0121315Y0318713D01*
X0121242Y0318564D01*
X0121165Y0318416D01*
X0121085Y0318271D01*
X0121001Y0318127D01*
X0120914Y0317985D01*
X0120824Y0317846D01*
X0120730Y0317709D01*
X0120632Y0317574D01*
X0120531Y0317442D01*
X0120428Y0317312D01*
X0120321Y0317185D01*
X0120210Y0317061D01*
X0120097Y0316939D01*
X0119981Y0316820D01*
X0119862Y0316704D01*
X0119740Y0316591D01*
X0119616Y0316480D01*
X0119489Y0316373D01*
X0119359Y0316270D01*
X0119227Y0316169D01*
X0119092Y0316071D01*
X0118955Y0315977D01*
X0118816Y0315887D01*
X0118674Y0315800D01*
X0118530Y0315716D01*
X0118385Y0315636D01*
X0118237Y0315559D01*
X0118088Y0315486D01*
X0117937Y0315417D01*
X0117784Y0315352D01*
X0117630Y0315290D01*
X0117474Y0315232D01*
X0117317Y0315178D01*
X0117158Y0315128D01*
X0116998Y0315081D01*
X0116838Y0315039D01*
X0116676Y0315001D01*
X0116513Y0314966D01*
X0116350Y0314936D01*
X0116186Y0314909D01*
X0116021Y0314887D01*
X0115856Y0314869D01*
X0115690Y0314854D01*
X0115524Y0314844D01*
X0115358Y0314838D01*
X0115192Y0314836D01*
X0115026Y0314838D01*
X0114860Y0314844D01*
X0114694Y0314854D01*
X0114528Y0314869D01*
X0114363Y0314887D01*
X0114198Y0314909D01*
X0114034Y0314936D01*
X0113871Y0314966D01*
X0113708Y0315001D01*
X0113546Y0315039D01*
X0113386Y0315081D01*
X0113226Y0315128D01*
X0113067Y0315178D01*
X0112910Y0315232D01*
X0112754Y0315290D01*
X0112600Y0315352D01*
X0112447Y0315417D01*
X0112296Y0315486D01*
X0112147Y0315559D01*
X0111999Y0315636D01*
X0111854Y0315716D01*
X0111710Y0315800D01*
X0111568Y0315887D01*
X0111429Y0315977D01*
X0111292Y0316071D01*
X0111157Y0316169D01*
X0111025Y0316270D01*
X0110895Y0316373D01*
X0110768Y0316480D01*
X0110644Y0316591D01*
X0110522Y0316704D01*
X0110403Y0316820D01*
X0110287Y0316939D01*
X0110174Y0317061D01*
X0110063Y0317185D01*
X0109956Y0317312D01*
X0109853Y0317442D01*
X0109752Y0317574D01*
X0109654Y0317709D01*
X0109560Y0317846D01*
X0109470Y0317985D01*
X0109383Y0318127D01*
X0109299Y0318271D01*
X0109219Y0318416D01*
X0109142Y0318564D01*
X0109069Y0318713D01*
X0109000Y0318864D01*
X0108935Y0319017D01*
X0108873Y0319171D01*
X0108815Y0319327D01*
X0108761Y0319484D01*
X0108711Y0319643D01*
X0108664Y0319803D01*
X0108622Y0319963D01*
X0108584Y0320125D01*
X0108549Y0320288D01*
X0108519Y0320451D01*
X0108492Y0320615D01*
X0108470Y0320780D01*
X0108452Y0320945D01*
X0108437Y0321111D01*
X0108427Y0321277D01*
X0108421Y0321443D01*
X0108419Y0321609D01*
X0149720Y0283302D02*
X0149720Y0256924D01*
X0162318Y0256924D01*
X0162318Y0283302D01*
X0149720Y0283302D01*
X0173829Y0279410D02*
X0191752Y0279410D01*
X0191752Y0256902D01*
X0173829Y0256902D01*
X0173829Y0279410D01*
X0186381Y0291452D02*
X0183381Y0294452D01*
X0183381Y0299452D01*
X0185381Y0301452D01*
X0183381Y0303452D01*
X0183381Y0309452D01*
X0185381Y0311452D01*
X0183381Y0313452D01*
X0183381Y0318452D01*
X0186381Y0321452D01*
X0200381Y0321452D01*
X0203381Y0318452D01*
X0203381Y0313452D01*
X0201381Y0311452D01*
X0203381Y0309452D01*
X0203381Y0303452D01*
X0201381Y0301452D01*
X0203381Y0299452D01*
X0203381Y0294452D01*
X0200381Y0291452D01*
X0186381Y0291452D01*
X0249178Y0234191D02*
X0249180Y0234316D01*
X0249186Y0234441D01*
X0249196Y0234565D01*
X0249210Y0234689D01*
X0249227Y0234813D01*
X0249249Y0234936D01*
X0249275Y0235058D01*
X0249304Y0235180D01*
X0249337Y0235300D01*
X0249375Y0235419D01*
X0249415Y0235538D01*
X0249460Y0235654D01*
X0249508Y0235769D01*
X0249560Y0235883D01*
X0249616Y0235995D01*
X0249675Y0236105D01*
X0249737Y0236213D01*
X0249803Y0236320D01*
X0249872Y0236424D01*
X0249945Y0236525D01*
X0250020Y0236625D01*
X0250099Y0236722D01*
X0250181Y0236816D01*
X0250266Y0236908D01*
X0250353Y0236997D01*
X0250444Y0237083D01*
X0250537Y0237166D01*
X0250633Y0237247D01*
X0250731Y0237324D01*
X0250831Y0237398D01*
X0250934Y0237469D01*
X0251039Y0237536D01*
X0251147Y0237601D01*
X0251256Y0237661D01*
X0251367Y0237719D01*
X0251480Y0237772D01*
X0251594Y0237822D01*
X0251710Y0237869D01*
X0251827Y0237911D01*
X0251946Y0237950D01*
X0252066Y0237986D01*
X0252187Y0238017D01*
X0252309Y0238045D01*
X0252431Y0238068D01*
X0252555Y0238088D01*
X0252679Y0238104D01*
X0252803Y0238116D01*
X0252928Y0238124D01*
X0253053Y0238128D01*
X0253177Y0238128D01*
X0253302Y0238124D01*
X0253427Y0238116D01*
X0253551Y0238104D01*
X0253675Y0238088D01*
X0253799Y0238068D01*
X0253921Y0238045D01*
X0254043Y0238017D01*
X0254164Y0237986D01*
X0254284Y0237950D01*
X0254403Y0237911D01*
X0254520Y0237869D01*
X0254636Y0237822D01*
X0254750Y0237772D01*
X0254863Y0237719D01*
X0254974Y0237661D01*
X0255084Y0237601D01*
X0255191Y0237536D01*
X0255296Y0237469D01*
X0255399Y0237398D01*
X0255499Y0237324D01*
X0255597Y0237247D01*
X0255693Y0237166D01*
X0255786Y0237083D01*
X0255877Y0236997D01*
X0255964Y0236908D01*
X0256049Y0236816D01*
X0256131Y0236722D01*
X0256210Y0236625D01*
X0256285Y0236525D01*
X0256358Y0236424D01*
X0256427Y0236320D01*
X0256493Y0236213D01*
X0256555Y0236105D01*
X0256614Y0235995D01*
X0256670Y0235883D01*
X0256722Y0235769D01*
X0256770Y0235654D01*
X0256815Y0235538D01*
X0256855Y0235419D01*
X0256893Y0235300D01*
X0256926Y0235180D01*
X0256955Y0235058D01*
X0256981Y0234936D01*
X0257003Y0234813D01*
X0257020Y0234689D01*
X0257034Y0234565D01*
X0257044Y0234441D01*
X0257050Y0234316D01*
X0257052Y0234191D01*
X0257050Y0234066D01*
X0257044Y0233941D01*
X0257034Y0233817D01*
X0257020Y0233693D01*
X0257003Y0233569D01*
X0256981Y0233446D01*
X0256955Y0233324D01*
X0256926Y0233202D01*
X0256893Y0233082D01*
X0256855Y0232963D01*
X0256815Y0232844D01*
X0256770Y0232728D01*
X0256722Y0232613D01*
X0256670Y0232499D01*
X0256614Y0232387D01*
X0256555Y0232277D01*
X0256493Y0232169D01*
X0256427Y0232062D01*
X0256358Y0231958D01*
X0256285Y0231857D01*
X0256210Y0231757D01*
X0256131Y0231660D01*
X0256049Y0231566D01*
X0255964Y0231474D01*
X0255877Y0231385D01*
X0255786Y0231299D01*
X0255693Y0231216D01*
X0255597Y0231135D01*
X0255499Y0231058D01*
X0255399Y0230984D01*
X0255296Y0230913D01*
X0255191Y0230846D01*
X0255083Y0230781D01*
X0254974Y0230721D01*
X0254863Y0230663D01*
X0254750Y0230610D01*
X0254636Y0230560D01*
X0254520Y0230513D01*
X0254403Y0230471D01*
X0254284Y0230432D01*
X0254164Y0230396D01*
X0254043Y0230365D01*
X0253921Y0230337D01*
X0253799Y0230314D01*
X0253675Y0230294D01*
X0253551Y0230278D01*
X0253427Y0230266D01*
X0253302Y0230258D01*
X0253177Y0230254D01*
X0253053Y0230254D01*
X0252928Y0230258D01*
X0252803Y0230266D01*
X0252679Y0230278D01*
X0252555Y0230294D01*
X0252431Y0230314D01*
X0252309Y0230337D01*
X0252187Y0230365D01*
X0252066Y0230396D01*
X0251946Y0230432D01*
X0251827Y0230471D01*
X0251710Y0230513D01*
X0251594Y0230560D01*
X0251480Y0230610D01*
X0251367Y0230663D01*
X0251256Y0230721D01*
X0251146Y0230781D01*
X0251039Y0230846D01*
X0250934Y0230913D01*
X0250831Y0230984D01*
X0250731Y0231058D01*
X0250633Y0231135D01*
X0250537Y0231216D01*
X0250444Y0231299D01*
X0250353Y0231385D01*
X0250266Y0231474D01*
X0250181Y0231566D01*
X0250099Y0231660D01*
X0250020Y0231757D01*
X0249945Y0231857D01*
X0249872Y0231958D01*
X0249803Y0232062D01*
X0249737Y0232169D01*
X0249675Y0232277D01*
X0249616Y0232387D01*
X0249560Y0232499D01*
X0249508Y0232613D01*
X0249460Y0232728D01*
X0249415Y0232844D01*
X0249375Y0232963D01*
X0249337Y0233082D01*
X0249304Y0233202D01*
X0249275Y0233324D01*
X0249249Y0233446D01*
X0249227Y0233569D01*
X0249210Y0233693D01*
X0249196Y0233817D01*
X0249186Y0233941D01*
X0249180Y0234066D01*
X0249178Y0234191D01*
X0277436Y0234011D02*
X0277436Y0224169D01*
X0290035Y0224169D01*
X0290035Y0234011D01*
X0277436Y0234011D01*
X0240468Y0098342D02*
X0220783Y0098342D01*
X0220783Y0078657D01*
X0236924Y0078657D01*
X0235743Y0077476D01*
X0237318Y0075901D01*
X0240468Y0078657D01*
X0236924Y0078657D01*
X0240468Y0082200D01*
X0240468Y0078657D01*
X0240468Y0082200D02*
X0240468Y0098342D01*
X0223852Y0088499D02*
X0223854Y0088665D01*
X0223860Y0088831D01*
X0223870Y0088997D01*
X0223885Y0089163D01*
X0223903Y0089328D01*
X0223925Y0089493D01*
X0223952Y0089657D01*
X0223982Y0089820D01*
X0224017Y0089983D01*
X0224055Y0090145D01*
X0224097Y0090305D01*
X0224144Y0090465D01*
X0224194Y0090624D01*
X0224248Y0090781D01*
X0224306Y0090937D01*
X0224368Y0091091D01*
X0224433Y0091244D01*
X0224502Y0091395D01*
X0224575Y0091544D01*
X0224652Y0091692D01*
X0224732Y0091837D01*
X0224816Y0091981D01*
X0224903Y0092123D01*
X0224993Y0092262D01*
X0225087Y0092399D01*
X0225185Y0092534D01*
X0225286Y0092666D01*
X0225389Y0092796D01*
X0225496Y0092923D01*
X0225607Y0093047D01*
X0225720Y0093169D01*
X0225836Y0093288D01*
X0225955Y0093404D01*
X0226077Y0093517D01*
X0226201Y0093628D01*
X0226328Y0093735D01*
X0226458Y0093838D01*
X0226590Y0093939D01*
X0226725Y0094037D01*
X0226862Y0094131D01*
X0227001Y0094221D01*
X0227143Y0094308D01*
X0227287Y0094392D01*
X0227432Y0094472D01*
X0227580Y0094549D01*
X0227729Y0094622D01*
X0227880Y0094691D01*
X0228033Y0094756D01*
X0228187Y0094818D01*
X0228343Y0094876D01*
X0228500Y0094930D01*
X0228659Y0094980D01*
X0228819Y0095027D01*
X0228979Y0095069D01*
X0229141Y0095107D01*
X0229304Y0095142D01*
X0229467Y0095172D01*
X0229631Y0095199D01*
X0229796Y0095221D01*
X0229961Y0095239D01*
X0230127Y0095254D01*
X0230293Y0095264D01*
X0230459Y0095270D01*
X0230625Y0095272D01*
X0230791Y0095270D01*
X0230957Y0095264D01*
X0231123Y0095254D01*
X0231289Y0095239D01*
X0231454Y0095221D01*
X0231619Y0095199D01*
X0231783Y0095172D01*
X0231946Y0095142D01*
X0232109Y0095107D01*
X0232271Y0095069D01*
X0232431Y0095027D01*
X0232591Y0094980D01*
X0232750Y0094930D01*
X0232907Y0094876D01*
X0233063Y0094818D01*
X0233217Y0094756D01*
X0233370Y0094691D01*
X0233521Y0094622D01*
X0233670Y0094549D01*
X0233818Y0094472D01*
X0233963Y0094392D01*
X0234107Y0094308D01*
X0234249Y0094221D01*
X0234388Y0094131D01*
X0234525Y0094037D01*
X0234660Y0093939D01*
X0234792Y0093838D01*
X0234922Y0093735D01*
X0235049Y0093628D01*
X0235173Y0093517D01*
X0235295Y0093404D01*
X0235414Y0093288D01*
X0235530Y0093169D01*
X0235643Y0093047D01*
X0235754Y0092923D01*
X0235861Y0092796D01*
X0235964Y0092666D01*
X0236065Y0092534D01*
X0236163Y0092399D01*
X0236257Y0092262D01*
X0236347Y0092123D01*
X0236434Y0091981D01*
X0236518Y0091837D01*
X0236598Y0091692D01*
X0236675Y0091544D01*
X0236748Y0091395D01*
X0236817Y0091244D01*
X0236882Y0091091D01*
X0236944Y0090937D01*
X0237002Y0090781D01*
X0237056Y0090624D01*
X0237106Y0090465D01*
X0237153Y0090305D01*
X0237195Y0090145D01*
X0237233Y0089983D01*
X0237268Y0089820D01*
X0237298Y0089657D01*
X0237325Y0089493D01*
X0237347Y0089328D01*
X0237365Y0089163D01*
X0237380Y0088997D01*
X0237390Y0088831D01*
X0237396Y0088665D01*
X0237398Y0088499D01*
X0237396Y0088333D01*
X0237390Y0088167D01*
X0237380Y0088001D01*
X0237365Y0087835D01*
X0237347Y0087670D01*
X0237325Y0087505D01*
X0237298Y0087341D01*
X0237268Y0087178D01*
X0237233Y0087015D01*
X0237195Y0086853D01*
X0237153Y0086693D01*
X0237106Y0086533D01*
X0237056Y0086374D01*
X0237002Y0086217D01*
X0236944Y0086061D01*
X0236882Y0085907D01*
X0236817Y0085754D01*
X0236748Y0085603D01*
X0236675Y0085454D01*
X0236598Y0085306D01*
X0236518Y0085161D01*
X0236434Y0085017D01*
X0236347Y0084875D01*
X0236257Y0084736D01*
X0236163Y0084599D01*
X0236065Y0084464D01*
X0235964Y0084332D01*
X0235861Y0084202D01*
X0235754Y0084075D01*
X0235643Y0083951D01*
X0235530Y0083829D01*
X0235414Y0083710D01*
X0235295Y0083594D01*
X0235173Y0083481D01*
X0235049Y0083370D01*
X0234922Y0083263D01*
X0234792Y0083160D01*
X0234660Y0083059D01*
X0234525Y0082961D01*
X0234388Y0082867D01*
X0234249Y0082777D01*
X0234107Y0082690D01*
X0233963Y0082606D01*
X0233818Y0082526D01*
X0233670Y0082449D01*
X0233521Y0082376D01*
X0233370Y0082307D01*
X0233217Y0082242D01*
X0233063Y0082180D01*
X0232907Y0082122D01*
X0232750Y0082068D01*
X0232591Y0082018D01*
X0232431Y0081971D01*
X0232271Y0081929D01*
X0232109Y0081891D01*
X0231946Y0081856D01*
X0231783Y0081826D01*
X0231619Y0081799D01*
X0231454Y0081777D01*
X0231289Y0081759D01*
X0231123Y0081744D01*
X0230957Y0081734D01*
X0230791Y0081728D01*
X0230625Y0081726D01*
X0230459Y0081728D01*
X0230293Y0081734D01*
X0230127Y0081744D01*
X0229961Y0081759D01*
X0229796Y0081777D01*
X0229631Y0081799D01*
X0229467Y0081826D01*
X0229304Y0081856D01*
X0229141Y0081891D01*
X0228979Y0081929D01*
X0228819Y0081971D01*
X0228659Y0082018D01*
X0228500Y0082068D01*
X0228343Y0082122D01*
X0228187Y0082180D01*
X0228033Y0082242D01*
X0227880Y0082307D01*
X0227729Y0082376D01*
X0227580Y0082449D01*
X0227432Y0082526D01*
X0227287Y0082606D01*
X0227143Y0082690D01*
X0227001Y0082777D01*
X0226862Y0082867D01*
X0226725Y0082961D01*
X0226590Y0083059D01*
X0226458Y0083160D01*
X0226328Y0083263D01*
X0226201Y0083370D01*
X0226077Y0083481D01*
X0225955Y0083594D01*
X0225836Y0083710D01*
X0225720Y0083829D01*
X0225607Y0083951D01*
X0225496Y0084075D01*
X0225389Y0084202D01*
X0225286Y0084332D01*
X0225185Y0084464D01*
X0225087Y0084599D01*
X0224993Y0084736D01*
X0224903Y0084875D01*
X0224816Y0085017D01*
X0224732Y0085161D01*
X0224652Y0085306D01*
X0224575Y0085454D01*
X0224502Y0085603D01*
X0224433Y0085754D01*
X0224368Y0085907D01*
X0224306Y0086061D01*
X0224248Y0086217D01*
X0224194Y0086374D01*
X0224144Y0086533D01*
X0224097Y0086693D01*
X0224055Y0086853D01*
X0224017Y0087015D01*
X0223982Y0087178D01*
X0223952Y0087341D01*
X0223925Y0087505D01*
X0223903Y0087670D01*
X0223885Y0087835D01*
X0223870Y0088001D01*
X0223860Y0088167D01*
X0223854Y0088333D01*
X0223852Y0088499D01*
X0125035Y0193696D02*
X0108893Y0193696D01*
X0105350Y0197239D01*
X0104169Y0198420D01*
X0102594Y0196846D01*
X0105350Y0193696D01*
X0105350Y0197239D01*
X0105350Y0213381D01*
X0125035Y0213381D01*
X0125035Y0193696D01*
X0108419Y0203539D02*
X0108421Y0203705D01*
X0108427Y0203871D01*
X0108437Y0204037D01*
X0108452Y0204203D01*
X0108470Y0204368D01*
X0108492Y0204533D01*
X0108519Y0204697D01*
X0108549Y0204860D01*
X0108584Y0205023D01*
X0108622Y0205185D01*
X0108664Y0205345D01*
X0108711Y0205505D01*
X0108761Y0205664D01*
X0108815Y0205821D01*
X0108873Y0205977D01*
X0108935Y0206131D01*
X0109000Y0206284D01*
X0109069Y0206435D01*
X0109142Y0206584D01*
X0109219Y0206732D01*
X0109299Y0206877D01*
X0109383Y0207021D01*
X0109470Y0207163D01*
X0109560Y0207302D01*
X0109654Y0207439D01*
X0109752Y0207574D01*
X0109853Y0207706D01*
X0109956Y0207836D01*
X0110063Y0207963D01*
X0110174Y0208087D01*
X0110287Y0208209D01*
X0110403Y0208328D01*
X0110522Y0208444D01*
X0110644Y0208557D01*
X0110768Y0208668D01*
X0110895Y0208775D01*
X0111025Y0208878D01*
X0111157Y0208979D01*
X0111292Y0209077D01*
X0111429Y0209171D01*
X0111568Y0209261D01*
X0111710Y0209348D01*
X0111854Y0209432D01*
X0111999Y0209512D01*
X0112147Y0209589D01*
X0112296Y0209662D01*
X0112447Y0209731D01*
X0112600Y0209796D01*
X0112754Y0209858D01*
X0112910Y0209916D01*
X0113067Y0209970D01*
X0113226Y0210020D01*
X0113386Y0210067D01*
X0113546Y0210109D01*
X0113708Y0210147D01*
X0113871Y0210182D01*
X0114034Y0210212D01*
X0114198Y0210239D01*
X0114363Y0210261D01*
X0114528Y0210279D01*
X0114694Y0210294D01*
X0114860Y0210304D01*
X0115026Y0210310D01*
X0115192Y0210312D01*
X0115358Y0210310D01*
X0115524Y0210304D01*
X0115690Y0210294D01*
X0115856Y0210279D01*
X0116021Y0210261D01*
X0116186Y0210239D01*
X0116350Y0210212D01*
X0116513Y0210182D01*
X0116676Y0210147D01*
X0116838Y0210109D01*
X0116998Y0210067D01*
X0117158Y0210020D01*
X0117317Y0209970D01*
X0117474Y0209916D01*
X0117630Y0209858D01*
X0117784Y0209796D01*
X0117937Y0209731D01*
X0118088Y0209662D01*
X0118237Y0209589D01*
X0118385Y0209512D01*
X0118530Y0209432D01*
X0118674Y0209348D01*
X0118816Y0209261D01*
X0118955Y0209171D01*
X0119092Y0209077D01*
X0119227Y0208979D01*
X0119359Y0208878D01*
X0119489Y0208775D01*
X0119616Y0208668D01*
X0119740Y0208557D01*
X0119862Y0208444D01*
X0119981Y0208328D01*
X0120097Y0208209D01*
X0120210Y0208087D01*
X0120321Y0207963D01*
X0120428Y0207836D01*
X0120531Y0207706D01*
X0120632Y0207574D01*
X0120730Y0207439D01*
X0120824Y0207302D01*
X0120914Y0207163D01*
X0121001Y0207021D01*
X0121085Y0206877D01*
X0121165Y0206732D01*
X0121242Y0206584D01*
X0121315Y0206435D01*
X0121384Y0206284D01*
X0121449Y0206131D01*
X0121511Y0205977D01*
X0121569Y0205821D01*
X0121623Y0205664D01*
X0121673Y0205505D01*
X0121720Y0205345D01*
X0121762Y0205185D01*
X0121800Y0205023D01*
X0121835Y0204860D01*
X0121865Y0204697D01*
X0121892Y0204533D01*
X0121914Y0204368D01*
X0121932Y0204203D01*
X0121947Y0204037D01*
X0121957Y0203871D01*
X0121963Y0203705D01*
X0121965Y0203539D01*
X0121963Y0203373D01*
X0121957Y0203207D01*
X0121947Y0203041D01*
X0121932Y0202875D01*
X0121914Y0202710D01*
X0121892Y0202545D01*
X0121865Y0202381D01*
X0121835Y0202218D01*
X0121800Y0202055D01*
X0121762Y0201893D01*
X0121720Y0201733D01*
X0121673Y0201573D01*
X0121623Y0201414D01*
X0121569Y0201257D01*
X0121511Y0201101D01*
X0121449Y0200947D01*
X0121384Y0200794D01*
X0121315Y0200643D01*
X0121242Y0200494D01*
X0121165Y0200346D01*
X0121085Y0200201D01*
X0121001Y0200057D01*
X0120914Y0199915D01*
X0120824Y0199776D01*
X0120730Y0199639D01*
X0120632Y0199504D01*
X0120531Y0199372D01*
X0120428Y0199242D01*
X0120321Y0199115D01*
X0120210Y0198991D01*
X0120097Y0198869D01*
X0119981Y0198750D01*
X0119862Y0198634D01*
X0119740Y0198521D01*
X0119616Y0198410D01*
X0119489Y0198303D01*
X0119359Y0198200D01*
X0119227Y0198099D01*
X0119092Y0198001D01*
X0118955Y0197907D01*
X0118816Y0197817D01*
X0118674Y0197730D01*
X0118530Y0197646D01*
X0118385Y0197566D01*
X0118237Y0197489D01*
X0118088Y0197416D01*
X0117937Y0197347D01*
X0117784Y0197282D01*
X0117630Y0197220D01*
X0117474Y0197162D01*
X0117317Y0197108D01*
X0117158Y0197058D01*
X0116998Y0197011D01*
X0116838Y0196969D01*
X0116676Y0196931D01*
X0116513Y0196896D01*
X0116350Y0196866D01*
X0116186Y0196839D01*
X0116021Y0196817D01*
X0115856Y0196799D01*
X0115690Y0196784D01*
X0115524Y0196774D01*
X0115358Y0196768D01*
X0115192Y0196766D01*
X0115026Y0196768D01*
X0114860Y0196774D01*
X0114694Y0196784D01*
X0114528Y0196799D01*
X0114363Y0196817D01*
X0114198Y0196839D01*
X0114034Y0196866D01*
X0113871Y0196896D01*
X0113708Y0196931D01*
X0113546Y0196969D01*
X0113386Y0197011D01*
X0113226Y0197058D01*
X0113067Y0197108D01*
X0112910Y0197162D01*
X0112754Y0197220D01*
X0112600Y0197282D01*
X0112447Y0197347D01*
X0112296Y0197416D01*
X0112147Y0197489D01*
X0111999Y0197566D01*
X0111854Y0197646D01*
X0111710Y0197730D01*
X0111568Y0197817D01*
X0111429Y0197907D01*
X0111292Y0198001D01*
X0111157Y0198099D01*
X0111025Y0198200D01*
X0110895Y0198303D01*
X0110768Y0198410D01*
X0110644Y0198521D01*
X0110522Y0198634D01*
X0110403Y0198750D01*
X0110287Y0198869D01*
X0110174Y0198991D01*
X0110063Y0199115D01*
X0109956Y0199242D01*
X0109853Y0199372D01*
X0109752Y0199504D01*
X0109654Y0199639D01*
X0109560Y0199776D01*
X0109470Y0199915D01*
X0109383Y0200057D01*
X0109299Y0200201D01*
X0109219Y0200346D01*
X0109142Y0200494D01*
X0109069Y0200643D01*
X0109000Y0200794D01*
X0108935Y0200947D01*
X0108873Y0201101D01*
X0108815Y0201257D01*
X0108761Y0201414D01*
X0108711Y0201573D01*
X0108664Y0201733D01*
X0108622Y0201893D01*
X0108584Y0202055D01*
X0108549Y0202218D01*
X0108519Y0202381D01*
X0108492Y0202545D01*
X0108470Y0202710D01*
X0108452Y0202875D01*
X0108437Y0203041D01*
X0108427Y0203207D01*
X0108421Y0203373D01*
X0108419Y0203539D01*
X0108893Y0193696D02*
X0105350Y0193696D01*
D16*
X0162082Y0213735D02*
X0203420Y0213735D01*
X0203420Y0254680D01*
X0162082Y0254680D01*
X0162082Y0213735D01*
X0188926Y0258870D02*
X0188928Y0258917D01*
X0188934Y0258963D01*
X0188943Y0259009D01*
X0188957Y0259053D01*
X0188974Y0259097D01*
X0188995Y0259138D01*
X0189019Y0259178D01*
X0189046Y0259216D01*
X0189077Y0259251D01*
X0189110Y0259284D01*
X0189146Y0259314D01*
X0189185Y0259340D01*
X0189225Y0259364D01*
X0189267Y0259383D01*
X0189311Y0259400D01*
X0189356Y0259412D01*
X0189402Y0259421D01*
X0189448Y0259426D01*
X0189495Y0259427D01*
X0189541Y0259424D01*
X0189587Y0259417D01*
X0189633Y0259406D01*
X0189677Y0259392D01*
X0189720Y0259374D01*
X0189761Y0259352D01*
X0189801Y0259327D01*
X0189838Y0259299D01*
X0189873Y0259268D01*
X0189905Y0259234D01*
X0189934Y0259197D01*
X0189959Y0259159D01*
X0189982Y0259118D01*
X0190001Y0259075D01*
X0190016Y0259031D01*
X0190028Y0258986D01*
X0190036Y0258940D01*
X0190040Y0258893D01*
X0190040Y0258847D01*
X0190036Y0258800D01*
X0190028Y0258754D01*
X0190016Y0258709D01*
X0190001Y0258665D01*
X0189982Y0258622D01*
X0189959Y0258581D01*
X0189934Y0258543D01*
X0189905Y0258506D01*
X0189873Y0258472D01*
X0189838Y0258441D01*
X0189801Y0258413D01*
X0189762Y0258388D01*
X0189720Y0258366D01*
X0189677Y0258348D01*
X0189633Y0258334D01*
X0189587Y0258323D01*
X0189541Y0258316D01*
X0189495Y0258313D01*
X0189448Y0258314D01*
X0189402Y0258319D01*
X0189356Y0258328D01*
X0189311Y0258340D01*
X0189267Y0258357D01*
X0189225Y0258376D01*
X0189185Y0258400D01*
X0189146Y0258426D01*
X0189110Y0258456D01*
X0189077Y0258489D01*
X0189046Y0258524D01*
X0189019Y0258562D01*
X0188995Y0258602D01*
X0188974Y0258643D01*
X0188957Y0258687D01*
X0188943Y0258731D01*
X0188934Y0258777D01*
X0188928Y0258823D01*
X0188926Y0258870D01*
D17*
X0201848Y0288602D02*
X0204317Y0288602D01*
X0203082Y0288602D02*
X0203082Y0292305D01*
X0201848Y0291071D01*
D18*
X0048424Y0131172D02*
X0051959Y0127636D01*
X0055495Y0127636D01*
X0059030Y0131172D01*
X0059030Y0134708D01*
X0062566Y0134708D01*
X0066102Y0138243D01*
X0066102Y0141779D01*
X0069637Y0141779D01*
X0073173Y0145314D01*
X0073173Y0148850D01*
X0069637Y0152385D01*
X0066102Y0152385D01*
X0062566Y0148850D01*
X0062566Y0145314D01*
X0059030Y0145314D01*
X0055495Y0141779D01*
X0055495Y0138243D01*
X0051959Y0138243D01*
X0048424Y0134708D01*
X0048424Y0131172D01*
X0154404Y0029105D02*
X0157940Y0032641D01*
X0161475Y0032641D01*
X0161475Y0036176D01*
X0165011Y0039712D01*
X0168546Y0039712D01*
X0168546Y0043247D01*
X0172082Y0046783D01*
X0175617Y0046783D01*
X0179153Y0043247D01*
X0179153Y0039712D01*
X0175617Y0036176D01*
X0172082Y0036176D01*
X0172082Y0032641D01*
X0168546Y0029105D01*
X0165011Y0029105D01*
X0165011Y0025570D01*
X0161475Y0022034D01*
X0157940Y0022034D01*
X0154404Y0025570D01*
X0154404Y0029105D01*
X0230842Y0121479D02*
X0234377Y0121479D01*
X0237913Y0125015D01*
X0237913Y0128550D01*
X0234377Y0132086D01*
X0230842Y0132086D01*
X0230842Y0135622D01*
X0227306Y0139157D01*
X0223771Y0139157D01*
X0223771Y0142693D01*
X0220235Y0146228D01*
X0216700Y0146228D01*
X0213164Y0142693D01*
X0213164Y0139157D01*
X0216700Y0135622D01*
X0220235Y0135622D01*
X0220235Y0132086D01*
X0223771Y0128550D01*
X0227306Y0128550D01*
X0227306Y0125015D01*
X0230842Y0121479D01*
X0238043Y0139856D02*
X0238043Y0146356D01*
X0238045Y0146416D01*
X0238050Y0146477D01*
X0238059Y0146536D01*
X0238072Y0146595D01*
X0238088Y0146654D01*
X0238108Y0146711D01*
X0238131Y0146766D01*
X0238158Y0146821D01*
X0238187Y0146873D01*
X0238220Y0146924D01*
X0238256Y0146973D01*
X0238294Y0147019D01*
X0238336Y0147063D01*
X0238380Y0147105D01*
X0238426Y0147143D01*
X0238475Y0147179D01*
X0238526Y0147212D01*
X0238578Y0147241D01*
X0238633Y0147268D01*
X0238688Y0147291D01*
X0238745Y0147311D01*
X0238804Y0147327D01*
X0238863Y0147340D01*
X0238922Y0147349D01*
X0238983Y0147354D01*
X0239043Y0147356D01*
X0239678Y0150376D02*
X0238878Y0151176D01*
X0238878Y0152778D01*
X0239678Y0153578D01*
X0240479Y0153578D01*
X0243682Y0150376D01*
X0243682Y0153578D01*
X0249378Y0152778D02*
X0250178Y0153578D01*
X0250979Y0153578D01*
X0251780Y0152778D01*
X0252581Y0153578D01*
X0253381Y0153578D01*
X0254182Y0152778D01*
X0254182Y0151176D01*
X0253381Y0150376D01*
X0251780Y0151977D02*
X0251780Y0152778D01*
X0249378Y0152778D02*
X0249378Y0151176D01*
X0250178Y0150376D01*
X0248806Y0147316D02*
X0248746Y0147314D01*
X0248685Y0147309D01*
X0248626Y0147300D01*
X0248567Y0147287D01*
X0248508Y0147271D01*
X0248451Y0147251D01*
X0248396Y0147228D01*
X0248341Y0147201D01*
X0248289Y0147172D01*
X0248238Y0147139D01*
X0248189Y0147103D01*
X0248143Y0147065D01*
X0248099Y0147023D01*
X0248057Y0146979D01*
X0248019Y0146933D01*
X0247983Y0146884D01*
X0247950Y0146833D01*
X0247921Y0146781D01*
X0247894Y0146726D01*
X0247871Y0146671D01*
X0247851Y0146614D01*
X0247835Y0146555D01*
X0247822Y0146496D01*
X0247813Y0146437D01*
X0247808Y0146376D01*
X0247806Y0146316D01*
X0247806Y0139816D01*
X0247808Y0139756D01*
X0247813Y0139695D01*
X0247822Y0139636D01*
X0247835Y0139577D01*
X0247851Y0139518D01*
X0247871Y0139461D01*
X0247894Y0139406D01*
X0247921Y0139351D01*
X0247950Y0139299D01*
X0247983Y0139248D01*
X0248019Y0139199D01*
X0248057Y0139153D01*
X0248099Y0139109D01*
X0248143Y0139067D01*
X0248189Y0139029D01*
X0248238Y0138993D01*
X0248289Y0138960D01*
X0248341Y0138931D01*
X0248396Y0138904D01*
X0248451Y0138881D01*
X0248508Y0138861D01*
X0248567Y0138845D01*
X0248626Y0138832D01*
X0248685Y0138823D01*
X0248746Y0138818D01*
X0248806Y0138816D01*
X0246043Y0139856D02*
X0246043Y0146356D01*
X0246041Y0146416D01*
X0246036Y0146477D01*
X0246027Y0146536D01*
X0246014Y0146595D01*
X0245998Y0146654D01*
X0245978Y0146711D01*
X0245955Y0146766D01*
X0245928Y0146821D01*
X0245899Y0146873D01*
X0245866Y0146924D01*
X0245830Y0146973D01*
X0245792Y0147019D01*
X0245750Y0147063D01*
X0245706Y0147105D01*
X0245660Y0147143D01*
X0245611Y0147179D01*
X0245560Y0147212D01*
X0245508Y0147241D01*
X0245453Y0147268D01*
X0245398Y0147291D01*
X0245341Y0147311D01*
X0245282Y0147327D01*
X0245223Y0147340D01*
X0245164Y0147349D01*
X0245103Y0147354D01*
X0245043Y0147356D01*
X0233682Y0150376D02*
X0233682Y0153578D01*
X0233682Y0151977D02*
X0228878Y0151977D01*
X0230479Y0150376D01*
X0223682Y0151176D02*
X0222881Y0150376D01*
X0219678Y0153578D01*
X0222881Y0153578D01*
X0223682Y0152778D01*
X0223682Y0151176D01*
X0222881Y0150376D02*
X0219678Y0150376D01*
X0218878Y0151176D01*
X0218878Y0152778D01*
X0219678Y0153578D01*
X0219582Y0162476D02*
X0217082Y0164976D01*
X0217082Y0169976D01*
X0219582Y0172476D01*
X0224582Y0172476D01*
X0227082Y0169976D01*
X0229582Y0172476D01*
X0234582Y0172476D01*
X0237082Y0169976D01*
X0239582Y0172476D01*
X0244582Y0172476D01*
X0247082Y0169976D01*
X0249582Y0172476D01*
X0254582Y0172476D01*
X0257082Y0169976D01*
X0259582Y0172476D01*
X0264582Y0172476D01*
X0267082Y0169976D01*
X0269582Y0172476D01*
X0274582Y0172476D01*
X0277082Y0169976D01*
X0279582Y0172476D01*
X0284582Y0172476D01*
X0287082Y0169976D01*
X0289582Y0172476D01*
X0294582Y0172476D01*
X0297082Y0169976D01*
X0297082Y0164976D01*
X0294582Y0162476D01*
X0289582Y0162476D01*
X0287082Y0164976D01*
X0284582Y0162476D01*
X0279582Y0162476D01*
X0277082Y0164976D01*
X0274582Y0162476D01*
X0269582Y0162476D01*
X0267082Y0164976D01*
X0264582Y0162476D01*
X0259582Y0162476D01*
X0257082Y0164976D01*
X0254582Y0162476D01*
X0249582Y0162476D01*
X0247082Y0164976D01*
X0244582Y0162476D01*
X0239582Y0162476D01*
X0237082Y0164976D01*
X0234582Y0162476D01*
X0229582Y0162476D01*
X0227082Y0164976D01*
X0224582Y0162476D01*
X0219582Y0162476D01*
X0238043Y0139856D02*
X0238045Y0139796D01*
X0238050Y0139735D01*
X0238059Y0139676D01*
X0238072Y0139617D01*
X0238088Y0139558D01*
X0238108Y0139501D01*
X0238131Y0139446D01*
X0238158Y0139391D01*
X0238187Y0139339D01*
X0238220Y0139288D01*
X0238256Y0139239D01*
X0238294Y0139193D01*
X0238336Y0139149D01*
X0238380Y0139107D01*
X0238426Y0139069D01*
X0238475Y0139033D01*
X0238526Y0139000D01*
X0238578Y0138971D01*
X0238633Y0138944D01*
X0238688Y0138921D01*
X0238745Y0138901D01*
X0238804Y0138885D01*
X0238863Y0138872D01*
X0238922Y0138863D01*
X0238983Y0138858D01*
X0239043Y0138856D01*
X0245043Y0138856D02*
X0245103Y0138858D01*
X0245164Y0138863D01*
X0245223Y0138872D01*
X0245282Y0138885D01*
X0245341Y0138901D01*
X0245398Y0138921D01*
X0245453Y0138944D01*
X0245508Y0138971D01*
X0245560Y0139000D01*
X0245611Y0139033D01*
X0245660Y0139069D01*
X0245706Y0139107D01*
X0245750Y0139149D01*
X0245792Y0139193D01*
X0245830Y0139239D01*
X0245866Y0139288D01*
X0245899Y0139339D01*
X0245928Y0139391D01*
X0245955Y0139446D01*
X0245978Y0139501D01*
X0245998Y0139558D01*
X0246014Y0139617D01*
X0246027Y0139676D01*
X0246036Y0139735D01*
X0246041Y0139796D01*
X0246043Y0139856D01*
X0254806Y0138816D02*
X0254866Y0138818D01*
X0254927Y0138823D01*
X0254986Y0138832D01*
X0255045Y0138845D01*
X0255104Y0138861D01*
X0255161Y0138881D01*
X0255216Y0138904D01*
X0255271Y0138931D01*
X0255323Y0138960D01*
X0255374Y0138993D01*
X0255423Y0139029D01*
X0255469Y0139067D01*
X0255513Y0139109D01*
X0255555Y0139153D01*
X0255593Y0139199D01*
X0255629Y0139248D01*
X0255662Y0139299D01*
X0255691Y0139351D01*
X0255718Y0139406D01*
X0255741Y0139461D01*
X0255761Y0139518D01*
X0255777Y0139577D01*
X0255790Y0139636D01*
X0255799Y0139695D01*
X0255804Y0139756D01*
X0255806Y0139816D01*
X0255806Y0146316D01*
X0255804Y0146376D01*
X0255799Y0146437D01*
X0255790Y0146496D01*
X0255777Y0146555D01*
X0255761Y0146614D01*
X0255741Y0146671D01*
X0255718Y0146726D01*
X0255691Y0146781D01*
X0255662Y0146833D01*
X0255629Y0146884D01*
X0255593Y0146933D01*
X0255555Y0146979D01*
X0255513Y0147023D01*
X0255469Y0147065D01*
X0255423Y0147103D01*
X0255374Y0147139D01*
X0255323Y0147172D01*
X0255271Y0147201D01*
X0255216Y0147228D01*
X0255161Y0147251D01*
X0255104Y0147271D01*
X0255045Y0147287D01*
X0254986Y0147300D01*
X0254927Y0147309D01*
X0254866Y0147314D01*
X0254806Y0147316D01*
X0258878Y0152778D02*
X0261280Y0150376D01*
X0261280Y0153578D01*
X0263682Y0152778D02*
X0258878Y0152778D01*
X0268878Y0153578D02*
X0268878Y0150376D01*
X0271280Y0150376D01*
X0270479Y0151977D01*
X0270479Y0152778D01*
X0271280Y0153578D01*
X0272881Y0153578D01*
X0273682Y0152778D01*
X0273682Y0151176D01*
X0272881Y0150376D01*
X0275043Y0147356D02*
X0275103Y0147354D01*
X0275164Y0147349D01*
X0275223Y0147340D01*
X0275282Y0147327D01*
X0275341Y0147311D01*
X0275398Y0147291D01*
X0275453Y0147268D01*
X0275508Y0147241D01*
X0275560Y0147212D01*
X0275611Y0147179D01*
X0275660Y0147143D01*
X0275706Y0147105D01*
X0275750Y0147063D01*
X0275792Y0147019D01*
X0275830Y0146973D01*
X0275866Y0146924D01*
X0275899Y0146873D01*
X0275928Y0146821D01*
X0275955Y0146766D01*
X0275978Y0146711D01*
X0275998Y0146654D01*
X0276014Y0146595D01*
X0276027Y0146536D01*
X0276036Y0146477D01*
X0276041Y0146416D01*
X0276043Y0146356D01*
X0276043Y0139856D01*
X0276041Y0139796D01*
X0276036Y0139735D01*
X0276027Y0139676D01*
X0276014Y0139617D01*
X0275998Y0139558D01*
X0275978Y0139501D01*
X0275955Y0139446D01*
X0275928Y0139391D01*
X0275899Y0139339D01*
X0275866Y0139288D01*
X0275830Y0139239D01*
X0275792Y0139193D01*
X0275750Y0139149D01*
X0275706Y0139107D01*
X0275660Y0139069D01*
X0275611Y0139033D01*
X0275560Y0139000D01*
X0275508Y0138971D01*
X0275453Y0138944D01*
X0275398Y0138921D01*
X0275341Y0138901D01*
X0275282Y0138885D01*
X0275223Y0138872D01*
X0275164Y0138863D01*
X0275103Y0138858D01*
X0275043Y0138856D01*
X0269043Y0138856D02*
X0268983Y0138858D01*
X0268922Y0138863D01*
X0268863Y0138872D01*
X0268804Y0138885D01*
X0268745Y0138901D01*
X0268688Y0138921D01*
X0268633Y0138944D01*
X0268578Y0138971D01*
X0268526Y0139000D01*
X0268475Y0139033D01*
X0268426Y0139069D01*
X0268380Y0139107D01*
X0268336Y0139149D01*
X0268294Y0139193D01*
X0268256Y0139239D01*
X0268220Y0139288D01*
X0268187Y0139339D01*
X0268158Y0139391D01*
X0268131Y0139446D01*
X0268108Y0139501D01*
X0268088Y0139558D01*
X0268072Y0139617D01*
X0268059Y0139676D01*
X0268050Y0139735D01*
X0268045Y0139796D01*
X0268043Y0139856D01*
X0268043Y0146356D01*
X0268045Y0146416D01*
X0268050Y0146477D01*
X0268059Y0146536D01*
X0268072Y0146595D01*
X0268088Y0146654D01*
X0268108Y0146711D01*
X0268131Y0146766D01*
X0268158Y0146821D01*
X0268187Y0146873D01*
X0268220Y0146924D01*
X0268256Y0146973D01*
X0268294Y0147019D01*
X0268336Y0147063D01*
X0268380Y0147105D01*
X0268426Y0147143D01*
X0268475Y0147179D01*
X0268526Y0147212D01*
X0268578Y0147241D01*
X0268633Y0147268D01*
X0268688Y0147291D01*
X0268745Y0147311D01*
X0268804Y0147327D01*
X0268863Y0147340D01*
X0268922Y0147349D01*
X0268983Y0147354D01*
X0269043Y0147356D01*
X0279178Y0151977D02*
X0280780Y0150376D01*
X0280780Y0152778D01*
X0281581Y0153578D01*
X0282381Y0153578D01*
X0283182Y0152778D01*
X0283182Y0151176D01*
X0282381Y0150376D01*
X0280780Y0150376D01*
X0279178Y0151977D02*
X0278378Y0153578D01*
X0288378Y0153078D02*
X0288378Y0149876D01*
X0288378Y0153078D02*
X0289178Y0153078D01*
X0292381Y0149876D01*
X0293182Y0149876D01*
X0304066Y0146552D02*
X0304066Y0140052D01*
X0304068Y0139992D01*
X0304073Y0139931D01*
X0304082Y0139872D01*
X0304095Y0139813D01*
X0304111Y0139754D01*
X0304131Y0139697D01*
X0304154Y0139642D01*
X0304181Y0139587D01*
X0304210Y0139535D01*
X0304243Y0139484D01*
X0304279Y0139435D01*
X0304317Y0139389D01*
X0304359Y0139345D01*
X0304403Y0139303D01*
X0304449Y0139265D01*
X0304498Y0139229D01*
X0304549Y0139196D01*
X0304601Y0139167D01*
X0304656Y0139140D01*
X0304711Y0139117D01*
X0304768Y0139097D01*
X0304827Y0139081D01*
X0304886Y0139068D01*
X0304945Y0139059D01*
X0305006Y0139054D01*
X0305066Y0139052D01*
X0311066Y0139052D02*
X0311126Y0139054D01*
X0311187Y0139059D01*
X0311246Y0139068D01*
X0311305Y0139081D01*
X0311364Y0139097D01*
X0311421Y0139117D01*
X0311476Y0139140D01*
X0311531Y0139167D01*
X0311583Y0139196D01*
X0311634Y0139229D01*
X0311683Y0139265D01*
X0311729Y0139303D01*
X0311773Y0139345D01*
X0311815Y0139389D01*
X0311853Y0139435D01*
X0311889Y0139484D01*
X0311922Y0139535D01*
X0311951Y0139587D01*
X0311978Y0139642D01*
X0312001Y0139697D01*
X0312021Y0139754D01*
X0312037Y0139813D01*
X0312050Y0139872D01*
X0312059Y0139931D01*
X0312064Y0139992D01*
X0312066Y0140052D01*
X0312066Y0146552D01*
X0312064Y0146612D01*
X0312059Y0146673D01*
X0312050Y0146732D01*
X0312037Y0146791D01*
X0312021Y0146850D01*
X0312001Y0146907D01*
X0311978Y0146962D01*
X0311951Y0147017D01*
X0311922Y0147069D01*
X0311889Y0147120D01*
X0311853Y0147169D01*
X0311815Y0147215D01*
X0311773Y0147259D01*
X0311729Y0147301D01*
X0311683Y0147339D01*
X0311634Y0147375D01*
X0311583Y0147408D01*
X0311531Y0147437D01*
X0311476Y0147464D01*
X0311421Y0147487D01*
X0311364Y0147507D01*
X0311305Y0147523D01*
X0311246Y0147536D01*
X0311187Y0147545D01*
X0311126Y0147550D01*
X0311066Y0147552D01*
X0308881Y0149876D02*
X0308081Y0149876D01*
X0307280Y0150676D01*
X0307280Y0152278D01*
X0308081Y0153078D01*
X0308881Y0153078D01*
X0309682Y0152278D01*
X0309682Y0150676D01*
X0308881Y0149876D01*
X0307280Y0150676D02*
X0306479Y0149876D01*
X0305678Y0149876D01*
X0304878Y0150676D01*
X0304878Y0152278D01*
X0305678Y0153078D01*
X0306479Y0153078D01*
X0307280Y0152278D01*
X0305066Y0147552D02*
X0305006Y0147550D01*
X0304945Y0147545D01*
X0304886Y0147536D01*
X0304827Y0147523D01*
X0304768Y0147507D01*
X0304711Y0147487D01*
X0304656Y0147464D01*
X0304601Y0147437D01*
X0304549Y0147408D01*
X0304498Y0147375D01*
X0304449Y0147339D01*
X0304403Y0147301D01*
X0304359Y0147259D01*
X0304317Y0147215D01*
X0304279Y0147169D01*
X0304243Y0147120D01*
X0304210Y0147069D01*
X0304181Y0147017D01*
X0304154Y0146962D01*
X0304131Y0146907D01*
X0304111Y0146850D01*
X0304095Y0146791D01*
X0304082Y0146732D01*
X0304073Y0146673D01*
X0304068Y0146612D01*
X0304066Y0146552D01*
X0314878Y0150676D02*
X0315678Y0149876D01*
X0316479Y0149876D01*
X0317280Y0150676D01*
X0317280Y0153078D01*
X0318881Y0153078D02*
X0315678Y0153078D01*
X0314878Y0152278D01*
X0314878Y0150676D01*
X0318881Y0149876D02*
X0319682Y0150676D01*
X0319682Y0152278D01*
X0318881Y0153078D01*
X0324878Y0152434D02*
X0325678Y0153235D01*
X0328881Y0150032D01*
X0329682Y0150833D01*
X0329682Y0152434D01*
X0328881Y0153235D01*
X0325678Y0153235D01*
X0324878Y0152434D02*
X0324878Y0150833D01*
X0325678Y0150032D01*
X0328881Y0150032D01*
X0329682Y0148078D02*
X0329682Y0144876D01*
X0329682Y0146477D02*
X0324878Y0146477D01*
X0326479Y0144876D01*
X0335378Y0146477D02*
X0340182Y0146477D01*
X0340182Y0144876D02*
X0340182Y0148078D01*
X0340182Y0150032D02*
X0340182Y0153235D01*
X0340182Y0151633D02*
X0335378Y0151633D01*
X0336979Y0150032D01*
X0335378Y0146477D02*
X0336979Y0144876D01*
X0345378Y0146477D02*
X0350182Y0146477D01*
X0350182Y0144876D02*
X0350182Y0148078D01*
X0350182Y0150032D02*
X0346979Y0153235D01*
X0346178Y0153235D01*
X0345378Y0152434D01*
X0345378Y0150833D01*
X0346178Y0150032D01*
X0345378Y0146477D02*
X0346979Y0144876D01*
X0350182Y0150032D02*
X0350182Y0153235D01*
X0355378Y0152434D02*
X0356178Y0153235D01*
X0356979Y0153235D01*
X0357780Y0152434D01*
X0358581Y0153235D01*
X0359381Y0153235D01*
X0360182Y0152434D01*
X0360182Y0150833D01*
X0359381Y0150032D01*
X0360182Y0148078D02*
X0360182Y0144876D01*
X0360182Y0146477D02*
X0355378Y0146477D01*
X0356979Y0144876D01*
X0358614Y0146693D02*
X0362149Y0146693D01*
X0365685Y0143157D01*
X0365685Y0139622D01*
X0362149Y0136086D01*
X0358614Y0136086D01*
X0358614Y0132551D01*
X0355078Y0129015D01*
X0351543Y0129015D01*
X0351543Y0125479D01*
X0348007Y0121944D01*
X0344472Y0121944D01*
X0340936Y0125479D01*
X0340936Y0129015D01*
X0344472Y0132551D01*
X0348007Y0132551D01*
X0348007Y0136086D01*
X0351543Y0139622D01*
X0355078Y0139622D01*
X0355078Y0143157D01*
X0358614Y0146693D01*
X0356178Y0150032D02*
X0355378Y0150833D01*
X0355378Y0152434D01*
X0357780Y0152434D02*
X0357780Y0151633D01*
X0355582Y0162476D02*
X0353082Y0164976D01*
X0350582Y0162476D01*
X0345582Y0162476D01*
X0343082Y0164976D01*
X0340582Y0162476D01*
X0335582Y0162476D01*
X0333082Y0164976D01*
X0330582Y0162476D01*
X0325582Y0162476D01*
X0323082Y0164976D01*
X0320582Y0162476D01*
X0315582Y0162476D01*
X0313082Y0164976D01*
X0310582Y0162476D01*
X0305582Y0162476D01*
X0303082Y0164976D01*
X0303082Y0169976D01*
X0305582Y0172476D01*
X0310582Y0172476D01*
X0313082Y0169976D01*
X0315582Y0172476D01*
X0320582Y0172476D01*
X0323082Y0169976D01*
X0325582Y0172476D01*
X0330582Y0172476D01*
X0333082Y0169976D01*
X0335582Y0172476D01*
X0340582Y0172476D01*
X0343082Y0169976D01*
X0345582Y0172476D01*
X0350582Y0172476D01*
X0353082Y0169976D01*
X0355582Y0172476D01*
X0360582Y0172476D01*
X0363082Y0169976D01*
X0363145Y0170031D02*
X0363145Y0165031D01*
X0363082Y0164976D02*
X0360582Y0162476D01*
X0355582Y0162476D01*
X0402436Y0211494D02*
X0402436Y0214875D01*
X0406380Y0210394D02*
X0408493Y0210394D01*
X0412436Y0211494D02*
X0412436Y0214875D01*
X0422043Y0212515D02*
X0422043Y0218814D01*
X0422042Y0218814D02*
X0422057Y0218875D01*
X0422075Y0218936D01*
X0422097Y0218995D01*
X0422122Y0219053D01*
X0422152Y0219108D01*
X0422184Y0219162D01*
X0422220Y0219214D01*
X0422259Y0219264D01*
X0422301Y0219311D01*
X0422346Y0219355D01*
X0422394Y0219396D01*
X0422444Y0219434D01*
X0422497Y0219469D01*
X0422551Y0219501D01*
X0422608Y0219529D01*
X0422666Y0219554D01*
X0422725Y0219575D01*
X0422786Y0219592D01*
X0422848Y0219605D01*
X0422910Y0219614D01*
X0422973Y0219620D01*
X0423036Y0219621D01*
X0423099Y0219618D01*
X0423162Y0219612D01*
X0423224Y0219602D01*
X0427043Y0218814D02*
X0427043Y0212515D01*
X0427042Y0212515D02*
X0427057Y0212454D01*
X0427075Y0212393D01*
X0427097Y0212334D01*
X0427122Y0212276D01*
X0427152Y0212221D01*
X0427184Y0212167D01*
X0427220Y0212115D01*
X0427259Y0212065D01*
X0427301Y0212018D01*
X0427346Y0211974D01*
X0427394Y0211933D01*
X0427444Y0211895D01*
X0427497Y0211860D01*
X0427551Y0211828D01*
X0427608Y0211800D01*
X0427666Y0211775D01*
X0427725Y0211754D01*
X0427786Y0211737D01*
X0427848Y0211724D01*
X0427910Y0211715D01*
X0427973Y0211709D01*
X0428036Y0211708D01*
X0428099Y0211711D01*
X0428162Y0211717D01*
X0428224Y0211727D01*
X0428735Y0211727D02*
X0428795Y0211717D01*
X0428855Y0211711D01*
X0428916Y0211708D01*
X0428976Y0211709D01*
X0429037Y0211713D01*
X0429097Y0211722D01*
X0429156Y0211733D01*
X0429215Y0211749D01*
X0429273Y0211768D01*
X0429329Y0211790D01*
X0429384Y0211816D01*
X0429437Y0211845D01*
X0429489Y0211877D01*
X0429538Y0211912D01*
X0429586Y0211950D01*
X0429630Y0211991D01*
X0429673Y0212034D01*
X0429712Y0212080D01*
X0429749Y0212128D01*
X0429783Y0212179D01*
X0429813Y0212231D01*
X0429841Y0212285D01*
X0429865Y0212341D01*
X0429886Y0212398D01*
X0429903Y0212456D01*
X0429917Y0212515D01*
X0429917Y0218814D01*
X0429903Y0218873D01*
X0429886Y0218931D01*
X0429865Y0218988D01*
X0429841Y0219044D01*
X0429813Y0219098D01*
X0429783Y0219150D01*
X0429749Y0219201D01*
X0429712Y0219249D01*
X0429673Y0219295D01*
X0429630Y0219338D01*
X0429586Y0219379D01*
X0429538Y0219417D01*
X0429489Y0219452D01*
X0429437Y0219484D01*
X0429384Y0219513D01*
X0429329Y0219539D01*
X0429273Y0219561D01*
X0429215Y0219580D01*
X0429156Y0219596D01*
X0429097Y0219607D01*
X0429037Y0219616D01*
X0428976Y0219620D01*
X0428916Y0219621D01*
X0428855Y0219618D01*
X0428795Y0219612D01*
X0428735Y0219602D01*
X0428224Y0219602D02*
X0428162Y0219612D01*
X0428099Y0219618D01*
X0428036Y0219621D01*
X0427973Y0219620D01*
X0427910Y0219614D01*
X0427848Y0219605D01*
X0427786Y0219592D01*
X0427725Y0219575D01*
X0427666Y0219554D01*
X0427608Y0219529D01*
X0427551Y0219501D01*
X0427497Y0219469D01*
X0427444Y0219434D01*
X0427394Y0219396D01*
X0427346Y0219355D01*
X0427301Y0219311D01*
X0427259Y0219264D01*
X0427220Y0219214D01*
X0427184Y0219162D01*
X0427152Y0219108D01*
X0427122Y0219053D01*
X0427097Y0218995D01*
X0427075Y0218936D01*
X0427057Y0218875D01*
X0427042Y0218814D01*
X0432082Y0218814D02*
X0432082Y0212515D01*
X0432081Y0212515D02*
X0432096Y0212454D01*
X0432114Y0212393D01*
X0432136Y0212334D01*
X0432161Y0212276D01*
X0432191Y0212221D01*
X0432223Y0212167D01*
X0432259Y0212115D01*
X0432298Y0212065D01*
X0432340Y0212018D01*
X0432385Y0211974D01*
X0432433Y0211933D01*
X0432483Y0211895D01*
X0432536Y0211860D01*
X0432590Y0211828D01*
X0432647Y0211800D01*
X0432705Y0211775D01*
X0432764Y0211754D01*
X0432825Y0211737D01*
X0432887Y0211724D01*
X0432949Y0211715D01*
X0433012Y0211709D01*
X0433075Y0211708D01*
X0433138Y0211711D01*
X0433201Y0211717D01*
X0433263Y0211727D01*
X0433735Y0211727D02*
X0433795Y0211717D01*
X0433855Y0211711D01*
X0433916Y0211708D01*
X0433976Y0211709D01*
X0434037Y0211713D01*
X0434097Y0211722D01*
X0434156Y0211733D01*
X0434215Y0211749D01*
X0434273Y0211768D01*
X0434329Y0211790D01*
X0434384Y0211816D01*
X0434437Y0211845D01*
X0434489Y0211877D01*
X0434538Y0211912D01*
X0434586Y0211950D01*
X0434630Y0211991D01*
X0434673Y0212034D01*
X0434712Y0212080D01*
X0434749Y0212128D01*
X0434783Y0212179D01*
X0434813Y0212231D01*
X0434841Y0212285D01*
X0434865Y0212341D01*
X0434886Y0212398D01*
X0434903Y0212456D01*
X0434917Y0212515D01*
X0434917Y0218814D01*
X0434903Y0218873D01*
X0434886Y0218931D01*
X0434865Y0218988D01*
X0434841Y0219044D01*
X0434813Y0219098D01*
X0434783Y0219150D01*
X0434749Y0219201D01*
X0434712Y0219249D01*
X0434673Y0219295D01*
X0434630Y0219338D01*
X0434586Y0219379D01*
X0434538Y0219417D01*
X0434489Y0219452D01*
X0434437Y0219484D01*
X0434384Y0219513D01*
X0434329Y0219539D01*
X0434273Y0219561D01*
X0434215Y0219580D01*
X0434156Y0219596D01*
X0434097Y0219607D01*
X0434037Y0219616D01*
X0433976Y0219620D01*
X0433916Y0219621D01*
X0433855Y0219618D01*
X0433795Y0219612D01*
X0433735Y0219602D01*
X0433263Y0219602D02*
X0433201Y0219612D01*
X0433138Y0219618D01*
X0433075Y0219621D01*
X0433012Y0219620D01*
X0432949Y0219614D01*
X0432887Y0219605D01*
X0432825Y0219592D01*
X0432764Y0219575D01*
X0432705Y0219554D01*
X0432647Y0219529D01*
X0432590Y0219501D01*
X0432536Y0219469D01*
X0432483Y0219434D01*
X0432433Y0219396D01*
X0432385Y0219355D01*
X0432340Y0219311D01*
X0432298Y0219264D01*
X0432259Y0219214D01*
X0432223Y0219162D01*
X0432191Y0219108D01*
X0432161Y0219053D01*
X0432136Y0218995D01*
X0432114Y0218936D01*
X0432096Y0218875D01*
X0432081Y0218814D01*
X0438775Y0219602D02*
X0438835Y0219612D01*
X0438895Y0219618D01*
X0438956Y0219621D01*
X0439016Y0219620D01*
X0439077Y0219616D01*
X0439137Y0219607D01*
X0439196Y0219596D01*
X0439255Y0219580D01*
X0439313Y0219561D01*
X0439369Y0219539D01*
X0439424Y0219513D01*
X0439477Y0219484D01*
X0439529Y0219452D01*
X0439578Y0219417D01*
X0439626Y0219379D01*
X0439670Y0219338D01*
X0439713Y0219295D01*
X0439752Y0219249D01*
X0439789Y0219201D01*
X0439823Y0219150D01*
X0439853Y0219098D01*
X0439881Y0219044D01*
X0439905Y0218988D01*
X0439926Y0218931D01*
X0439943Y0218873D01*
X0439957Y0218814D01*
X0439956Y0218814D02*
X0439956Y0212515D01*
X0439957Y0212515D02*
X0439943Y0212456D01*
X0439926Y0212398D01*
X0439905Y0212341D01*
X0439881Y0212285D01*
X0439853Y0212231D01*
X0439823Y0212179D01*
X0439789Y0212128D01*
X0439752Y0212080D01*
X0439713Y0212034D01*
X0439670Y0211991D01*
X0439626Y0211950D01*
X0439578Y0211912D01*
X0439529Y0211877D01*
X0439477Y0211845D01*
X0439424Y0211816D01*
X0439369Y0211790D01*
X0439313Y0211768D01*
X0439255Y0211749D01*
X0439196Y0211733D01*
X0439137Y0211722D01*
X0439077Y0211713D01*
X0439016Y0211709D01*
X0438956Y0211708D01*
X0438895Y0211711D01*
X0438835Y0211717D01*
X0438775Y0211727D01*
X0423224Y0211727D02*
X0423162Y0211717D01*
X0423099Y0211711D01*
X0423036Y0211708D01*
X0422973Y0211709D01*
X0422910Y0211715D01*
X0422848Y0211724D01*
X0422786Y0211737D01*
X0422725Y0211754D01*
X0422666Y0211775D01*
X0422608Y0211800D01*
X0422551Y0211828D01*
X0422497Y0211860D01*
X0422444Y0211895D01*
X0422394Y0211933D01*
X0422346Y0211974D01*
X0422301Y0212018D01*
X0422259Y0212065D01*
X0422220Y0212115D01*
X0422184Y0212167D01*
X0422152Y0212221D01*
X0422122Y0212276D01*
X0422097Y0212334D01*
X0422075Y0212393D01*
X0422057Y0212454D01*
X0422042Y0212515D01*
X0494523Y0182239D02*
X0494523Y0177515D01*
X0496885Y0179877D01*
X0494523Y0182239D01*
X0496885Y0182633D02*
X0496885Y0179877D01*
X0496885Y0177121D01*
X0496846Y0174641D02*
X0496846Y0171885D01*
X0494483Y0169523D01*
X0494483Y0174247D01*
X0496846Y0171885D01*
X0496846Y0169129D01*
X0501767Y0157358D02*
X0498231Y0153822D01*
X0498231Y0150287D01*
X0501767Y0146751D01*
X0505302Y0146751D01*
X0505302Y0143215D01*
X0508838Y0139680D01*
X0512373Y0139680D01*
X0512373Y0136144D01*
X0515909Y0132609D01*
X0519445Y0132609D01*
X0522980Y0136144D01*
X0522980Y0139680D01*
X0519445Y0143215D01*
X0515909Y0143215D01*
X0515909Y0146751D01*
X0512373Y0150287D01*
X0508838Y0150287D01*
X0508838Y0153822D01*
X0505302Y0157358D01*
X0501767Y0157358D01*
X0406999Y0045614D02*
X0403464Y0045614D01*
X0399928Y0042078D01*
X0399928Y0038542D01*
X0403464Y0035007D01*
X0406999Y0035007D01*
X0406999Y0031471D01*
X0410535Y0027936D01*
X0414070Y0027936D01*
X0414070Y0024400D01*
X0417606Y0020865D01*
X0421141Y0020865D01*
X0424677Y0024400D01*
X0424677Y0027936D01*
X0421141Y0031471D01*
X0417606Y0031471D01*
X0417606Y0035007D01*
X0414070Y0038542D01*
X0410535Y0038542D01*
X0410535Y0042078D01*
X0406999Y0045614D01*
X0234759Y0202909D02*
X0232397Y0205271D01*
X0230035Y0202909D01*
X0234759Y0202909D01*
X0235153Y0205271D02*
X0232397Y0205271D01*
X0229641Y0205271D01*
X0223106Y0205035D02*
X0220350Y0205035D01*
X0222712Y0202672D01*
X0217987Y0202672D01*
X0220350Y0205035D01*
X0217594Y0205035D01*
X0153224Y0238106D02*
X0153224Y0244405D01*
X0153210Y0244464D01*
X0153193Y0244522D01*
X0153172Y0244579D01*
X0153148Y0244635D01*
X0153120Y0244689D01*
X0153090Y0244741D01*
X0153056Y0244792D01*
X0153019Y0244840D01*
X0152980Y0244886D01*
X0152937Y0244929D01*
X0152893Y0244970D01*
X0152845Y0245008D01*
X0152796Y0245043D01*
X0152744Y0245075D01*
X0152691Y0245104D01*
X0152636Y0245130D01*
X0152580Y0245152D01*
X0152522Y0245171D01*
X0152463Y0245187D01*
X0152404Y0245198D01*
X0152344Y0245207D01*
X0152283Y0245211D01*
X0152223Y0245212D01*
X0152162Y0245209D01*
X0152102Y0245203D01*
X0152042Y0245193D01*
X0148184Y0244405D02*
X0148184Y0238106D01*
X0148185Y0238105D02*
X0148171Y0238046D01*
X0148154Y0237988D01*
X0148133Y0237931D01*
X0148109Y0237875D01*
X0148081Y0237821D01*
X0148051Y0237769D01*
X0148017Y0237718D01*
X0147980Y0237670D01*
X0147941Y0237624D01*
X0147898Y0237581D01*
X0147854Y0237540D01*
X0147806Y0237502D01*
X0147757Y0237467D01*
X0147705Y0237435D01*
X0147652Y0237406D01*
X0147597Y0237380D01*
X0147541Y0237358D01*
X0147483Y0237339D01*
X0147424Y0237323D01*
X0147365Y0237312D01*
X0147305Y0237303D01*
X0147244Y0237299D01*
X0147184Y0237298D01*
X0147123Y0237301D01*
X0147063Y0237307D01*
X0147003Y0237317D01*
X0146531Y0237317D02*
X0146469Y0237307D01*
X0146406Y0237301D01*
X0146343Y0237298D01*
X0146280Y0237299D01*
X0146217Y0237305D01*
X0146155Y0237314D01*
X0146093Y0237327D01*
X0146032Y0237344D01*
X0145973Y0237365D01*
X0145915Y0237390D01*
X0145858Y0237418D01*
X0145804Y0237450D01*
X0145751Y0237485D01*
X0145701Y0237523D01*
X0145653Y0237564D01*
X0145608Y0237608D01*
X0145566Y0237655D01*
X0145527Y0237705D01*
X0145491Y0237757D01*
X0145459Y0237811D01*
X0145429Y0237866D01*
X0145404Y0237924D01*
X0145382Y0237983D01*
X0145364Y0238044D01*
X0145349Y0238105D01*
X0145350Y0238106D02*
X0145350Y0244405D01*
X0145349Y0244405D02*
X0145364Y0244466D01*
X0145382Y0244527D01*
X0145404Y0244586D01*
X0145429Y0244644D01*
X0145459Y0244699D01*
X0145491Y0244753D01*
X0145527Y0244805D01*
X0145566Y0244855D01*
X0145608Y0244902D01*
X0145653Y0244946D01*
X0145701Y0244987D01*
X0145751Y0245025D01*
X0145804Y0245060D01*
X0145858Y0245092D01*
X0145915Y0245120D01*
X0145973Y0245145D01*
X0146032Y0245166D01*
X0146093Y0245183D01*
X0146155Y0245196D01*
X0146217Y0245205D01*
X0146280Y0245211D01*
X0146343Y0245212D01*
X0146406Y0245209D01*
X0146469Y0245203D01*
X0146531Y0245193D01*
X0147003Y0245193D02*
X0147063Y0245203D01*
X0147123Y0245209D01*
X0147184Y0245212D01*
X0147244Y0245211D01*
X0147305Y0245207D01*
X0147365Y0245198D01*
X0147424Y0245187D01*
X0147483Y0245171D01*
X0147541Y0245152D01*
X0147597Y0245130D01*
X0147652Y0245104D01*
X0147705Y0245075D01*
X0147757Y0245043D01*
X0147806Y0245008D01*
X0147854Y0244970D01*
X0147898Y0244929D01*
X0147941Y0244886D01*
X0147980Y0244840D01*
X0148017Y0244792D01*
X0148051Y0244741D01*
X0148081Y0244689D01*
X0148109Y0244635D01*
X0148133Y0244579D01*
X0148154Y0244522D01*
X0148171Y0244464D01*
X0148185Y0244405D01*
X0141491Y0245193D02*
X0141429Y0245203D01*
X0141366Y0245209D01*
X0141303Y0245212D01*
X0141240Y0245211D01*
X0141177Y0245205D01*
X0141115Y0245196D01*
X0141053Y0245183D01*
X0140992Y0245166D01*
X0140933Y0245145D01*
X0140875Y0245120D01*
X0140818Y0245092D01*
X0140764Y0245060D01*
X0140711Y0245025D01*
X0140661Y0244987D01*
X0140613Y0244946D01*
X0140568Y0244902D01*
X0140526Y0244855D01*
X0140487Y0244805D01*
X0140451Y0244753D01*
X0140419Y0244699D01*
X0140389Y0244644D01*
X0140364Y0244586D01*
X0140342Y0244527D01*
X0140324Y0244466D01*
X0140309Y0244405D01*
X0140310Y0244405D02*
X0140310Y0238106D01*
X0140309Y0238105D02*
X0140324Y0238044D01*
X0140342Y0237983D01*
X0140364Y0237924D01*
X0140389Y0237866D01*
X0140419Y0237811D01*
X0140451Y0237757D01*
X0140487Y0237705D01*
X0140526Y0237655D01*
X0140568Y0237608D01*
X0140613Y0237564D01*
X0140661Y0237523D01*
X0140711Y0237485D01*
X0140764Y0237450D01*
X0140818Y0237418D01*
X0140875Y0237390D01*
X0140933Y0237365D01*
X0140992Y0237344D01*
X0141053Y0237327D01*
X0141115Y0237314D01*
X0141177Y0237305D01*
X0141240Y0237299D01*
X0141303Y0237298D01*
X0141366Y0237301D01*
X0141429Y0237307D01*
X0141491Y0237317D01*
X0152042Y0237317D02*
X0152102Y0237307D01*
X0152162Y0237301D01*
X0152223Y0237298D01*
X0152283Y0237299D01*
X0152344Y0237303D01*
X0152404Y0237312D01*
X0152463Y0237323D01*
X0152522Y0237339D01*
X0152580Y0237358D01*
X0152636Y0237380D01*
X0152691Y0237406D01*
X0152744Y0237435D01*
X0152796Y0237467D01*
X0152845Y0237502D01*
X0152893Y0237540D01*
X0152937Y0237581D01*
X0152980Y0237624D01*
X0153019Y0237670D01*
X0153056Y0237718D01*
X0153090Y0237769D01*
X0153120Y0237821D01*
X0153148Y0237875D01*
X0153172Y0237931D01*
X0153193Y0237988D01*
X0153210Y0238046D01*
X0153224Y0238105D01*
X0152995Y0312286D02*
X0149459Y0315822D01*
X0149459Y0319357D01*
X0152995Y0322893D01*
X0156530Y0322893D01*
X0156530Y0326428D01*
X0160066Y0329964D01*
X0163601Y0329964D01*
X0163601Y0333499D01*
X0167137Y0337035D01*
X0170672Y0337035D01*
X0174208Y0333499D01*
X0174208Y0329964D01*
X0170672Y0326428D01*
X0167137Y0326428D01*
X0167137Y0322893D01*
X0163601Y0319357D01*
X0160066Y0319357D01*
X0160066Y0315822D01*
X0156530Y0312286D01*
X0152995Y0312286D01*
X0217121Y0323519D02*
X0217121Y0328519D01*
X0219621Y0331019D01*
X0217121Y0333519D01*
X0217121Y0338519D01*
X0219621Y0341019D01*
X0217121Y0343519D01*
X0217121Y0348519D01*
X0219621Y0351019D01*
X0224621Y0351019D01*
X0227121Y0348519D01*
X0227121Y0343519D01*
X0224621Y0341019D01*
X0227121Y0338519D01*
X0227121Y0333519D01*
X0224621Y0331019D01*
X0227121Y0328519D01*
X0227121Y0323519D01*
X0224621Y0321019D01*
X0219621Y0321019D01*
X0217121Y0323519D01*
X0227161Y0323519D02*
X0227161Y0328519D01*
X0229661Y0331019D01*
X0227161Y0333519D01*
X0227161Y0338519D01*
X0229661Y0341019D01*
X0227161Y0343519D01*
X0227161Y0348519D01*
X0229661Y0351019D01*
X0234661Y0351019D01*
X0237161Y0348519D01*
X0237161Y0343519D01*
X0234661Y0341019D01*
X0237161Y0338519D01*
X0237161Y0333519D01*
X0234661Y0331019D01*
X0237161Y0328519D01*
X0237161Y0323519D01*
X0234661Y0321019D01*
X0229661Y0321019D01*
X0227161Y0323519D01*
X0237200Y0323519D02*
X0237200Y0328519D01*
X0239700Y0331019D01*
X0237200Y0333519D01*
X0237200Y0338519D01*
X0239700Y0341019D01*
X0237200Y0343519D01*
X0237200Y0348519D01*
X0239700Y0351019D01*
X0244700Y0351019D01*
X0247200Y0348519D01*
X0247200Y0343519D01*
X0244700Y0341019D01*
X0247200Y0338519D01*
X0247200Y0333519D01*
X0244700Y0331019D01*
X0247200Y0328519D01*
X0247200Y0323519D01*
X0244700Y0321019D01*
X0239700Y0321019D01*
X0237200Y0323519D01*
X0247043Y0323519D02*
X0247043Y0328519D01*
X0249543Y0331019D01*
X0247043Y0333519D01*
X0247043Y0338519D01*
X0249543Y0341019D01*
X0247043Y0343519D01*
X0247043Y0348519D01*
X0249543Y0351019D01*
X0254543Y0351019D01*
X0257043Y0348519D01*
X0257043Y0343519D01*
X0254543Y0341019D01*
X0257043Y0338519D01*
X0257043Y0333519D01*
X0254543Y0331019D01*
X0257043Y0328519D01*
X0257043Y0323519D01*
X0254543Y0321019D01*
X0249543Y0321019D01*
X0247043Y0323519D01*
X0257279Y0323519D02*
X0257279Y0328519D01*
X0259779Y0331019D01*
X0257279Y0333519D01*
X0257279Y0338519D01*
X0259779Y0341019D01*
X0257279Y0343519D01*
X0257279Y0348519D01*
X0259779Y0351019D01*
X0264779Y0351019D01*
X0267279Y0348519D01*
X0267279Y0343519D01*
X0264779Y0341019D01*
X0267279Y0338519D01*
X0267279Y0333519D01*
X0264779Y0331019D01*
X0267279Y0328519D01*
X0267279Y0323519D01*
X0264779Y0321019D01*
X0259779Y0321019D01*
X0257279Y0323519D01*
X0267239Y0323401D02*
X0267239Y0328401D01*
X0269739Y0330901D01*
X0267239Y0333401D01*
X0267239Y0338401D01*
X0269739Y0340901D01*
X0267239Y0343401D01*
X0267239Y0348401D01*
X0269739Y0350901D01*
X0274739Y0350901D01*
X0277239Y0348401D01*
X0277239Y0343401D01*
X0274739Y0340901D01*
X0277239Y0338401D01*
X0277239Y0333401D01*
X0274739Y0330901D01*
X0277239Y0328401D01*
X0277239Y0323401D01*
X0274739Y0320901D01*
X0269739Y0320901D01*
X0267239Y0323401D01*
X0269326Y0301728D02*
X0303972Y0301728D01*
X0305546Y0300153D01*
X0305546Y0265507D01*
X0303972Y0263932D01*
X0269326Y0263932D01*
X0267751Y0265507D01*
X0267751Y0300153D01*
X0269326Y0301728D01*
X0269582Y0352476D02*
X0267082Y0354976D01*
X0264582Y0352476D01*
X0259582Y0352476D01*
X0257082Y0354976D01*
X0254582Y0352476D01*
X0249582Y0352476D01*
X0247082Y0354976D01*
X0244582Y0352476D01*
X0239582Y0352476D01*
X0237082Y0354976D01*
X0234582Y0352476D01*
X0229582Y0352476D01*
X0227082Y0354976D01*
X0224582Y0352476D01*
X0219582Y0352476D01*
X0217082Y0354976D01*
X0217082Y0359976D01*
X0219582Y0362476D01*
X0224582Y0362476D01*
X0227082Y0359976D01*
X0229582Y0362476D01*
X0234582Y0362476D01*
X0237082Y0359976D01*
X0239582Y0362476D01*
X0244582Y0362476D01*
X0247082Y0359976D01*
X0249582Y0362476D01*
X0254582Y0362476D01*
X0257082Y0359976D01*
X0259582Y0362476D01*
X0264582Y0362476D01*
X0267082Y0359976D01*
X0269582Y0362476D01*
X0274582Y0362476D01*
X0277082Y0359976D01*
X0277082Y0354976D01*
X0274582Y0352476D01*
X0269582Y0352476D01*
X0271579Y0368963D02*
X0269978Y0370564D01*
X0271579Y0372166D01*
X0274782Y0372166D01*
X0273981Y0374119D02*
X0270778Y0377322D01*
X0273981Y0377322D01*
X0274782Y0376521D01*
X0274782Y0374920D01*
X0273981Y0374119D01*
X0270778Y0374119D01*
X0269978Y0374920D01*
X0269978Y0376521D01*
X0270778Y0377322D01*
X0265782Y0377322D02*
X0265782Y0374119D01*
X0265782Y0375721D02*
X0260978Y0375721D01*
X0262579Y0374119D01*
X0262579Y0372166D02*
X0265782Y0372166D01*
X0263380Y0372166D02*
X0263380Y0368963D01*
X0262579Y0368963D02*
X0260978Y0370564D01*
X0262579Y0372166D01*
X0262579Y0368963D02*
X0265782Y0368963D01*
X0271579Y0368963D02*
X0274782Y0368963D01*
X0272380Y0368963D02*
X0272380Y0372166D01*
X0287082Y0359976D02*
X0287082Y0354976D01*
X0289582Y0352476D01*
X0294582Y0352476D01*
X0297082Y0354976D01*
X0299582Y0352476D01*
X0304582Y0352476D01*
X0307082Y0354976D01*
X0309582Y0352476D01*
X0314582Y0352476D01*
X0317082Y0354976D01*
X0319582Y0352476D01*
X0324582Y0352476D01*
X0327082Y0354976D01*
X0329582Y0352476D01*
X0334582Y0352476D01*
X0337082Y0354976D01*
X0339582Y0352476D01*
X0344582Y0352476D01*
X0347082Y0354976D01*
X0347121Y0355054D02*
X0347121Y0360054D01*
X0347082Y0359976D02*
X0344582Y0362476D01*
X0339582Y0362476D01*
X0337082Y0359976D01*
X0334582Y0362476D01*
X0329582Y0362476D01*
X0327082Y0359976D01*
X0324582Y0362476D01*
X0319582Y0362476D01*
X0317082Y0359976D01*
X0314582Y0362476D01*
X0309582Y0362476D01*
X0307082Y0359976D01*
X0304582Y0362476D01*
X0299582Y0362476D01*
X0297082Y0359976D01*
X0294582Y0362476D01*
X0289582Y0362476D01*
X0287082Y0359976D01*
X0254782Y0368963D02*
X0251579Y0368963D01*
X0249978Y0370564D01*
X0251579Y0372166D01*
X0254782Y0372166D01*
X0254782Y0374119D02*
X0251579Y0377322D01*
X0250778Y0377322D01*
X0249978Y0376521D01*
X0249978Y0374920D01*
X0250778Y0374119D01*
X0252380Y0372166D02*
X0252380Y0368963D01*
X0254782Y0374119D02*
X0254782Y0377322D01*
X0244782Y0376521D02*
X0244782Y0374920D01*
X0243981Y0374119D01*
X0244782Y0372166D02*
X0241579Y0372166D01*
X0239978Y0370564D01*
X0241579Y0368963D01*
X0244782Y0368963D01*
X0242380Y0368963D02*
X0242380Y0372166D01*
X0240778Y0374119D02*
X0239978Y0374920D01*
X0239978Y0376521D01*
X0240778Y0377322D01*
X0241579Y0377322D01*
X0242380Y0376521D01*
X0243181Y0377322D01*
X0243981Y0377322D01*
X0244782Y0376521D01*
X0242380Y0376521D02*
X0242380Y0375721D01*
X0234782Y0376521D02*
X0229978Y0376521D01*
X0232380Y0374119D01*
X0232380Y0377322D01*
X0232380Y0372166D02*
X0232380Y0368963D01*
X0231579Y0368963D02*
X0229978Y0370564D01*
X0231579Y0372166D01*
X0234782Y0372166D01*
X0234782Y0368963D02*
X0231579Y0368963D01*
X0225282Y0368963D02*
X0222079Y0368963D01*
X0220478Y0370564D01*
X0222079Y0372166D01*
X0225282Y0372166D01*
X0224481Y0374119D02*
X0225282Y0374920D01*
X0225282Y0376521D01*
X0224481Y0377322D01*
X0222880Y0377322D01*
X0222079Y0376521D01*
X0222079Y0375721D01*
X0222880Y0374119D01*
X0220478Y0374119D01*
X0220478Y0377322D01*
X0222880Y0372166D02*
X0222880Y0368963D01*
X0177365Y0477901D02*
X0173830Y0477901D01*
X0170294Y0481436D01*
X0170294Y0484972D01*
X0166759Y0484972D01*
X0163223Y0488507D01*
X0163223Y0492043D01*
X0159688Y0492043D01*
X0156152Y0495578D01*
X0156152Y0499114D01*
X0159688Y0502649D01*
X0163223Y0502649D01*
X0166759Y0499114D01*
X0166759Y0495578D01*
X0170294Y0495578D01*
X0173830Y0492043D01*
X0173830Y0488507D01*
X0177365Y0488507D01*
X0180901Y0484972D01*
X0180901Y0481436D01*
X0177365Y0477901D01*
X0075114Y0378889D02*
X0071578Y0382425D01*
X0068042Y0382425D01*
X0068042Y0385960D01*
X0064507Y0389496D01*
X0060971Y0389496D01*
X0060971Y0393031D01*
X0057436Y0396567D01*
X0053900Y0396567D01*
X0050365Y0393031D01*
X0050365Y0389496D01*
X0053900Y0385960D01*
X0057436Y0385960D01*
X0057436Y0382425D01*
X0060971Y0378889D01*
X0064507Y0378889D01*
X0064507Y0375353D01*
X0068042Y0371818D01*
X0071578Y0371818D01*
X0075114Y0375353D01*
X0075114Y0378889D01*
X0394211Y0478928D02*
X0397747Y0475392D01*
X0401282Y0475392D01*
X0404818Y0478928D01*
X0404818Y0482463D01*
X0408353Y0482463D01*
X0411889Y0485999D01*
X0411889Y0489534D01*
X0415424Y0489534D01*
X0418960Y0493070D01*
X0418960Y0496606D01*
X0415424Y0500141D01*
X0411889Y0500141D01*
X0408353Y0496606D01*
X0408353Y0493070D01*
X0404818Y0493070D01*
X0401282Y0489534D01*
X0401282Y0485999D01*
X0397747Y0485999D01*
X0394211Y0482463D01*
X0394211Y0478928D01*
X0503038Y0379086D02*
X0503038Y0375550D01*
X0506574Y0372015D01*
X0510109Y0372015D01*
X0513645Y0375550D01*
X0513645Y0379086D01*
X0517181Y0379086D01*
X0520716Y0382621D01*
X0520716Y0386157D01*
X0524252Y0386157D01*
X0527787Y0389692D01*
X0527787Y0393228D01*
X0524252Y0396764D01*
X0520716Y0396764D01*
X0517181Y0393228D01*
X0517181Y0389692D01*
X0513645Y0389692D01*
X0510109Y0386157D01*
X0510109Y0382621D01*
X0506574Y0382621D01*
X0503038Y0379086D01*
X0430582Y0318802D02*
X0430582Y0315266D01*
X0427047Y0311731D01*
X0423511Y0311731D01*
X0419976Y0315266D01*
X0419976Y0318802D01*
X0416440Y0318802D01*
X0412905Y0322338D01*
X0412905Y0325873D01*
X0409369Y0325873D01*
X0405834Y0329409D01*
X0405834Y0332944D01*
X0409369Y0336480D01*
X0412905Y0336480D01*
X0416440Y0332944D01*
X0416440Y0329409D01*
X0419976Y0329409D01*
X0423511Y0325873D01*
X0423511Y0322338D01*
X0427047Y0322338D01*
X0430582Y0318802D01*
X0466373Y0294208D02*
X0466373Y0291452D01*
X0468735Y0293814D01*
X0468735Y0289090D01*
X0466373Y0291452D01*
X0466373Y0288696D01*
D19*
X0269788Y0298578D02*
X0269790Y0298645D01*
X0269796Y0298711D01*
X0269806Y0298777D01*
X0269820Y0298842D01*
X0269837Y0298906D01*
X0269859Y0298969D01*
X0269884Y0299031D01*
X0269913Y0299091D01*
X0269946Y0299149D01*
X0269981Y0299205D01*
X0270021Y0299259D01*
X0270063Y0299310D01*
X0270108Y0299359D01*
X0270156Y0299405D01*
X0270207Y0299448D01*
X0270260Y0299488D01*
X0270316Y0299525D01*
X0270374Y0299558D01*
X0270433Y0299588D01*
X0270494Y0299614D01*
X0270557Y0299637D01*
X0270621Y0299655D01*
X0270686Y0299670D01*
X0270752Y0299681D01*
X0270818Y0299688D01*
X0270884Y0299691D01*
X0270951Y0299690D01*
X0271017Y0299685D01*
X0271083Y0299676D01*
X0271149Y0299663D01*
X0271213Y0299646D01*
X0271276Y0299626D01*
X0271338Y0299601D01*
X0271399Y0299573D01*
X0271458Y0299542D01*
X0271514Y0299507D01*
X0271569Y0299469D01*
X0271621Y0299427D01*
X0271670Y0299382D01*
X0271717Y0299335D01*
X0271761Y0299285D01*
X0271801Y0299232D01*
X0271839Y0299177D01*
X0271873Y0299120D01*
X0271904Y0299061D01*
X0271931Y0299000D01*
X0271954Y0298938D01*
X0271974Y0298874D01*
X0271990Y0298809D01*
X0272002Y0298744D01*
X0272010Y0298678D01*
X0272014Y0298611D01*
X0272014Y0298545D01*
X0272010Y0298478D01*
X0272002Y0298412D01*
X0271990Y0298347D01*
X0271974Y0298282D01*
X0271954Y0298218D01*
X0271931Y0298156D01*
X0271904Y0298095D01*
X0271873Y0298036D01*
X0271839Y0297979D01*
X0271801Y0297924D01*
X0271761Y0297871D01*
X0271717Y0297821D01*
X0271670Y0297774D01*
X0271621Y0297729D01*
X0271569Y0297687D01*
X0271514Y0297649D01*
X0271457Y0297614D01*
X0271399Y0297583D01*
X0271338Y0297555D01*
X0271276Y0297530D01*
X0271213Y0297510D01*
X0271149Y0297493D01*
X0271083Y0297480D01*
X0271017Y0297471D01*
X0270951Y0297466D01*
X0270884Y0297465D01*
X0270818Y0297468D01*
X0270752Y0297475D01*
X0270686Y0297486D01*
X0270621Y0297501D01*
X0270557Y0297519D01*
X0270494Y0297542D01*
X0270433Y0297568D01*
X0270374Y0297598D01*
X0270316Y0297631D01*
X0270260Y0297668D01*
X0270207Y0297708D01*
X0270156Y0297751D01*
X0270108Y0297797D01*
X0270063Y0297846D01*
X0270021Y0297897D01*
X0269981Y0297951D01*
X0269946Y0298007D01*
X0269913Y0298065D01*
X0269884Y0298125D01*
X0269859Y0298187D01*
X0269837Y0298250D01*
X0269820Y0298314D01*
X0269806Y0298379D01*
X0269796Y0298445D01*
X0269790Y0298511D01*
X0269788Y0298578D01*
D20*
X0127043Y0299444D02*
X0127043Y0274287D01*
X0111294Y0274287D01*
X0111294Y0299444D01*
X0127043Y0299444D01*
X0083598Y0262883D02*
X0083598Y0262752D01*
X0083532Y0262686D01*
X0083532Y0262571D02*
X0083598Y0262571D01*
X0083598Y0262505D01*
X0083532Y0262505D01*
X0083532Y0262571D01*
X0083532Y0262405D02*
X0083598Y0262339D01*
X0083598Y0262208D01*
X0083532Y0262142D01*
X0083269Y0262405D01*
X0083532Y0262405D01*
X0083532Y0262142D02*
X0083269Y0262142D01*
X0083204Y0262208D01*
X0083204Y0262339D01*
X0083269Y0262405D01*
X0083204Y0262686D02*
X0083401Y0262686D01*
X0083335Y0262818D01*
X0083335Y0262883D01*
X0083401Y0262949D01*
X0083532Y0262949D01*
X0083598Y0262883D01*
X0083204Y0262949D02*
X0083204Y0262686D01*
D21*
X0413736Y0217184D03*
D22*
X0085448Y0261590D02*
X0083145Y0261590D01*
X0083735Y0261609D02*
X0083775Y0262377D01*
X0083832Y0262377D02*
X0083735Y0261609D01*
X0083696Y0262377D01*
X0083639Y0262377D02*
X0083832Y0262377D01*
X0083639Y0262377D02*
X0083735Y0261609D01*
X0083735Y0263519D01*
X0083775Y0262751D01*
X0083832Y0262751D02*
X0083735Y0263519D01*
X0083696Y0262751D01*
X0083639Y0262751D02*
X0083832Y0262751D01*
X0083639Y0262751D02*
X0083735Y0263519D01*
X0083145Y0263539D02*
X0084483Y0263539D01*
D23*
X0423617Y0272791D02*
X0438972Y0272791D01*
X0438972Y0292476D01*
X0423617Y0292476D01*
X0423617Y0272791D01*
X0425743Y0289917D02*
X0425745Y0289986D01*
X0425751Y0290054D01*
X0425761Y0290122D01*
X0425775Y0290189D01*
X0425793Y0290256D01*
X0425814Y0290321D01*
X0425840Y0290385D01*
X0425869Y0290447D01*
X0425901Y0290507D01*
X0425937Y0290566D01*
X0425977Y0290622D01*
X0426019Y0290676D01*
X0426065Y0290727D01*
X0426114Y0290776D01*
X0426165Y0290822D01*
X0426219Y0290864D01*
X0426275Y0290904D01*
X0426333Y0290940D01*
X0426394Y0290972D01*
X0426456Y0291001D01*
X0426520Y0291027D01*
X0426585Y0291048D01*
X0426652Y0291066D01*
X0426719Y0291080D01*
X0426787Y0291090D01*
X0426855Y0291096D01*
X0426924Y0291098D01*
X0426993Y0291096D01*
X0427061Y0291090D01*
X0427129Y0291080D01*
X0427196Y0291066D01*
X0427263Y0291048D01*
X0427328Y0291027D01*
X0427392Y0291001D01*
X0427454Y0290972D01*
X0427514Y0290940D01*
X0427573Y0290904D01*
X0427629Y0290864D01*
X0427683Y0290822D01*
X0427734Y0290776D01*
X0427783Y0290727D01*
X0427829Y0290676D01*
X0427871Y0290622D01*
X0427911Y0290566D01*
X0427947Y0290507D01*
X0427979Y0290447D01*
X0428008Y0290385D01*
X0428034Y0290321D01*
X0428055Y0290256D01*
X0428073Y0290189D01*
X0428087Y0290122D01*
X0428097Y0290054D01*
X0428103Y0289986D01*
X0428105Y0289917D01*
X0428103Y0289848D01*
X0428097Y0289780D01*
X0428087Y0289712D01*
X0428073Y0289645D01*
X0428055Y0289578D01*
X0428034Y0289513D01*
X0428008Y0289449D01*
X0427979Y0289387D01*
X0427947Y0289326D01*
X0427911Y0289268D01*
X0427871Y0289212D01*
X0427829Y0289158D01*
X0427783Y0289107D01*
X0427734Y0289058D01*
X0427683Y0289012D01*
X0427629Y0288970D01*
X0427573Y0288930D01*
X0427515Y0288894D01*
X0427454Y0288862D01*
X0427392Y0288833D01*
X0427328Y0288807D01*
X0427263Y0288786D01*
X0427196Y0288768D01*
X0427129Y0288754D01*
X0427061Y0288744D01*
X0426993Y0288738D01*
X0426924Y0288736D01*
X0426855Y0288738D01*
X0426787Y0288744D01*
X0426719Y0288754D01*
X0426652Y0288768D01*
X0426585Y0288786D01*
X0426520Y0288807D01*
X0426456Y0288833D01*
X0426394Y0288862D01*
X0426333Y0288894D01*
X0426275Y0288930D01*
X0426219Y0288970D01*
X0426165Y0289012D01*
X0426114Y0289058D01*
X0426065Y0289107D01*
X0426019Y0289158D01*
X0425977Y0289212D01*
X0425937Y0289268D01*
X0425901Y0289326D01*
X0425869Y0289387D01*
X0425840Y0289449D01*
X0425814Y0289513D01*
X0425793Y0289578D01*
X0425775Y0289645D01*
X0425761Y0289712D01*
X0425751Y0289780D01*
X0425745Y0289848D01*
X0425743Y0289917D01*
M02*
