G75*
%MOIN*%
%OFA0B0*%
%FSLAX25Y25*%
%IPPOS*%
%LPD*%
%AMOC8*
5,1,8,0,0,1.08239X$1,22.5*
%
%ADD10C,0.12611*%
%ADD11C,0.13398*%
%ADD12R,0.05524X0.03950*%
%ADD13R,0.03950X0.05524*%
%ADD14R,0.09461X0.05918*%
%ADD15R,0.07099X0.07887*%
%ADD16R,0.04737X0.06312*%
%ADD17R,0.03950X0.01784*%
%ADD18R,0.12800X0.15800*%
%ADD19C,0.07200*%
%ADD20C,0.08200*%
%ADD21R,0.06706X0.04343*%
%ADD22R,0.04343X0.06706*%
%ADD23R,0.04737X0.04737*%
%ADD24R,0.05800X0.05800*%
%ADD25R,0.07400X0.07400*%
%ADD26C,0.07400*%
%ADD27C,0.02057*%
%ADD28C,0.04737*%
%ADD29R,0.12611X0.12611*%
%ADD30R,0.07099X0.13792*%
%ADD31R,0.13398X0.06706*%
%ADD32R,0.05918X0.04934*%
%ADD33R,0.02965X0.05524*%
%ADD34R,0.05524X0.06312*%
%ADD35R,0.02000X0.04700*%
%ADD36R,0.06312X0.05524*%
%ADD37R,0.07690X0.02375*%
%ADD38R,0.06693X0.07874*%
%ADD39R,0.06693X0.10630*%
%ADD40R,0.10643X0.06410*%
%ADD41R,0.06312X0.08674*%
%ADD42R,0.10643X0.05918*%
%ADD43R,0.03556X0.07887*%
%ADD44C,0.03556*%
%ADD45C,0.03359*%
%ADD46R,0.04934X0.02375*%
%ADD47R,0.05918X0.09461*%
%ADD48R,0.15800X0.15800*%
%ADD49C,0.15800*%
%ADD50R,0.05800X0.03300*%
%ADD51C,0.06706*%
%ADD52C,0.04762*%
D10*
X0197909Y0170940D03*
X0380940Y0170901D03*
X0457082Y0270389D03*
X0381058Y0353972D03*
X0197909Y0354090D03*
D11*
X0258165Y0399602D03*
X0258165Y0427082D03*
X0289641Y0427102D03*
X0289680Y0399641D03*
X0321176Y0399680D03*
X0321157Y0427200D03*
X0360507Y0262554D03*
X0218775Y0262554D03*
X0258145Y0098342D03*
X0321196Y0098401D03*
D12*
X0246334Y0106137D03*
X0246334Y0113224D03*
X0232200Y0184720D03*
X0232200Y0191806D03*
X0220310Y0191728D03*
X0220310Y0184641D03*
X0232357Y0231098D03*
X0232357Y0238184D03*
X0206531Y0276728D03*
X0206531Y0283814D03*
X0132554Y0286413D03*
X0132554Y0279326D03*
X0296649Y0232712D03*
X0296649Y0225625D03*
X0327200Y0303657D03*
X0327200Y0310743D03*
X0306806Y0314365D03*
X0306806Y0321452D03*
X0411413Y0286570D03*
X0411413Y0279483D03*
X0486491Y0266098D03*
X0486491Y0259011D03*
D13*
X0488066Y0291373D03*
X0480980Y0291373D03*
X0381334Y0311885D03*
X0374247Y0311885D03*
X0297200Y0238814D03*
X0290113Y0238814D03*
X0285940Y0214090D03*
X0278854Y0214090D03*
X0266255Y0196688D03*
X0259169Y0196688D03*
X0252279Y0187987D03*
X0245192Y0187987D03*
X0251019Y0249680D03*
X0258106Y0249680D03*
X0252909Y0282791D03*
X0245822Y0282791D03*
X0130428Y0266255D03*
X0123342Y0266255D03*
X0120586Y0258814D03*
X0113499Y0258814D03*
X0476767Y0179877D03*
X0483854Y0179877D03*
X0483854Y0172003D03*
X0476767Y0172003D03*
D14*
X0388066Y0232239D03*
X0388066Y0250743D03*
X0156019Y0260861D03*
X0156019Y0279365D03*
D15*
X0232791Y0249483D03*
X0243814Y0249483D03*
D16*
X0404720Y0311964D03*
X0412200Y0311964D03*
X0408460Y0303302D03*
D17*
X0194314Y0277456D03*
X0194291Y0274856D03*
X0194291Y0272256D03*
X0194291Y0269656D03*
X0194291Y0267056D03*
X0194291Y0264456D03*
X0194291Y0261856D03*
X0194291Y0259256D03*
X0171291Y0259256D03*
X0171291Y0261856D03*
X0171291Y0264456D03*
X0171291Y0267056D03*
X0171291Y0269656D03*
X0171291Y0272256D03*
X0171291Y0274856D03*
X0171267Y0277456D03*
D18*
X0182791Y0268176D03*
D19*
X0188381Y0296452D03*
X0198381Y0296452D03*
X0198381Y0306452D03*
X0188381Y0306452D03*
X0188381Y0316452D03*
X0198381Y0316452D03*
D20*
X0053727Y0132940D03*
X0060798Y0140011D03*
X0067869Y0147082D03*
X0173850Y0041480D03*
X0166779Y0034408D03*
X0159707Y0027337D03*
X0232609Y0126783D03*
X0225538Y0133854D03*
X0218467Y0140925D03*
X0222082Y0167476D03*
X0232082Y0167476D03*
X0242082Y0167476D03*
X0252082Y0167476D03*
X0262082Y0167476D03*
X0272082Y0167476D03*
X0282082Y0167476D03*
X0292082Y0167476D03*
X0308082Y0167476D03*
X0318082Y0167476D03*
X0328082Y0167476D03*
X0338082Y0167476D03*
X0348082Y0167476D03*
X0358082Y0167476D03*
X0360381Y0141389D03*
X0353310Y0134318D03*
X0346239Y0127247D03*
X0405231Y0040310D03*
X0412303Y0033239D03*
X0419374Y0026168D03*
X0517677Y0137912D03*
X0510606Y0144983D03*
X0503535Y0152054D03*
X0425279Y0317034D03*
X0418208Y0324105D03*
X0411137Y0331176D03*
X0342082Y0357476D03*
X0332082Y0357476D03*
X0322082Y0357476D03*
X0312082Y0357476D03*
X0302082Y0357476D03*
X0292082Y0357476D03*
X0272082Y0357476D03*
X0262082Y0357476D03*
X0252082Y0357476D03*
X0242082Y0357476D03*
X0232082Y0357476D03*
X0222082Y0357476D03*
X0222121Y0346019D03*
X0222121Y0336019D03*
X0232161Y0336019D03*
X0232161Y0346019D03*
X0242200Y0346019D03*
X0252043Y0346019D03*
X0252043Y0336019D03*
X0242200Y0336019D03*
X0242200Y0326019D03*
X0252043Y0326019D03*
X0262279Y0326019D03*
X0272239Y0325901D03*
X0272239Y0335901D03*
X0272239Y0345901D03*
X0262279Y0346019D03*
X0262279Y0336019D03*
X0232161Y0326019D03*
X0222121Y0326019D03*
X0168905Y0331731D03*
X0161834Y0324660D03*
X0154763Y0317589D03*
X0069810Y0377121D03*
X0062739Y0384192D03*
X0055668Y0391263D03*
X0161455Y0497346D03*
X0168527Y0490275D03*
X0175598Y0483204D03*
X0399515Y0480696D03*
X0406586Y0487767D03*
X0413657Y0494838D03*
X0522484Y0391460D03*
X0515413Y0384389D03*
X0508342Y0377318D03*
D21*
X0358302Y0430507D03*
X0358302Y0443499D03*
X0339011Y0443499D03*
X0339011Y0430507D03*
X0240192Y0430507D03*
X0240192Y0443499D03*
X0220901Y0443499D03*
X0220901Y0430507D03*
X0220980Y0094995D03*
X0220980Y0082003D03*
X0240271Y0082003D03*
X0240271Y0094995D03*
X0339090Y0095035D03*
X0339090Y0082043D03*
X0358381Y0082043D03*
X0358381Y0095035D03*
D22*
X0457102Y0193873D03*
X0470094Y0193873D03*
X0470094Y0213165D03*
X0457102Y0213165D03*
X0457200Y0312003D03*
X0470192Y0312003D03*
X0470192Y0331294D03*
X0457200Y0331294D03*
X0121688Y0331255D03*
X0108696Y0331255D03*
X0108696Y0311964D03*
X0121688Y0311964D03*
X0121688Y0213184D03*
X0108696Y0213184D03*
X0108696Y0193893D03*
X0121688Y0193893D03*
D23*
X0125625Y0239562D03*
X0116846Y0239720D03*
X0116846Y0247594D03*
X0125625Y0247436D03*
D24*
X0242315Y0239191D03*
X0242315Y0229191D03*
X0263915Y0229191D03*
X0263915Y0239191D03*
D25*
G36*
X0493810Y0239186D02*
X0494776Y0231850D01*
X0487440Y0230884D01*
X0486474Y0238220D01*
X0493810Y0239186D01*
G37*
D26*
X0489320Y0244949D03*
X0491930Y0225120D03*
D27*
X0311611Y0266824D02*
X0307355Y0266824D01*
X0307355Y0267340D01*
X0311611Y0267340D01*
X0311611Y0266824D01*
X0311611Y0269973D02*
X0307355Y0269973D01*
X0307355Y0270489D01*
X0311611Y0270489D01*
X0311611Y0269973D01*
X0311611Y0273123D02*
X0307355Y0273123D01*
X0307355Y0273639D01*
X0311611Y0273639D01*
X0311611Y0273123D01*
X0311611Y0276273D02*
X0307355Y0276273D01*
X0307355Y0276789D01*
X0311611Y0276789D01*
X0311611Y0276273D01*
X0311611Y0279422D02*
X0307355Y0279422D01*
X0307355Y0279938D01*
X0311611Y0279938D01*
X0311611Y0279422D01*
X0311611Y0282572D02*
X0307355Y0282572D01*
X0307355Y0283088D01*
X0311611Y0283088D01*
X0311611Y0282572D01*
X0311611Y0285722D02*
X0307355Y0285722D01*
X0307355Y0286238D01*
X0311611Y0286238D01*
X0311611Y0285722D01*
X0311611Y0288871D02*
X0307355Y0288871D01*
X0307355Y0289387D01*
X0311611Y0289387D01*
X0311611Y0288871D01*
X0311611Y0292021D02*
X0307355Y0292021D01*
X0307355Y0292537D01*
X0311611Y0292537D01*
X0311611Y0292021D01*
X0311611Y0295170D02*
X0307355Y0295170D01*
X0307355Y0295686D01*
X0311611Y0295686D01*
X0311611Y0295170D01*
X0311611Y0298320D02*
X0307355Y0298320D01*
X0307355Y0298836D01*
X0311611Y0298836D01*
X0311611Y0298320D01*
X0302655Y0303537D02*
X0302139Y0303537D01*
X0302139Y0307793D01*
X0302655Y0307793D01*
X0302655Y0303537D01*
X0302655Y0305593D02*
X0302139Y0305593D01*
X0302139Y0307649D02*
X0302655Y0307649D01*
X0299505Y0303537D02*
X0298989Y0303537D01*
X0298989Y0307793D01*
X0299505Y0307793D01*
X0299505Y0303537D01*
X0299505Y0305593D02*
X0298989Y0305593D01*
X0298989Y0307649D02*
X0299505Y0307649D01*
X0296356Y0303537D02*
X0295840Y0303537D01*
X0295840Y0307793D01*
X0296356Y0307793D01*
X0296356Y0303537D01*
X0296356Y0305593D02*
X0295840Y0305593D01*
X0295840Y0307649D02*
X0296356Y0307649D01*
X0293206Y0303537D02*
X0292690Y0303537D01*
X0292690Y0307793D01*
X0293206Y0307793D01*
X0293206Y0303537D01*
X0293206Y0305593D02*
X0292690Y0305593D01*
X0292690Y0307649D02*
X0293206Y0307649D01*
X0290056Y0303537D02*
X0289540Y0303537D01*
X0289540Y0307793D01*
X0290056Y0307793D01*
X0290056Y0303537D01*
X0290056Y0305593D02*
X0289540Y0305593D01*
X0289540Y0307649D02*
X0290056Y0307649D01*
X0286907Y0303537D02*
X0286391Y0303537D01*
X0286391Y0307793D01*
X0286907Y0307793D01*
X0286907Y0303537D01*
X0286907Y0305593D02*
X0286391Y0305593D01*
X0286391Y0307649D02*
X0286907Y0307649D01*
X0283757Y0303537D02*
X0283241Y0303537D01*
X0283241Y0307793D01*
X0283757Y0307793D01*
X0283757Y0303537D01*
X0283757Y0305593D02*
X0283241Y0305593D01*
X0283241Y0307649D02*
X0283757Y0307649D01*
X0280608Y0303537D02*
X0280092Y0303537D01*
X0280092Y0307793D01*
X0280608Y0307793D01*
X0280608Y0303537D01*
X0280608Y0305593D02*
X0280092Y0305593D01*
X0280092Y0307649D02*
X0280608Y0307649D01*
X0277458Y0303537D02*
X0276942Y0303537D01*
X0276942Y0307793D01*
X0277458Y0307793D01*
X0277458Y0303537D01*
X0277458Y0305593D02*
X0276942Y0305593D01*
X0276942Y0307649D02*
X0277458Y0307649D01*
X0274308Y0303537D02*
X0273792Y0303537D01*
X0273792Y0307793D01*
X0274308Y0307793D01*
X0274308Y0303537D01*
X0274308Y0305593D02*
X0273792Y0305593D01*
X0273792Y0307649D02*
X0274308Y0307649D01*
X0271159Y0303537D02*
X0270643Y0303537D01*
X0270643Y0307793D01*
X0271159Y0307793D01*
X0271159Y0303537D01*
X0271159Y0305593D02*
X0270643Y0305593D01*
X0270643Y0307649D02*
X0271159Y0307649D01*
X0265942Y0298320D02*
X0261686Y0298320D01*
X0261686Y0298836D01*
X0265942Y0298836D01*
X0265942Y0298320D01*
X0265942Y0295170D02*
X0261686Y0295170D01*
X0261686Y0295686D01*
X0265942Y0295686D01*
X0265942Y0295170D01*
X0265942Y0292021D02*
X0261686Y0292021D01*
X0261686Y0292537D01*
X0265942Y0292537D01*
X0265942Y0292021D01*
X0265942Y0288871D02*
X0261686Y0288871D01*
X0261686Y0289387D01*
X0265942Y0289387D01*
X0265942Y0288871D01*
X0265942Y0285722D02*
X0261686Y0285722D01*
X0261686Y0286238D01*
X0265942Y0286238D01*
X0265942Y0285722D01*
X0265942Y0282572D02*
X0261686Y0282572D01*
X0261686Y0283088D01*
X0265942Y0283088D01*
X0265942Y0282572D01*
X0265942Y0279422D02*
X0261686Y0279422D01*
X0261686Y0279938D01*
X0265942Y0279938D01*
X0265942Y0279422D01*
X0265942Y0276273D02*
X0261686Y0276273D01*
X0261686Y0276789D01*
X0265942Y0276789D01*
X0265942Y0276273D01*
X0265942Y0273123D02*
X0261686Y0273123D01*
X0261686Y0273639D01*
X0265942Y0273639D01*
X0265942Y0273123D01*
X0265942Y0269973D02*
X0261686Y0269973D01*
X0261686Y0270489D01*
X0265942Y0270489D01*
X0265942Y0269973D01*
X0265942Y0266824D02*
X0261686Y0266824D01*
X0261686Y0267340D01*
X0265942Y0267340D01*
X0265942Y0266824D01*
X0270643Y0257867D02*
X0271159Y0257867D01*
X0270643Y0257867D02*
X0270643Y0262123D01*
X0271159Y0262123D01*
X0271159Y0257867D01*
X0271159Y0259923D02*
X0270643Y0259923D01*
X0270643Y0261979D02*
X0271159Y0261979D01*
X0273792Y0257867D02*
X0274308Y0257867D01*
X0273792Y0257867D02*
X0273792Y0262123D01*
X0274308Y0262123D01*
X0274308Y0257867D01*
X0274308Y0259923D02*
X0273792Y0259923D01*
X0273792Y0261979D02*
X0274308Y0261979D01*
X0276942Y0257867D02*
X0277458Y0257867D01*
X0276942Y0257867D02*
X0276942Y0262123D01*
X0277458Y0262123D01*
X0277458Y0257867D01*
X0277458Y0259923D02*
X0276942Y0259923D01*
X0276942Y0261979D02*
X0277458Y0261979D01*
X0280092Y0257867D02*
X0280608Y0257867D01*
X0280092Y0257867D02*
X0280092Y0262123D01*
X0280608Y0262123D01*
X0280608Y0257867D01*
X0280608Y0259923D02*
X0280092Y0259923D01*
X0280092Y0261979D02*
X0280608Y0261979D01*
X0283241Y0257867D02*
X0283757Y0257867D01*
X0283241Y0257867D02*
X0283241Y0262123D01*
X0283757Y0262123D01*
X0283757Y0257867D01*
X0283757Y0259923D02*
X0283241Y0259923D01*
X0283241Y0261979D02*
X0283757Y0261979D01*
X0286391Y0257867D02*
X0286907Y0257867D01*
X0286391Y0257867D02*
X0286391Y0262123D01*
X0286907Y0262123D01*
X0286907Y0257867D01*
X0286907Y0259923D02*
X0286391Y0259923D01*
X0286391Y0261979D02*
X0286907Y0261979D01*
X0289540Y0257867D02*
X0290056Y0257867D01*
X0289540Y0257867D02*
X0289540Y0262123D01*
X0290056Y0262123D01*
X0290056Y0257867D01*
X0290056Y0259923D02*
X0289540Y0259923D01*
X0289540Y0261979D02*
X0290056Y0261979D01*
X0292690Y0257867D02*
X0293206Y0257867D01*
X0292690Y0257867D02*
X0292690Y0262123D01*
X0293206Y0262123D01*
X0293206Y0257867D01*
X0293206Y0259923D02*
X0292690Y0259923D01*
X0292690Y0261979D02*
X0293206Y0261979D01*
X0295840Y0257867D02*
X0296356Y0257867D01*
X0295840Y0257867D02*
X0295840Y0262123D01*
X0296356Y0262123D01*
X0296356Y0257867D01*
X0296356Y0259923D02*
X0295840Y0259923D01*
X0295840Y0261979D02*
X0296356Y0261979D01*
X0298989Y0257867D02*
X0299505Y0257867D01*
X0298989Y0257867D02*
X0298989Y0262123D01*
X0299505Y0262123D01*
X0299505Y0257867D01*
X0299505Y0259923D02*
X0298989Y0259923D01*
X0298989Y0261979D02*
X0299505Y0261979D01*
X0302139Y0257867D02*
X0302655Y0257867D01*
X0302139Y0257867D02*
X0302139Y0262123D01*
X0302655Y0262123D01*
X0302655Y0257867D01*
X0302655Y0259923D02*
X0302139Y0259923D01*
X0302139Y0261979D02*
X0302655Y0261979D01*
D28*
X0286649Y0282830D03*
D29*
X0457082Y0254641D03*
D30*
X0197515Y0234208D03*
X0168775Y0234208D03*
D31*
X0119169Y0278696D03*
X0119169Y0295231D03*
D32*
X0279208Y0232731D03*
X0279208Y0225448D03*
X0288263Y0225448D03*
X0288263Y0232731D03*
D33*
X0403696Y0218303D03*
X0407436Y0218303D03*
X0411176Y0218303D03*
X0411176Y0208066D03*
X0403696Y0208066D03*
D34*
X0489798Y0179877D03*
X0489759Y0171885D03*
X0501570Y0171885D03*
X0501609Y0179877D03*
X0473460Y0291452D03*
X0461649Y0291452D03*
D35*
X0306039Y0132349D03*
X0303480Y0132349D03*
X0300920Y0132349D03*
X0298361Y0132349D03*
X0295802Y0132349D03*
X0293243Y0132349D03*
X0290684Y0132349D03*
X0288125Y0132349D03*
X0285566Y0132349D03*
X0283007Y0132349D03*
X0280448Y0132349D03*
X0277889Y0132349D03*
X0275330Y0132349D03*
X0272771Y0132349D03*
X0272771Y0109374D03*
X0275330Y0109374D03*
X0277889Y0109374D03*
X0280448Y0109374D03*
X0283007Y0109374D03*
X0285566Y0109374D03*
X0288125Y0109374D03*
X0290684Y0109374D03*
X0293243Y0109374D03*
X0295802Y0109374D03*
X0298361Y0109374D03*
X0300920Y0109374D03*
X0303480Y0109374D03*
X0306039Y0109374D03*
D36*
X0232397Y0198184D03*
X0220350Y0197948D03*
X0220350Y0209759D03*
X0232397Y0209995D03*
D37*
X0101944Y0257436D03*
X0101944Y0259995D03*
X0101944Y0262554D03*
X0101944Y0265113D03*
X0101944Y0267672D03*
D38*
X0091216Y0277058D03*
X0091216Y0248050D03*
D39*
X0091216Y0262554D03*
D40*
X0089405Y0258765D03*
X0089405Y0266344D03*
D41*
X0102633Y0273972D03*
X0102633Y0251137D03*
D42*
X0092731Y0251728D03*
X0092731Y0273381D03*
D43*
X0097515Y0274365D03*
X0097515Y0250743D03*
D44*
X0090625Y0251826D03*
X0090625Y0273283D03*
D45*
X0102633Y0272102D03*
X0102633Y0253007D03*
D46*
X0421531Y0275113D03*
X0421531Y0280113D03*
X0421531Y0285113D03*
X0421531Y0290113D03*
X0441058Y0290113D03*
X0441058Y0285113D03*
X0441058Y0280113D03*
X0441058Y0275113D03*
D47*
X0357830Y0109680D03*
X0339326Y0109680D03*
D48*
X0468972Y0252515D03*
D49*
X0468184Y0272515D03*
D50*
X0436019Y0217436D03*
X0436019Y0213893D03*
X0430980Y0213893D03*
X0430980Y0217436D03*
X0425980Y0217436D03*
X0425980Y0213893D03*
X0308066Y0145302D03*
X0308066Y0141302D03*
X0272043Y0141106D03*
X0272043Y0145106D03*
X0251806Y0145066D03*
X0251806Y0141066D03*
X0242043Y0141106D03*
X0242043Y0145106D03*
X0149287Y0239483D03*
X0149287Y0243027D03*
X0144247Y0243027D03*
X0144247Y0239483D03*
D51*
X0144050Y0233696D03*
X0150271Y0233696D03*
X0191216Y0209011D03*
X0196728Y0203893D03*
X0208145Y0218854D03*
X0206964Y0244838D03*
X0137672Y0299956D03*
X0134129Y0313735D03*
X0142003Y0313735D03*
X0206964Y0333420D03*
X0346728Y0319641D03*
X0350920Y0290802D03*
X0386098Y0268066D03*
X0433932Y0312357D03*
X0439247Y0317672D03*
X0437842Y0208275D03*
X0431046Y0208381D03*
X0424247Y0208381D03*
X0393972Y0187751D03*
X0388066Y0181846D03*
X0378224Y0197594D03*
D52*
X0336885Y0227121D03*
X0319169Y0223184D03*
X0319169Y0209405D03*
X0319169Y0195625D03*
X0303420Y0201531D03*
X0310901Y0234602D03*
X0319169Y0236964D03*
X0319169Y0248184D03*
X0307161Y0247791D03*
X0296767Y0253027D03*
X0277239Y0253696D03*
X0277239Y0247987D03*
X0266806Y0256058D03*
X0262082Y0260586D03*
X0250271Y0270428D03*
X0241609Y0257043D03*
X0225861Y0238145D03*
X0226452Y0218066D03*
X0220350Y0218066D03*
X0238460Y0209405D03*
X0250074Y0197102D03*
X0266216Y0189897D03*
X0255015Y0179365D03*
X0232062Y0179483D03*
X0220350Y0179483D03*
X0264050Y0141688D03*
X0266019Y0128696D03*
X0246334Y0118854D03*
X0281767Y0144444D03*
X0287007Y0140519D03*
X0292495Y0144523D03*
X0299680Y0144444D03*
X0313854Y0132633D03*
X0328224Y0110783D03*
X0212869Y0089326D03*
X0086885Y0140507D03*
X0086885Y0154287D03*
X0108735Y0220428D03*
X0121728Y0220428D03*
X0125074Y0258814D03*
X0133932Y0258814D03*
X0140035Y0290113D03*
X0110507Y0303893D03*
X0082948Y0317672D03*
X0121728Y0338145D03*
X0172515Y0341688D03*
X0181373Y0341688D03*
X0230586Y0290113D03*
X0251649Y0303302D03*
X0258539Y0303342D03*
X0316846Y0269523D03*
X0328027Y0272200D03*
X0331964Y0260192D03*
X0333539Y0248184D03*
X0345940Y0243657D03*
X0350665Y0274365D03*
X0340822Y0276334D03*
X0323499Y0289129D03*
X0318775Y0285783D03*
X0318775Y0292633D03*
X0319365Y0316098D03*
X0378224Y0319641D03*
X0384129Y0304287D03*
X0408539Y0296609D03*
X0401846Y0274365D03*
X0411255Y0269129D03*
X0413657Y0252712D03*
X0419562Y0246806D03*
X0443184Y0246806D03*
X0463460Y0216885D03*
X0456964Y0186570D03*
X0473893Y0301924D03*
X0456964Y0304287D03*
X0403814Y0341294D03*
X0352633Y0396413D03*
X0366413Y0430468D03*
X0236098Y0412554D03*
X0258145Y0221216D03*
X0267987Y0213342D03*
M02*
