                                                                        S      1
,,15HShell Grip (x2),15HShell Grip (x2),7Hunknown,7Hunknown,32,38,7,99, G      1
15,,1.,2,2HMM,1,0.08,15H20170622.121526,0.01,10000.,7Hunknown,7Hunknown,G      2
11,0,;                                                                  G      3
     186       1                                                00000000D      1
     186             -51       1       0                               0D      2
     514       2                                                00010000D      3
     514                       1       1                               0D      4
     510       3                                                00010000D      5
     510             -51       1       1                               0D      6
     510       4                                                00010000D      7
     510             -51       1       1                               0D      8
     510       5                                                00010000D      9
     510             -51       1       1                               0D     10
     510       6                                                00010000D     11
     510             -51       1       1                               0D     12
     508       7                                                00010000D     13
     508                       1       1                               0D     14
     508       8                                                00010000D     15
     508                       1       1                               0D     16
     508       9                                                00010000D     17
     508                       1       1                               0D     18
     508      10                                                00010000D     19
     508                       1       1                               0D     20
     508      11                                                00010000D     21
     508                       1       1                               0D     22
     508      12                                                00010000D     23
     508                       1       1                               0D     24
     126      13                                                00010000D     25
     126       0              10       0                               0D     26
     126      23                                                00010000D     27
     126       0              10       0                               0D     28
     126      33                                                00010000D     29
     126       0               2       0                               0D     30
     126      35                                                00010000D     31
     126       0              10       0                               0D     32
     126      45                                                00010000D     33
     126       0               2       0                               0D     34
     126      47                                                00010000D     35
     126       0              10       0                               0D     36
     128      57                                                00010000D     37
     128       0     -51       3       0                               0D     38
     128      60                                                00010000D     39
     128       0     -51      12       0                               0D     40
     128      72                                                00010000D     41
     128       0     -51      12       0                               0D     42
     128      84                                                00010000D     43
     128       0     -51       3       0                               0D     44
     502      87                                                00010000D     45
     502                       3       1                               0D     46
     504      90                                                00010001D     47
     504                       2       1                               0D     48
     406      92                                                00000000D     49
     406                       1      15                               0D     50
     314      93                                                00000200D     51
     314                       2       0                               0D     52
     314      95                                                00000200D     53
     314                       2       0                               0D     54
186,3,1,0,0,1,49;                                                      1P      1
514,4,5,1,7,1,9,1,11,1;                                                3P      2
510,37,2,1,13,15;                                                      5P      3
510,39,1,1,17;                                                         7P      4
510,41,1,1,19;                                                         9P      5
510,43,2,1,21,23;                                                     11P      6
508,1,0,47,1,1,0;                                                     13P      7
508,1,0,47,2,1,0;                                                     15P      8
508,4,0,47,2,0,0,0,47,3,1,0,0,47,4,1,0,0,47,3,0,0;                    17P      9
508,4,0,47,1,0,0,0,47,5,1,0,0,47,6,1,0,0,47,5,0,0;                    19P     10
508,1,0,47,6,0,0;                                                     21P     11
508,1,0,47,4,0,0;                                                     23P     12
126,8,2,0,1,0,0,-3.14159265358979,-3.14159265358979,                  25P     13
-3.14159265358979,-1.5707963267949,-1.5707963267949,0.,0.,            25P     14
1.5707963267949,1.5707963267949,3.14159265358979,                     25P     15
3.14159265358979,3.14159265358979,1.,0.707106781186548,1.,            25P     16
0.707106781186548,1.,0.707106781186548,1.,0.707106781186548,1.,       25P     17
-3.75,17.5,4.59242549680257D-16,-3.75,17.5,3.75,                      25P     18
2.29621274840129D-16,17.5,3.75,3.75,17.5,3.75,3.75,17.5,0.,3.75,      25P     19
17.5,-3.75,2.29621274840129D-16,17.5,-3.75,-3.75,17.5,-3.75,          25P     20
-3.75,17.5,-4.59242549680257D-16,-3.14159265358979,                   25P     21
3.14159265358979,0.,0.,0.;                                            25P     22
126,8,2,0,1,0,0,-3.14159265358979,-3.14159265358979,                  27P     23
-3.14159265358979,-1.5707963267949,-1.5707963267949,0.,0.,            27P     24
1.5707963267949,1.5707963267949,3.14159265358979,                     27P     25
3.14159265358979,3.14159265358979,1.,0.707106781186548,1.,            27P     26
0.707106781186547,1.,0.707106781186547,1.,0.707106781186548,1.,       27P     27
-1.75,17.5,-2.14313189850787D-16,-1.75,17.5,-1.75,                    27P     28
1.07156594925393D-16,17.5,-1.75,1.75,17.5,-1.75,1.75,17.5,0.,         27P     29
1.75,17.5,1.75,1.07156594925393D-16,17.5,1.75,-1.75,17.5,1.75,        27P     30
-1.75,17.5,2.14313189850787D-16,-3.14159265358979,                    27P     31
3.14159265358979,0.,0.,0.;                                            27P     32
126,1,1,0,0,1,0,-10.,-10.,0.,0.,1.,1.,-1.75,17.5,0.,-1.75,0.,0.,      29P     33
-10.,0.,0.,0.,0.;                                                     29P     34
126,8,2,0,1,0,0,-3.14159265358979,-3.14159265358979,                  31P     35
-3.14159265358979,-1.5707963267949,-1.5707963267949,0.,0.,            31P     36
1.5707963267949,1.5707963267949,3.14159265358979,                     31P     37
3.14159265358979,3.14159265358979,1.,0.707106781186548,1.,            31P     38
0.707106781186547,1.,0.707106781186547,1.,0.707106781186548,1.,       31P     39
-1.75,0.,-2.14313189850787D-16,-1.75,0.,-1.75,                        31P     40
1.07156594925393D-16,0.,-1.75,1.75,0.,-1.75,1.75,0.,0.,1.75,0.,       31P     41
1.75,1.07156594925393D-16,0.,1.75,-1.75,0.,1.75,-1.75,0.,             31P     42
2.14313189850787D-16,-3.14159265358979,3.14159265358979,0.,0.,        31P     43
0.;                                                                   31P     44
126,1,1,0,0,1,0,-4.66666666666667,-4.66666666666667,0.,0.,1.,1.,      33P     45
-3.75,17.5,0.,-3.75,0.,0.,-4.66666666666667,0.,0.,0.,0.;              33P     46
126,8,2,0,1,0,0,-3.14159265358979,-3.14159265358979,                  35P     47
-3.14159265358979,-1.5707963267949,-1.5707963267949,0.,0.,            35P     48
1.5707963267949,1.5707963267949,3.14159265358979,                     35P     49
3.14159265358979,3.14159265358979,1.,0.707106781186548,1.,            35P     50
0.707106781186548,1.,0.707106781186548,1.,0.707106781186548,1.,       35P     51
-3.75,0.,4.59242549680257D-16,-3.75,0.,3.75,                          35P     52
2.29621274840129D-16,0.,3.75,3.75,0.,3.75,3.75,0.,0.,3.75,0.,         35P     53
-3.75,2.29621274840129D-16,0.,-3.75,-3.75,0.,-3.75,-3.75,0.,          35P     54
-4.59242549680257D-16,-3.14159265358979,3.14159265358979,0.,0.,       35P     55
0.;                                                                   35P     56
128,1,1,1,1,0,0,1,0,0,-0.376,-0.376,0.376,0.376,-0.376,-0.376,        37P     57
0.376,0.376,1.,1.,1.,1.,-3.76,17.5,3.76,3.76,17.5,3.76,-3.76,         37P     58
17.5,-3.76,3.76,17.5,-3.76,-0.376,0.376,-0.376,0.376;                 37P     59
128,1,8,1,2,0,1,0,0,1,0.,0.,10.,10.,-3.14159265358979,                39P     60
-3.14159265358979,-3.14159265358979,-1.5707963267949,                 39P     61
-1.5707963267949,0.,0.,1.5707963267949,1.5707963267949,               39P     62
3.14159265358979,3.14159265358979,3.14159265358979,1.,1.,             39P     63
0.707106781186548,0.707106781186548,1.,1.,0.707106781186548,          39P     64
0.707106781186548,1.,1.,0.707106781186548,0.707106781186548,1.,       39P     65
1.,0.707106781186548,0.707106781186548,1.,1.,-1.75,0.,0.,-1.75,       39P     66
17.5,0.,-1.75,0.,1.75,-1.75,17.5,1.75,0.,0.,1.75,0.,17.5,1.75,        39P     67
1.75,0.,1.75,1.75,17.5,1.75,1.75,0.,0.,1.75,17.5,0.,1.75,0.,          39P     68
-1.75,1.75,17.5,-1.75,0.,0.,-1.75,0.,17.5,-1.75,-1.75,0.,-1.75,       39P     69
-1.75,17.5,-1.75,-1.75,0.,0.,-1.75,17.5,0.,0.,10.,                    39P     70
-3.14159265358979,3.14159265358979;                                   39P     71
128,1,8,1,2,0,1,0,0,1,0.,0.,4.66666666666667,4.66666666666667,        41P     72
-3.14159265358979,-3.14159265358979,-3.14159265358979,                41P     73
-1.5707963267949,-1.5707963267949,0.,0.,1.5707963267949,              41P     74
1.5707963267949,3.14159265358979,3.14159265358979,                    41P     75
3.14159265358979,1.,1.,0.707106781186548,0.707106781186548,1.,        41P     76
1.,0.707106781186548,0.707106781186548,1.,1.,0.707106781186548,       41P     77
0.707106781186548,1.,1.,0.707106781186548,0.707106781186548,1.,       41P     78
1.,-3.75,17.5,0.,-3.75,0.,0.,-3.75,17.5,3.75,-3.75,0.,3.75,0.,        41P     79
17.5,3.75,0.,0.,3.75,3.75,17.5,3.75,3.75,0.,3.75,3.75,17.5,0.,        41P     80
3.75,0.,0.,3.75,17.5,-3.75,3.75,0.,-3.75,0.,17.5,-3.75,0.,0.,         41P     81
-3.75,-3.75,17.5,-3.75,-3.75,0.,-3.75,-3.75,17.5,0.,-3.75,0.,0.,      41P     82
0.,4.66666666666667,-3.14159265358979,3.14159265358979;               41P     83
128,1,1,1,1,0,0,1,0,0,-0.376,-0.376,0.376,0.376,-0.376,-0.376,        43P     84
0.376,0.376,1.,1.,1.,1.,3.76,0.,3.76,-3.76,0.,3.76,3.76,0.,           43P     85
-3.76,-3.76,0.,-3.76,-0.376,0.376,-0.376,0.376;                       43P     86
502,4,-3.75,17.5,4.59242549680257D-16,-1.75,17.5,                     45P     87
2.14313189850787D-16,-1.75,0.,2.14313189850787D-16,-3.75,0.,          45P     88
4.59242549680257D-16;                                                 45P     89
504,6,25,45,1,45,1,27,45,2,45,2,29,45,2,45,3,31,45,3,45,3,33,45,      47P     90
1,45,4,35,45,4,45,4;                                                  47P     91
406,1,5HBody1;                                                        49P     92
314,9.80392156862745,9.80392156862745,9.80392156862745,24HPlasti      51P     93
c - Glossy (Black);                                                   51P     94
314,62.7450980392157,62.7450980392157,62.7450980392157,13HSteel       53P     95
- Satin;                                                              53P     96
S      1G      3D     54P     96                                        T      1
