%
M48
M72
T01C0.0157
T02C0.0236
T03C0.0276
T04C0.0350
T05C0.0354
T06C0.0394
T07C0.0400
T08C0.0472
T09C0.0551
T10C0.0630
T11C0.0945
T12C0.1339
T13C0.1378
%
T01
X9017Y19313
X11655Y19450
X11655Y18820
X14490Y20080
X12391Y22702
X16301Y23978
X19029Y24222
X20041Y21616
X21515Y21698
X21813Y21419
X21655Y22128
X22242Y22710
X21856Y23895
X24175Y24175
X25533Y24635
X24765Y22797
X27679Y22679
X28427Y21025
X26143Y20041
X25553Y20041
X23191Y19135
X21734Y18939
X21419Y19254
X20159Y19450
X19883Y18860
X19647Y18348
X21466Y18167
X19450Y16498
X17679Y16498
X17285Y15907
X16891Y15907
X21419Y11773
X26931Y12561
X26931Y13112
X28506Y12954
X29096Y12954
X31899Y19419
X32675Y20458
X34214Y19844
X35592Y19844
X37954Y19254
X36498Y17206
X32698Y22324
X34214Y23781
X33427Y24569
X17876Y21576
X19057Y20395
X27718Y25061
X37954Y22994
X28899Y17876
X9899Y28687
T02
X12391Y22206
X19254Y20002
X21616Y16537
X22009Y14135
X24033Y13746
X40317Y21025
X38466Y24017
T03
X17880Y26175
X18380Y26175
X18880Y26175
X19380Y26175
X28179Y26175
X28679Y26175
X29179Y26175
X29679Y26175
X19376Y15868
X18876Y15868
X18376Y15868
X17876Y15868
X29679Y15876
X29179Y15876
X28679Y15876
X28179Y15876
T04
X20789Y19347
X20389Y17347
X21189Y17347
T05
X42009Y20533
X42009Y21533
T06
X16025Y26340
X22797Y25946
X23781Y25946
X24765Y25946
X22305Y12108
X23781Y13092
X25257Y12108
X23781Y11124
X35891Y18313
X38694Y18340
T07
X13923Y4631
X14630Y5339
X15337Y6046
X24852Y15585
X25852Y15685
X26852Y15585
X26671Y17285
X26671Y18285
X23852Y15685
X22600Y15621
X21600Y15721
X20600Y15621
X15238Y21025
X15345Y36032
X14638Y36739
X13931Y37446
X33667Y4596
X32960Y5303
X32253Y6010
X33655Y37446
X32948Y36739
X32241Y36032
T08
X16054Y6743
X16761Y7450
X17469Y8158
X18176Y8865
X18883Y9572
X19590Y10279
X28008Y10251
X28715Y9544
X29422Y8837
X30129Y8130
X30836Y7423
X31543Y6716
X19590Y31787
X18883Y32494
X18176Y33202
X17469Y33909
X16761Y34616
X16054Y35323
X27980Y31815
X28687Y32522
X29394Y33229
X30102Y33936
X30809Y34643
X31516Y35350
T09
X9545Y21013
X37978Y21009
T10
X9545Y17864
T11
X9285Y6537
X9071Y26020
X8750Y27842
X8428Y29664
X9293Y35517
X16943Y27856
X16946Y14191
X30616Y14191
X38273Y6537
X30616Y27860
X38269Y35517
T12
X23781Y34805
X23781Y7246
T13
X12895Y24163
X34628Y17864
M30
