                                                                        S      1
,,13HEye Base (x2),13HEye Base (x2),7Hunknown,7Hunknown,32,38,7,99,15,, G      1
1.,2,2HMM,1,0.08,15H20170708.092719,0.01,10000.,7Hunknown,7Hunknown,11, G      2
0,;                                                                     G      3
     186       1                                                00000000D      1
     186            -119       1       0                               0D      2
     514       2                                                00010000D      3
     514                       1       1                               0D      4
     510       3                                                00010000D      5
     510            -119       1       1                               0D      6
     510       4                                                00010000D      7
     510            -119       1       1                               0D      8
     510       5                                                00010000D      9
     510            -119       1       1                               0D     10
     510       6                                                00010000D     11
     510            -119       1       1                               0D     12
     510       7                                                00010000D     13
     510            -119       1       1                               0D     14
     510       8                                                00010000D     15
     510            -119       1       1                               0D     16
     510       9                                                00010000D     17
     510            -119       1       1                               0D     18
     510      10                                                00010000D     19
     510            -119       1       1                               0D     20
     510      11                                                00010000D     21
     510            -119       1       1                               0D     22
     510      12                                                00010000D     23
     510            -119       1       1                               0D     24
     510      13                                                00010000D     25
     510            -119       1       1                               0D     26
     508      14                                                00010000D     27
     508                       1       1                               0D     28
     508      15                                                00010000D     29
     508                       1       1                               0D     30
     508      16                                                00010000D     31
     508                       1       1                               0D     32
     508      17                                                00010000D     33
     508                       1       1                               0D     34
     508      18                                                00010000D     35
     508                       1       1                               0D     36
     508      19                                                00010000D     37
     508                       1       1                               0D     38
     508      20                                                00010000D     39
     508                       1       1                               0D     40
     508      21                                                00010000D     41
     508                       1       1                               0D     42
     508      22                                                00010000D     43
     508                       1       1                               0D     44
     508      23                                                00010000D     45
     508                       1       1                               0D     46
     508      24                                                00010000D     47
     508                       1       1                               0D     48
     508      25                                                00010000D     49
     508                       1       1                               0D     50
     508      26                                                00010000D     51
     508                       1       1                               0D     52
     508      27                                                00010000D     53
     508                       1       1                               0D     54
     126      28                                                00010000D     55
     126       0              15       0                               0D     56
     126      43                                                00010000D     57
     126       0               5       0                               0D     58
     126      48                                                00010000D     59
     126       0              15       0                               0D     60
     126      63                                                00010000D     61
     126       0              10       0                               0D     62
     126      73                                                00010000D     63
     126       0               3       0                               0D     64
     126      76                                                00010000D     65
     126       0              10       0                               0D     66
     126      86                                                00010000D     67
     126       0               4       0                               0D     68
     126      90                                                00010000D     69
     126       0              15       0                               0D     70
     126     105                                                00010000D     71
     126       0               5       0                               0D     72
     126     110                                                00010000D     73
     126       0              16       0                               0D     74
     126     126                                                00010000D     75
     126       0              10       0                               0D     76
     126     136                                                00010000D     77
     126       0               5       0                               0D     78
     126     141                                                00010000D     79
     126       0               4       0                               0D     80
     126     145                                                00010000D     81
     126       0               4       0                               0D     82
     126     149                                                00010000D     83
     126       0               3       0                               0D     84
     126     152                                                00010000D     85
     126       0               5       0                               0D     86
     126     157                                                00010000D     87
     126       0               3       0                               0D     88
     126     160                                                00010000D     89
     126       0              10       0                               0D     90
     128     170                                                00010000D     91
     128       0    -119      28       0                               0D     92
     128     198                                                00010000D     93
     128       0    -119      17       0                               0D     94
     128     215                                                00010000D     95
     128       0    -119       7       0                               0D     96
     128     222                                                00010000D     97
     128       0    -119       6       0                               0D     98
     128     228                                                00010000D     99
     128       0    -119      26       0                               0D    100
     128     254                                                00010000D    101
     128       0    -119       9       0                               0D    102
     128     263                                                00010000D    103
     128       0    -119       8       0                               0D    104
     128     271                                                00010000D    105
     128       0    -119       9       0                               0D    106
     128     280                                                00010000D    107
     128       0    -119      17       0                               0D    108
     128     297                                                00010000D    109
     128       0    -119       8       0                               0D    110
     128     305                                                00010000D    111
     128       0    -119       7       0                               0D    112
     502     312                                                00010000D    113
     502                      12       1                               0D    114
     504     324                                                00010001D    115
     504                       5       1                               0D    116
     406     329                                                00000000D    117
     406                       1      15                               0D    118
     314     330                                                00000200D    119
     314                       2       0                               0D    120
186,3,1,0,0,1,117;                                                     1P      1
514,11,5,1,7,1,9,1,11,1,13,1,15,1,17,1,19,1,21,1,23,1,25,1;            3P      2
510,91,1,1,27;                                                         5P      3
510,93,1,1,29;                                                         7P      4
510,95,1,1,31;                                                         9P      5
510,97,4,1,33,35,37,39;                                               11P      6
510,99,1,1,41;                                                        13P      7
510,101,1,1,43;                                                       15P      8
510,103,1,1,45;                                                       17P      9
510,105,1,1,47;                                                       19P     10
510,107,1,1,49;                                                       21P     11
510,109,1,1,51;                                                       23P     12
510,111,1,1,53;                                                       25P     13
508,4,0,115,1,0,0,0,115,2,1,0,0,115,3,0,0,0,115,2,0,0;                27P     14
508,4,0,115,4,1,0,0,115,5,1,0,0,115,6,0,0,0,115,7,0,0;                29P     15
508,1,0,115,8,1,0;                                                    31P     16
508,1,0,115,1,1,0;                                                    33P     17
508,2,0,115,9,0,0,0,115,4,0,0;                                        35P     18
508,1,0,115,10,0,0;                                                   37P     19
508,2,0,115,11,0,0,0,115,12,0,0;                                      39P     20
508,4,0,115,8,0,0,0,115,13,1,0,0,115,10,1,0,0,115,13,0,0;             41P     21
508,4,0,115,9,1,0,0,115,7,1,0,0,115,14,0,0,0,115,5,0,0;               43P     22
508,2,0,115,14,1,0,0,115,6,1,0;                                       45P     23
508,4,0,115,12,1,0,0,115,15,1,0,0,115,16,0,0,0,115,17,0,0;            47P     24
508,4,0,115,11,1,0,0,115,17,1,0,0,115,18,0,0,0,115,15,0,0;            49P     25
508,2,0,115,16,1,0,0,115,18,1,0;                                      51P     26
508,1,0,115,3,1,0;                                                    53P     27
126,8,2,0,1,0,0,-3.14159265358979,-3.14159265358979,                  55P     28
-3.14159265358979,-1.5707963267949,-1.5707963267949,0.,0.,            55P     29
1.5707963267949,1.5707963267949,3.14159265358979,                     55P     30
3.14159265358979,3.14159265358979,1.,0.707106781186549,1.,            55P     31
0.707106781186549,1.,0.707106781186548,1.,0.707106781186548,1.,       55P     32
-47.5429581499577,41.6226866329944,-11.3864247953076,                 55P     33
-35.7797890071362,49.2587752840667,-7.2380965982703,                  55P     34
-30.9158175489091,49.2587752840667,-21.0305730493487,                 55P     35
-26.0518460906821,49.2587752840667,-34.8230495004271,                 55P     36
-37.8150152335036,41.6226866329944,-38.9713776974644,                 55P     37
-49.5781843763252,33.9865979819221,-43.1197058945017,                 55P     38
-54.4421558345523,33.9865979819221,-29.3272294434233,                 55P     39
-59.3061272927793,33.9865979819221,-15.5347529923449,                 55P     40
-47.5429581499577,41.6226866329944,-11.3864247953076,                 55P     41
-3.14159265358979,3.14159265358979,0.,0.,0.;                          55P     42
126,1,1,0,0,1,0,-0.170940170940173,-0.170940170940173,                57P     43
1.26575510972055D-15,1.26575510972055D-15,1.,1.,                      57P     44
-47.5429581499578,41.6226866329944,-11.3864247953076,                 57P     45
-46.3119484586931,39.490515303113,-10.9523043511401,                  57P     46
-0.170940170940173,1.26575510972055D-15,0.,0.,0.;                     57P     47
126,8,2,0,1,0,0,-3.14159265358979,-3.14159265358979,                  59P     48
-3.14159265358979,-1.5707963267949,-1.5707963267949,0.,0.,            59P     49
1.5707963267949,1.5707963267949,3.14159265358979,                     59P     50
3.14159265358979,3.14159265358979,1.,0.707106781186546,1.,            59P     51
0.707106781186548,1.,0.707106781186547,1.,0.707106781186548,1.,       59P     52
-46.3119484586931,39.490515303113,-10.9523043511401,                  59P     53
-58.0751176015147,31.8544266520407,-15.1006325481774,                 59P     54
-53.2111461432876,31.8544266520407,-28.8931089992558,                 59P     55
-48.3471746850606,31.8544266520407,-42.6855854503342,                 59P     56
-36.584005542239,39.490515303113,-38.5372572532969,                   59P     57
-24.8208363994174,47.1266039541853,-34.3889290562596,                 59P     58
-29.6848078576444,47.1266039541853,-20.5964526051812,                 59P     59
-34.5487793158715,47.1266039541853,-6.80397615410278,                 59P     60
-46.3119484586931,39.490515303113,-10.9523043511401,                  59P     61
-3.14159265358979,3.14159265358979,0.,0.,0.;                          59P     62
126,4,2,0,0,0,0,-2.55716258024823,-2.55716258024823,                  61P     63
-2.55716258024823,-1.5707963267949,-1.5707963267949,                  61P     64
-0.584430073341558,-0.584430073341558,-0.584430073341558,1.,          61P     65
0.880830329272058,1.,0.880830329272056,1.,-45.0915313602901,          61P     66
37.4456808751429,-38.8530465988781,-51.7496543188672,                 61P     67
34.0518636968885,-36.6416460205245,-54.3416159273487,                 61P     68
34.0518636968885,-29.2917736468674,-56.9335775358301,                 61P     69
34.0518636968885,-21.9419012732104,-53.1355501452325,                 61P     70
37.4456808751429,-16.0430978530458,-2.55716258024823,                 61P     71
-0.584430073341558,0.,0.,0.;                                          61P     72
126,1,1,0,0,1,0,0.25,0.25,0.6,0.6,1.,1.,-53.1355501452325,            63P     73
37.4456808751429,-16.0430978530458,-54.858963713003,                  63P     74
40.4307207369769,-16.6508664748803,0.25,0.6,0.,0.,0.;                 63P     75
126,4,2,0,0,0,0,-2.55716258024823,-2.55716258024823,                  65P     76
-2.55716258024823,-1.5707963267949,-1.5707963267949,                  65P     77
-0.584430073341559,-0.584430073341559,-0.584430073341559,1.,          65P     78
0.880830329272059,1.,0.880830329272052,1.,-46.8149449280606,          65P     79
40.4307207369769,-39.4608152207126,-53.4730678866378,                 65P     80
37.0369035587225,-37.249414642359,-56.0650294951192,                  65P     81
37.0369035587225,-29.8995422687019,-58.6569911036006,                 65P     82
37.0369035587225,-22.5496698950449,-54.858963713003,                  65P     83
40.4307207369769,-16.6508664748803,-2.55716258024823,                 65P     84
-0.584430073341559,0.,0.,0.;                                          65P     85
126,1,1,0,0,1,0,0.249999999999999,0.249999999999999,0.6,0.6,1.,       67P     86
1.,-45.0915313602901,37.4456808751429,-38.8530465988781,              67P     87
-46.8149449280606,40.4307207369769,-39.4608152207126,                 67P     88
0.249999999999999,0.6,0.,0.,0.;                                       67P     89
126,8,2,0,1,0,0,-3.14159265358979,-3.14159265358979,                  69P     90
-3.14159265358979,-1.5707963267949,-1.5707963267949,0.,0.,            69P     91
1.5707963267949,1.5707963267949,3.14159265358979,                     69P     92
3.14159265358979,3.14159265358979,1.,0.707106781186549,1.,            69P     93
0.707106781186552,1.,0.70710678118655,1.,0.707106781186552,1.,        69P     94
-44.2167156639839,47.1663320906861,-31.0229909656928,                 69P     95
-48.238311952128,44.5557034920289,-32.4412228279278,                  69P     96
-49.9012081771629,44.5557034920289,-27.7258462634565,                 69P     97
-51.5641044021978,44.5557034920289,-23.0104696989853,                 69P     98
-47.5425081140537,47.1663320906861,-21.5922378367503,                 69P     99
-43.5209118259096,49.7769606893433,-20.1740059745153,                 69P    100
-41.8580156008747,49.7769606893433,-24.8893825389866,                 69P    101
-40.1951193758398,49.7769606893433,-29.6047591034578,                 69P    102
-44.2167156639839,47.1663320906861,-31.0229909656928,                 69P    103
-3.14159265358979,3.14159265358979,0.,0.,0.;                          69P    104
126,1,1,0,0,1,0,-0.604669331122392,-0.604669331122392,                71P    105
1.81400799336717,1.81400799336717,1.,1.,-53.1355501452325,            71P    106
37.4456808751429,-16.0430978530458,-45.0915313602901,                 71P    107
37.4456808751429,-38.8530465988781,-0.604669331122392,                71P    108
1.81400799336717,0.,0.,0.;                                            71P    109
126,8,2,0,1,0,0,-3.14159265358979,-3.14159265358979,                  73P    110
-3.14159265358979,-1.5707963267949,-1.5707963267949,                  73P    111
4.44089209850063D-16,4.44089209850063D-16,1.5707963267949,            73P    112
1.5707963267949,3.14159265358979,3.14159265358979,                    73P    113
3.14159265358979,1.,0.707106781186548,1.,0.707106781186551,1.,        73P    114
0.707106781186548,1.,0.707106781186548,1.,-41.0160904666958,          73P    115
41.6226866329944,-29.8942778108573,-45.0376867548399,                 73P    116
39.0120580343372,-31.3125096730922,-46.7005829798748,                 73P    117
39.0120580343372,-26.597133108621,-48.3634792049097,                  73P    118
39.0120580343372,-21.8817565441497,-44.3418829167656,                 73P    119
41.6226866329944,-20.4635246819147,-40.3202866286214,                 73P    120
44.2333152316516,-19.0452928196798,-38.6573904035865,                 73P    121
44.2333152316516,-23.760669384151,-36.9944941785516,                  73P    122
44.2333152316516,-28.4760459486223,-41.0160904666958,                 73P    123
41.6226866329944,-29.8942778108573,-3.14159265358979,                 73P    124
3.14159265358979,0.,0.,0.;                                            73P    125
126,4,2,0,0,0,0,0.584430073341558,0.584430073341558,                  75P    126
0.584430073341558,1.5707963267949,1.5707963267949,                    75P    127
2.55716258024823,2.55716258024823,2.55716258024823,1.,                75P    128
0.880830329272052,1.,0.880830329272053,1.,-40.2664420231713,          75P    129
45.7996923908459,-11.5047558938939,-33.6083190645941,                 75P    130
49.1935095691003,-13.7161564722475,-31.0163574561127,                 75P    131
49.1935095691003,-21.0660288459046,-28.4243958476313,                 75P    132
49.1935095691003,-28.4159012195616,-32.2224232382289,                 75P    133
45.7996923908459,-34.3147046397262,0.584430073341558,                 75P    134
2.55716258024823,0.,0.,0.;                                            75P    135
126,1,1,0,0,1,0,-0.60466933112239,-0.60466933112239,                  77P    136
1.81400799336717,1.81400799336717,1.,1.,-32.2224232382289,            77P    137
45.7996923908459,-34.3147046397262,-40.2664420231713,                 77P    138
45.7996923908459,-11.5047558938939,-0.60466933112239,                 77P    139
1.81400799336717,0.,0.,0.;                                            77P    140
126,1,1,0,0,1,0,-1.8,-1.8,-0.499999999999997,-0.499999999999997,      79P    141
1.,1.,-44.2167156639839,47.1663320906861,-31.0229909656928,           79P    142
-41.0160904666958,41.6226866329944,-29.8942778108572,-1.8,            79P    143
-0.499999999999997,0.,0.,0.;                                          79P    144
126,1,1,0,0,1,0,0.,0.,2.41867732448957,2.41867732448957,1.,1.,        81P    145
-54.858963713003,40.4307207369769,-16.6508664748803,                  81P    146
-46.8149449280606,40.4307207369769,-39.4608152207126,0.,              81P    147
2.41867732448957,0.,0.,0.;                                            81P    148
126,1,1,0,0,1,0,0.25,0.25,0.6,0.6,1.,1.,-40.2664420231713,            83P    149
45.7996923908459,-11.5047558938939,-41.9898555909418,                 83P    150
48.7847322526799,-12.1125245157284,0.25,0.6,0.,0.,0.;                 83P    151
126,1,1,0,0,1,0,-1.20933866224478,-1.20933866224478,                  85P    152
1.20933866224478,1.20933866224478,1.,1.,-33.9458368059994,            85P    153
48.7847322526799,-34.9224732615607,-41.9898555909418,                 85P    154
48.7847322526799,-12.1125245157284,-1.20933866224478,                 85P    155
1.20933866224478,0.,0.,0.;                                            85P    156
126,1,1,0,0,1,0,0.25,0.25,0.6,0.6,1.,1.,-32.2224232382289,            87P    157
45.7996923908459,-34.3147046397262,-33.9458368059994,                 87P    158
48.7847322526799,-34.9224732615607,0.25,0.6,0.,0.,0.;                 87P    159
126,4,2,0,0,0,0,0.584430073341558,0.584430073341558,                  89P    160
0.584430073341558,1.5707963267949,1.5707963267949,                    89P    161
2.55716258024823,2.55716258024823,2.55716258024823,1.,                89P    162
0.880830329272054,1.,0.880830329272057,1.,-41.9898555909418,          89P    163
48.7847322526799,-12.1125245157284,-35.3317326323646,                 89P    164
52.1785494309343,-14.323925094082,-32.7397710238832,                  89P    165
52.1785494309343,-21.6737974677391,-30.1478094154018,                 89P    166
52.1785494309343,-29.0236698413962,-33.9458368059994,                 89P    167
48.7847322526799,-34.9224732615607,0.584430073341558,                 89P    168
2.55716258024823,0.,0.,0.;                                            89P    169
128,1,8,1,2,0,1,0,0,1,-1.26575510972055D-15,                          91P    170
-1.26575510972055D-15,0.170940170940173,0.170940170940173,            91P    171
-3.14159265358979,-3.14159265358979,-3.14159265358979,                91P    172
-1.5707963267949,-1.5707963267949,0.,0.,1.5707963267949,              91P    173
1.5707963267949,3.14159265358979,3.14159265358979,                    91P    174
3.14159265358979,1.,1.,0.707106781186548,0.707106781186548,1.,        91P    175
1.,0.707106781186548,0.707106781186548,1.,1.,0.707106781186548,       91P    176
0.707106781186548,1.,1.,0.707106781186548,0.707106781186548,1.,       91P    177
1.,-47.5429581499578,41.6226866329944,-11.3864247953076,              91P    178
-46.3119484586931,39.490515303113,-10.9523043511401,                  91P    179
-35.7797890071362,49.2587752840667,-7.2380965982703,                  91P    180
-34.5487793158715,47.1266039541853,-6.80397615410278,                 91P    181
-30.9158175489091,49.2587752840668,-21.0305730493487,                 91P    182
-29.6848078576444,47.1266039541853,-20.5964526051812,                 91P    183
-26.0518460906821,49.2587752840668,-34.8230495004271,                 91P    184
-24.8208363994174,47.1266039541853,-34.3889290562596,                 91P    185
-37.8150152335037,41.6226866329944,-38.9713776974644,                 91P    186
-36.584005542239,39.490515303113,-38.5372572532969,                   91P    187
-49.5781843763252,33.9865979819221,-43.1197058945017,                 91P    188
-48.3471746850606,31.8544266520407,-42.6855854503342,                 91P    189
-54.4421558345523,33.9865979819221,-29.3272294434233,                 91P    190
-53.2111461432876,31.8544266520407,-28.8931089992558,                 91P    191
-59.3061272927793,33.9865979819221,-15.5347529923449,                 91P    192
-58.0751176015146,31.8544266520407,-15.1006325481773,                 91P    193
-47.5429581499578,41.6226866329944,-11.3864247953076,                 91P    194
-46.3119484586931,39.490515303113,-10.9523043511401,                  91P    195
-1.26575510972055D-15,0.170940170940173,-3.14159265358979,            91P    196
3.14159265358979;                                                     91P    197
128,1,4,1,2,0,0,0,0,0,0.172413793103448,0.172413793103448,            93P    198
0.413793103448277,0.413793103448277,-2.55716258024824,                93P    199
-2.55716258024824,-2.55716258024824,-1.5707963267949,                 93P    200
-1.5707963267949,-0.584430073341558,-0.584430073341558,               93P    201
-0.584430073341558,1.,1.,0.880830329272055,0.880830329272055,1.,      93P    202
1.,0.880830329272055,0.880830329272055,1.,1.,-46.8149449280606,       93P    203
40.4307207369769,-39.4608152207126,-45.0915313602901,                 93P    204
37.4456808751429,-38.8530465988781,-53.4730678866378,                 93P    205
37.0369035587225,-37.249414642359,-51.7496543188672,                  93P    206
34.0518636968885,-36.6416460205245,-56.0650294951192,                 93P    207
37.0369035587225,-29.8995422687019,-54.3416159273487,                 93P    208
34.0518636968885,-29.2917736468674,-58.6569911036006,                 93P    209
37.0369035587225,-22.5496698950449,-56.9335775358301,                 93P    210
34.0518636968885,-21.9419012732104,-54.858963713003,                  93P    211
40.4307207369769,-16.6508664748803,-53.1355501452325,                 93P    212
37.4456808751429,-16.0430978530458,0.172413793103448,                 93P    213
0.413793103448277,-2.55716258024824,-0.584430073341558;               93P    214
128,1,1,1,1,0,0,1,0,0,-0.501,-0.501,0.501000000000001,                95P    215
0.501000000000001,-0.501,-0.501,0.501,0.501,1.,1.,1.,1.,              95P    216
-48.2430293522543,44.5504822348316,-32.4534900447812,                 95P    217
-51.5754733872242,44.5504822348316,-23.0038754095808,                 95P    218
-40.1837503908134,49.7821819465406,-29.6113533928623,                 95P    219
-43.5161944257833,49.7821819465406,-20.1617387576619,-0.501,          95P    220
0.501000000000001,-0.501,0.501;                                       95P    221
128,1,1,1,1,0,0,1,0,0,-1.4635,-1.4635,1.4635,1.4635,-1.4635,          97P    222
-1.4635,1.4635,1.4635,1.,1.,1.,1.,-49.5829017764514,                  97P    223
33.9813767247248,-43.1319731113551,-59.3174962778057,                 97P    224
33.9813767247248,-15.5281587029404,-26.0404771056557,                 97P    225
49.263996541264,-34.8296437898316,-35.7750716070099,                  97P    226
49.263996541264,-7.22582938141689,-1.4635,1.4635,-1.4635,1.4635;      97P    227
128,1,8,1,2,0,1,0,0,1,0.499999999999997,0.499999999999997,1.8,        99P    228
1.8,-3.14159265358979,-3.14159265358979,-3.14159265358979,            99P    229
-1.5707963267949,-1.5707963267949,0.,0.,1.5707963267949,              99P    230
1.5707963267949,3.14159265358979,3.14159265358979,                    99P    231
3.14159265358979,1.,1.,0.707106781186548,0.707106781186548,1.,        99P    232
1.,0.707106781186548,0.707106781186548,1.,1.,0.707106781186548,       99P    233
0.707106781186548,1.,1.,0.707106781186548,0.707106781186548,1.,       99P    234
1.,-44.2167156639839,47.1663320906861,-31.0229909656928,              99P    235
-41.0160904666958,41.6226866329944,-29.8942778108572,                 99P    236
-48.238311952128,44.5557034920289,-32.4412228279278,                  99P    237
-45.0376867548399,39.0120580343372,-31.3125096730922,                 99P    238
-49.9012081771629,44.5557034920289,-27.7258462634565,                 99P    239
-46.7005829798748,39.0120580343372,-26.597133108621,                  99P    240
-51.5641044021978,44.5557034920289,-23.0104696989853,                 99P    241
-48.3634792049097,39.0120580343372,-21.8817565441497,                 99P    242
-47.5425081140537,47.1663320906861,-21.5922378367503,                 99P    243
-44.3418829167656,41.6226866329944,-20.4635246819147,                 99P    244
-43.5209118259095,49.7769606893433,-20.1740059745153,                 99P    245
-40.3202866286214,44.2333152316516,-19.0452928196798,                 99P    246
-41.8580156008747,49.7769606893433,-24.8893825389866,                 99P    247
-38.6573904035865,44.2333152316516,-23.760669384151,                  99P    248
-40.1951193758398,49.7769606893433,-29.6047591034578,                 99P    249
-36.9944941785516,44.2333152316516,-28.4760459486223,                 99P    250
-44.2167156639839,47.1663320906861,-31.0229909656928,                 99P    251
-41.0160904666958,41.6226866329944,-29.8942778108572,                 99P    252
0.499999999999997,1.8,-3.14159265358979,3.14159265358979;             99P    253
128,1,1,1,1,0,0,1,0,0,-0.00100000000000112,-0.00100000000000112,     101P    254
2.41967732448957,2.41967732448957,0.248999999999999,                 101P    255
0.248999999999999,0.601000000000001,0.601000000000001,1.,1.,1.,      101P    256
1.,-53.1339518989175,37.4371521898234,-16.0319306181402,             101P    257
-45.083281529075,37.4371521898234,-38.8607408702304,                 101P    258
-54.8672135442181,40.4392494222964,-16.6431722035281,                101P    259
-46.8165431743756,40.4392494222964,-39.4719824556182,                101P    260
-0.00100000000000112,2.41967732448957,0.248999999999999,             101P    261
0.601000000000001;                                                   101P    262
128,1,1,1,1,0,0,1,0,0,-1.21033866224478,-1.21033866224478,           103P    263
1.21033866224478,1.21033866224478,-0.326000000000001,                103P    264
-0.326000000000001,0.326,0.326,1.,1.,1.,1.,-52.0477375027742,        103P    265
37.0316823015252,-41.3167838584715,-60.0984078726167,                103P    266
37.0316823015252,-18.4879736063813,-46.8035759430343,                103P    267
40.4359419941742,-39.4674095101171,-54.8542463128768,                103P    268
40.4359419941742,-16.6385992580269,-1.21033866224478,                103P    269
1.21033866224478,-0.326000000000001,0.326;                           103P    270
128,1,1,1,1,0,0,1,0,0,-0.00100000000000089,-0.00100000000000089,     105P    271
2.41967732448956,2.41967732448956,0.248999999999999,                 105P    272
0.248999999999999,0.601000000000001,0.601000000000001,1.,1.,1.,      105P    273
1.,-32.2141734070137,45.7911637055264,-34.3223989110784,             105P    274
-40.2648437768563,45.7911637055264,-11.4935886589883,                105P    275
-33.9474350523144,48.7932609379994,-34.9336404964663,                105P    276
-41.9981054221569,48.7932609379994,-12.1048302443762,                105P    277
-0.00100000000000089,2.41967732448956,0.248999999999999,             105P    278
0.601000000000001;                                                   105P    279
128,1,4,1,2,0,0,0,0,0,0.172413793103448,0.172413793103448,           107P    280
0.413793103448277,0.413793103448277,0.584430073341558,               107P    281
0.584430073341558,0.584430073341558,1.5707963267949,                 107P    282
1.5707963267949,2.55716258024824,2.55716258024824,                   107P    283
2.55716258024824,1.,1.,0.880830329272055,0.880830329272055,1.,       107P    284
1.,0.880830329272055,0.880830329272055,1.,1.,-41.9898555909418,      107P    285
48.7847322526799,-12.1125245157284,-40.2664420231713,                107P    286
45.7996923908459,-11.5047558938939,-35.3317326323646,                107P    287
52.1785494309343,-14.323925094082,-33.6083190645941,                 107P    288
49.1935095691003,-13.7161564722475,-32.7397710238832,                107P    289
52.1785494309343,-21.6737974677391,-31.0163574561127,                107P    290
49.1935095691003,-21.0660288459046,-30.1478094154018,                107P    291
52.1785494309343,-29.0236698413962,-28.4243958476313,                107P    292
49.1935095691003,-28.4159012195616,-33.9458368059994,                107P    293
48.7847322526799,-34.9224732615607,-32.2224232382289,                107P    294
45.7996923908459,-34.3147046397262,0.172413793103448,                107P    295
0.413793103448277,0.584430073341558,2.55716258024824;                107P    296
128,1,1,1,1,0,0,1,0,0,-1.21033866224478,-1.21033866224478,           109P    297
1.21033866224478,1.21033866224478,-0.326,-0.326,                     109P    298
0.326000000000001,0.326000000000001,1.,1.,1.,1.,                     109P    299
-33.9505542061256,48.7795109954826,-34.9347404784141,                109P    300
-42.0012245759681,48.7795109954826,-12.105930226324,                 109P    301
-28.7063926463857,52.1837706881316,-33.0853661300597,                109P    302
-36.7570630162282,52.1837706881316,-10.2565558779696,                109P    303
-1.21033866224478,1.21033866224478,-0.326,0.326000000000001;         109P    304
128,1,1,1,1,0,0,1,0,0,-1.4635,-1.4635,1.4635,1.4635,-2.5885,         111P    305
-2.5885,0.338500000000001,0.338500000000001,1.,1.,1.,1.,             111P    306
-58.086486586541,31.8492053948434,-15.0940382587729,                 111P    307
-48.3518920851868,31.8492053948434,-42.6978526671876,                111P    308
-34.5440619157453,47.1318252113826,-6.79170893724935,                111P    309
-24.809467414391,47.1318252113826,-34.3955233456641,-1.4635,         111P    310
1.4635,-2.5885,0.338500000000001;                                    111P    311
502,12,-47.5429581499577,41.6226866329944,-11.3864247953076,         113P    312
-46.3119484586931,39.490515303113,-10.9523043511401,                 113P    313
-45.0915313602901,37.4456808751429,-38.8530465988781,                113P    314
-53.1355501452325,37.4456808751429,-16.0430978530458,                113P    315
-54.858963713003,40.4307207369769,-16.6508664748803,                 113P    316
-46.8149449280606,40.4307207369769,-39.4608152207126,                113P    317
-44.2167156639839,47.1663320906861,-31.0229909656928,                113P    318
-41.0160904666958,41.6226866329944,-29.8942778108572,                113P    319
-40.2664420231713,45.7996923908459,-11.5047558938939,                113P    320
-32.2224232382289,45.7996923908459,-34.3147046397262,                113P    321
-41.9898555909418,48.7847322526799,-12.1125245157284,                113P    322
-33.9458368059994,48.7847322526799,-34.9224732615607;                113P    323
504,18,55,113,1,113,1,57,113,1,113,2,59,113,2,113,2,61,113,3,        115P    324
113,4,63,113,4,113,5,65,113,6,113,5,67,113,3,113,6,69,113,7,113,     115P    325
7,71,113,4,113,3,73,113,8,113,8,75,113,9,113,10,77,113,10,113,9,     115P    326
79,113,7,113,8,81,113,5,113,6,83,113,9,113,11,85,113,12,113,11,      115P    327
87,113,10,113,12,89,113,11,113,12;                                   115P    328
406,1,5HBody1;                                                       117P    329
314,62.7450980392157,62.7450980392157,62.7450980392157,13HSteel      119P    330
- Satin;                                                             119P    331
S      1G      3D    120P    331                                        T      1
